<svg width="17" height="17" viewBox="0 0 17 17" fill="none" xmlns="http://www.w3.org/2000/svg">
<g clip-path="url(#clip0_1326_15569)">
<path d="M8.89648 1.86239C11.0325 1.86239 11.2855 1.87139 12.1295 1.90939C12.6367 1.91548 13.139 2.00885 13.6145 2.18539C13.9623 2.31386 14.2767 2.51893 14.5345 2.78539C14.8009 3.04318 15.006 3.35761 15.1345 3.70539C15.311 4.18088 15.4044 4.68322 15.4105 5.19039C15.4485 6.03439 15.4575 6.29039 15.4575 8.42339C15.4575 10.5564 15.4485 10.8124 15.4105 11.6564C15.4044 12.1636 15.311 12.6659 15.1345 13.1414C15.0017 13.4865 14.798 13.7999 14.5365 14.0614C14.275 14.3229 13.9616 14.5266 13.6165 14.6594C13.141 14.8359 12.6387 14.9293 12.1315 14.9354C11.2875 14.9734 11.0315 14.9824 8.89848 14.9824C6.76548 14.9824 6.50948 14.9734 5.66548 14.9354C5.15831 14.9293 4.65598 14.8359 4.18048 14.6594C3.8327 14.5309 3.51828 14.3258 3.26048 14.0594C2.99402 13.8016 2.78896 13.4872 2.66048 13.1394C2.48394 12.6639 2.39058 12.1616 2.38448 11.6544C2.34648 10.8104 2.33748 10.5544 2.33748 8.42139C2.33748 6.28839 2.34648 6.03239 2.38448 5.18839C2.39058 4.68122 2.48394 4.17888 2.66048 3.70339C2.78896 3.35561 2.99402 3.04118 3.26048 2.78339C3.51828 2.51693 3.8327 2.31186 4.18048 2.18339C4.65598 2.00685 5.15831 1.91348 5.66548 1.90739C6.50948 1.86939 6.76548 1.86039 8.89848 1.86039L8.89648 1.86239ZM8.89648 0.421387C6.72348 0.421387 6.45148 0.430387 5.59648 0.469387C4.93344 0.48287 4.27748 0.608652 3.65648 0.841387C3.12245 1.04195 2.63879 1.35699 2.23948 1.76439C1.83208 2.16369 1.51704 2.64735 1.31648 3.18139C1.08375 3.80239 0.957968 4.45834 0.944484 5.12139C0.905484 5.97639 0.896484 6.24839 0.896484 8.42139C0.896484 10.5944 0.905484 10.8664 0.944484 11.7214C0.957968 12.3844 1.08375 13.0404 1.31648 13.6614C1.51704 14.1954 1.83208 14.6791 2.23948 15.0784C2.63879 15.4858 3.12245 15.8008 3.65648 16.0014C4.27812 16.2343 4.93477 16.3601 5.59848 16.3734C6.45148 16.4124 6.72348 16.4214 8.89648 16.4214C11.0695 16.4214 11.3415 16.4124 12.1965 16.3734C12.8602 16.3601 13.5169 16.2343 14.1385 16.0014C14.6699 15.7957 15.1525 15.4813 15.5555 15.0784C15.9584 14.6754 16.2728 14.1928 16.4785 13.6614C16.7114 13.0398 16.8372 12.3831 16.8505 11.7194C16.8895 10.8664 16.8985 10.5944 16.8985 8.41939C16.8985 6.24439 16.8895 5.97439 16.8505 5.11939C16.8361 4.4569 16.7097 3.80164 16.4765 3.18139C16.2759 2.64735 15.9609 2.16369 15.5535 1.76439C15.1542 1.35699 14.6705 1.04195 14.1365 0.841387C13.5155 0.608652 12.8595 0.48287 12.1965 0.469387C11.3415 0.430387 11.0695 0.421387 8.89648 0.421387Z" fill="#7DC773"/>
<path d="M8.89609 4.31348C8.0836 4.31348 7.28936 4.55441 6.61381 5.0058C5.93825 5.45719 5.41172 6.09877 5.10079 6.84941C4.78987 7.60005 4.70851 8.42603 4.86702 9.22291C5.02553 10.0198 5.41678 10.7518 5.99129 11.3263C6.56581 11.9008 7.29778 12.292 8.09466 12.4505C8.89153 12.6091 9.71751 12.5277 10.4682 12.2168C11.2188 11.9058 11.8604 11.3793 12.3118 10.7038C12.7632 10.0282 13.0041 9.23396 13.0041 8.42148C13.0041 7.88201 12.8978 7.34782 12.6914 6.84941C12.4849 6.35101 12.1823 5.89814 11.8009 5.51668C11.4194 5.13522 10.9666 4.83263 10.4682 4.62618C9.96975 4.41973 9.43556 4.31348 8.89609 4.31348V4.31348ZM8.89609 11.0885C8.3686 11.0885 7.85297 10.9321 7.41438 10.639C6.9758 10.346 6.63396 9.92942 6.4321 9.44209C6.23024 8.95476 6.17743 8.41852 6.28033 7.90117C6.38324 7.38382 6.63725 6.90861 7.01023 6.53562C7.38322 6.16264 7.85843 5.90863 8.37578 5.80572C8.89313 5.70282 9.42937 5.75563 9.9167 5.95749C10.404 6.15935 10.8206 6.50119 11.1136 6.93977C11.4067 7.37836 11.5631 7.89399 11.5631 8.42148C11.5631 9.12881 11.2821 9.80717 10.7819 10.3073C10.2818 10.8075 9.60342 11.0885 8.89609 11.0885Z" fill="#7DC773"/>
<path d="M13.1661 5.11141C13.6962 5.11141 14.1261 4.6816 14.1261 4.15141C14.1261 3.62121 13.6962 3.19141 13.1661 3.19141C12.6359 3.19141 12.2061 3.62121 12.2061 4.15141C12.2061 4.6816 12.6359 5.11141 13.1661 5.11141Z" fill="#7DC773"/>
</g>
<defs>
<clipPath id="clip0_1326_15569">
<rect width="16" height="16" fill="white" transform="translate(0.896484 0.421387)"/>
</clipPath>
</defs>
</svg>
