<svg width="16" height="16" viewBox="0 0 16 16" fill="none" xmlns="http://www.w3.org/2000/svg">
<path d="M16 3.5C15.4 3.8 14.8 3.9 14.1 4C14.8 3.6 15.3 3 15.5 2.2C14.9 2.6 14.2 2.8 13.4 3C12.8 2.4 11.9 2 11 2C9.3 2 7.8 3.5 7.8 5.3C7.8 5.6 7.8 5.8 7.9 6C5.2 5.9 2.7 4.6 1.1 2.6C0.8 3.1 0.7 3.6 0.7 4.3C0.7 5.4 1.3 6.4 2.2 7C1.7 7 1.2 6.8 0.7 6.6C0.7 8.2 1.8 9.5 3.3 9.8C3 9.9 2.7 9.9 2.4 9.9C2.2 9.9 2 9.9 1.8 9.8C2.2 11.1 3.4 12.1 4.9 12.1C3.8 13 2.4 13.5 0.8 13.5C0.5 13.5 0.3 13.5 0 13.5C1.5 14.4 3.2 15 5 15C11 15 14.3 10 14.3 5.7C14.3 5.6 14.3 5.4 14.3 5.3C15 4.8 15.6 4.2 16 3.5Z" fill="#7DC773"/>
</svg>
