<svg width="189" height="51" viewBox="0 0 189 51" fill="none" xmlns="http://www.w3.org/2000/svg">
<path d="M107.865 0C107.615 0.0662184 107.724 0.361222 108.388 0.4455L108.901 0.0903125L107.865 0Z" fill="#8ECF84"/>
<path d="M112.235 1.72219C113.045 1.64393 113.963 1.42118 113.49 0.909489C112.68 1.20446 112.515 0.987741 111.64 1.35495C110.973 1.28873 110.499 0.999801 110.625 0.849305C110.378 0.921543 109.605 0.542272 109.225 0.752967C110.207 1.31903 111.262 1.54949 112.312 1.42722C112.547 1.5717 112.3 1.64393 112.235 1.72219Z" fill="#8ECF84"/>
<path d="M176.832 14.1767L176.426 13.9419C176.557 14.0349 176.693 14.1134 176.832 14.1767Z" fill="#8ECF84"/>
<path d="M166.581 41.2784C166.88 41.1821 166.985 41.1038 167.01 41.0557C166.734 41.164 166.508 41.2603 166.581 41.2784Z" fill="#8ECF84"/>
<path d="M159.738 42.398L160.145 42.3499C160.009 42.3286 159.871 42.3449 159.738 42.398Z" fill="#8ECF84"/>
<path d="M176.83 14.1768L177.818 14.8149C177.919 14.7125 177.32 14.4477 176.83 14.1768Z" fill="#8ECF84"/>
<path d="M121.263 1.97486C121.066 1.96747 120.868 1.98397 120.673 2.02417H121.223C121.236 2.0063 121.249 1.98981 121.263 1.97486Z" fill="#8ECF84"/>
<path d="M159.439 9.01787L159.115 8.95166C159.017 8.98217 158.921 9.0265 158.828 9.08408L159.439 9.01787Z" fill="#8ECF84"/>
<path d="M145.85 6.98926C146.157 7.04344 146.287 6.67019 146.416 6.51367C146.2 6.65364 145.964 6.7175 145.728 6.70029C145.716 6.79058 145.753 6.86887 145.85 6.98926Z" fill="#8ECF84"/>
<path d="M169.028 11.6064C169.049 11.6791 169.084 11.7402 169.129 11.781C169.137 11.7268 169.097 11.6666 169.028 11.6064Z" fill="#8ECF84"/>
<path d="M162.631 3.84082C162.631 3.84082 162.631 3.88844 162.631 3.91225C162.711 3.87653 162.735 3.84677 162.631 3.84082Z" fill="#8ECF84"/>
<path d="M178.475 6.32617H178.251C178.225 6.39033 178.208 6.46225 178.203 6.53689L178.475 6.32617Z" fill="#8ECF84"/>
<path d="M147.181 43.9324H147.238C147.567 43.8481 147.38 43.8782 147.181 43.9324Z" fill="#8ECF84"/>
<path d="M31.4866 42.2471C32.7653 42.8129 29.3338 42.3313 31.2681 43.0477C31.082 42.8671 33.0769 42.7407 31.4866 42.2471Z" fill="#8ECF84"/>
<path d="M121.611 2.09521L122.169 2.16745C121.915 2.11929 121.745 2.10123 121.611 2.09521Z" fill="#8ECF84"/>
<path d="M31.2518 43.0479L31.4518 43.1201L31.2518 43.0479Z" fill="#8ECF84"/>
<path d="M118.163 46.7197C118.257 46.7967 118.359 46.8496 118.464 46.8762C118.452 46.8341 118.383 46.792 118.163 46.7197Z" fill="#8ECF84"/>
<path d="M139.829 45.5635H139.291C139.505 45.5827 139.679 45.5763 139.829 45.5635Z" fill="#8ECF84"/>
<path d="M106.918 47.7254C106.656 47.682 106.391 47.682 106.129 47.7254L106.251 47.7675C106.47 47.6927 106.696 47.6784 106.918 47.7254Z" fill="#8ECF84"/>
<path d="M95.1993 47.8462C95.26 47.8462 95.345 47.9004 95.4138 47.9245H95.786L95.1993 47.8462Z" fill="#8ECF84"/>
<path d="M126.957 3.17871C127.148 3.25349 127.33 3.37342 127.495 3.5339C127.317 3.22689 129.041 3.17871 126.957 3.17871Z" fill="#8ECF84"/>
<path d="M121.256 2.22143C121.361 2.1182 121.487 2.07345 121.612 2.09503L121.207 2.06494C121.187 2.11912 121.175 2.17327 121.256 2.22143Z" fill="#8ECF84"/>
<path d="M106.477 50.7773H104.608C105.134 50.7902 105.81 50.7966 106.477 50.7773Z" fill="#8ECF84"/>
<path d="M42.7556 7.60835L43.162 7.5C43.024 7.51038 42.8874 7.54679 42.7556 7.60835Z" fill="#8ECF84"/>
<path d="M99.0643 50.8918C98.7197 50.7559 98.3675 50.6672 98.0121 50.627C97.9367 50.6475 97.8634 50.6819 97.7937 50.7293L99.0643 50.8918Z" fill="#8ECF84"/>
<path d="M139.792 2.80526C138.016 2.7571 138.955 3.28686 138.578 3.56979C136.458 3.67213 137.599 3.17249 136.879 2.89557C135.556 3.00393 134.536 3.44337 133.549 3.41327C133.476 3.32899 133.282 3.29288 133.508 3.19657C132.104 3.58184 129.352 3.15442 127.718 3.64203C127.641 3.6209 127.568 3.57575 127.503 3.50957C127.766 3.76843 127.807 4.03329 127.75 4.21389C126.941 4.21389 126.273 4.51488 125.974 4.17777C126.234 4.20671 126.495 4.13192 126.73 3.96106L125.897 4.09352C125.148 3.60591 127.038 3.94301 127.038 3.58783C125.419 3.71425 123.509 4.11157 122.263 3.96709C122.004 3.49754 125.18 3.82261 123.517 3.40122L125.447 3.58783C123.974 2.83535 126.621 3.65406 125.269 2.8474C122.728 2.69691 122.437 3.07014 119.892 2.91964C119.321 3.17849 120.082 3.30491 119.507 3.56377C115.906 4.01526 116.674 2.3598 114.024 3.00393C113.34 3.32298 113.073 3.91894 111.191 3.60591L111.835 3.07014C109.375 3.03402 110.431 3.84069 107.857 3.49756C108.31 3.28686 109.787 3.31092 109.415 3.25072C107.744 2.84137 108.237 3.55173 106.955 3.56979L106.684 3.10625C104.065 3.22665 101.184 3.60591 98.2829 3.75038C98.4448 3.60591 98.9384 3.44335 98.2586 3.31693C94.6167 3.67813 90.4487 3.46142 86.9282 3.3651L85.5888 3.82864C85.2732 3.82864 85.0021 3.67211 85.342 3.58181C83.9621 3.48549 85.2732 3.84066 84.6177 4.02727C83.8367 4.09349 83.5777 3.84066 84.0713 3.69619C81.6434 4.1236 77.1922 4.81589 74.6105 4.53296L75.1042 4.38246C73.1092 4.34032 72.8867 5.3336 71.0293 5.10485L71.3814 5.00851C69.2205 5.08677 66.9302 5.31554 64.8057 5.47808C62.8683 5.69384 60.9244 5.75412 58.9827 5.65867C58.3838 6.30881 54.6974 5.80916 54.4627 6.67602C51.9822 6.56767 52.6782 6.33891 49.2022 6.48338C48.2755 6.55562 47.8506 7.1576 46.7135 7.38034L46.6609 6.95898L45.1354 7.62115L44.2775 7.23587L43.2092 7.49472C43.6381 7.4586 44.1319 7.55492 44.0752 7.68736C42.4121 8.12078 39.972 7.97631 39.9153 7.76562C38.6002 8.07263 37.2891 8.36759 35.978 8.72878C36.0509 8.54216 36.7104 8.37965 37.2284 8.18701C35.1444 8.95154 36.8237 7.79571 34.9016 8.51207C35.1687 8.56625 34.7802 8.78898 34.7438 8.87928C33.1314 8.90507 31.5238 9.14685 29.9405 9.60167L30.2278 9.24651C27.2819 9.74014 24.0447 10.6672 20.7629 11.5882C21.9567 11.3956 21.7463 11.9735 20.7913 12.2865L20.3502 11.9494C19.7675 12.4069 21.3739 11.829 20.1478 12.5514C18.9339 12.8644 19.2576 12.2926 19.9415 11.9494C19.4518 12.1541 18.9622 12.3467 18.4767 12.5514C18.3714 12.4491 18.7073 12.2625 18.7761 12.0698C18.2526 12.3295 17.7084 12.4854 17.1575 12.5333C16.5284 12.6071 15.9145 12.8584 15.3487 13.2738L15.2435 13.1775C13.6248 13.7794 12.4391 14.3393 11.3466 14.8871C10.254 15.4349 9.24241 16.0188 7.9556 16.8195C8.00416 17.2047 6.97633 17.7646 6.33698 18.6254C5.33065 19.2642 4.35801 20.0148 3.42742 20.8709C2.31129 21.8588 1.36074 23.2112 0.647489 24.8259C0.190228 26.2225 0.267073 26.5476 0.303492 26.5656C0.339911 26.5837 0.441075 26.4392 0.404656 27.1676C0.254933 27.2158 0.0566795 28.4137 0.129518 29.3287C0.165937 29.7802 0.210433 30.1414 0.21448 30.2438C0.218526 30.3461 0.125443 30.2438 0 29.6418C0.181877 30.7948 0.551584 31.8636 1.07645 32.754C1.46149 33.4073 1.89291 33.9967 2.36323 34.5118C3.50078 35.7165 4.74734 36.6752 6.06579 37.3592C5.72993 36.992 5.33743 36.6369 5.58427 36.679C5.89842 36.8642 6.20047 37.0919 6.48665 37.3592C6.73753 37.576 6.89134 37.7686 6.82254 37.8228L6.64857 37.7565C8.65162 38.6956 10.8691 39.9417 13.0421 40.9892C15.2151 42.0367 17.3153 42.8614 18.9663 42.9396H18.7802C19.9078 43.1202 21.0327 43.2788 22.1549 43.4152C23.6845 43.8366 21.2081 43.4573 22.3209 43.9449C25.9628 44.1918 28.0104 45.2392 31.021 45.3657C32.1298 46.088 34.1773 46.377 36.326 46.6238C37.3983 46.7502 38.499 46.8646 39.5188 47.0211C40.4396 47.1354 41.3546 47.3365 42.2583 47.6231L42.0923 47.3582C42.9016 47.2198 43.0554 47.6231 43.6462 47.7555C43.5734 47.5508 42.7843 47.4244 43.2941 47.3522C50.1166 47.9542 57.3357 49.3568 64.3363 50.0972C66.8977 50.3501 65.8295 48.9655 69.0384 49.7421L68.1077 50.1454C73.2913 49.9287 78.6773 50.7775 83.7436 50.4464C83.4866 50.6003 83.2111 50.6741 82.9342 50.6631C83.9985 51.0243 86.8878 50.7956 86.908 50.5247C87.693 50.5788 87.0861 50.7715 87.5717 50.922C88.644 51.1387 90.2666 50.5367 90.8331 50.8738C90.9303 50.928 90.5337 50.9762 90.3354 51.0002C91.0355 50.8497 93.5727 51.0785 92.9253 50.6932C94.8231 50.9099 96.5672 50.5307 98.0725 50.7534C99.0598 50.32 101.31 50.9461 101.638 50.3381C101.504 50.94 104.968 50.7775 106.166 50.4584C105.761 50.6511 107.214 50.633 106.744 50.9039C108.116 50.8678 109.371 50.7173 109.128 50.3982C111.665 51.0484 114.19 49.6096 115.63 50.5126C117.654 50.2357 119.616 49.9889 121.518 49.7662L127.098 49.104C126.989 49.7059 123.052 49.4531 123.234 50.0972C126.702 49.5795 128.685 48.9475 132.136 48.7789C133.031 48.7789 131.643 49.0919 131.327 49.2244C133.055 48.9414 134.73 48.815 136.357 48.6705C137.984 48.5261 139.562 48.3274 141.091 47.9963C140.885 48.1241 140.667 48.2052 140.444 48.2371C141.051 48.1528 141.86 48.1769 141.779 47.9L141.193 48.0445C140.201 47.7315 143.56 46.9368 143.653 46.696C142.666 47.6291 146.704 46.5395 145.126 47.7555C145.531 47.6532 146.016 47.4606 145.911 47.28C146.506 47.28 146.72 47.3522 146.113 47.6411C148.278 47.2137 147.489 47.0392 149.456 46.7502C149.456 46.8887 149.051 46.997 148.869 47.1836C150.053 46.6527 151.276 46.3374 152.511 46.2445C152.418 46.3408 152.62 46.4191 152.106 46.4914C154.959 46.0098 156.913 45.0105 160.054 44.6372C159.188 45.4138 161.134 44.6372 161.348 45.0827L163.016 44.5529L162.316 44.4627C163.785 44.1376 165.039 43.4393 166.314 43.2587L165.249 43.7463C166.164 43.4875 167.07 43.1985 167.981 42.9035L166.407 43.1503C167.851 42.4701 166.168 42.5483 168.126 42.145C167.722 42.3136 169.575 41.7176 170.376 41.7537C171.174 41.2529 172.008 40.8874 172.861 40.6641C173.165 40.7183 172.732 41.2661 172.93 41.3384C173.577 40.8715 174.255 40.5083 174.953 40.2548C175.694 39.9683 176.405 39.5372 177.069 38.9726C176.802 39.2194 176.843 39.4842 176.948 39.4903L177.458 38.8883C178.134 38.6595 178.243 38.6655 178.182 38.8883C180.157 37.889 177.421 38.6354 179.801 37.606C179.662 37.7516 179.515 37.8824 179.364 37.9974C181.593 36.7847 183.714 35.1671 185.676 33.1815C186.057 33.0912 185.676 33.5728 185.252 34.0002C184.827 34.4276 184.442 34.8068 184.847 34.6864C185.579 33.9815 186.264 33.1753 186.894 32.2785C187.564 31.3554 188.123 30.268 188.545 29.0639C188.988 27.7624 189.112 26.2729 188.898 24.85C188.703 23.5532 188.299 22.3464 187.72 21.3344C187.85 21.5819 187.968 21.8435 188.072 22.117C187.748 22.0207 187.429 21.2742 186.943 20.3832C186.424 19.4095 185.774 18.6095 185.033 18.0355C185.385 18.3184 185.624 18.1378 185.502 18.1138C183.657 16.1814 181.456 14.9834 178.312 13.5928H178.716C177.241 12.7155 175.735 11.9559 174.204 11.3173C173.775 11.3173 173.019 11.0103 173.436 11.4558C171.542 10.2805 169.544 9.52013 167.503 9.19835C165.553 8.78899 163.659 8.48801 161.838 7.62115C162.283 7.71746 162.919 7.70542 162.562 7.62115C161.497 7.42851 160.433 7.25192 159.37 7.0914C159.592 7.45861 159.774 7.36829 160.41 7.75356C159.706 7.84413 158.997 7.81385 158.297 7.66329C159.742 7.73553 158.33 7.15159 157.727 6.85661C157.82 6.97099 157.601 7.04322 157.646 7.15158C156.027 6.29074 157.314 7.75357 155.076 6.97099L155.21 6.82049C154.352 6.77234 153.555 6.8205 152.64 6.67602C152.284 6.25463 153.559 6.63389 153.636 6.34494C152.345 6.17638 151.05 6.66397 149.909 6.13422C150.459 6.0981 151.248 6.22455 151.803 6.20047C151.05 5.79548 150.263 5.55223 149.464 5.47808H149.557L147.384 4.9965L147.934 5.18914C146.263 5.94162 144.636 4.95436 142.427 5.33963C144.571 4.98446 142.795 5.03861 142.977 4.63528C142.427 4.46071 141.589 4.23195 141.836 4.14165C140.788 4.36439 140.128 3.69618 138.655 4.02727C138.595 3.88882 137.555 3.90087 137.802 3.58783C136.462 3.58783 138.109 3.85272 137.988 4.00923C135.904 4.25605 133.168 2.95574 130.178 3.27479C127.612 3.27479 127.119 3.66006 124.735 3.6119C123.946 3.29887 125.415 3.19657 125.415 3.19657C124.27 2.88448 123.107 2.7413 121.943 2.76914C122.194 2.68486 121.943 2.55243 121.587 2.35377C120.612 2.25745 120.907 2.7571 119.633 2.38989C119.955 2.18795 120.294 2.05031 120.64 1.98054C119.483 1.98054 118.338 2.0287 117.144 1.98054C116.844 1.69761 117.88 1.7277 118.309 1.63741C116.97 1.55915 114.845 1.31835 114.404 1.63741L115.25 1.90831C114.765 1.84811 115.024 1.55315 115.388 1.54111C116.549 1.43877 117.006 1.93236 117.079 2.07082L116.229 2.02871C117.039 2.94975 119.637 2.41398 121.336 2.66682L120.592 3.1484L122.368 2.90156C122.728 3.10022 122.967 3.45539 122.117 3.43131C123.331 3.87076 123.214 3.3591 124.246 3.79855C124.359 3.86477 124.306 3.88281 124.197 3.89485H125.411C125.172 3.99117 125.589 4.32828 124.857 4.1537C126.989 4.75569 128.341 4.11758 129.13 4.64131H128.948C131.938 4.76773 129.255 4.25603 131.513 3.99718L132.97 5.20115L133.282 4.81587C133.589 4.85801 134.196 4.95436 134.091 5.11088C135.248 4.94232 133.905 4.90617 134.581 4.70752C136.041 5.24329 138.668 4.94832 138.971 5.65264C139.517 5.39379 137.567 5.25533 139.157 5.20115C139.562 5.97169 140.99 5.2674 142.322 5.755C141.889 6.08008 140.622 5.75499 141.953 6.22453C142.803 5.68877 144.576 6.65194 145.721 6.67602C145.802 6.17638 148.205 6.76632 150.123 6.86264C149.994 7.00711 153.692 7.63919 155.445 8.13282L155.388 8.21108C155.768 7.75959 157.585 8.15691 158.921 8.33148C158.84 8.62044 158.589 8.69269 157.864 8.68667L159.107 8.92744C159.608 8.81625 160.118 8.81625 160.62 8.92744L160.272 9.24049C161.923 9.5776 163.643 9.54751 165.723 10.3783C165.889 10.0652 164.157 8.93947 166.431 9.33076C166.492 9.54748 166.532 9.89063 165.937 9.80033C166.302 9.81443 166.665 9.89119 167.018 10.0291L166.083 10.0893C167.026 10.4986 166.621 9.97492 167.386 10.2278C167.333 10.4866 167.928 10.5829 167.791 10.7635C167.475 10.6288 167.153 10.5322 166.828 10.4746C167.586 10.7049 168.323 11.0729 169.021 11.5702C168.968 11.3956 169.073 11.203 169.709 11.3836C171.327 11.9133 170.219 11.8832 171.141 12.3588C171.546 12.3046 172.562 12.8825 172.655 12.5032C172.92 12.5934 173.161 12.8037 173.343 13.1052C173.776 13.1835 174.747 13.5627 175.495 13.8517C176.244 14.1406 176.786 14.3212 176.365 13.8938L176.159 13.7674L176.297 13.8156C179.089 14.6824 181.816 16.8616 184.232 18.812L184.183 18.9264C184.947 19.5096 185.663 20.2228 186.316 21.0514C186.872 21.7556 187.374 22.549 187.813 23.4172C187.867 23.5823 187.911 23.7534 187.947 23.9289C187.975 24.0921 187.988 24.2601 187.987 24.4286C187.987 24.7175 187.955 24.8801 187.874 24.7717C188.005 25.3523 188.051 25.9684 188.007 26.5777C187.908 27.4039 187.654 28.1717 187.275 28.793C187.53 27.9923 187.421 28.0947 187.396 28.1488C187.372 28.203 187.396 28.185 187.425 28.0646C187.539 27.7805 187.634 27.48 187.708 27.1676C187.482 27.9145 187.169 28.597 186.785 29.1843C186.47 29.708 186.15 30.2739 185.571 31.219C185.721 30.8096 185.446 31.0143 185.053 31.3815C184.661 31.7487 184.131 32.2664 183.839 32.5855C184.187 32.3688 184.531 32.134 184.871 31.8812C184.23 32.5877 183.546 33.2044 182.828 33.7232L183.042 33.0189C181.517 33.958 180.21 35.0476 178.935 35.9807C177.66 36.9138 176.426 37.6662 175.103 37.7866C174.293 38.4789 176.903 37.1847 176.212 37.9131C174.706 38.5512 173.027 38.515 172.57 38.6956C171.878 38.8376 171.208 39.1509 170.587 39.6227C169.942 40.124 169.241 40.4464 168.519 40.5738C168.822 40.6401 169.154 41.0073 167.52 41.6394C165.966 42.0186 165.541 41.4949 166.496 41.0976C166.864 40.9772 167.046 40.9772 167.038 41.0374C167.528 40.8387 168.171 40.5859 167.54 40.5859L167.362 40.8026C166.581 40.8688 164.46 41.4347 164.934 41.0374C163.789 41.4949 164.468 41.4347 165.338 41.2902C163.315 41.5731 162.239 42.0487 160.175 42.3316C160.511 42.3316 160.827 42.4821 160.503 42.5484C157.476 42.9577 159.208 43.1503 157.164 43.5898C155.983 43.5537 157.537 42.9276 155.489 43.4935C154.218 43.5476 155.194 43.1082 155.679 42.8915C153.83 43.5296 152.159 43.2527 151.082 43.355L152.066 43.0781C151.479 43.2407 150.993 43.3129 150.5 43.3851L151.086 43.6259C150.5 43.6259 150.006 43.7222 150.01 43.5838C149.423 43.8848 150.504 44.0653 149.33 44.5229C148.545 44.4687 146.975 45.0165 146.68 44.6132C149.136 44.4446 146.388 44.2158 148.448 43.8787C147.962 43.9931 147.471 44.0534 146.979 44.0593C146.89 44.0232 147.056 43.963 147.214 43.9148C144.855 43.8185 146.17 44.5168 143.742 44.8238C144.037 44.5409 143.155 44.4265 142.763 44.5229C143.742 44.4145 143.252 44.884 142.358 45.161C140.788 45.161 140.671 45.48 139.853 45.5462H140.788C140.485 45.8232 139.703 45.8713 138.623 46.0639C138.522 45.8833 139.602 45.8292 139.21 45.787C138.024 46.3349 136.466 45.6486 134.795 46.07C134.01 45.9736 134.702 45.6185 134.014 45.5643C132.141 46.0459 131.958 45.4078 129.988 45.8472C130.57 46.1241 130.667 46.0338 129.284 46.4793L132.521 45.9616L130.449 46.6238C131.432 46.5395 132.517 46.2325 133.108 46.2385C132.124 46.5937 132.221 46.5034 132.703 46.7321C131.339 46.3529 130.044 47.2679 128.474 47.0452V46.2325C126.123 46.0218 124.335 46.9609 121.288 46.9368L122.267 47.0211C121.862 47.3703 120.393 47.1716 119.41 47.3522C119.495 47.0753 118.88 47.0091 118.455 46.8646C118.512 47.0632 116.229 46.9669 115.966 47.5268L114.603 47.2258C112.142 47.1716 111.815 48.1047 109.451 48.0987C110.155 47.7796 109.079 47.6231 110.665 47.3522C109.88 47.3823 109.168 47.3522 109.16 47.5448C108.699 47.4004 106.979 47.9662 106.251 47.7254C105.838 48.0187 105.384 48.1592 104.927 48.1348C104.83 48.0806 104.927 48.0023 104.927 48.0023C104.927 48.1348 103.543 48.213 104.32 48.502C101.892 47.7254 97.5262 48.6284 95.4179 47.9C93.6981 47.9963 91.6263 48.0445 90.0643 48.0505C90.1655 47.9662 90.0643 47.912 90.3638 47.9421C88.211 47.6592 89.0324 48.7308 86.5842 48.3816C85.3339 47.906 87.8873 48.1769 87.1063 47.9903C86.7785 47.0813 84.1483 48.0264 82.5054 47.4545L82.91 47.4184C81.6516 47.0873 79.8265 47.6592 77.7708 47.4967C77.7708 47.4967 77.872 47.4184 77.7708 47.3582C76.3545 47.7495 73.6838 47.7976 71.701 47.7856C72.3282 47.4726 72.6074 47.6592 72.2392 47.28C71.349 47.28 72.486 47.8819 70.7096 47.8819C70.139 47.6532 68.8644 47.4064 68.7066 47.0151L70.3778 47.0994C69.5362 46.5516 68.2129 46.985 67.3348 46.8405L67.4561 46.6358C64.8947 46.5154 64.8381 47.0452 62.0864 46.7984L62.3656 46.979C60.8401 47.3943 61.1152 46.5937 59.6018 46.8525L59.1688 46.2506C58.1733 46.2867 55.6726 46.4492 53.9083 46.383C54.9361 46.076 57.0242 46.0639 58.3231 45.9496C57.3398 45.8532 54.9806 45.6727 54.4586 45.8894C54.8877 45.8201 55.3204 45.8201 55.7495 45.8894C54.1648 46.2241 52.5584 46.2685 50.9664 46.0218C51.3711 45.0044 45.8758 45.2031 44.4919 44.1677C42.7416 44.1146 40.9947 43.9136 39.2597 43.5657C37.4793 43.2166 35.6179 42.8192 33.6189 42.5544C34.9906 43.5898 32.4454 42.4039 32.6315 43.2707C32.1697 43.2703 31.7094 43.1916 31.2597 43.036L28.4676 42.0306C27.8201 41.6634 29.37 42.0306 29.3012 41.8079C27.2779 41.3684 28.4919 41.2902 27.1484 40.8146C27.3953 41.1638 26.3998 41.1036 25.2546 40.7484L26.849 41.4648C23.9638 41.3203 24.4615 40.2608 21.5682 40.032L22.4949 39.9899C21.0098 39.8214 17.1291 38.5993 15.6157 38.786C15.3729 38.6114 15.0735 38.2742 15.7128 38.4247C14.0052 37.8228 12.071 37.293 10.2864 36.6188C8.684 36.1002 7.14364 35.2234 5.71784 34.0182H6.00918C5.43052 33.669 4.90855 33.6149 4.3218 32.8142C4.38654 32.7781 4.60501 32.8142 4.37436 32.6035C4.06566 32.3907 3.76691 32.1474 3.48008 31.8751C3.29106 31.6915 3.10992 31.4905 2.93781 31.2731C2.78364 31.0667 2.64768 30.8321 2.53315 30.5749C2.69925 30.7671 2.87216 30.9459 3.05112 31.1106C2.65997 30.5001 2.35945 29.774 2.169 28.9796C2.10231 28.6829 2.07082 28.3713 2.07594 28.0586C2.0736 27.7259 2.10636 27.3948 2.17305 27.0773C2.55769 25.4362 3.27785 24.0154 4.23269 23.0139C4.35004 23.2607 4.94492 22.8634 5.68544 22.3698C6.42596 21.8762 7.30408 21.2922 7.9313 20.9371V21.0454C9.70369 19.8836 11.2495 18.9625 12.7872 18.1017C14.3249 17.2409 15.8747 16.4342 17.6714 15.6938C19.4146 15.4593 21.1487 15.0936 22.8671 14.5981C24.9713 14.0804 27.2536 13.5687 29.115 13.3942C28.5444 13.3942 29.1636 12.9066 29.8151 12.7199C30.6932 12.6658 32.1823 11.8411 32.0892 12.425L31.7777 12.4671C32.4777 12.8885 34.2501 12.425 35.6502 12.2143L35.8242 11.4498C37.6897 11.6665 40.0812 11.2331 42.2663 10.8117C44.4514 10.3903 46.4262 9.95684 47.4581 10.3241C48.3321 10.0351 49.4287 9.90268 50.2907 9.61974L50.2664 10.011C51.4803 9.91469 52.4151 9.84248 53.4105 9.73412L56.9796 9.30067L56.3727 9.64381C58.0844 9.49933 58.485 8.30137 60.0632 8.12679L60.5649 8.66257C63.5513 8.33148 66.5943 8.62648 69.5321 7.86195C69.4876 7.95225 69.4026 8.12682 68.921 8.19304C69.6251 8.14488 70.9888 8.13284 72.1097 8.04254C73.2306 7.95225 74.1087 7.80777 73.8416 7.44056C73.8902 7.95826 76.9292 7.30209 78.5397 6.97702L78.3009 7.37431C79.3616 6.81752 80.4714 6.49506 81.5949 6.41717C82.0481 6.44727 81.9996 6.71214 81.3966 6.63991C82.906 6.77234 82.5579 6.21852 84.391 6.34494L83.7153 6.62183C84.4865 6.68303 85.2582 6.51526 85.9854 6.12823C86.9565 5.9356 88.9272 6.1282 89.1619 6.43521C89.7798 6.03895 90.4545 5.8796 91.1245 5.97171C91.2499 6.09813 90.9181 6.18843 90.7522 6.23659C93.3461 6.41718 94.6005 5.6707 96.385 5.99578C96.4255 6.12219 96.5428 6.18239 96.6885 6.21851C94.6328 6.26667 92.9738 6.29678 93.1276 6.26668C93.1276 6.62185 94.7988 6.63388 93.4796 7.16363C94.8109 6.85662 97.0852 6.20646 98.7078 6.32686C98.7829 6.3483 98.8551 6.38689 98.9222 6.44124L98.7563 6.48338C99.0984 6.50964 99.4413 6.48544 99.7801 6.41115C100.298 6.45931 100.626 6.50146 101.124 6.49544C101.318 6.78439 103.03 6.62183 103.859 6.62183C103.79 6.23656 104.875 6.27873 103.859 5.97774C103.993 5.97774 103.701 6.02589 103.151 6.04997C103.033 6.05695 102.916 6.073 102.799 6.0981L102.856 6.06199L100.796 6.12221C101.532 5.84401 102.297 5.78064 103.05 5.93559C103.454 5.68276 103.94 5.41788 104.203 5.29146C105.34 5.81519 107.529 6.06801 107.845 6.40512C110.374 6.17035 113.806 6.23054 115.4 5.49612C115.779 5.4146 116.166 5.52711 116.496 5.81519C116.117 5.84166 115.739 5.89791 115.363 5.98373C116.8 5.78507 119.628 5.92955 119.972 5.41786C121.785 5.65263 118.949 5.8814 121.445 5.80916L121.105 5.96569C126.006 6.79041 129.089 4.76172 134.52 5.86336C134.301 5.85404 134.085 5.78888 133.88 5.67072C136.98 5.96569 140.173 5.92354 143.362 5.92354C146.55 5.92354 149.719 5.97774 152.774 6.42923C154.51 6.6339 154.704 6.31482 155.768 6.0981L156.141 6.53155L157.962 6.10413C160.539 5.83324 162.413 7.3081 165.67 6.70612L165.266 6.41115C166.435 6.50145 168.976 6.37504 168.778 6.68808C169.042 6.51278 169.338 6.47256 169.62 6.5737L169.652 6.7904L172.533 6.52553C174.759 6.7603 172.169 7.37432 175.422 7.53686C176.636 7.49472 178.874 7.02517 178.421 6.86264C177.935 6.86264 177.179 6.68206 177.146 6.46534L178.251 6.39311C178.461 5.755 179.323 5.12894 176.632 4.58715L174.735 4.91221L174.132 4.5751L175.726 4.61724C175.026 4.38952 174.299 4.41221 173.606 4.68345C173.362 4.45793 173.083 4.32941 172.796 4.31022L170.931 4.85802C170.712 4.59314 171.773 4.38849 170.526 4.20187C169.648 4.45471 171.335 4.80383 169.907 4.93025C169.005 4.60518 169.276 4.37643 168.208 4.59314C168.062 4.41856 168.288 4.32226 168.709 4.26808C167.762 4.43062 166.208 4.2681 165.715 4.58715C164.776 4.19586 162.522 4.58715 162.623 3.98517C161.786 4.23789 160.936 4.37693 160.082 4.40054C161.701 3.72029 156.845 4.25605 157.249 3.48551C156.068 4.08749 153.004 3.63601 150.921 3.94302C151.091 3.85811 151.271 3.82137 151.451 3.83467C150.691 3.75942 149.936 3.61262 149.189 3.39519C149.031 3.93698 147.206 3.9972 146.223 4.31625C144.79 3.7564 147.101 3.71427 146.656 3.19054C146.72 3.62999 144.155 3.55775 144.632 3.937C143.54 3.58784 143.689 3.7564 143.127 3.29287C142.929 3.96107 142.103 3.38316 141.189 3.78047C139.602 3.41326 140.784 3.13636 139.04 3.30492C138.239 3.00995 139.792 2.80526 139.792 2.80526ZM98.2546 3.8828L99.1125 3.84066L98.2546 3.8828ZM94.7664 3.99718C95.171 3.99718 95.7215 3.99719 96.2799 3.96709C96.4053 4.09351 96.2798 4.23799 95.9237 4.23799C96.1301 4.14769 95.3046 4.0935 94.7826 3.99718H94.7664ZM102.168 6.51348C101.617 6.57367 101.431 6.5135 101.358 6.4232L102.321 6.36298L102.386 6.31485C102.329 6.40157 102.26 6.46925 102.184 6.51348H102.168Z" fill="#8ECF84"/>
<path d="M103.171 5.98366C103.252 5.98366 103.297 5.98366 103.398 5.98366L103.07 5.89941L102.876 6.02581L103.171 5.98366Z" fill="#8ECF84"/>
<path d="M176.374 13.9L176.443 13.9422C176.395 13.9078 176.349 13.8676 176.305 13.8218C176.33 13.8438 176.353 13.8701 176.374 13.9Z" fill="#8ECF84"/>
<path d="M46.6163 6.86881L46.6285 6.96512L46.9292 6.84473L46.6163 6.86881Z" fill="#8ECF84"/>
<path d="M157.761 6.90521C157.686 6.83779 157.603 6.789 157.517 6.76074C157.592 6.82917 157.675 6.87803 157.761 6.90521Z" fill="#8ECF84"/>
<path d="M149.496 5.52645L148.335 5.23145C148.837 5.37592 149.205 5.46625 149.496 5.52645Z" fill="#8ECF84"/>
<path d="M143.144 4.55127C143.091 4.58362 143.045 4.63543 143.01 4.70177L143.144 4.55127Z" fill="#8ECF84"/>
<path d="M140.392 48.1104L140.149 48.1525C139.574 48.2849 139.967 48.2187 140.392 48.1104Z" fill="#8ECF84"/>
<path d="M170.328 41.6514C170.025 41.8259 169.721 41.9945 169.402 42.133C169.932 42.0066 170.345 41.8681 170.328 41.6514Z" fill="#8ECF84"/>
<path d="M168.017 42.5542C168.487 42.48 168.95 42.339 169.401 42.1328C168.935 42.2338 168.473 42.3745 168.017 42.5542Z" fill="#8ECF84"/>
<path d="M115.62 1.14971L115.315 1.0835C115.315 1.1136 115.315 1.13164 115.275 1.14368L115.62 1.14971Z" fill="#8ECF84"/>
<path d="M115.276 1.14355H114.935C115.048 1.17194 115.163 1.17194 115.276 1.14355Z" fill="#8ECF84"/>
<path d="M114.214 1.11454H114.934C114.696 1.05036 114.452 1.05036 114.214 1.11454Z" fill="#8ECF84"/>
<path d="M123.996 2.48675L124.101 2.36035C124.078 2.3672 124.056 2.38228 124.038 2.4043C124.019 2.42631 124.005 2.45459 123.996 2.48675Z" fill="#8ECF84"/>
<path d="M126.553 2.74448C125.771 2.51536 124.98 2.35253 124.186 2.25684L124.101 2.3592C124.51 2.19666 125.962 2.91906 126.553 2.74448Z" fill="#8ECF84"/>
<path d="M137.15 5.58646L135.009 5.25537C135.378 5.44199 135.859 5.69482 134.884 5.6286C137.567 6.38108 134.342 5.26138 137.15 5.58646Z" fill="#8ECF84"/>
<path d="M143.782 6.54902C142.629 6.48882 143.782 6.76576 143.722 6.84402C144.458 6.78984 144.636 6.78981 143.782 6.54902Z" fill="#8ECF84"/>
<path d="M187.859 25.3981L187.607 25.3018C187.704 26.295 187.716 25.3078 187.859 25.3981Z" fill="#8ECF84"/>
<path d="M182.933 35.8064C183.216 35.662 183.503 35.5295 183.786 35.373L184.049 34.771C183.685 35.1382 183.309 35.4753 182.933 35.8064Z" fill="#8ECF84"/>
<path d="M177.284 36.577L177.632 36.3423C177.183 36.6192 176.734 36.8901 176.276 37.155L177.284 36.577Z" fill="#8ECF84"/>
<path d="M97.2842 47.4965L97.5553 47.93C98.1542 47.8517 98.2796 47.3581 97.2842 47.4965Z" fill="#8ECF84"/>
<path d="M62.4107 46.5758C61.7819 46.254 61.1117 46.153 60.4523 46.2808C61.2333 46.3711 62.0101 46.5998 62.4107 46.5758Z" fill="#8ECF84"/>
<path d="M37.6213 11.666L36.9374 11.9248L38.2404 11.5938L37.6213 11.666Z" fill="#8ECF84"/>
</svg>
