<svg width="377" height="11" viewBox="0 0 377 11" fill="none" xmlns="http://www.w3.org/2000/svg">
<path d="M32.2665 9.86758C33.7438 9.8418 32.9521 9.29997 33.2568 8.97052C35.0043 8.77024 34.071 9.37308 34.6721 9.65584C35.7743 9.48225 36.6093 8.94284 37.4168 8.95961C37.4184 9.05219 37.6424 9.0792 37.4211 9.20654C38.58 8.72328 40.8724 9.14628 42.2027 8.52111C42.2722 8.55024 42.3363 8.59631 42.3914 8.65668C42.3013 8.56581 42.2327 8.44627 42.1931 8.31092C42.1535 8.17558 42.1444 8.0296 42.1668 7.88888C42.8248 7.87739 43.4019 7.49689 43.6442 7.86309C43.4145 7.85715 43.1914 7.95425 43.0157 8.13651L43.7081 7.97002C44.338 8.4838 42.7678 8.17164 42.7745 8.55739C44.0719 8.23756 45.3903 8.05963 46.7144 8.0256C46.9346 8.54653 44.2345 8.23874 45.6954 8.6917L44.0903 8.51906C45.3461 9.31517 43.1095 8.53613 44.2536 9.33419C46.3544 9.45187 46.5953 9.03092 48.6961 9.14859C49.1752 8.84698 48.5396 8.71921 49.0063 8.41781C51.9767 7.84119 51.3756 9.68832 53.5609 8.95563C53.8686 8.60143 54.2443 8.351 54.6527 8.22778C55.0611 8.10455 55.4889 8.11259 55.8957 8.2512L55.3723 8.8623C57.4084 8.82676 56.5246 7.99332 58.6666 8.34179C58.2861 8.59538 57.0686 8.57032 57.3679 8.64227C58.7664 9.08089 58.3427 8.28564 59.4104 8.26701L59.6431 8.78776C61.8033 8.75005 64.1912 8.24536 66.5857 8.11096C66.4518 8.26764 66.0451 8.44451 66.594 8.58928C69.7269 8.37068 72.8702 8.43961 75.9984 8.79553L77.108 8.3286C77.3687 8.32405 77.5833 8.52095 77.3118 8.6183C78.4445 8.76831 77.3067 8.32506 77.912 8.14471C78.5174 7.96437 78.7732 8.39207 78.3533 8.52287C80.9361 7.93896 83.572 7.77884 86.1936 8.04651L85.7862 8.19248C87.4406 8.34881 87.6323 7.23425 89.1666 7.6242L88.8686 7.6294C92.4476 7.76758 96.4007 7.28185 99.144 7.92851C99.6539 7.25593 102.687 8.14443 102.857 7.23083C104.284 7.67972 105.74 7.96437 107.206 8.08104C107.976 8.0676 108.339 7.49021 109.293 7.38095L109.301 7.85927L110.534 7.32839L111.239 7.88715L112.131 7.74808C111.771 7.75437 111.37 7.54533 111.417 7.42102C112.577 7.22117 113.76 7.3972 114.854 7.93211L118.137 7.47349C118.078 7.65973 117.52 7.73119 117.088 7.86221C118.842 7.35312 117.419 8.36576 119.024 7.82841C118.799 7.7243 119.131 7.54872 119.167 7.44006C120.488 7.69535 121.829 7.72902 123.155 7.54021L122.9 7.88426C125.383 7.84092 128.049 7.62464 130.781 7.59239C129.797 7.45522 130.011 6.88041 130.767 6.82091L131.099 7.30894C131.615 6.99124 130.251 7.13853 131.312 6.73415C132.343 6.71616 132.017 7.29298 131.424 7.47311L132.663 7.26629C132.74 7.41928 132.443 7.50158 132.372 7.70347C132.876 7.38599 134.529 8.15973 135.253 7.65319L135.33 7.80616C138.073 7.75826 139.312 7.56695 141.534 7.4973C141.526 7.06527 142.447 7.15724 143.098 6.79087C144.74 6.90113 146.571 7.20868 148.544 7.12794C149.931 6.90308 148.947 6.76596 149.563 6.49282C149.67 6.89226 151.643 6.81149 150.63 7.12242C153.001 7.08103 153.658 6.97695 156.657 6.61592C156.318 6.45204 155.957 6.39662 156.141 6.2545C156.687 6.24497 157.385 6.40253 157.314 6.58899L157.165 6.59159C160.519 5.9311 164.957 7.59777 167.624 6.73318L167.475 6.73578L170.249 6.25517C171.49 6.23349 169.484 6.56182 170.444 6.79201C173.425 6.07631 175.176 6.80198 177.639 6.32682C179.583 7.45047 184.428 6.11568 187.023 6.81124L186.87 6.55156C187.535 6.26212 187.679 6.69179 188.177 6.74484C188.099 6.53013 187.44 6.51074 187.86 6.34907C193.503 5.92645 199.524 6.54674 205.326 6.69241C207.451 6.7325 206.543 5.25122 209.187 5.86876L208.438 6.39119C212.698 5.69945 217.129 6.23947 221.366 5.65617C221.107 5.78416 221.11 5.93845 220.7 5.9456C221.802 6.21965 222.941 6.09803 223.985 5.595C224.63 5.58374 224.139 5.87019 224.539 6.01755C225.436 6.21796 226.753 5.51586 227.231 5.8625C227.318 5.86099 226.984 5.99024 226.824 6.02392C227.404 5.82858 229.518 5.97689 228.965 5.60068C230.533 5.78939 231.966 5.36308 233.223 5.52635C234.022 5.03395 235.909 5.71103 236.157 5.02757C236.058 5.73929 238.924 5.55032 239.886 5.20939C239.555 5.41583 240.759 5.41027 240.367 5.71037C241.509 5.69043 242.537 5.53356 242.332 5.18215C244.445 5.97873 246.529 4.42977 247.715 5.47406C251.085 5.0448 254.197 4.74352 257.223 4.52092C257.123 5.21721 253.871 4.57946 254.009 5.37964C256.467 4.87031 258.952 4.58453 261.445 4.52446C262.18 4.61969 261.029 4.84037 260.783 4.96815C263.645 4.62492 266.332 4.87134 268.884 4.50268C268.884 4.50268 268.601 4.64652 268.341 4.69736C268.85 4.68848 269.584 4.78369 269.455 4.47726L268.97 4.48571C268.155 4.03691 270.952 3.49414 271.035 3.24574C270.194 4.17105 273.522 3.43387 272.226 4.59864C272.561 4.59279 272.967 4.38503 272.889 4.17031C273.386 4.16164 273.538 4.34424 273.046 4.59979C274.843 4.38321 274.204 4.07021 275.83 4.04182C275.833 4.19612 275.499 4.2637 275.341 4.45168C276.382 4.07602 277.478 3.98839 278.553 4.19496C278.48 4.28884 278.643 4.40948 278.221 4.41685C280.605 4.37524 282.254 3.54383 284.866 3.79149C284.108 4.4684 285.752 3.99215 285.899 4.57609L287.298 4.36646L286.735 4.09849C287.845 3.92754 288.963 3.83585 290.083 3.82394L289.181 4.07114L291.476 3.92304L290.168 3.72985C291.405 3.41501 290.031 3.00682 291.66 3.13273C292.288 3.18603 292.912 3.29372 293.529 3.45508V3.45508C294.215 3.18067 294.941 3.08908 295.66 3.18632C295.899 3.36736 295.485 3.82227 295.673 3.94246C296.261 3.45374 298.539 3.75347 299.287 3.23107C299.041 3.35884 299.034 3.65222 299.109 3.71263L299.612 3.31801C300.185 3.43148 300.26 3.49194 300.178 3.74033C301.879 3.71064 299.619 3.00921 301.648 3.29791C301.499 3.30051 301.575 3.39183 301.241 3.44397C303.28 3.57816 305.172 3.1284 307.038 3.34277C307.607 3.90392 305.414 3.50999 306.056 3.99269C308.748 3.83765 311.631 3.20086 314.24 3.29422L313.755 3.22554C314.1 2.40148 315.699 3.60834 317.007 3.16876C316.685 3.1744 316.593 3.62356 316.678 3.52947C318.807 3.50686 320.932 3.31513 323.039 2.95543L322.708 3.17732C323.766 3.34405 325.478 3.23691 326.622 3.30956C326.954 3.10312 327.6 3.12271 327.209 2.82084C330.731 3.96325 333.89 2.05605 337.011 3.00481C336.638 3.01131 336.133 3.20534 336.431 3.20014L339.071 2.95339C338.854 2.60219 338.72 2.75887 338.157 2.49089C338.71 2.21251 339.302 2.07111 339.901 2.07459C338.663 2.32771 339.911 2.64549 340.435 2.83698C340.347 2.73049 340.518 2.60397 340.43 2.49747C341.819 3.10604 340.641 1.7838 342.547 2.16725L342.451 2.35423C343.148 2.16928 343.857 2.06383 344.569 2.03935C344.887 2.43511 343.815 2.23777 343.772 2.57809C344.839 2.55945 345.868 1.75435 346.856 2.15383C346.399 2.28529 345.741 2.29672 345.284 2.41274C345.915 2.7199 346.591 2.85553 347.265 2.81037L347.178 2.81188L349.007 2.99607L348.533 2.86539C349.855 1.77734 351.261 2.63253 353.061 1.89113C351.31 2.58538 352.782 2.28193 352.654 2.74721C353.116 2.87806 353.813 3.00473 353.617 3.14706C354.467 2.74636 355.05 3.41533 356.244 2.83884C356.309 2.99206 357.163 2.82282 356.972 3.22746C358.087 3.08452 356.706 2.96972 356.802 2.7674C358.494 2.22853 360.835 3.32974 363.281 2.57706C365.399 2.24684 365.75 1.73139 367.745 1.44962C368.419 1.68479 367.208 2.0147 367.208 2.0147C368.169 2.19099 369.146 2.17394 370.101 1.96421C369.905 2.10654 370.105 2.21102 370.431 2.37511C371.238 2.36103 370.955 1.81038 372.027 2.02319C371.796 2.28999 371.525 2.49896 371.23 2.63897C372.184 2.48341 373.122 2.18923 374.113 2.03303C374.378 2.29078 373.524 2.4446 373.18 2.62039C374.274 2.60782 375.357 2.3645 376.384 1.90079L375.673 1.77433C376.083 1.76718 375.891 2.12548 375.594 2.20783C374.644 2.54854 374.214 2.09302 374.161 1.93958L374.855 1.83488C374.119 0.95252 372.027 2.02315 370.609 1.90899L371.194 1.26601L369.75 1.81592C369.437 1.65161 369.22 1.30047 369.913 1.19575C368.89 0.889498 369.011 1.44299 368.136 1.10328C368.037 1.10501 368.134 1.01069 368.134 0.995256L367.144 1.19774C367.34 1.05541 366.975 0.753128 367.585 0.835088C365.791 0.495979 364.713 1.36368 364.034 0.897064L364.183 0.894464C361.704 1.15382 363.955 1.36143 362.103 1.94941L360.841 0.813846L360.601 1.28106C360.353 1.28539 359.844 1.29433 359.926 1.06137C358.989 1.40186 360.091 1.25907 359.551 1.5772C358.302 1.16684 356.165 1.83697 355.816 1.08676C355.376 1.44945 356.988 1.34417 355.689 1.6138C355.303 0.817951 354.177 1.77906 353.041 1.42847C353.381 1.0058 354.452 1.20319 353.316 0.852594C352.658 1.57406 351.128 0.736436 350.188 0.907203C350.197 1.46267 348.131 1.17465 346.545 1.38755C346.641 1.20065 343.548 1.13115 342.067 0.956352L342.065 0.863777C341.79 1.43966 340.261 1.35831 339.145 1.50126C339.14 1.1618 339.385 1.01864 339.979 0.853941L338.936 0.872143C338.553 1.11073 338.13 1.23435 337.7 1.23322L337.954 0.812039C336.439 1.07417 334.907 1.17322 333.376 1.10804C333.272 1.51117 334.811 2.17886 332.928 2.4741C332.85 2.27481 332.782 1.9056 333.264 1.80457C332.976 1.91089 332.673 1.94761 332.372 1.91274L333.111 1.52944C332.301 1.38923 332.694 1.84539 332.048 1.8258C332.042 1.51721 331.56 1.61826 331.642 1.36986C331.725 1.12147 332.216 1.48333 332.462 1.35556C331.807 1.3573 331.157 1.21171 330.542 0.925965C330.545 1.09569 330.549 1.34263 330.016 1.38281C328.625 1.40708 329.525 1.03633 328.765 0.879824C328.434 1.10169 327.524 0.901555 327.531 1.34902C327.412 1.35533 327.292 1.33078 327.18 1.27696C327.068 1.22314 326.966 1.14117 326.88 1.03623C326.164 1.24938 323.528 1.0947 324.407 1.61957L324.593 1.61632L324.481 1.61827C322.13 2.10691 319.511 1.44265 317.243 1.74461L317.241 1.59035C315.87 1.6603 314.505 1.82847 313.151 2.09394C312.729 2.1013 312.166 1.83325 312.336 1.64505C311.441 1.85995 310.52 1.87602 309.617 1.69251C310.681 1.41157 309.241 1.46757 310.707 1.48829C309.65 1.22923 308.563 1.2482 307.516 1.54399C308.018 1.14936 306.465 1.08388 305.809 1.20337L306.794 1.46398C306.113 1.52223 305.429 1.53416 304.746 1.49973L305.084 0.969108C302.243 0.401326 299.988 2.12304 297.809 1.09609C297.071 1.47941 299.353 1.33153 298.69 1.75984C297.651 1.59707 296.622 1.34686 295.61 1.01099C293.817 0.749027 293.947 1.78085 292.081 1.62819C292.32 1.80923 292.552 2.28372 291.165 2.47771C289.849 2.50068 289.538 1.74979 290.367 1.58097C290.677 1.57555 290.826 1.57296 290.816 1.68119C291.238 1.67382 291.794 1.50972 291.269 1.33367L291.098 1.5065C290.449 1.33261 288.612 1.39547 289.079 1.07864C288.089 1.2657 288.662 1.39462 289.384 1.47463C287.703 1.24157 286.777 1.52014 285.048 1.3651C285.322 1.45292 285.574 1.66462 285.301 1.66939C282.814 1.48128 284.203 2.04351 282.491 2.15056C281.505 1.88994 282.827 1.48106 281.105 1.74263C280.047 1.57589 280.873 1.25282 281.28 1.1068C280.003 1.27284 278.711 1.19123 277.451 0.864931L278.268 0.711721C277.858 0.784256 277.443 0.817274 277.028 0.810521L277.506 1.17268C277.01 1.18135 276.6 1.18848 276.609 0.972242C276.116 1.21236 277.004 1.56726 276.017 1.92405C275.368 1.75016 274.046 2.15909 273.814 1.66924C275.853 1.80343 273.582 1.17939 275.306 1.07212C274.895 1.14275 274.478 1.15002 274.065 1.09379C273.991 1.09509 274.137 0.984446 274.261 0.95142C272.304 0.553409 273.377 1.52255 271.353 1.54244C271.609 1.27559 270.885 1.0413 270.55 1.09344C271.37 1.07914 270.943 1.54961 270.202 1.77863C269.505 1.71608 268.804 1.76977 268.119 1.93841L268.903 2.03278C268.635 2.31528 267.988 2.28029 267.083 2.38869C267.005 2.17397 267.9 2.22004 267.588 2.13288C266.591 2.62875 265.308 1.67881 263.861 2.02818C263.212 1.8543 263.852 1.51904 263.216 1.40666C261.658 1.78885 261.521 1.05039 259.875 1.37237C260.354 1.73445 260.439 1.64032 259.29 2.01535L261.993 1.72128L260.264 2.27618C261.083 2.26187 261.985 2.01463 262.47 2.0679C261.644 2.39101 261.729 2.29696 262.132 2.59862C261.005 2.06265 259.915 2.96143 258.619 2.65995L258.603 1.74955C256.659 1.38218 255.16 2.28807 252.636 2.10062L253.445 2.24088C253.117 2.61705 251.893 2.26798 251.078 2.48287C251.147 2.17297 250.636 2.07383 250.285 1.89474C250.289 2.11076 248.435 1.92704 248.209 2.51748L247.085 2.1358C245.034 2.00183 244.766 3.04059 242.815 2.9666C243.393 2.63239 242.495 2.43198 243.807 2.17756C243.149 2.18905 242.566 2.19927 242.568 2.33814C242.18 2.1597 240.763 2.78632 240.162 2.50355C239.854 2.8154 239.463 2.97592 239.065 2.95492C238.99 2.95622 239.062 2.80066 239.062 2.80066C239.062 2.80066 237.923 3.02114 238.562 3.34954C236.535 2.44343 232.94 3.52489 231.175 2.73767C229.749 2.8706 228.025 2.99322 226.734 3.03119C226.807 2.93731 226.732 2.87698 226.981 2.91893C225.188 2.65697 225.891 3.80226 223.849 3.52921C222.81 3.05344 224.925 3.23263 224.276 3.05875C223.973 2.0608 221.795 3.2409 220.444 2.67797L220.779 2.67212C219.731 2.35087 218.229 3.10252 216.526 3.05506C216.526 3.05506 216.601 3.05372 216.524 2.91615C214.905 3.43284 213.245 3.73604 211.572 3.82065C212.074 3.4106 212.314 3.59161 211.997 3.21129C211.252 3.22429 212.219 3.84028 210.768 3.97365C210.292 3.76587 209.221 3.5993 209.078 3.18508L210.468 3.16081C209.751 2.63312 208.668 3.19223 207.985 3.20415L208.08 2.97093C205.945 3.00821 205.932 3.6876 203.647 3.68119L203.886 3.86222C202.655 4.48565 202.837 3.54098 201.591 4.01033L201.208 3.41504C200.379 3.56843 198.326 4.05189 196.85 4.18568C198.034 3.73503 199.245 3.39914 200.472 3.181C199.395 3.12933 198.319 3.26232 197.274 3.57631C197.62 3.45086 197.981 3.40788 198.34 3.44966C197.079 4.00128 195.745 4.26 194.404 4.21293C194.669 3.03528 190.153 3.99391 188.958 3.08871C186.085 3.58645 183.244 3.00322 179.893 3.13888C181.15 4.02757 178.912 3.15601 179.128 4.12462C178.752 4.21659 178.365 4.22334 177.986 4.14455L175.605 3.61505C175.041 3.34706 176.346 3.40143 176.268 3.18671C174.553 3.13947 175.541 2.79813 174.407 2.57098C174.648 2.90631 173.819 3.05967 172.836 2.95335L174.222 3.36138C171.834 3.89695 172.147 2.61043 169.735 3.14644L170.499 2.83983C169.261 3.03123 165.931 2.91955 164.739 3.6812C164.514 3.57709 164.224 3.33515 164.732 3.24912C161.775 3.19269 158.166 4.16637 155.861 3.74357L156.081 3.50818C155.534 3.51771 155.132 3.95691 154.433 3.73759C154.431 3.64502 154.653 3.50229 154.429 3.49076C153.717 3.73974 152.977 3.84642 152.236 3.80684L152.852 3.53373C149.967 3.29084 148.444 4.24341 146.026 4.43997C146.014 3.76106 143.75 3.58454 142.606 3.49647L142.605 3.40389C139.659 3.53923 136.721 3.86349 133.804 4.37548C131.855 3.68409 127.257 4.18114 124.146 3.83415C124.62 3.94935 124.08 4.36006 123.523 4.43154C122.965 4.50301 121.52 4.94491 121.633 4.31012L121.894 4.30557C121.325 3.71356 119.838 3.89388 118.67 3.89882L118.486 4.72011C115.411 3.58533 110.486 5.29186 108.804 4.25625C108.075 4.48505 107.156 4.48569 106.427 4.71449L106.42 4.26697C104.382 4.1945 103.363 4.15055 100.833 4.36448L101.349 4.04686C99.9213 4.07178 99.5709 5.34345 98.2552 5.38185L97.8465 4.74077C95.3636 4.78411 92.8709 4.27198 90.3976 4.87079C90.396 4.77821 90.5046 4.59108 90.9013 4.55329C89.7343 4.57366 86.3744 4.18477 86.8122 5.07232C86.8019 4.48599 84.2423 5.11719 82.905 5.34118L83.1085 4.90542C82.2644 5.46405 81.3262 5.77097 80.3673 5.80214C79.9948 5.80864 80.0386 5.46838 80.5371 5.56772C79.2918 5.37337 79.576 6.00121 78.0573 5.79621L78.6111 5.50873C77.9594 5.41592 77.3022 5.57845 76.7316 5.97365C75.8373 6.16478 74.9153 6.00841 74.091 5.52583C73.6147 5.92935 73.034 6.09895 72.4601 6.00196C72.3581 5.84939 72.6297 5.75204 72.7778 5.70315C70.6249 5.44748 69.5837 6.26823 68.0988 5.86198C68.0806 5.79517 68.0468 5.73644 68.0018 5.69326C67.9568 5.65007 67.9027 5.62432 67.8462 5.61939C69.5595 5.58948 70.9249 5.56565 70.8008 5.56781C70.7938 5.16664 69.4147 5.12902 70.4975 4.55448C69.0963 5.09863 67.6369 5.3841 66.1658 5.40181C66.1028 5.36577 66.0436 5.32009 65.9895 5.26593L66.1262 5.26355C65.8456 5.21277 65.5606 5.21775 65.282 5.27828C64.8474 5.28587 64.5724 5.1827 64.1624 5.17442C63.9954 4.85321 62.5828 5.03222 61.8873 5.02892C61.8949 5.46096 61.0493 5.3985 61.9 5.75408C61.8007 5.75581 62.0365 5.75169 62.4959 5.74368C62.5911 5.75258 62.6866 5.75092 62.7814 5.73869L64.4947 5.70879C63.9027 6.01011 63.2487 6.0754 62.6227 5.89577C62.2799 6.17957 61.9002 6.47949 61.6791 6.62226C60.7251 6.03697 58.9067 5.72919 58.6519 5.36321C56.5581 5.6467 53.6889 5.61962 52.3994 6.44472C51.8053 6.56313 51.7125 6.22513 51.4869 6.10559C51.8052 6.07702 52.1201 6.00949 52.4272 5.90397C51.1892 6.12623 48.8904 6.04286 48.6148 6.61874C47.1081 6.38266 49.4499 6.07944 47.3658 6.20843L47.6484 6.03374C43.5604 5.19446 41.0566 7.59963 36.4799 6.50649C36.7916 6.57823 36.9534 6.60628 37.0171 6.69777C31.8685 6.2783 26.4359 7.37634 21.344 6.64719C20.4945 6.53717 19.6388 6.71755 18.8694 7.16885L18.5382 6.69616L17.0455 7.26248C14.9171 7.70093 13.3011 6.18568 10.6448 6.9729L10.9981 7.29079C10.0298 7.30769 7.93495 7.52948 8.08988 7.15635C7.99616 7.25583 7.88376 7.32456 7.7629 7.35631C7.64204 7.38806 7.51645 7.38181 7.39754 7.33819L7.39323 7.09136L5.0168 7.5496C3.16403 7.41216 5.29786 6.57227 2.59063 6.57322C1.59906 6.68313 -0.239978 7.33262 0.123015 7.49607C0.486007 7.65951 1.15612 7.63239 1.19767 7.87862L0.281144 8.01812C0.119726 8.73092 -0.562594 9.4837 1.69311 9.93823L3.24984 9.47885L3.76509 9.82482L2.43662 9.848C3.02341 10.0568 3.64992 9.99102 4.19688 9.66297C4.3781 9.87567 4.61341 10.0027 4.86137 10.0218L6.38894 9.316C6.58001 9.59049 5.70343 9.88364 6.73656 10.02C7.45123 9.69879 6.04259 9.39919 7.23091 9.1778C7.98146 9.48883 7.76257 9.75505 8.63918 9.46193C8.76656 9.64492 8.64462 9.77052 8.23628 9.85482C9.01464 9.62515 10.3079 9.72606 10.7109 9.33316C11.5 9.72069 13.3533 9.17899 13.2907 9.8592C13.9599 9.53968 14.6632 9.34034 15.3791 9.26713C14.0774 10.1079 18.0732 9.22007 17.7417 10.1519C18.6971 9.39439 21.2494 9.7666 22.9678 9.31987C22.8366 9.42702 22.6807 9.4785 22.5233 9.46658C23.1582 9.52414 23.7881 9.65255 24.4052 9.8504C24.5313 9.24626 26.0311 9.08121 26.8688 8.69616C28.1205 9.26083 26.1611 9.41851 26.5432 9.96748C26.5349 9.48916 28.5957 9.45316 28.1912 9.04349C29.1039 9.39799 28.9765 9.215 29.4445 9.70074C29.5927 8.94186 30.299 9.56234 31.0358 9.08644C32.3583 9.43379 31.3959 9.79014 32.832 9.53356C33.5531 9.58271 32.2665 9.86758 32.2665 9.86758ZM66.6203 7.95595L65.9125 7.96831L66.6203 7.95595ZM69.5129 7.90546L68.2714 7.92713C68.1694 7.77457 68.266 7.61853 68.5642 7.62876C68.4042 7.70873 69.0773 7.85136 69.5118 7.84378L69.5129 7.90546ZM63.3522 5.00335C63.8116 4.99534 63.9606 4.99265 64.0245 5.09958L63.23 5.11345C63.267 5.07074 63.308 5.03383 63.3522 5.00335V5.00335Z" fill="#8ECF84"/>
</svg>
