<?xml version="1.0" standalone="no"?>
<!DOCTYPE svg PUBLIC "-//W3C//DTD SVG 1.1//EN" "http://www.w3.org/Graphics/SVG/1.1/DTD/svg11.dtd" >
<svg xmlns="http://www.w3.org/2000/svg" xmlns:xlink="http://www.w3.org/1999/xlink" version="1.1">
<metadata>
Created by FontForge 20170731 at Thu Apr  7 22:57:22 2022
 By Aleksey,,,
Copyright (c) 2021 by Lucas Le Bihan. All rights reserved. Use of this font software is subject to compliance to a license agreement.
</metadata>
<defs>
<font id="SelfModern-Italic" horiz-adv-x="1024" >
  <font-face 
    font-family="Self Modern Italic"
    font-weight="400"
    font-style="italic"
    font-stretch="normal"
    units-per-em="2048"
    panose-1="2 0 0 0 0 0 0 0 0 0"
    ascent="1597"
    descent="-451"
    x-height="1024"
    cap-height="1597"
    bbox="-369 -594 2894 2410"
    underline-thickness="53"
    underline-position="-257"
    slope="-10"
    unicode-range="U+000D-1F310"
  />
<missing-glyph horiz-adv-x="819" 
 />
    <glyph glyph-name="f_f.alt" unicode="ff" horiz-adv-x="1173" 
d="M217 922l21 102h233l29 143q38 198 150 324.5t249 126.5q74 0 112 -33t38 -82q0 -37 -21 -63.5t-61 -26.5q-33 0 -57.5 14t-37.5 31t-34.5 31t-49.5 14q-142 0 -180 -323l-18 -156h414l28 143q38 198 150.5 324.5t249.5 126.5q74 0 111.5 -33t37.5 -82q0 -37 -21 -63.5
t-61 -26.5q-33 0 -57.5 14t-37 31t-34 31t-49.5 14q-142 0 -180 -323l-19 -156h283l-21 -102h-278l-158 -656q-86 -357 -232.5 -547t-336.5 -190q-46 0 -76.5 21t-30.5 61q0 39 27.5 68.5t71.5 29.5q23 0 62.5 -8t64.5 -8q60 0 111.5 32t88.5 83.5t68.5 128t52.5 155
t39 174.5l127 656h-412l-157 -656q-86 -357 -233 -547t-337 -190q-46 0 -76 20.5t-30 61.5q0 39 27 68.5t71 29.5q23 0 62.5 -8t64.5 -8q60 0 111.5 32t88.5 83.5t68.5 128t53 155t39.5 174.5l127 656h-236z" />
    <glyph glyph-name="fi.alt" unicode="fi" horiz-adv-x="1230" 
d="M813 315l180 607h-420l-157 -656q-86 -357 -233 -547t-337 -190q-46 0 -76 20.5t-30 61.5q0 39 27 68.5t71 29.5q23 0 62.5 -8t64.5 -8q60 0 111.5 32t88.5 83.5t68.5 128t53 155t39.5 174.5l127 656h-236l21 102h233l29 143q38 198 150 324.5t249 126.5q74 0 112 -33
t38 -82q0 -37 -21 -63.5t-61 -26.5q-33 0 -57.5 14t-37.5 31t-34.5 31t-49.5 14q-142 0 -180 -323l-18 -156h567l8 -8q-99 -249 -241 -567q-60 -133 -60 -187q0 -47 30.5 -87t86.5 -40q86 0 233 205l41 -21l-135 -184q-49 -65 -80.5 -96.5t-62.5 -46.5h-41
q-61 0 -105.5 50.5t-44.5 121.5q0 62 27 151z" />
    <glyph glyph-name="f_f_i.alt" unicode="ffi" horiz-adv-x="1763" 
d="M217 922l21 102h233l29 143q38 198 150 324.5t249 126.5q74 0 112 -33t38 -82q0 -37 -21 -63.5t-61 -26.5q-33 0 -57.5 14t-37.5 31t-34.5 31t-49.5 14q-142 0 -180 -323l-18 -156h414l28 143q38 198 150.5 324.5t249.5 126.5q74 0 111.5 -33t37.5 -82q0 -37 -21 -63.5
t-61 -26.5q-33 0 -57.5 14t-37 31t-34 31t-49.5 14q-142 0 -180 -323l-19 -156h568l8 -8q-91 -229 -242 -567q-59 -131 -59 -187q0 -47 30 -87t86 -40q87 0 234 205l41 -21l-135 -184q-86 -115 -144 -143h-41q-61 0 -105 50.5t-44 121.5q0 62 27 151l180 607h-420l-158 -656
q-86 -357 -232.5 -547t-336.5 -190q-46 0 -76.5 21t-30.5 61q0 39 27.5 68.5t71.5 29.5q23 0 62.5 -8t64.5 -8q60 0 111.5 32t88.5 83.5t68.5 128t52.5 155t39 174.5l127 656h-412l-157 -656q-86 -357 -233 -547t-337 -190q-46 0 -76 20.5t-30 61.5q0 39 27 68.5t71 29.5
q23 0 62.5 -8t64.5 -8q60 0 111.5 32t88.5 83.5t68.5 128t53 155t39.5 174.5l127 656h-236z" />
    <glyph glyph-name="fl.alt" unicode="fl" horiz-adv-x="1212" 
d="M217 922l21 102h233l29 143q29 149 112.5 253t194.5 151t244 47q101 0 215 -43l37 22l8 -8q-71 -233 -262 -745q-138 -370 -159 -445q-22 -78 -22 -137q0 -47 29.5 -87t85.5 -40q87 0 234 205l40 -21l-135 -184q-48 -64 -79 -96t-60 -47h-41q-66 0 -110 48.5t-44 119.5
q0 55 27 155l297 1098q-26 49 -75.5 76t-112.5 27q-141 0 -219.5 -80t-96.5 -256l-16 -156h280l-20 -102h-279l-157 -656q-86 -359 -232.5 -548t-337.5 -189q-46 0 -76 20.5t-30 61.5q0 39 27 68.5t71 29.5q23 0 62.5 -8t64.5 -8q75 0 135 46t102.5 130.5t71.5 179.5t52 217
l127 656h-236z" />
    <glyph glyph-name="f_f_l.alt" unicode="ffl" horiz-adv-x="1744" 
d="M217 922l21 102h233l29 143q38 198 150 324.5t249 126.5q74 0 112 -33t38 -82q0 -37 -21 -63.5t-61 -26.5q-33 0 -57.5 14t-37.5 31t-34.5 31t-49.5 14q-142 0 -180 -323l-18 -156h414l28 143q29 149 112.5 253t194.5 151t244 47q101 0 215 -43l37 22l8 -8
q-71 -233 -262 -745q-119 -321 -149.5 -416t-30.5 -166q0 -47 29.5 -87t85.5 -40q86 0 233 205l41 -21l-135 -184q-48 -64 -79 -96t-60 -47h-41q-66 0 -110 48.5t-44 119.5q0 55 27 155l297 1098q-26 49 -76 76t-113 27q-141 0 -219 -80t-96 -256l-17 -156h281l-21 -102
h-278l-158 -656q-86 -359 -232 -548t-337 -189q-46 0 -76.5 21t-30.5 61q0 39 27.5 68.5t71.5 29.5q23 0 62.5 -8t64.5 -8q60 0 111.5 31.5t88.5 83t68.5 128t52.5 155t39 175.5l127 656h-412l-157 -656q-86 -357 -233 -547t-337 -190q-46 0 -76 20.5t-30 61.5q0 39 27 68.5
t71 29.5q23 0 62.5 -8t64.5 -8q60 0 111.5 32t88.5 83.5t68.5 128t53 155t39.5 174.5l127 656h-236z" />
    <glyph glyph-name=".notdef" horiz-adv-x="819" 
 />
    <glyph glyph-name=".null" 
 />
    <glyph glyph-name="nonmarkingreturn" horiz-adv-x="682" 
 />
    <glyph glyph-name="CR" unicode="&#xd;" 
 />
    <glyph glyph-name="space" unicode=" " horiz-adv-x="471" 
 />
    <glyph glyph-name="exclam" unicode="!" horiz-adv-x="614" 
d="M713 1597l-303 -1146h-62l201 1146h164zM205 102q0 58 37 90.5t86 32.5q50 0 86.5 -32.5t36.5 -90.5t-36.5 -90t-86.5 -32q-49 0 -86 32t-37 90z" />
    <glyph glyph-name="quotedbl" unicode="&#x22;" horiz-adv-x="614" 
d="M360 1065l95 532h65l-94 -532h-66zM565 1065l94 532h66l-94 -532h-66z" />
    <glyph glyph-name="numbersign" unicode="#" horiz-adv-x="1269" 
d="M410 0l92 522h-307l10 62h307l78 430h-307l10 61h307l92 522h66l-92 -522h319l92 522h66l-92 -522h307l-10 -61h-308l-77 -430h307l-10 -62h-308l-92 -522h-65l92 522h-320l-92 -522h-65zM578 584h319l78 430h-320z" />
    <glyph glyph-name="dollar" unicode="$" horiz-adv-x="1269" 
d="M586 -225l37 209q-67 6 -122.5 21.5t-86.5 27.5t-43 12q-19 0 -45 -20l-56 -45h-8l-67 512l41 20q47 -215 145.5 -326.5t253.5 -132.5l121 692q-9 6 -23 13q-51 26 -80 41.5t-69.5 40.5t-63 46t-48.5 51.5t-38.5 63t-21.5 76t-9 94.5q0 193 138.5 320t349.5 127h18
l37 205h66l-37 -209q73 -7 142.5 -28t80.5 -21q16 0 43 14l66 39h8l47 -430l-41 -21q-49 161 -135.5 255t-222.5 118l-117 -661q66 -35 101.5 -54.5t84 -50t73.5 -53.5t54 -57t42.5 -68.5t22.5 -79t9 -98.5q0 -84 -33 -161.5t-95.5 -140t-162 -99.5t-221.5 -37h-33l-37 -205
h-65zM535 1217q0 -61 17.5 -107.5t56 -83t76 -60.5t101.5 -57l111 639h-35q-149 0 -238 -88.5t-89 -242.5zM1102 377q0 64 -20.5 114.5t-63.5 91t-87 68.5t-114 64l-117 -666h9q179 0 286 89t107 239z" />
    <glyph glyph-name="percent" unicode="%" horiz-adv-x="1597" 
d="M539 717q-113 0 -171.5 82t-58.5 223q0 138 47 273.5t137.5 229t200.5 93.5h881l-12 -66l-1213 -1572l-53 40l1184 1532h-631q72 -81 72 -241q0 -103 -28 -208t-77 -191t-122 -140.5t-156 -54.5zM557 774q59 0 108.5 52.5t79 131.5t46 164t16.5 158q0 281 -133 281
q-58 0 -107.5 -52.5t-79.5 -131.5t-46.5 -164t-16.5 -158q0 -281 133 -281zM1188 -20q-113 0 -171.5 82t-58.5 223q0 138 47 273.5t137.5 229t200.5 93.5q111 0 169.5 -83t58.5 -225q0 -103 -28 -207.5t-77 -190.5t-122 -140.5t-156 -54.5zM1206 37q59 0 108.5 52.5
t79 131.5t46 164t16.5 158q0 280 -133 280q-58 0 -107.5 -52.5t-79.5 -131.5t-46.5 -164t-16.5 -158q0 -280 133 -280z" />
    <glyph glyph-name="ampersand" unicode="&#x26;" horiz-adv-x="1433" 
d="M922 625l-23 53l666 307l22 -53l-358 -164q91 -26 139.5 -99t48.5 -173q0 -37 -8.5 -79t-31 -93t-56 -98.5t-89 -92.5t-124.5 -78.5t-166.5 -54t-212.5 -20.5q-264 0 -412.5 102t-148.5 315q0 71 23.5 133.5t59.5 106.5t85.5 81.5t94.5 60t94.5 40.5t76.5 25.5t49 11.5v8
q-29 7 -58.5 18.5t-74.5 39t-78 62.5t-57.5 94t-24.5 130q0 78 35.5 151t100.5 131t167.5 93t225.5 35q78 0 140.5 -9t93 -19.5t57.5 -19.5t43 -9q28 0 61 20l64 37h8l47 -430l-41 -21q-18 72 -39 126t-56 106t-81 84.5t-115 52.5t-156 20q-193 0 -292 -95.5t-99 -260.5
q0 -68 22.5 -122.5t61.5 -91t94.5 -60.5t119 -34.5t138.5 -10.5h54l-11 -62h-53q-293 0 -448.5 -99.5t-155.5 -295.5q0 -174 117 -258t319 -84q103 0 189 16t144 42t103 63t71 74t42 79.5t21.5 76.5t5.5 67q0 108 -52.5 168.5t-123.5 60.5q-36 0 -60 -12z" />
    <glyph glyph-name="quotesingle" unicode="'" horiz-adv-x="409" 
d="M360 1065l95 532h65l-94 -532h-66z" />
    <glyph glyph-name="parenleft" unicode="(" horiz-adv-x="659" 
d="M940 1597q-696 -498 -696 -1261q0 -250 93.5 -453t242.5 -334l-29 -41q-181 135 -283 351.5t-102 478.5q0 180 40.5 346.5t109.5 301.5t167.5 257.5t207.5 217t237 177.5z" />
    <glyph glyph-name="parenright" unicode=")" horiz-adv-x="659" 
d="M-78 -451q696 498 696 1262q0 250 -93 452.5t-242 333.5l28 41q181 -135 283 -351t102 -478q0 -180 -40.5 -346.5t-109.5 -302t-167.5 -258t-207.5 -217.5t-237 -177z" />
    <glyph glyph-name="asterisk" unicode="*" horiz-adv-x="829" 
d="M319 1346l11 61l270 -47l-94 256l57 20l94 -258l177 211l47 -39l-176 -211l270 -47l-10 -61l-271 47l94 -256l-57 -21l-94 259l-176 -211l-47 38l176 211z" />
    <glyph glyph-name="plus" unicode="+" horiz-adv-x="1228" 
d="M227 584l11 61h456l82 461h66l-82 -461h459l-11 -61h-458l-82 -461h-66l82 461h-457z" />
    <glyph glyph-name="comma" unicode="," horiz-adv-x="495" 
d="M143 102q0 58 37 90.5t86 32.5q50 0 86.5 -32.5t36.5 -90.5q0 -48 -37 -98l-268 -360l-51 37l246 323l-9 2q-9 -6 -32 -6q-41 0 -68 27t-27 75z" />
    <glyph glyph-name="hyphen" unicode="-" horiz-adv-x="819" 
d="M178 543l10 61h656l-10 -61h-656z" />
    <glyph glyph-name="period" unicode="." horiz-adv-x="495" 
d="M143 102q0 58 37 90.5t86 32.5q50 0 86.5 -32.5t36.5 -90.5t-36.5 -90t-86.5 -32q-49 0 -86 32t-37 90z" />
    <glyph glyph-name="slash" unicode="/" horiz-adv-x="1284" 
d="M1509 1618l54 -41l-1586 -2048l-53 41z" />
    <glyph glyph-name="zero" unicode="0" horiz-adv-x="1269" 
d="M633 -20q-204 0 -310 149t-106 406q0 123 23 251t65.5 248.5t105.5 226.5t139 185.5t171 125.5t197 46q136 0 230.5 -70.5t139.5 -193.5t45 -291q0 -149 -32 -303.5t-94.5 -293.5t-146 -248t-195 -173.5t-232.5 -64.5zM662 41q99 0 185 66t144.5 170.5t101 234t62 256
t19.5 236.5q0 552 -285 552q-99 0 -185 -66t-144.5 -170t-101 -233.5t-62 -256t-19.5 -236.5q0 -553 285 -553z" />
    <glyph glyph-name="one" unicode="1" horiz-adv-x="1269" 
d="M666 184l194 1106h-387l12 62h246q111 0 167.5 45.5t74.5 142.5l14 78h62l-252 -1434q-11 -63 26 -93t131 -30h226l-13 -61h-942l13 61h225q182 0 203 123z" />
    <glyph glyph-name="two" unicode="2" horiz-adv-x="1269" 
d="M1044 0h-942l13 61q78 98 180.5 196.5t196 174t191.5 154t178 151.5t143.5 149t99 163t35.5 180q0 157 -81 242t-229 85q-146 0 -215.5 -65.5t-85.5 -192.5q-9 -74 -34.5 -112.5t-90.5 -38.5q-38 0 -57.5 23t-19.5 59q0 103 78 194t202.5 143t259.5 52q208 0 326.5 -105
t118.5 -272q0 -100 -34 -189t-96 -163t-139 -140.5t-174 -134.5t-188.5 -130.5t-195.5 -142.5t-183 -157q-39 -39 -39 -59q0 -23 45 -23h410q97 0 171.5 21t127.5 62t88.5 89t66.5 115l41 -20z" />
    <glyph glyph-name="three" unicode="3" horiz-adv-x="1269" 
d="M610 -20q-116 0 -203 35t-139 99.5t-78 148t-28 188.5l49 20q3 -199 103 -294t280 -95q205 0 322.5 116t117.5 294q0 166 -84.5 246.5t-261.5 80.5h-143l12 62h123q207 0 338 100.5t131 275.5q0 133 -69 216t-201 83q-253 0 -293 -258q-11 -75 -36 -113t-89 -38
q-38 0 -58 23t-20 59q0 93 76.5 183t205 148t265.5 58q184 0 283.5 -95t99.5 -233q0 -92 -35.5 -166t-99.5 -124.5t-129.5 -82.5t-149.5 -59v-8q64 -14 117 -41t97 -69.5t68.5 -105.5t24.5 -142q0 -101 -42 -193.5t-117 -163.5t-189 -113t-248 -42z" />
    <glyph glyph-name="four" unicode="4" horiz-adv-x="1269" 
d="M971 1305q-8 0 -31 -25l-676 -748h584l131 746q5 27 -8 27zM162 430l20 102l977 1086h10l-190 -1086h344l-18 -102h-344l-43 -246q-11 -64 26 -93.5t131 -29.5h123l-12 -61h-737l12 61h123q181 0 202 123l43 246h-667z" />
    <glyph glyph-name="five" unicode="5" horiz-adv-x="1269" 
d="M705 954q-208 0 -334 -180h-62l215 823h740l36 -368l-40 -21q-11 67 -31.5 115t-60.5 89t-107.5 62t-163.5 21h-205q-77 0 -110 -28t-56 -115l-120 -453q168 125 380 125q205 0 328 -122t123 -337q0 -111 -41 -214.5t-115.5 -187t-191.5 -133.5t-258 -50q-90 0 -161.5 25
t-119.5 67.5t-81 103t-48.5 128.5t-17.5 147l49 20q17 -389 369 -389q142 0 243.5 65.5t151 176t49.5 254.5q0 168 -91.5 272t-268.5 104z" />
    <glyph glyph-name="six" unicode="6" horiz-adv-x="1269" 
d="M971 1556q-127 0 -241.5 -101t-193.5 -276.5t-112 -394.5q74 122 189.5 191t258.5 69q188 0 298 -111.5t110 -305.5q0 -96 -29.5 -191.5t-84 -176.5t-127.5 -144t-165.5 -99t-191.5 -36q-203 0 -318.5 142.5t-115.5 405.5q0 148 32.5 302t97 294.5t152 251t206.5 176.5
t251 66q92 0 165 -27.5t118 -75t68.5 -108t23.5 -129.5q0 -51 -22 -77.5t-62 -26.5q-44 0 -75.5 29.5t-31.5 88.5q0 24 2.5 51t2.5 39q0 82 -50 128t-155 46zM825 983q-93 0 -172.5 -51.5t-131 -135.5t-80.5 -188t-29 -211q0 -167 72 -261.5t210 -94.5q123 0 220 88.5
t145.5 220.5t48.5 277q0 166 -72.5 261t-210.5 95z" />
    <glyph glyph-name="seven" unicode="7" horiz-adv-x="1269" 
d="M1468 1589q-163 -172 -290.5 -336.5t-238 -349t-187 -386.5t-117.5 -419q-12 -63 -37.5 -90.5t-69.5 -27.5q-52 0 -77 30.5t-15 91.5q22 122 107 297.5t210 366.5t246 357.5t252 332.5q12 14 5 26.5t-31 12.5h-404q-98 0 -174 -21t-129.5 -62t-89.5 -89t-68 -115l-41 21
l173 368h978z" />
    <glyph glyph-name="eight" unicode="8" horiz-adv-x="1269" 
d="M1214 418q0 -87 -39 -166.5t-108 -140t-172 -96t-223 -35.5q-218 0 -348.5 101t-130.5 275q0 51 14 98t36 84.5t59.5 73.5t73.5 63.5t90 57.5t97 51.5t105 49.5q-103 85 -161 174.5t-58 203.5q0 173 138 289.5t351 116.5q180 0 284.5 -90.5t104.5 -229.5q0 -69 -25 -128
t-61.5 -100.5t-98.5 -82t-112.5 -65.5t-128.5 -58q58 -43 94.5 -72.5t82.5 -75.5t72.5 -87t45 -96.5t18.5 -114.5zM584 1264q0 -56 20.5 -106.5t63.5 -97.5t81.5 -80t102.5 -81q80 34 138.5 67.5t109.5 78.5t77.5 102.5t26.5 126.5q0 125 -82.5 203.5t-222.5 78.5
q-147 0 -231 -82t-84 -210zM330 387q0 -164 107 -255t272 -91q160 0 263 87t103 232q0 40 -10 77t-32.5 71.5t-44.5 61.5t-61 60.5t-65 54.5t-74.5 57t-72.5 55q-163 -76 -224 -118q-135 -93 -157 -231q-4 -29 -4 -61z" />
    <glyph glyph-name="nine" unicode="9" horiz-adv-x="1269" 
d="M557 82q160 0 283.5 98.5t195 264.5t94.5 384q-168 -276 -442 -276q-188 0 -295.5 111.5t-107.5 306.5q0 120 46 237.5t123.5 208t189 146t233.5 55.5q204 0 318 -142.5t114 -406.5q0 -171 -31.5 -331.5t-94 -298t-150 -240t-207 -161t-257.5 -58.5q-100 0 -176.5 32.5
t-123 89.5t-71 129.5t-26.5 157.5l41 21q14 -156 100 -242t244 -86zM735 614q124 0 220 88.5t143 220.5t47 277q0 167 -70.5 261.5t-208.5 94.5q-93 0 -172 -51.5t-130 -135t-79 -186.5t-28 -210q0 -169 70 -264t208 -95z" />
    <glyph glyph-name="colon" unicode=":" horiz-adv-x="491" 
d="M143 102q0 58 37 90.5t86 32.5q50 0 86.5 -32.5t36.5 -90.5t-36.5 -90t-86.5 -32q-49 0 -86 32t-37 90zM285 922q0 58 37 90t86 32q50 0 86 -32t36 -90t-36 -90.5t-86 -32.5q-49 0 -86 32.5t-37 90.5z" />
    <glyph glyph-name="semicolon" unicode=";" horiz-adv-x="532" 
d="M180 102q0 58 37 90.5t86 32.5q50 0 86.5 -32.5t36.5 -90.5q0 -48 -37 -98l-268 -360l-51 37l245 323l-8 2q-9 -6 -33 -6q-41 0 -67.5 27t-26.5 75zM303 922q0 58 37 90t86 32q50 0 86.5 -32t36.5 -90t-36.5 -90.5t-86.5 -32.5q-49 0 -86 32.5t-37 90.5z" />
    <glyph glyph-name="less" unicode="&#x3c;" horiz-adv-x="1228" 
d="M1102 233l-12 -69l-863 450l1022 451l-14 -78l-866 -377z" />
    <glyph glyph-name="equal" unicode="=" horiz-adv-x="1228" 
d="M244 788l10 62h1022l-10 -62h-1022zM170 379l10 61h1022l-10 -61h-1022z" />
    <glyph glyph-name="greater" unicode="&#x3e;" horiz-adv-x="1228" 
d="M1219 614l-1022 -450l14 78l866 376l-733 377l12 70z" />
    <glyph glyph-name="question" unicode="?" horiz-adv-x="1228" 
d="M887 1556q-87 0 -150.5 -18.5t-102.5 -54t-60.5 -82t-30.5 -109.5q-5 -36 -12 -60t-20 -47t-36 -34.5t-55 -11.5q-38 0 -58 22t-20 58q0 69 41 140t111 128.5t176 94t225 36.5q222 0 342.5 -108.5t120.5 -288.5q0 -98 -30.5 -170t-80.5 -113.5t-111 -71t-125.5 -53
t-120 -49t-98.5 -69.5t-57 -105l-33 -139h-61l53 221q18 74 58.5 127.5t91 83.5t108 53t110.5 46t96.5 52.5t70 81.5t26.5 125q0 131 -97 223t-271 92zM477 102q0 58 37 90.5t86 32.5q50 0 86.5 -32.5t36.5 -90.5t-36.5 -90t-86.5 -32q-49 0 -86 32t-37 90z" />
    <glyph glyph-name="at" unicode="@" horiz-adv-x="1837" 
d="M1169 213q0 26 11 72h-17q-33 -41 -52.5 -64t-56 -58.5t-68 -54t-76.5 -33t-93 -14.5q-100 0 -164.5 64t-64.5 170q0 235 309 274l111 15q177 24 238 60t61 124q0 63 -54 106.5t-161 43.5q-92 0 -148.5 -41.5t-56.5 -114.5q0 -43 -23.5 -66.5t-58.5 -23.5t-52.5 22
t-17.5 54q0 60 59.5 111.5t152 79.5t192.5 28q135 0 210.5 -50.5t75.5 -134.5q0 -25 -5.5 -50.5t-22.5 -61.5t-25.5 -52.5t-37.5 -66.5t-36 -62q-42 -72 -55.5 -115t-13.5 -87q0 -55 41 -85t116 -30q74 0 138.5 25.5t116 75.5t81 131.5t29.5 185.5q0 143 -50 267t-141.5 216
t-229 144.5t-304.5 52.5q-222 0 -394.5 -102.5t-264 -274.5t-91.5 -381q0 -167 56.5 -307t157 -236t238 -152t298.5 -63v-61q-174 7 -323.5 67.5t-259.5 164t-173 255t-63 332.5q0 169 60 319t165.5 260.5t260 175t333.5 64.5q180 0 330 -57.5t251.5 -157t157.5 -235.5
t56 -291q0 -121 -37.5 -222t-101 -167.5t-145 -103t-171.5 -36.5q-95 0 -146 39.5t-51 112.5zM924 526q-109 -16 -163 -58.5t-54 -131.5q0 -76 50 -118t130 -42q130 0 218.5 98t151.5 297z" />
    <glyph glyph-name="A" unicode="A" horiz-adv-x="1681" 
d="M594 0h-574l13 61h69q93 0 134 27t92 117l743 1351l88 62h8l269 -1454q10 -55 56 -79t110 -24h69l-12 -61h-655l12 61h82q117 0 158 28.5t30 94.5l-67 389h-613l-198 -368q-25 -45 -25 -74q0 -70 141 -70h82zM639 635h569l-139 799z" />
    <glyph glyph-name="B" unicode="B" horiz-adv-x="1519" 
d="M1479 504q0 -139 -90.5 -255t-248 -182.5t-347.5 -66.5h-732l13 61h123q180 0 202 123l217 1229q11 61 -26.5 92t-132.5 31h-123l12 61h668q267 0 409 -89.5t142 -258.5q0 -144 -120.5 -250t-314.5 -147q172 -28 260.5 -121.5t88.5 -226.5zM748 1413l-95 -532h254
q235 0 360.5 90.5t125.5 261.5q0 104 -59 173.5t-156 99.5t-230 30q-179 0 -200 -123zM795 819h-152l-113 -635q-11 -63 26.5 -93t131.5 -30h53q119 0 221 29t179.5 84.5t121.5 142.5t44 195q0 164 -128.5 235.5t-383.5 71.5z" />
    <glyph glyph-name="C" unicode="C" horiz-adv-x="1476" 
d="M1079 1618q87 0 153 -14t107 -28.5t66 -14.5t59 18l66 39h8l47 -430l-41 -21q-55 179 -171 274t-326 95q-150 0 -280.5 -64.5t-219.5 -173.5t-140 -255t-51 -306q0 -132 35.5 -246.5t102.5 -201.5t172.5 -137t236.5 -50q193 0 342 104t234 286l41 -21
q-46 -99 -106.5 -181.5t-143.5 -155t-194.5 -113.5t-239.5 -41q-188 0 -327.5 82.5t-210.5 225.5t-71 326q0 157 43.5 308t123.5 275.5t184.5 219.5t234.5 148t266 53z" />
    <glyph glyph-name="D" unicode="D" horiz-adv-x="1681" 
d="M795 0h-734l13 61h123q180 0 202 123l217 1229q11 61 -26.5 92t-132.5 31h-123l12 61h711q162 0 291 -50.5t212 -139.5t127 -208t44 -259q0 -115 -31 -230.5t-88 -219.5t-141.5 -194t-186 -155.5t-228 -103t-261.5 -37.5zM748 1413l-218 -1229q-11 -61 27 -92t131 -31h96
q178 0 324.5 68.5t245 190t152 290t53.5 367.5q0 121 -30.5 219.5t-94 176t-173 120.5t-257.5 43h-56q-179 0 -200 -123z" />
    <glyph glyph-name="E" unicode="E" horiz-adv-x="1474" 
d="M956 778h-321l-105 -594q-11 -61 27 -92t131 -31h285q63 0 120.5 15t98.5 35t80.5 54.5t62 59t47.5 64.5t33 55t23 45l41 -20l-168 -369h-1250l13 61h123q181 0 202 123l217 1229q11 59 -26.5 91t-132.5 32h-123l12 61h1186l37 -368l-41 -21q-3 24 -6.5 44.5t-15 56
t-26.5 63.5t-43 60t-63 53.5t-87.5 36t-115.5 14.5h-223q-180 0 -200 -123l-101 -573h320q206 0 252 258l12 69h49l-127 -716h-49l12 69q25 134 -15 196t-145 62z" />
    <glyph glyph-name="F" unicode="F" horiz-adv-x="1476" 
d="M881 0h-820l13 61h123q180 0 202 123l217 1229q11 61 -26.5 92t-132.5 31h-123l12 61h1270l37 -368l-41 -21q-3 24 -6.5 44.5t-15 56t-26.5 63.5t-43 60t-63 53.5t-87.5 36t-115.5 14.5h-307q-179 0 -200 -123l-101 -573h363q203 0 252 258l12 69h49l-127 -716h-49l12 69
q18 131 -19.5 194.5t-140.5 63.5h-364l-105 -594q-11 -64 26.5 -93.5t131.5 -29.5h205z" />
    <glyph glyph-name="G" unicode="G" horiz-adv-x="1472" 
d="M760 -20q-114 0 -206.5 36.5t-152 96.5t-100 141t-57.5 165.5t-17 174.5q0 150 32.5 288.5t89.5 250t136.5 203.5t172.5 153.5t197.5 95t211.5 33.5q57 0 106 -9t76.5 -19.5t57 -19.5t51.5 -9q24 0 59 18l66 39h8l47 -430l-41 -21q-30 97 -64.5 161t-88 113.5t-131.5 72
t-187 22.5q-143 0 -268 -62t-213 -168.5t-138.5 -254t-50.5 -314.5q0 -127 28.5 -238t85 -201.5t152.5 -143t220 -52.5q98 0 174 32.5t126.5 93t83 133.5t52.5 167l45 209h-588l10 62h711l-164 -799h-41v274q-191 -294 -491 -294z" />
    <glyph glyph-name="H" unicode="H" horiz-adv-x="1804" 
d="M799 0h-738l13 61h123q181 0 202 123l217 1229q11 63 -26 93t-133 30h-123l12 61h737l-12 -61h-123q-179 0 -200 -123l-101 -573h811l101 573q11 63 -26.5 93t-133.5 30h-123l12 61h737l-12 -61h-123q-179 0 -200 -123l-217 -1229q-11 -64 26 -93.5t131 -29.5h123
l-12 -61h-737l12 61h123q181 0 202 123l105 594h-811l-105 -594q-11 -64 26.5 -93.5t131.5 -29.5h123z" />
    <glyph glyph-name="I" unicode="I" horiz-adv-x="862" 
d="M799 0h-738l13 61h123q181 0 202 123l217 1229q10 56 -28 89.5t-131 33.5h-123l12 61h737l-12 -61h-123q-179 0 -200 -123l-218 -1229q-11 -60 27 -91.5t131 -31.5h123z" />
    <glyph glyph-name="J" unicode="J" horiz-adv-x="1064" 
d="M387 -20q-63 0 -112 19.5t-77.5 50t-46.5 71.5t-24 79t-6 79q0 70 10 110l43 21q-6 -30 -6 -88q0 -42 9 -79.5t30 -76t65.5 -61.5t106.5 -23q246 0 315 389l166 942q11 61 -27 92t-133 31h-122l12 61h737l-12 -61h-123q-180 0 -201 -123l-164 -921q-21 -120 -55 -210.5
t-86 -160t-127 -105.5t-172 -36z" />
    <glyph glyph-name="K" unicode="K" horiz-adv-x="1681" 
d="M799 0h-738l13 61h123q181 0 202 123l217 1229q11 63 -26 93t-133 30h-121l8 61h735l-8 -61h-123q-179 0 -200 -123l-119 -668l745 648q66 58 66 102q0 41 -82 41h-82l8 61h574l-9 -61h-69q-88 0 -151 -33t-152 -110l-471 -402l399 -827q26 -54 80 -78.5t117 -24.5h69
l-12 -61h-655l12 61h82q157 0 157 74q0 21 -12 49l-344 717l6 6l-291 -245l-84 -478q-11 -63 26.5 -93t131.5 -30h123z" />
    <glyph glyph-name="L" unicode="L" horiz-adv-x="1392" 
d="M1249 0h-1188l13 61h123q180 0 202 123l217 1229q11 63 -26 93t-133 30h-123l12 61h778l-12 -61h-164q-179 0 -200 -123l-218 -1229q-11 -64 26.5 -93.5t131.5 -29.5h223q63 0 120.5 15t98.5 35t80.5 54.5t62 59t47.5 64.5t33 55t23 45l41 -20z" />
    <glyph glyph-name="M" unicode="M" horiz-adv-x="2131" 
d="M2068 0h-737l12 61h123q182 0 203 123l223 1284l-872 -1488h-8l-338 1509l-246 -1305q-12 -63 25.5 -93t132.5 -30h82l-13 -61h-594l13 61h82q178 0 202 123l234 1229q11 62 -26.5 92.5t-133.5 30.5h-82l12 61h420l310 -1384l798 1384h459l-12 -61h-121q-180 0 -201 -123
l-215 -1229q-11 -64 26.5 -93.5t131.5 -29.5h123z" />
    <glyph glyph-name="N" unicode="N" horiz-adv-x="1699" 
d="M1577 1413q11 61 -27 92t-133 31h-82l13 61h594l-13 -61h-82q-179 0 -200 -123l-258 -1413h-70l-664 1468l-227 -1284q-11 -61 27 -92t131 -31h82l-13 -61h-594l13 61h82q181 0 202 123l217 1229q11 61 -26.5 92t-132.5 31h-82l12 61h393l621 -1366z" />
    <glyph glyph-name="O" unicode="O" horiz-adv-x="1642" 
d="M819 -20q-148 0 -264 52.5t-185.5 142t-105 201.5t-35.5 238q0 168 45.5 323.5t128 278t191 213.5t240.5 140t272 49q120 0 218.5 -34.5t166.5 -94.5t115 -141t68.5 -173t21.5 -192q0 -210 -71 -397.5t-190.5 -319.5t-280 -209t-335.5 -77zM942 102q181 0 326 99.5
t225 272.5t80 386q0 134 -35.5 247t-105 200.5t-185 137.5t-264.5 50q-190 0 -335 -100t-220.5 -271.5t-75.5 -386.5q0 -132 38 -246.5t110.5 -201.5t186 -137t255.5 -50z" />
    <glyph glyph-name="P" unicode="P" horiz-adv-x="1413" 
d="M852 61l-12 -61h-779l13 61h123q181 0 202 123l217 1229q11 61 -26.5 92t-132.5 31h-123l12 61h664q270 0 421.5 -90t151.5 -270q0 -221 -183.5 -358.5t-500.5 -137.5h-270l-99 -557q-11 -63 26.5 -93t131.5 -30h164zM748 1413l-109 -610h209q271 0 417 110t146 320
q0 153 -116 228t-318 75h-29q-179 0 -200 -123z" />
    <glyph glyph-name="Q" unicode="Q" horiz-adv-x="1642" 
d="M819 -20q-148 0 -264 52.5t-185.5 142t-105 201.5t-35.5 238q0 168 45.5 323.5t128 278t191 213.5t240.5 140t272 49q120 0 218.5 -34.5t166.5 -94.5t115 -141t68.5 -173t21.5 -192q0 -226 -80.5 -422.5t-220.5 -335.5l207 -307l-54 -41l-205 301q-233 -198 -524 -198z
M942 102q207 0 367 129l-219 324l53 41l215 -317q102 104 158.5 254t56.5 327q0 134 -35.5 247t-105 200.5t-185 137.5t-264.5 50q-190 0 -335 -100t-220.5 -271.5t-75.5 -386.5q0 -132 38 -246.5t110.5 -201.5t186 -137t255.5 -50z" />
    <glyph glyph-name="R" unicode="R" horiz-adv-x="1536" 
d="M840 0h-779l11 61h123q181 0 202 123l217 1229q11 63 -26 93t-133 30h-123l12 61h709q273 0 425 -85.5t152 -262.5q0 -92 -36.5 -171.5t-109.5 -143t-191.5 -103.5t-272.5 -47l252 -559q40 -88 78 -126t106 -38h49l-10 -61h-274l-342 782h-246l-105 -598
q-11 -63 26.5 -93t131.5 -30h164zM899 844q286 0 422.5 105.5t136.5 293.5q0 150 -117 221.5t-321 71.5h-74q-180 0 -201 -123l-100 -569h254z" />
    <glyph glyph-name="S" unicode="S" horiz-adv-x="1269" 
d="M721 -20q-99 0 -176.5 16.5t-119.5 32.5t-54 16q-19 0 -45 -20l-56 -45h-8l-67 512l41 20q53 -240 169.5 -351.5t303.5 -111.5q179 0 286 89t107 239q0 71 -22.5 124.5t-83.5 101t-100.5 70.5t-137.5 72q-5 3 -8.5 4.5t-8 4t-8.5 4.5q-51 26 -80 41.5t-69.5 40.5t-63 46
t-48.5 51.5t-38.5 63t-21.5 76t-9 94.5q0 193 138.5 320t349.5 127q81 0 148 -13t106.5 -26.5t52.5 -13.5q16 0 43 14l66 39h8l47 -430l-41 -21q-58 190 -166.5 285.5t-292.5 95.5q-149 0 -238 -88.5t-89 -242.5q0 -52 14.5 -94.5t36.5 -71.5t61 -58t73 -48.5t89 -47.5
q11 -5 16 -8q185 -97 250 -145q111 -83 142 -195q16 -57 16 -131q0 -84 -33 -161.5t-95.5 -140t-162 -99.5t-221.5 -37z" />
    <glyph glyph-name="T" unicode="T" horiz-adv-x="1556" 
d="M1149 0h-737l12 61h123q181 0 203 123l217 1229q11 63 -26.5 93t-133.5 30h-41q-311 0 -467 -328l-41 21l168 368h1270l37 -368l-41 -21q-3 25 -6.5 44.5t-14.5 55.5t-25.5 64t-42 60.5t-62 53.5t-87 35.5t-115.5 14.5h-41q-179 0 -200 -123l-217 -1229q-11 -63 26 -93
t131 -30h123z" />
    <glyph glyph-name="U" unicode="U" horiz-adv-x="1679" 
d="M856 -20q-253 0 -359 136t-67 376l164 921q11 63 -26.5 93t-133.5 30h-123l13 61h737l-12 -61h-123q-180 0 -201 -123l-164 -921q-22 -133 3.5 -227.5t108 -149t218.5 -54.5q112 0 202 32t150 89t96.5 129.5t51.5 159.5l165 942q11 63 -26 93t-133 30h-99l13 61h631
l-13 -61h-98q-184 0 -205 -123l-166 -942q-40 -229 -199 -360t-405 -131z" />
    <glyph glyph-name="V" unicode="V" horiz-adv-x="1556" 
d="M1266 1597h573l-12 -61h-70q-65 0 -101.5 -12t-62 -40.5t-57.5 -90.5l-745 -1413h-9l-284 1454q-20 102 -158 102h-70l13 61h655l-12 -61h-99q-105 0 -152.5 -30t-35.5 -93l223 -1169l592 1149q25 52 25 77q0 66 -144 66h-82z" />
    <glyph glyph-name="W" unicode="W" horiz-adv-x="2129" 
d="M1823 1597h590l-13 -61h-69q-95 0 -138 -27.5t-84 -115.5l-663 -1413h-8l-168 1208l-561 -1208h-9l-202 1454q-13 102 -158 102h-70l13 61h655l-12 -61h-103q-102 0 -148 -30.5t-38 -92.5l145 -1139l469 1035l-16 125q-13 102 -158 102h-8l12 61h594l-12 -61h-102
q-102 0 -148.5 -30.5t-38.5 -92.5l146 -1139l508 1119q22 52 22 75q0 68 -137 68h-103z" />
    <glyph glyph-name="X" unicode="X" horiz-adv-x="1597" 
d="M426 205q-39 -46 -39 -80q0 -64 131 -64h86l-10 -61h-574l11 61h69q79 0 126.5 30.5t117.5 113.5l524 618l-282 615q-44 98 -185 98h-69l12 61h655l-12 -61h-82q-176 0 -176 -74q0 -22 12 -49l228 -493l397 473q31 36 31 73q0 70 -111 70h-82l13 61h573l-12 -61h-70
q-63 0 -106.5 -15.5t-75 -43t-78.5 -84.5l-451 -537l322 -694q24 -51 71.5 -76t106.5 -25h90l-12 -61h-655l12 61h74q165 0 165 82q0 18 -10 41l-264 576z" />
    <glyph glyph-name="Y" unicode="Y" horiz-adv-x="1638" 
d="M1556 1393l-563 -779l-75 -430q-11 -63 26 -93t131 -30h123l-12 -61h-737l12 61h123q181 0 202 123l76 430l-321 822q-22 52 -71 76t-110 24h-69l12 61h655l-12 -61h-90q-117 0 -153 -30.5t-11 -92.5l281 -735l502 715q30 47 30 73q0 70 -149 70h-62l13 61h573l-12 -61
h-90q-74 0 -117.5 -29t-104.5 -114z" />
    <glyph glyph-name="Z" unicode="Z" horiz-adv-x="1269" 
d="M1126 0h-1079v8l1256 1528h-457q-63 0 -120.5 -14.5t-98.5 -35.5t-80 -54t-62 -59.5t-47 -64t-33 -55.5t-22 -45l-41 21l168 368h999v-8l-1253 -1528h537q54 0 103 9.5t88 28.5t71.5 39t60.5 50t47 52t38 54t27 47t21 40q3 5 4 8l41 -20z" />
    <glyph glyph-name="bracketleft" unicode="[" horiz-adv-x="573" 
d="M80 -471l369 2089h409l-10 -62h-344l-348 -1966h344l-11 -61h-409z" />
    <glyph glyph-name="backslash" unicode="\" horiz-adv-x="1021" 
d="M283 1597l61 21l598 -2069l-61 -20z" />
    <glyph glyph-name="bracketright" unicode="]" horiz-adv-x="575" 
d="M696 1618l-368 -2089h-410l10 61h344l349 1966h-345l11 62h409z" />
    <glyph glyph-name="asciicircum" unicode="^" 
d="M913 143l-233 795l-516 -795h-78l616 942l285 -942h-74z" />
    <glyph glyph-name="underscore" unicode="_" horiz-adv-x="1300" 
d="M61 -123l11 62h1134l-10 -62h-1135z" />
    <glyph glyph-name="grave" unicode="`" 
d="M543 1595l55 39l305 -424l-55 -39z" />
    <glyph glyph-name="a" unicode="a" horiz-adv-x="1206" 
d="M844 242h-21q-35 -46 -60 -75.5t-66 -69t-79 -62t-90.5 -39t-109.5 -16.5q-119 0 -195 75t-76 199q0 276 365 324l127 16q208 27 281 70.5t73 146.5q0 74 -64.5 125t-189.5 51q-106 0 -167.5 -48t-61.5 -136q0 -51 -26.5 -79t-69.5 -28q-40 0 -61 26.5t-21 63.5
q0 71 67 131t173.5 93.5t222.5 33.5q159 0 248.5 -58.5t89.5 -158.5q0 -48 -24.5 -111t-47.5 -103t-78 -130q-56 -92 -75 -145t-19 -100q0 -45 23.5 -74t64.5 -29q86 0 233 205l41 -21l-135 -184q-49 -65 -80.5 -96.5t-62.5 -46.5h-37q-57 0 -85 38t-28 105q0 37 21 107z
M543 526q-129 -19 -192.5 -68.5t-63.5 -154.5q0 -90 59 -139t154 -49q153 0 257.5 115.5t176.5 349.5z" />
    <glyph glyph-name="b" unicode="b" horiz-adv-x="1116" 
d="M264 209l-61 -250h-62l398 1536h-222l21 102h369l8 -8q-13 -41 -25.5 -79.5t-32 -93t-33 -90.5t-45 -118t-48.5 -126t-64.5 -165t-73.5 -188h21q39 59 84.5 110.5t102.5 99.5t123 76.5t132 28.5q122 0 200.5 -88t78.5 -251q0 -181 -82.5 -349.5t-218 -272t-281.5 -103.5
q-106 0 -173.5 66.5t-90.5 162.5h-25zM377 401q0 -144 68.5 -217t189.5 -73q69 0 132.5 29.5t111.5 79.5t84 114.5t54.5 138t18.5 145.5q0 139 -69 215t-189 76q-87 0 -163.5 -45t-127.5 -117t-80.5 -163t-29.5 -183z" />
    <glyph glyph-name="c" unicode="c" horiz-adv-x="964" 
d="M481 -20q-146 0 -232.5 88.5t-86.5 250.5q0 100 29.5 204t85 196.5t127.5 165.5t164 116t188 43q108 0 174.5 -57.5t66.5 -150.5q0 -56 -25 -89.5t-67 -33.5q-40 0 -67 21.5t-27 64.5q0 17 7 40.5t7 37.5q0 45 -127 45q-122 0 -222.5 -69.5t-156 -184t-55.5 -246.5
q0 -149 79 -230t218 -81q112 0 201 65.5t145 163.5l41 -21q-24 -35 -39.5 -58t-46.5 -62.5t-57.5 -65.5t-65.5 -57.5t-76.5 -50.5t-85 -32t-96.5 -13z" />
    <glyph glyph-name="d" unicode="d" horiz-adv-x="1224" 
d="M862 270h-20q-189 -290 -400 -290q-125 0 -202.5 91t-77.5 248q0 135 49 268.5t129 233t186.5 161.5t216.5 62q185 0 244 -204h29l125 655h-226l21 102h377l8 -8q-26 -85 -58 -182.5t-87 -260t-101 -302.5q-95 -288 -131.5 -418t-36.5 -180q0 -55 31 -83t78 -28
q86 0 233 205l41 -21l-135 -184q-49 -65 -80.5 -96.5t-62.5 -46.5h-37q-59 0 -98 42t-39 109q0 57 24 127zM903 623q0 145 -65 217.5t-185 72.5q-114 0 -207 -77t-141.5 -192t-48.5 -238q0 -140 65.5 -215.5t184.5 -75.5q70 0 133 29t110.5 79t82.5 114.5t53 138t18 147.5z
" />
    <glyph glyph-name="e" unicode="e" horiz-adv-x="983" 
d="M958 319q-28 -47 -58.5 -89t-76.5 -89.5t-94.5 -81.5t-112.5 -56.5t-131 -22.5q-148 0 -235.5 89t-87.5 250q0 130 48 261.5t126 233.5t185.5 166t219.5 64q63 0 112 -19t78 -50.5t44 -71t14.5 -80.5t-14.5 -78l-88 -233h-615q-8 -41 -8 -90q0 -149 80.5 -230t220.5 -81
q119 0 210 62.5t143 166.5zM874 614q44 129 -7.5 218.5t-188.5 89.5q-126 0 -228 -87t-151 -221h575z" />
    <glyph glyph-name="f" unicode="f" horiz-adv-x="641" 
d="M217 922l21 102h233l29 143q38 198 150 324.5t249 126.5q74 0 112 -33t38 -82q0 -37 -21 -63.5t-61 -26.5q-33 0 -57.5 14t-37.5 31t-34.5 31t-49.5 14q-142 0 -180 -323l-18 -156h282l-20 -102h-279l-157 -656q-86 -357 -233 -547t-337 -190q-46 0 -76 20.5t-30 61.5
q0 39 27 68.5t71 29.5q23 0 62.5 -8t64.5 -8q60 0 111.5 32t88.5 83.5t68.5 128t53 155t39.5 174.5l127 656h-236z" />
    <glyph glyph-name="g" unicode="g" horiz-adv-x="1015" 
d="M270 635q0 169 113.5 289t275.5 120q63 0 125 -20h381l-20 -102h-238v-21q80 -91 80 -192q0 -176 -109.5 -283t-308.5 -107h-43t-41.5 -1t-41 -3.5t-35 -6.5t-32 -10t-23 -15t-16.5 -21.5t-5 -28.5q0 -46 94 -81l291 -107q209 -77 209 -238q0 -121 -107.5 -199.5
t-298.5 -78.5q-105 0 -200.5 19.5t-175 58t-126.5 103t-47 147.5q0 31 8 58t17.5 46t31.5 38t36 29.5t45.5 24.5t45.5 19t51.5 17.5t47.5 16.5v17q-47 31 -47 78q0 61 50.5 91.5t156.5 55.5v12q-28 20 -47.5 38.5t-44.5 51.5t-38.5 80t-13.5 105zM360 717
q0 -136 84.5 -221.5t231.5 -85.5q102 0 159.5 62t57.5 163q0 136 -84 221.5t-231 85.5q-102 0 -160 -62t-58 -163zM854 -238q0 102 -168 168l-348 140q-111 0 -177.5 -40.5t-66.5 -127.5q0 -84 84 -146.5t209 -91.5t268 -29q98 0 148.5 32.5t50.5 94.5z" />
    <glyph glyph-name="h" unicode="h" horiz-adv-x="1243" 
d="M817 160q0 53 31 138.5t67.5 162t67.5 168.5t31 157q0 63 -33 99.5t-94 36.5q-27 0 -53 -10.5t-52.5 -35.5t-47 -48t-48.5 -67t-45 -72.5t-49 -84.5t-49 -84l-310 -520h-94l400 1495h-222l21 102h369l8 -8q-72 -235 -436 -1261h57l203 313q10 15 38.5 60t39 61t37 55
t39.5 54.5t38 46t41.5 44t41 33t45.5 28t46 15t51 6.5q100 0 152.5 -58t52.5 -146q0 -47 -18.5 -99.5t-39 -89.5t-73.5 -125q-82 -136 -108.5 -192t-26.5 -96q0 -45 32 -74t79 -29q38 0 89.5 47t131.5 158l41 -21l-135 -184q-86 -115 -144 -143h-41q-58 0 -94.5 48
t-36.5 120z" />
    <glyph glyph-name="i" unicode="i" horiz-adv-x="677" 
d="M457 1403q0 58 37 90.5t86 32.5q50 0 86 -32.5t36 -90.5t-36 -90.5t-86 -32.5t-86.5 32.5t-36.5 90.5zM260 315l180 607h-225l21 102h368l8 -8q-99 -249 -241 -567q-60 -133 -60 -187q0 -47 30.5 -87t86.5 -40q87 0 234 205l40 -21l-135 -184q-49 -65 -80.5 -96.5
t-62.5 -46.5h-41q-61 0 -105.5 50.5t-44.5 121.5q0 62 27 151z" />
    <glyph glyph-name="j" unicode="j" horiz-adv-x="595" 
d="M461 1403q0 58 37 90.5t86 32.5q50 0 86.5 -32.5t36.5 -90.5t-36.5 -90.5t-86.5 -32.5t-86.5 32.5t-36.5 90.5zM285 266l157 656h-225l21 102h368l8 -8q-80 -258 -239 -750q-60 -184 -119 -315t-128 -229t-149 -145.5t-174 -47.5q-46 0 -76 20.5t-30 61.5q0 39 27 68.5
t71 29.5q23 0 62.5 -8t64.5 -8q43 0 81 17t67.5 44.5t57 72t47.5 89.5t41 108.5t35 116.5t32 125z" />
    <glyph glyph-name="k" unicode="k" horiz-adv-x="1161" 
d="M967 135q-86 -115 -144 -143h-41q-40 0 -76 27.5t-59 74.5l-162 330l-252 -424h-94l400 1495h-222l21 102h369l8 -8q-72 -235 -436 -1261h57l203 313q42 66 79.5 118t86 107.5t94 92.5t99.5 61t106 24q104 0 160.5 -58t56.5 -146q0 -86 -37.5 -156t-99 -116.5t-149 -80
t-179.5 -51t-199 -26.5l111 -160q45 -65 78 -90t85 -25q83 0 230 205l41 -21zM543 520l-25 -41h94q52 0 110 8t125 28.5t120 51.5t88 83t35 116q0 73 -40 114.5t-118 41.5q-96 0 -174 -85t-215 -317z" />
    <glyph glyph-name="l" unicode="l" horiz-adv-x="616" 
d="M453 844q-138 -370 -159 -445q-22 -78 -22 -137q0 -47 29.5 -87t85.5 -40q87 0 234 205l41 -21l-136 -184q-48 -64 -79 -96t-60 -47h-41q-66 0 -109.5 48.5t-43.5 119.5q0 59 26 155l320 1180h-222l21 102h369l8 -8q-71 -233 -262 -745z" />
    <glyph glyph-name="m" unicode="m" horiz-adv-x="1931" 
d="M1583 238q0 -45 32 -74t79 -29q38 0 89.5 47t131.5 158l41 -21l-135 -184q-86 -115 -144 -143h-41q-59 0 -95 49.5t-36 114.5q0 54 31 140.5t67.5 163.5t67.5 169t31 157q0 136 -109 136q-27 0 -53 -11t-52 -36.5t-46.5 -49t-49.5 -69t-45.5 -74t-49 -86t-48.5 -84.5
l-301 -512h-94l131 528q2 8 9.5 38.5t10.5 44.5t9 42.5t8.5 47.5t5 43.5t2.5 46.5q0 131 -98 131q-27 0 -53 -11t-52 -36.5t-46.5 -49t-49.5 -69t-45.5 -74t-49 -86t-48.5 -84.5l-301 -512h-94l235 922h-225l20 102h369l8 -8q-136 -372 -268 -688h57l195 307
q115 183 153 233q105 140 209 168q31 8 64 8q83 0 122 -50.5t39 -125.5q0 -34 -11 -82t-33.5 -112.5t-40.5 -111.5t-49.5 -125.5t-43.5 -108.5h58l194 307q9 14 27 43q27 44 41 66t40 60.5t41 58.5t39.5 50t42.5 45.5t43 35t47 28.5t48.5 15.5t54.5 6.5q91 0 135.5 -58
t44.5 -138q0 -67 -28.5 -133t-102.5 -189q-80 -134 -107.5 -191.5t-27.5 -96.5z" />
    <glyph glyph-name="n" unicode="n" horiz-adv-x="1296" 
d="M870 160q0 53 31 138.5t67.5 162t67.5 168.5t31 157q0 63 -31.5 99.5t-91.5 36.5q-27 0 -53 -10t-53.5 -36t-47 -47t-50 -68t-45.5 -71.5t-50 -85.5t-49 -84l-309 -520h-94l235 922h-225l20 102h369l8 -8q-136 -372 -268 -688h57l203 315q118 186 166 245
q109 136 218 153q19 3 38 3q99 0 149.5 -57.5t50.5 -146.5q0 -47 -18.5 -99.5t-39 -89.5t-73.5 -125q-82 -136 -108.5 -192t-26.5 -96q0 -45 32 -74t79 -29q38 0 89.5 47t131.5 158l41 -21l-135 -184q-86 -115 -144 -143h-41q-58 0 -94.5 48t-36.5 120z" />
    <glyph glyph-name="o" unicode="o" horiz-adv-x="1048" 
d="M473 -20q-142 0 -226.5 87.5t-84.5 251.5q0 135 50.5 268.5t132 233t190.5 161.5t221 62q142 0 226.5 -87.5t84.5 -251.5q0 -135 -50.5 -268.5t-132 -233t-190.5 -161.5t-221 -62zM555 111q118 0 214 72t146 183.5t50 235.5q0 147 -74 229t-217 82q-118 0 -214 -72
t-146 -183.5t-50 -235.5q0 -145 77 -228t214 -83z" />
    <glyph glyph-name="p" unicode="p" horiz-adv-x="1161" 
d="M305 205l-88 -357q-20 -88 -20 -135q0 -56 23.5 -79t82.5 -23h115l-15 -62h-532l14 62h62q55 0 91 37.5t62 113.5q199 596 332 1160h-225l20 102h340l8 -8q-79 -163 -141 -291h21q6 7 17 20q46 54 72 83.5t76.5 77t90 73t94 45.5t108.5 20q267 0 267 -339
q0 -136 -49 -268.5t-128 -232.5t-186.5 -162t-218.5 -62q-191 0 -260 225h-33zM426 401q0 -144 68.5 -217t189.5 -73q69 0 132.5 29.5t111.5 79.5t84 114.5t54.5 138t18.5 145.5q0 139 -69 215t-189 76q-87 0 -163.5 -45t-127.5 -117t-80.5 -163t-29.5 -183z" />
    <glyph glyph-name="q" unicode="q" horiz-adv-x="1095" 
d="M870 -389h82l-14 -62h-530l14 62h86q117 0 162 123l178 495h-21q-27 -40 -61.5 -78t-84 -79t-112.5 -66.5t-127 -25.5q-124 0 -202 88t-78 251q0 135 49 268.5t129 233t186.5 161.5t216.5 62q56 0 101.5 -19.5t75.5 -52.5t48.5 -67t30.5 -74h25l66 213h61l-381 -1310
q-12 -33 -6.5 -55.5t14.5 -36t28 -20.5t33.5 -9t30.5 -2zM920 623q0 144 -68.5 217t-189.5 73q-69 0 -133 -29.5t-113 -79.5t-85.5 -114.5t-55.5 -138t-19 -145.5q0 -139 69 -215t189 -76q115 0 210 76t145.5 192t50.5 240z" />
    <glyph glyph-name="r" unicode="r" horiz-adv-x="905" 
d="M592 1024l8 -8q-136 -372 -268 -688h61l207 315q130 197 166 244q105 139 188 155q13 2 25 2q45 0 72.5 -25t27.5 -67q0 -40 -25.5 -71t-68.5 -31q-18 0 -41.5 6t-44.5 6q-36 0 -67.5 -17t-71.5 -69.5t-59.5 -83t-75.5 -124.5q-6 -10 -9.5 -16t-9 -15t-10.5 -17
l-309 -520h-94l235 922h-225l20 102h369z" />
    <glyph glyph-name="s" unicode="s" horiz-adv-x="909" 
d="M512 -20q-78 0 -160 21.5t-88 21.5q-10 0 -33 -15l-32 -20h-9l-67 401l41 21q101 -369 364 -369q77 0 121.5 41t44.5 111q0 75 -39 131.5t-141 138.5q-57 45 -91 75.5t-69 71.5t-51 84t-16 92q0 121 86 189.5t229 68.5q58 0 132 -18t77 -18q18 0 47 18l14 10h9l67 -401
l-41 -21q-50 178 -127 271.5t-207 93.5q-81 0 -121 -39.5t-40 -99.5q0 -69 38.5 -117.5t145.5 -136.5q65 -53 101.5 -87.5t69 -76t45.5 -83.5t13 -93q0 -120 -89 -193t-224 -73z" />
    <glyph glyph-name="t" unicode="t" horiz-adv-x="772" 
d="M502 123q53 0 107 48t147 169l41 -21q-97 -133 -181.5 -218t-140.5 -109h-41q-90 0 -143 49t-53 139q0 80 43 185l215 557h-260l20 102h270l49 471h173l-166 -471h329l-20 -102h-346l-162 -529q-21 -72 -21 -127q0 -66 38.5 -104.5t101.5 -38.5z" />
    <glyph glyph-name="u" unicode="u" horiz-adv-x="1298" 
d="M1083 135q38 0 90.5 47t131.5 158l41 -21l-136 -184q-48 -65 -79.5 -96t-63.5 -47h-41q-65 0 -105 40t-40 107q0 68 30 156l144 401h-58l-190 -315q-40 -67 -66 -107t-63.5 -93t-68.5 -84t-69 -60.5t-78.5 -43t-84.5 -13.5q-71 0 -112.5 46.5t-41.5 129.5q0 23 4.5 53
t10 55t18 68.5t20 67t24.5 78t24 75.5l116 369h-225l21 102h368l8 -8q-44 -117 -127.5 -290.5t-124.5 -272.5q-22 -53 -31.5 -77.5t-18.5 -60.5t-9 -65q0 -57 37.5 -88t97.5 -31q26 0 50.5 6.5t45 16t43.5 29t39.5 35.5t39 46t36.5 50.5t37.5 59.5t36.5 62t39 68l297 520
h123q-63 -182 -99 -289.5t-83.5 -275.5t-47.5 -230q0 -41 26.5 -67.5t63.5 -26.5z" />
    <glyph glyph-name="v" unicode="v" horiz-adv-x="1005" 
d="M449 1024l100 -885h12q169 219 289.5 414.5t120.5 292.5q0 26 -27 26q-8 0 -29.5 -7t-42.5 -7q-44 0 -67 25.5t-23 64.5q0 45 33.5 70.5t89.5 25.5q77 0 126.5 -41t49.5 -135q0 -55 -30.5 -129t-79 -150.5t-119.5 -170.5t-140 -178.5t-152 -183.5q-43 -51 -64 -76l-41 20
q-58 573 -138 922h-163l20 102h275z" />
    <glyph glyph-name="w" unicode="w" horiz-adv-x="1476" 
d="M449 1024l96 -877h12q20 35 77 137t89 159.5t75 140.5t72 145q-22 139 -71 295h159l91 -885h12q381 521 381 707q0 26 -27 26q-8 0 -29.5 -7t-42.5 -7q-44 0 -67 25.5t-23 64.5q0 45 33.5 70.5t89.5 25.5q77 0 126.5 -41t49.5 -135q0 -48 -18.5 -107t-67.5 -140.5
t-84 -137t-118.5 -164.5t-117 -150.5t-131.5 -163.5q-13 -17 -20 -25l-41 20l-63 590q-184 -313 -395 -610l-41 20q-63 620 -138 922h-163l20 102h275z" />
    <glyph glyph-name="x" unicode="x" horiz-adv-x="1107" 
d="M641 823v-221h16q9 12 26 35q49 65 72.5 97t65 84t65 78t58 60t59.5 49.5t53.5 27t55.5 11.5q45 0 76 -26t31 -70q0 -39 -23.5 -64.5t-67.5 -25.5q-20 0 -46 8t-52 8q-72 0 -137 -64t-210 -253q-26 -35 -40 -53q19 -369 176 -369q38 0 89.5 47t131.5 158l41 -21
l-135 -184q-49 -65 -80.5 -96.5t-62.5 -46.5h-41q-79 0 -118.5 50.5t-39.5 158.5v260h-16q-153 -215 -192 -265q-133 -167 -236 -203q-35 -13 -70 -13q-47 0 -75.5 25.5t-28.5 70.5q0 39 23 64.5t67 25.5q21 0 49.5 -8t52.5 -8q35 0 71.5 17.5t70 46t76.5 79t81.5 101
t95.5 128.5q6 8 9 12.5t8.5 11.5t9.5 13q-27 179 -65.5 254.5t-112.5 75.5q-38 0 -65.5 -20.5t-75.5 -73.5l-41 20q136 168 198 217h41q162 0 162 -209z" />
    <glyph glyph-name="y" unicode="y" horiz-adv-x="1003" 
d="M274 889q-34 0 -62 -21t-75 -73l-41 20q134 166 199 217h41q73 0 124 -79.5t72 -211.5t16 -305t-38 -358h41q416 514 416 768q0 26 -27 26q-8 0 -29.5 -7t-42.5 -7q-44 0 -67 25.5t-23 64.5q0 45 33.5 70.5t89.5 25.5q80 0 128 -47t48 -129q0 -80 -43 -182.5t-129 -226.5
t-174 -235t-217 -261q-64 -74 -114 -128t-115.5 -115.5t-120.5 -100t-117.5 -64.5t-118.5 -26q-46 0 -76 20.5t-30 61.5q0 39 27 68.5t71 29.5q21 0 60.5 -4t62.5 -4q63 0 120.5 20.5t110 66.5t91 113.5t61.5 168.5t23 225q0 125 -9 228t-29 187.5t-55 131.5t-82 47z" />
    <glyph glyph-name="z" unicode="z" horiz-adv-x="972" 
d="M1085 1004l-856 -877h412q48 0 84.5 11.5t72.5 43.5t63 65.5t75 100.5l41 -20l-238 -328h-559q-10 0 -27.5 0.5t-27 0.5t-23 -1.5t-24 -6.5t-19.5 -13l-32 32l868 885h-252q-89 0 -146.5 -9.5t-106 -37t-82 -76t-62.5 -127.5l-41 21l131 356h749v-20z" />
    <glyph glyph-name="braceleft" unicode="{" horiz-adv-x="677" 
d="M180 553l8 41q158 3 255.5 87t97.5 220q0 67 -31 185.5t-31 181.5q0 163 104 266.5t281 103.5l13 -49q-159 0 -241.5 -86t-82.5 -237q0 -63 30.5 -176.5t30.5 -184.5q0 -123 -73.5 -212.5t-178.5 -119.5v-8q55 -14 100.5 -74.5t45.5 -158.5q0 -51 -23 -115.5t-56 -127
t-66.5 -124t-56.5 -124t-23 -109.5q0 -93 56 -133.5t175 -40.5l-29 -50q-128 0 -202 54.5t-74 173.5q0 53 23 116.5t56 123.5t66.5 120t56.5 124.5t23 119.5q0 91 -66.5 152t-187.5 61z" />
    <glyph glyph-name="bar" unicode="|" horiz-adv-x="409" 
d="M94 -451l361 2048h65l-360 -2048h-66z" />
    <glyph glyph-name="braceright" unicode="}" horiz-adv-x="677" 
d="M700 594l-8 -41q-158 -3 -255 -87t-97 -220q0 -67 30.5 -185.5t30.5 -181.5q0 -163 -104 -267t-281 -104l-12 50q159 0 241.5 86t82.5 237q0 63 -31 176.5t-31 184.5q0 123 73.5 212t178.5 119v9q-55 14 -100 74.5t-45 158.5q0 51 23 115.5t56 127t66.5 124t56.5 124
t23 109.5q0 93 -56 133.5t-175 40.5l28 49q128 0 202.5 -54.5t74.5 -172.5q0 -64 -35.5 -147.5t-77.5 -152t-77.5 -153.5t-35.5 -151q0 -91 66.5 -152t187.5 -61z" />
    <glyph glyph-name="asciitilde" unicode="~" horiz-adv-x="1228" 
d="M211 649q75 -52 136 -70q53 -16 106 -16q67 0 141.5 25.5t131 56.5t134.5 56.5t150 25.5q58 0 109 -16.5t75 -32.5t41 -33v-65q-75 52 -136 70q-53 16 -106 16q-55 0 -112.5 -17t-108.5 -41t-102.5 -48t-112.5 -41t-121 -17q-58 0 -109 16.5t-75 32.5t-41 33v65z" />
    <glyph glyph-name="exclamdown" unicode="&#xa1;" horiz-adv-x="614" 
d="M594 922q0 -58 -37 -90.5t-86 -32.5q-50 0 -86.5 32.5t-36.5 90.5t36.5 90t86.5 32q49 0 86 -32t37 -90zM86 -573l303 1146h62l-201 -1146h-164z" />
    <glyph glyph-name="cent" unicode="&#xa2;" horiz-adv-x="1269" 
d="M700 266q-143 0 -225 82l-282 -368l-54 40l293 381q-51 82 -51 205q0 100 29.5 204t85 196.5t127.5 165.5t164 116t188 43q87 0 145 -37l248 324l53 -41l-250 -326q46 -56 46 -129q0 -56 -25 -89.5t-68 -33.5q-36 0 -62 17.5t-30 52.5l-463 -598q77 -74 211 -74
q112 0 201 66t145 164l41 -21q-34 -52 -58 -84.5t-72.5 -86.5t-93.5 -86.5t-110 -57.5t-133 -25zM483 709q0 -112 43 -185l508 660q-24 24 -116 24q-122 0 -222.5 -69t-156.5 -183.5t-56 -246.5z" />
    <glyph glyph-name="sterling" unicode="&#xa3;" horiz-adv-x="1269" 
d="M258 768l10 61h273q-5 23 -16.5 75t-18.5 85.5t-13 83.5t-6 94q0 87 35.5 168.5t99 144.5t157.5 100.5t204 37.5q88 0 161.5 -25t121 -64t80.5 -88t47 -95t14 -86q0 -51 -31.5 -82t-66.5 -31q-50 0 -70 23.5t-20 66.5q0 23 7 72t7 71q0 176 -221 176q-153 0 -249.5 -97.5
t-96.5 -250.5q0 -78 30 -212.5t35 -166.5h336l-10 -61h-320v-23q0 -75 -17 -144t-44.5 -121.5t-63 -100t-72 -81t-72 -63.5t-63 -50t-44.5 -36t-17 -26q0 -21 43 -21h412q63 0 119.5 12t97.5 30t78 46t59.5 51t45 55.5t32.5 50t22 42.5l41 -20l-168 -369h-942l11 61
q33 31 47.5 44.5t59.5 60.5t72 82t66 93t61 109.5t39 117t17 128.5q0 34 -6 72h-293z" />
    <glyph glyph-name="currency" unicode="&#xa4;" horiz-adv-x="1228" 
d="M336 242l-41 49l145 125q-34 58 -34 139q0 158 104 262l-98 119l53 45l98 -119q98 66 215 66q113 0 185 -62l145 121l41 -49l-143 -119q43 -64 43 -153q0 -149 -111 -263l100 -116l-53 -45l-98 118q-92 -67 -211 -67q-123 0 -195 72zM768 870q-127 0 -212 -86.5
t-85 -220.5q0 -94 55.5 -153.5t159.5 -59.5q124 0 210.5 92.5t86.5 216.5q0 93 -56.5 152t-158.5 59z" />
    <glyph glyph-name="yen" unicode="&#xa5;" horiz-adv-x="1269" 
d="M358 573l11 62h333l15 82l-74 246h-217l10 61h189l-125 412q-32 100 -181 100h-69l10 61h635l-10 -61h-62q-62 0 -101.5 -11.5t-52 -29.5t-16 -39.5t5.5 -42.5l113 -389h201l223 369q31 53 31 73q0 70 -150 70h-49l10 61h533l-10 -61h-70q-49 0 -77 -4.5t-53.5 -24
t-42 -41.5t-48.5 -73l-230 -369h195l-10 -61h-224l-153 -246l-14 -82h333l-10 -62h-334l-69 -389q-11 -63 26 -93t131 -30h123l-10 -61h-737l10 61h123q182 0 203 123l69 389h-334zM788 963l48 -162l98 162h-146z" />
    <glyph glyph-name="brokenbar" unicode="&#xa6;" horiz-adv-x="409" 
d="M379 799h-66l142 798h65zM160 -451h-66l142 799h65z" />
    <glyph glyph-name="section" unicode="&#xa7;" 
d="M913 297q0 -134 -99.5 -225.5t-278.5 -91.5q-76 0 -137 18.5t-98.5 48t-62.5 68.5t-34.5 76t-9.5 75l45 21q0 -46 17.5 -88t51.5 -78.5t93 -58t135 -21.5q142 0 223.5 73t81.5 171q0 50 -23 88t-60.5 60.5t-85.5 42.5t-98.5 35t-98.5 38t-85.5 50.5t-60.5 74t-23 106.5
q0 104 73.5 186t199.5 109q-79 36 -124.5 92t-45.5 144q0 126 101 216.5t269 90.5q75 0 133.5 -17t95 -45t60.5 -66t33.5 -77t9.5 -82l-45 -20q0 109 -70 177t-215 68q-140 0 -219.5 -68t-79.5 -173q0 -60 29.5 -104t77 -69t105 -45.5t114.5 -42t104.5 -49.5t77 -76.5
t29.5 -115.5q0 -104 -76.5 -186.5t-208.5 -106.5q85 -35 132.5 -86.5t47.5 -136.5zM379 782q0 -33 8.5 -60t29 -48.5t39 -36.5t54 -31t56.5 -24t64 -23q11 -4 17 -6q138 1 217.5 76.5t79.5 187.5q0 25 -7.5 47.5t-18 39t-31 32.5t-36.5 26.5t-46 23.5t-48 19.5t-53.5 19.5
t-52.5 19q-130 -7 -201 -78t-71 -184z" />
    <glyph glyph-name="dieresis" unicode="&#xa8;" 
d="M494 1403q0 52 29.5 77t72.5 25q44 0 73 -25t29 -77t-29 -77.5t-73 -25.5t-73 25.5t-29 77.5zM821 1403q0 52 30 77t73 25q44 0 73 -25t29 -77t-29 -77.5t-73 -25.5t-73.5 25.5t-29.5 77.5z" />
    <glyph glyph-name="copyright" unicode="&#xa9;" horiz-adv-x="1847" 
d="M233 657q0 153 47.5 298t136.5 264.5t207.5 209t269.5 139.5t314 50q148 0 277 -52t218.5 -142t141 -215t51.5 -267q0 -152 -46 -296t-133.5 -264t-205.5 -210.5t-270.5 -141t-320.5 -50.5q-148 0 -276 51.5t-218 141.5t-141.5 215.5t-51.5 268.5zM1198 1556
q-182 0 -347 -69.5t-285.5 -187.5t-191.5 -283.5t-71 -349.5q0 -131 46.5 -246.5t128 -199t199.5 -131.5t255 -48q181 0 346.5 70.5t286 190.5t191.5 285.5t71 348.5q0 175 -78.5 316t-223 222.5t-327.5 81.5zM1163 1331q77 0 129 -17.5t79 -34.5t42 -17q4 0 8 0.5t8 3
t6.5 4t7.5 6t7 6.5l8.5 8.5l9.5 9.5h9l49 -294l-37 -23q-12 40 -21.5 67.5t-35.5 74t-57.5 75.5t-85.5 51.5t-120 22.5q-138 0 -251 -79t-176.5 -214.5t-63.5 -298.5t83.5 -263t231.5 -100q67 0 130 21t109.5 51.5t90 73t70 78t50 75t30.5 54.5t12 26l31 -18q0 -1 -2 -5
q-83 -189 -226 -301q-145 -112 -325 -112q-187 0 -293.5 117.5t-106.5 304.5q0 121 48 239t128.5 207.5t192 145t231.5 55.5z" />
    <glyph glyph-name="ordfeminine" unicode="&#xaa;" horiz-adv-x="999" 
d="M838 932h-17q-30 -39 -51 -64t-56 -58t-68 -52t-78 -33t-93 -14q-100 0 -164.5 63.5t-64.5 167.5q0 235 309 277l109 14q177 22 239 59t62 125q0 63 -54 106.5t-161 43.5q-92 0 -149.5 -41.5t-57.5 -116.5q0 -43 -22.5 -66.5t-57.5 -23.5q-34 0 -52 22.5t-18 53.5
q0 61 59.5 113t152 80t192.5 28q135 0 210.5 -50t75.5 -136q0 -40 -20.5 -93t-40.5 -88t-66 -110q-47 -79 -63 -124t-16 -85q0 -38 19.5 -63t53.5 -25q75 0 199 174l35 -17l-115 -157q-41 -55 -68 -82t-53 -39h-33q-94 0 -94 121q0 22 17 90zM582 1174q-108 -14 -162.5 -57
t-54.5 -132q0 -76 50 -118t130 -42q130 0 218.5 98t151.5 298z" />
    <glyph glyph-name="guillemotleft" unicode="&#xab;" horiz-adv-x="911" 
d="M588 166l-51 -43l-375 450l530 451l43 -51l-479 -406zM854 166l-51 -43l-375 450l530 451l43 -51l-479 -406z" />
    <glyph glyph-name="logicalnot" unicode="&#xac;" horiz-adv-x="1228" 
d="M274 905h992l-11 -61l-92 -520h-65l92 520h-926z" />
    <glyph glyph-name="registered" unicode="&#xae;" horiz-adv-x="1847" 
d="M233 657q0 153 47.5 298t136.5 264.5t207.5 209t269.5 139.5t314 50q148 0 277 -52t218.5 -142t141 -215t51.5 -267q0 -152 -46 -296t-133.5 -264t-205.5 -210.5t-270.5 -141t-320.5 -50.5q-148 0 -276 51.5t-218 141.5t-141.5 215.5t-51.5 268.5zM1198 1556
q-182 0 -347 -69.5t-285.5 -187.5t-191.5 -283.5t-71 -349.5q0 -131 46.5 -246.5t128 -199t199.5 -131.5t255 -48q181 0 346.5 70.5t286 190.5t191.5 285.5t71 348.5q0 175 -78.5 316t-223 222.5t-327.5 81.5zM1026 281h-506l8 41h80q116 0 131 79l140 799q7 45 -16 62.5
t-87 17.5h-80l9 39h413q89 0 158 -11.5t124 -37.5t84 -72.5t29 -112.5q0 -54 -25 -103.5t-72.5 -90t-123.5 -67.5t-170 -33l164 -363q25 -57 50.5 -81.5t70.5 -24.5h27l-9 -41h-178l-221 507h-133l-68 -387q-7 -43 16.5 -61t86.5 -18h106zM1036 829q178 0 271.5 70t93.5 182
q0 110 -74 154.5t-211 44.5h-20q-116 0 -131 -80l-66 -371h137z" />
    <glyph glyph-name="macron" unicode="&#xaf;" 
d="M995 1436l-12 -66h-459l13 66h458z" />
    <glyph glyph-name="degree" unicode="&#xb0;" horiz-adv-x="819" 
d="M365 1300q0 135 95.5 226.5t233.5 91.5q104 0 169 -66t65 -170q0 -134 -95.5 -225.5t-234.5 -91.5q-104 0 -168.5 66t-64.5 169zM676 1561q-102 0 -172 -73t-70 -181q0 -84 48 -134.5t134 -50.5q101 0 171.5 73.5t70.5 180.5q0 85 -48 135t-134 50z" />
    <glyph glyph-name="plusminus" unicode="&#xb1;" horiz-adv-x="1228" 
d="M227 584l11 61h456l82 461h66l-82 -461h459l-11 -61h-458l-82 -461h-66l82 461h-457zM123 0l12 61h983l-12 -61h-983z" />
    <glyph glyph-name="twosuperior" unicode="&#xb2;" horiz-adv-x="819" 
d="M758 727h-518l6 33q56 70 136.5 143.5t145.5 128t125.5 113t94.5 123.5t34 135q0 75 -38 116.5t-107 41.5q-68 0 -100.5 -30.5t-38.5 -88.5q-5 -40 -22.5 -61t-59.5 -21q-28 0 -42 14t-14 37q0 83 91.5 145t207.5 62q114 0 179 -58t65 -151q0 -72 -32 -134.5
t-89.5 -114.5t-118.5 -96t-140 -102.5t-132 -109.5q-20 -23 -20 -33q0 -12 24 -12h180q100 0 157 37.5t89 107.5l29 -22z" />
    <glyph glyph-name="threesuperior" unicode="&#xb3;" horiz-adv-x="819" 
d="M524 717q-124 0 -183 69t-62 187l36 22q0 -100 51 -150t138 -50q108 0 166.5 56.5t58.5 143.5q0 174 -160 174h-80l11 58h65q101 0 165.5 51.5t64.5 142.5q0 62 -31 101t-90 39q-117 0 -133 -119q-10 -82 -90 -82q-25 0 -38.5 15.5t-13.5 39.5q0 75 84 139t195 64
q115 0 175 -50t60 -130q0 -41 -13.5 -76t-34.5 -59.5t-53 -45.5t-61.5 -34t-66.5 -25v-4q75 -15 123.5 -64.5t48.5 -134.5q0 -115 -91.5 -196.5t-240.5 -81.5z" />
    <glyph glyph-name="acute" unicode="&#xb4;" 
d="M958 1556l-383 -356l-47 49l383 357z" />
    <glyph glyph-name="mu.math" unicode="&#xb5;" 
d="M303 1024h66l-115 -653q-7 -50 -8 -98t15.5 -90t45.5 -73.5t81 -50t122 -18.5q93 0 165.5 26.5t116.5 72.5t69 97t36 111l119 676h65l-180 -1024h-65l28 160q-129 -180 -368 -180q-222 0 -283 159l-96 -549h-66z" />
    <glyph glyph-name="paragraph" unicode="&#xb6;" horiz-adv-x="1232" 
d="M864 0l271 1536h-181l-270 -1536h-66l148 840h-174q-138 0 -228 90t-90 225q0 139 62.5 241t164 151.5t226.5 49.5h768l-12 -61h-283l-270 -1536h-66z" />
    <glyph glyph-name="periodcentered" unicode="&#xb7;" horiz-adv-x="497" 
d="M227 573q0 59 37 91t86 32q50 0 86.5 -32t36.5 -91q0 -58 -36.5 -90t-86.5 -32q-49 0 -86 32t-37 90z" />
    <glyph glyph-name="cedilla" unicode="&#xb8;" 
d="M201 -307l41 20q39 -127 159 -127q66 0 103 33.5t37 89.5q0 53 -30.5 84t-88.5 31q-29 0 -53 -8l-21 41l266 225l31 -37l-221 -188q12 4 35 4q67 0 111 -43t44 -109q0 -82 -58 -131t-146 -49q-82 0 -131.5 39.5t-77.5 124.5z" />
    <glyph glyph-name="onesuperior" unicode="&#xb9;" horiz-adv-x="819" 
d="M526 848l101 565h-185l11 57h118q59 0 88.5 25.5t38.5 79.5l9 43h57l-135 -770q-6 -33 13.5 -48.5t70.5 -15.5h127l-11 -57h-520l10 57h125q70 0 82 64z" />
    <glyph glyph-name="ordmasculine" unicode="&#xba;" horiz-adv-x="878" 
d="M524 711q-121 0 -192.5 73.5t-71.5 214.5q0 154 71 297t188.5 231.5t244.5 88.5q122 0 193 -75t71 -216q0 -115 -42.5 -227.5t-111.5 -197t-162 -137t-188 -52.5zM594 821q101 0 182 61t123.5 156t42.5 201q0 125 -63.5 194.5t-184.5 69.5q-101 0 -182 -61t-123.5 -156
t-42.5 -201q0 -123 65.5 -193.5t182.5 -70.5z" />
    <glyph glyph-name="guillemotright" unicode="&#xbb;" horiz-adv-x="911" 
d="M952 573l-530 -450l-43 51l479 406l-332 401l52 43zM686 573l-530 -450l-43 51l479 406l-332 401l51 43z" />
    <glyph glyph-name="onequarter" unicode="&#xbc;" horiz-adv-x="1597" 
d="M1528 1618l53 -41l-1231 -1597l-53 40zM522 827l101 566h-185l11 57h118q59 0 88.5 25t38.5 79l8 43h58l-135 -770q-6 -33 13 -48t71 -15h127l-11 -57h-520l10 57h125q70 0 82 63zM1352 682q-5 0 -17 -12l-350 -377h299l72 377q2 12 -4 12zM899 219l12 74l572 618h12
l-117 -618h183l-13 -74h-182l-18 -94q-6 -36 11 -52t68 -16h68l-10 -57h-408l10 57h80q39 0 58.5 16.5t25.5 51.5l19 94h-371z" />
    <glyph glyph-name="onehalf" unicode="&#xbd;" horiz-adv-x="1597" 
d="M522 827l101 566h-185l11 57h118q59 0 88.5 25t38.5 79l8 43h58l-135 -770q-6 -33 13 -48t71 -15h127l-11 -57h-520l10 57h125q70 0 82 63zM1407 0h-518l6 33q48 60 113 122.5t121 107.5t113.5 97.5t98 98t66 102t25.5 115.5q0 75 -38.5 116.5t-107.5 41.5
q-68 0 -100.5 -30.5t-38.5 -88.5q-5 -40 -22.5 -61t-59.5 -21q-55 0 -55 51q0 83 91.5 145t207.5 62q114 0 178.5 -58t64.5 -151q0 -72 -32 -134.5t-89.5 -114.5t-118.5 -96t-140 -102.5t-132 -109.5q-20 -23 -20 -33q0 -12 24 -12h181q100 0 156.5 37.5t88.5 107.5l29 -22z
M1528 1618l53 -41l-1231 -1597l-53 40z" />
    <glyph glyph-name="threequarters" unicode="&#xbe;" horiz-adv-x="1597" 
d="M524 717q-124 0 -183 69t-62 187l36 22q0 -100 51 -150t138 -50q108 0 166.5 56.5t58.5 143.5q0 174 -160 174h-80l11 58h65q101 0 165.5 51.5t64.5 142.5q0 62 -31 101t-90 39q-117 0 -133 -119q-10 -82 -90 -82q-25 0 -38.5 15.5t-13.5 39.5q0 75 84 139t195 64
q115 0 175 -50t60 -130q0 -41 -13.5 -76t-34.5 -59.5t-53 -45.5t-61.5 -34t-66.5 -25v-4q75 -15 123.5 -64.5t48.5 -134.5q0 -115 -91.5 -196.5t-240.5 -81.5zM1352 682q-5 0 -17 -12l-350 -377h299l72 377q2 12 -4 12zM899 219l12 74l572 618h12l-117 -618h183l-13 -74
h-182l-18 -94q-6 -36 11 -52t68 -16h68l-10 -57h-408l10 57h80q39 0 58.5 16.5t25.5 51.5l19 94h-371zM1528 1618l53 -41l-1231 -1597l-53 40z" />
    <glyph glyph-name="questiondown" unicode="&#xbf;" horiz-adv-x="1228" 
d="M932 922q0 -58 -37 -90.5t-86 -32.5q-50 0 -86.5 32.5t-36.5 90.5t36.5 90t86.5 32q49 0 86 -32t37 -90zM522 -532q87 0 150.5 18.5t102.5 54t60.5 82t30.5 109.5q5 36 12 60t20 47t36 34.5t55 11.5q38 0 58 -22t20 -58q0 -69 -41 -140t-111 -128.5t-176 -94t-225 -36.5
q-222 0 -342.5 108.5t-120.5 288.5q0 98 30.5 170t80.5 113.5t111 71t125.5 53t120 49t98.5 69.5t57 105l33 139h61l-53 -221q-18 -74 -58.5 -127.5t-91 -83.5t-108 -53t-110.5 -46t-96.5 -52.5t-70 -81.5t-26.5 -125q0 -131 97 -223t271 -92z" />
    <glyph glyph-name="Agrave" unicode="&#xc0;" horiz-adv-x="1681" 
d="M973 2087l55 39l305 -424l-55 -39zM594 0h-574l13 61h69q93 0 134 27t92 117l743 1351l88 62h8l269 -1454q10 -55 56 -79t110 -24h69l-12 -61h-655l12 61h82q117 0 158 28.5t30 94.5l-67 389h-613l-198 -368q-25 -45 -25 -74q0 -70 141 -70h82zM639 635h569l-139 799z
" />
    <glyph glyph-name="Aacute" unicode="&#xc1;" horiz-adv-x="1681" 
d="M1378 2048l-383 -356l-47 49l383 356zM594 0h-574l13 61h69q93 0 134 27t92 117l743 1351l88 62h8l269 -1454q10 -55 56 -79t110 -24h69l-12 -61h-655l12 61h82q117 0 158 28.5t30 94.5l-67 389h-613l-198 -368q-25 -45 -25 -74q0 -70 141 -70h82zM639 635h569l-139 799z
" />
    <glyph glyph-name="Acircumflex" unicode="&#xc2;" horiz-adv-x="1681" 
d="M815 1751l432 365h8l218 -406l-60 -37l-180 342l-375 -317zM594 0h-574l13 61h69q93 0 134 27t92 117l743 1351l88 62h8l269 -1454q10 -55 56 -79t110 -24h69l-12 -61h-655l12 61h82q117 0 158 28.5t30 94.5l-67 389h-613l-198 -368q-25 -45 -25 -74q0 -70 141 -70h82z
M639 635h569l-139 799z" />
    <glyph glyph-name="Atilde" unicode="&#xc3;" horiz-adv-x="1681" 
d="M1333 1925q-36 0 -74.5 -20t-68.5 -43.5t-77.5 -43.5t-98.5 -20q-43 0 -79.5 16.5t-59 39.5t-39 51.5t-24 48t-9.5 33.5h61q4 -14 13.5 -32t27 -40t46.5 -36.5t63 -14.5q44 0 87 20t72.5 43.5t72.5 43.5t87 20q43 0 79.5 -16.5t58.5 -39.5t39 -52t24 -47.5t10 -33.5h-61
q-4 14 -13.5 32t-27 40t-46.5 36.5t-63 14.5zM594 0h-574l13 61h69q93 0 134 27t92 117l743 1351l88 62h8l269 -1454q10 -55 56 -79t110 -24h69l-12 -61h-655l12 61h82q117 0 158 28.5t30 94.5l-67 389h-613l-198 -368q-25 -45 -25 -74q0 -70 141 -70h82zM639 635h569
l-139 799z" />
    <glyph glyph-name="Adieresis" unicode="&#xc4;" horiz-adv-x="1681" 
d="M907 1894q0 52 30 77.5t73 25.5q44 0 73 -25.5t29 -77.5t-29 -77t-73 -25t-73.5 25t-29.5 77zM1235 1894q0 52 29.5 77.5t72.5 25.5q44 0 73.5 -25.5t29.5 -77.5t-29.5 -77t-73.5 -25t-73 25t-29 77zM594 0h-574l13 61h69q93 0 134 27t92 117l743 1351l88 62h8l269 -1454
q10 -55 56 -79t110 -24h69l-12 -61h-655l12 61h82q117 0 158 28.5t30 94.5l-67 389h-613l-198 -368q-25 -45 -25 -74q0 -70 141 -70h82zM639 635h569l-139 799z" />
    <glyph glyph-name="Aring" unicode="&#xc5;" horiz-adv-x="1681" 
d="M1378 1896q0 -93 -57 -148.5t-147 -55.5q-89 0 -147 55.5t-58 148.5q0 92 58.5 148.5t146.5 56.5q89 0 146.5 -56.5t57.5 -148.5zM1313 1896q0 66 -38 107t-101 41q-62 0 -101 -41t-39 -107q0 -68 38.5 -107.5t101.5 -39.5q64 0 101.5 39.5t37.5 107.5zM594 0h-574l13 61
h69q93 0 134 27t92 117l743 1351l88 62h8l269 -1454q10 -55 56 -79t110 -24h69l-12 -61h-655l12 61h82q117 0 158 28.5t30 94.5l-67 389h-613l-198 -368q-25 -45 -25 -74q0 -70 141 -70h82zM639 635h569l-139 799z" />
    <glyph glyph-name="AE" unicode="&#xc6;" horiz-adv-x="2062" 
d="M594 0h-574l13 61h69q65 0 101.5 12.5t62 40.5t60.5 91l749 1351l90 41h987l37 -368l-41 -21q-3 24 -6.5 44.5t-14.5 56t-26.5 63.5t-43 60t-62.5 53.5t-87.5 36t-115.5 14.5h-608l129 -696h303q203 0 252 258l12 69h49l-127 -716h-49l12 69q25 134 -14.5 196t-144.5 62
h-283l113 -614q10 -55 56 -79t110 -24q63 0 120.5 15t98.5 35t80 54.5t61.5 59t48 65t33 54.5t22.5 45l41 -20l-168 -369h-935l12 61h82q117 0 158 28.5t30 94.5l-104 594h-303l12 62h280l-100 573l-663 -1208q-25 -45 -25 -74q0 -70 141 -70h82z" />
    <glyph glyph-name="Ccedilla" unicode="&#xc7;" horiz-adv-x="1476" 
d="M467 -307l41 20q39 -127 160 -127q66 0 102.5 33t36.5 90q0 53 -30.5 84t-88.5 31q-29 0 -53 -8l-21 41l150 127q-252 23 -394.5 195.5t-142.5 434.5q0 157 43.5 308t123.5 275.5t184.5 219.5t234.5 148t266 53q87 0 153 -14t107 -28.5t66 -14.5t59 18l66 39h8l47 -430
l-41 -21q-55 179 -171 274t-326 95q-150 0 -280.5 -64.5t-219.5 -173.5t-140 -255t-51 -306q0 -132 35.5 -246.5t102.5 -201.5t172.5 -137t236.5 -50q193 0 342 104t234 286l41 -21q-46 -99 -106.5 -181.5t-143.5 -155t-194.5 -113.5t-239.5 -41h-2l-144 -123q12 4 35 4
q68 0 112 -43t44 -109q0 -82 -58.5 -131t-146.5 -49q-82 0 -131.5 39.5t-77.5 124.5z" />
    <glyph glyph-name="Egrave" unicode="&#xc8;" horiz-adv-x="1474" 
d="M932 2087l55 39l305 -424l-55 -39zM956 778h-321l-105 -594q-11 -61 27 -92t131 -31h285q63 0 120.5 15t98.5 35t80.5 54.5t62 59t47.5 64.5t33 55t23 45l41 -20l-168 -369h-1250l13 61h123q181 0 202 123l217 1229q11 59 -26.5 91t-132.5 32h-123l12 61h1186l37 -368
l-41 -21q-3 24 -6.5 44.5t-15 56t-26.5 63.5t-43 60t-63 53.5t-87.5 36t-115.5 14.5h-223q-180 0 -200 -123l-101 -573h320q206 0 252 258l12 69h49l-127 -716h-49l12 69q25 134 -15 196t-145 62z" />
    <glyph glyph-name="Eacute" unicode="&#xc9;" horiz-adv-x="1474" 
d="M1337 2048l-383 -356l-47 49l383 356zM956 778h-321l-105 -594q-11 -61 27 -92t131 -31h285q63 0 120.5 15t98.5 35t80.5 54.5t62 59t47.5 64.5t33 55t23 45l41 -20l-168 -369h-1250l13 61h123q181 0 202 123l217 1229q11 59 -26.5 91t-132.5 32h-123l12 61h1186l37 -368
l-41 -21q-3 24 -6.5 44.5t-15 56t-26.5 63.5t-43 60t-63 53.5t-87.5 36t-115.5 14.5h-223q-180 0 -200 -123l-101 -573h320q206 0 252 258l12 69h49l-127 -716h-49l12 69q25 134 -15 196t-145 62z" />
    <glyph glyph-name="Ecircumflex" unicode="&#xca;" horiz-adv-x="1474" 
d="M774 1751l432 365h8l218 -406l-60 -37l-180 342l-375 -317zM956 778h-321l-105 -594q-11 -61 27 -92t131 -31h285q63 0 120.5 15t98.5 35t80.5 54.5t62 59t47.5 64.5t33 55t23 45l41 -20l-168 -369h-1250l13 61h123q181 0 202 123l217 1229q11 59 -26.5 91t-132.5 32
h-123l12 61h1186l37 -368l-41 -21q-3 24 -6.5 44.5t-15 56t-26.5 63.5t-43 60t-63 53.5t-87.5 36t-115.5 14.5h-223q-180 0 -200 -123l-101 -573h320q206 0 252 258l12 69h49l-127 -716h-49l12 69q25 134 -15 196t-145 62z" />
    <glyph glyph-name="Edieresis" unicode="&#xcb;" horiz-adv-x="1474" 
d="M866 1894q0 52 30 77.5t73 25.5q44 0 73 -25.5t29 -77.5t-29 -77t-73 -25t-73.5 25t-29.5 77zM1194 1894q0 52 29.5 77.5t72.5 25.5q44 0 73.5 -25.5t29.5 -77.5t-29.5 -77t-73.5 -25t-73 25t-29 77zM956 778h-321l-105 -594q-11 -61 27 -92t131 -31h285q63 0 120.5 15
t98.5 35t80.5 54.5t62 59t47.5 64.5t33 55t23 45l41 -20l-168 -369h-1250l13 61h123q181 0 202 123l217 1229q11 59 -26.5 91t-132.5 32h-123l12 61h1186l37 -368l-41 -21q-3 24 -6.5 44.5t-15 56t-26.5 63.5t-43 60t-63 53.5t-87.5 36t-115.5 14.5h-223q-180 0 -200 -123
l-101 -573h320q206 0 252 258l12 69h49l-127 -716h-49l12 69q25 134 -15 196t-145 62z" />
    <glyph glyph-name="Igrave" unicode="&#xcc;" horiz-adv-x="862" 
d="M575 2087l56 39l305 -424l-55 -39zM799 0h-738l13 61h123q181 0 202 123l217 1229q10 56 -28 89.5t-131 33.5h-123l12 61h737l-12 -61h-123q-179 0 -200 -123l-218 -1229q-11 -60 27 -91.5t131 -31.5h123z" />
    <glyph glyph-name="Iacute" unicode="&#xcd;" horiz-adv-x="862" 
d="M981 2048l-383 -356l-47 49l383 356zM799 0h-738l13 61h123q181 0 202 123l217 1229q10 56 -28 89.5t-131 33.5h-123l12 61h737l-12 -61h-123q-179 0 -200 -123l-218 -1229q-11 -60 27 -91.5t131 -31.5h123z" />
    <glyph glyph-name="Icircumflex" unicode="&#xce;" horiz-adv-x="862" 
d="M418 1751l432 365h8l217 -406l-59 -37l-180 342l-375 -317zM799 0h-738l13 61h123q181 0 202 123l217 1229q10 56 -28 89.5t-131 33.5h-123l12 61h737l-12 -61h-123q-179 0 -200 -123l-218 -1229q-11 -60 27 -91.5t131 -31.5h123z" />
    <glyph glyph-name="Idieresis" unicode="&#xcf;" horiz-adv-x="862" 
d="M510 1894q0 52 29.5 77.5t72.5 25.5q44 0 73.5 -25.5t29.5 -77.5t-29.5 -77t-73.5 -25t-73 25t-29 77zM838 1894q0 52 29.5 77.5t72.5 25.5q44 0 73 -25.5t29 -77.5t-29 -77t-73 -25t-73 25t-29 77zM799 0h-738l13 61h123q181 0 202 123l217 1229q10 56 -28 89.5
t-131 33.5h-123l12 61h737l-12 -61h-123q-179 0 -200 -123l-218 -1229q-11 -60 27 -91.5t131 -31.5h123z" />
    <glyph glyph-name="Eth" unicode="&#xd0;" horiz-adv-x="1681" 
d="M795 0h-734l13 61h123q180 0 202 123l138 779h-230l10 61h230l69 389q11 61 -26.5 92t-132.5 31h-123l12 61h711q162 0 291 -50.5t212 -139.5t127 -208t44 -259q0 -115 -31 -230.5t-88 -219.5t-141.5 -194t-186 -155.5t-228 -103t-261.5 -37.5zM748 1413l-70 -389h233
l-10 -61h-233l-138 -779q-11 -61 27 -92t131 -31h96q178 0 324.5 68.5t245 190t152 290t53.5 367.5q0 121 -30.5 219.5t-94 176t-173 120.5t-257.5 43h-56q-179 0 -200 -123z" />
    <glyph glyph-name="Ntilde" unicode="&#xd1;" horiz-adv-x="1699" 
d="M1313 1925q-36 0 -75 -20t-69 -43.5t-77.5 -43.5t-98.5 -20q-43 0 -79.5 16.5t-59 39.5t-39 51.5t-24 48t-9.5 33.5h62q4 -14 13.5 -32t26.5 -40t46 -36.5t63 -14.5q44 0 87 20t73 43.5t73 43.5t87 20q43 0 79.5 -16.5t58.5 -39.5t39 -52t24 -47.5t10 -33.5h-62
q-4 14 -13.5 32t-26.5 40t-46 36.5t-63 14.5zM1577 1413q11 61 -27 92t-133 31h-82l13 61h594l-13 -61h-82q-179 0 -200 -123l-258 -1413h-70l-664 1468l-227 -1284q-11 -61 27 -92t131 -31h82l-13 -61h-594l13 61h82q181 0 202 123l217 1229q11 61 -26.5 92t-132.5 31h-82
l12 61h393l621 -1366z" />
    <glyph glyph-name="Ograve" unicode="&#xd2;" horiz-adv-x="1642" 
d="M973 2087l55 39l305 -424l-55 -39zM819 -20q-148 0 -264 52.5t-185.5 142t-105 201.5t-35.5 238q0 168 45.5 323.5t128 278t191 213.5t240.5 140t272 49q120 0 218.5 -34.5t166.5 -94.5t115 -141t68.5 -173t21.5 -192q0 -210 -71 -397.5t-190.5 -319.5t-280 -209
t-335.5 -77zM942 102q181 0 326 99.5t225 272.5t80 386q0 134 -35.5 247t-105 200.5t-185 137.5t-264.5 50q-190 0 -335 -100t-220.5 -271.5t-75.5 -386.5q0 -132 38 -246.5t110.5 -201.5t186 -137t255.5 -50z" />
    <glyph glyph-name="Oacute" unicode="&#xd3;" horiz-adv-x="1642" 
d="M1378 2048l-383 -356l-47 49l383 356zM819 -20q-148 0 -264 52.5t-185.5 142t-105 201.5t-35.5 238q0 168 45.5 323.5t128 278t191 213.5t240.5 140t272 49q120 0 218.5 -34.5t166.5 -94.5t115 -141t68.5 -173t21.5 -192q0 -210 -71 -397.5t-190.5 -319.5t-280 -209
t-335.5 -77zM942 102q181 0 326 99.5t225 272.5t80 386q0 134 -35.5 247t-105 200.5t-185 137.5t-264.5 50q-190 0 -335 -100t-220.5 -271.5t-75.5 -386.5q0 -132 38 -246.5t110.5 -201.5t186 -137t255.5 -50z" />
    <glyph glyph-name="Ocircumflex" unicode="&#xd4;" horiz-adv-x="1642" 
d="M815 1751l432 365h8l218 -406l-60 -37l-180 342l-375 -317zM819 -20q-148 0 -264 52.5t-185.5 142t-105 201.5t-35.5 238q0 168 45.5 323.5t128 278t191 213.5t240.5 140t272 49q120 0 218.5 -34.5t166.5 -94.5t115 -141t68.5 -173t21.5 -192q0 -210 -71 -397.5
t-190.5 -319.5t-280 -209t-335.5 -77zM942 102q181 0 326 99.5t225 272.5t80 386q0 134 -35.5 247t-105 200.5t-185 137.5t-264.5 50q-190 0 -335 -100t-220.5 -271.5t-75.5 -386.5q0 -132 38 -246.5t110.5 -201.5t186 -137t255.5 -50z" />
    <glyph glyph-name="Otilde" unicode="&#xd5;" horiz-adv-x="1642" 
d="M1333 1925q-36 0 -74.5 -20t-68.5 -43.5t-77.5 -43.5t-98.5 -20q-43 0 -79.5 16.5t-59 39.5t-39 51.5t-24 48t-9.5 33.5h61q4 -14 13.5 -32t27 -40t46.5 -36.5t63 -14.5q44 0 87 20t72.5 43.5t72.5 43.5t87 20q43 0 79.5 -16.5t58.5 -39.5t39 -52t24 -47.5t10 -33.5h-61
q-4 14 -13.5 32t-27 40t-46.5 36.5t-63 14.5zM819 -20q-148 0 -264 52.5t-185.5 142t-105 201.5t-35.5 238q0 168 45.5 323.5t128 278t191 213.5t240.5 140t272 49q120 0 218.5 -34.5t166.5 -94.5t115 -141t68.5 -173t21.5 -192q0 -210 -71 -397.5t-190.5 -319.5t-280 -209
t-335.5 -77zM942 102q181 0 326 99.5t225 272.5t80 386q0 134 -35.5 247t-105 200.5t-185 137.5t-264.5 50q-190 0 -335 -100t-220.5 -271.5t-75.5 -386.5q0 -132 38 -246.5t110.5 -201.5t186 -137t255.5 -50z" />
    <glyph glyph-name="Odieresis" unicode="&#xd6;" horiz-adv-x="1642" 
d="M907 1894q0 52 30 77.5t73 25.5q44 0 73 -25.5t29 -77.5t-29 -77t-73 -25t-73.5 25t-29.5 77zM1235 1894q0 52 29.5 77.5t72.5 25.5q44 0 73.5 -25.5t29.5 -77.5t-29.5 -77t-73.5 -25t-73 25t-29 77zM819 -20q-148 0 -264 52.5t-185.5 142t-105 201.5t-35.5 238
q0 168 45.5 323.5t128 278t191 213.5t240.5 140t272 49q120 0 218.5 -34.5t166.5 -94.5t115 -141t68.5 -173t21.5 -192q0 -210 -71 -397.5t-190.5 -319.5t-280 -209t-335.5 -77zM942 102q181 0 326 99.5t225 272.5t80 386q0 134 -35.5 247t-105 200.5t-185 137.5t-264.5 50
q-190 0 -335 -100t-220.5 -271.5t-75.5 -386.5q0 -132 38 -246.5t110.5 -201.5t186 -137t255.5 -50z" />
    <glyph glyph-name="multiply" unicode="&#xd7;" horiz-adv-x="1228" 
d="M340 244l-41 49l377 323l-264 322l51 45l266 -321l377 323l41 -49l-377 -324l264 -321l-53 -43l-264 319z" />
    <glyph glyph-name="Oslash" unicode="&#xd8;" horiz-adv-x="1642" 
d="M819 -20q-217 0 -362 110l-260 -336l-54 41l263 340q-88 88 -132.5 213t-44.5 266q0 168 45.5 323.5t128 278t191 213.5t240.5 140t272 49q216 0 362 -111l261 336l53 -41l-262 -340q88 -88 132 -212.5t44 -266.5q0 -210 -71 -397.5t-190.5 -319.5t-280 -209t-335.5 -77z
M352 737q0 -284 162 -463l852 1100q-150 121 -383 121q-190 0 -335 -100t-220.5 -271.5t-75.5 -386.5zM942 102q181 0 326 99.5t225 272.5t80 386q0 293 -158 467l-852 -1100q151 -125 379 -125z" />
    <glyph glyph-name="Ugrave" unicode="&#xd9;" horiz-adv-x="1679" 
d="M1022 2087l55 39l305 -424l-55 -39zM856 -20q-253 0 -359 136t-67 376l164 921q11 63 -26.5 93t-133.5 30h-123l13 61h737l-12 -61h-123q-180 0 -201 -123l-164 -921q-22 -133 3.5 -227.5t108 -149t218.5 -54.5q112 0 202 32t150 89t96.5 129.5t51.5 159.5l165 942
q11 63 -26 93t-133 30h-99l13 61h631l-13 -61h-98q-184 0 -205 -123l-166 -942q-40 -229 -199 -360t-405 -131z" />
    <glyph glyph-name="Uacute" unicode="&#xda;" horiz-adv-x="1679" 
d="M1427 2048l-383 -356l-47 49l383 356zM856 -20q-253 0 -359 136t-67 376l164 921q11 63 -26.5 93t-133.5 30h-123l13 61h737l-12 -61h-123q-180 0 -201 -123l-164 -921q-22 -133 3.5 -227.5t108 -149t218.5 -54.5q112 0 202 32t150 89t96.5 129.5t51.5 159.5l165 942
q11 63 -26 93t-133 30h-99l13 61h631l-13 -61h-98q-184 0 -205 -123l-166 -942q-40 -229 -199 -360t-405 -131z" />
    <glyph glyph-name="Ucircumflex" unicode="&#xdb;" horiz-adv-x="1679" 
d="M864 1751l432 365h9l217 -406l-60 -37l-180 342l-375 -317zM856 -20q-253 0 -359 136t-67 376l164 921q11 63 -26.5 93t-133.5 30h-123l13 61h737l-12 -61h-123q-180 0 -201 -123l-164 -921q-22 -133 3.5 -227.5t108 -149t218.5 -54.5q112 0 202 32t150 89t96.5 129.5
t51.5 159.5l165 942q11 63 -26 93t-133 30h-99l13 61h631l-13 -61h-98q-184 0 -205 -123l-166 -942q-40 -229 -199 -360t-405 -131z" />
    <glyph glyph-name="Udieresis" unicode="&#xdc;" horiz-adv-x="1679" 
d="M956 1894q0 52 30 77.5t73 25.5q44 0 73 -25.5t29 -77.5t-29 -77t-73 -25t-73.5 25t-29.5 77zM1284 1894q0 52 29.5 77.5t72.5 25.5q44 0 73.5 -25.5t29.5 -77.5t-29.5 -77t-73.5 -25t-73 25t-29 77zM856 -20q-253 0 -359 136t-67 376l164 921q11 63 -26.5 93t-133.5 30
h-123l13 61h737l-12 -61h-123q-180 0 -201 -123l-164 -921q-22 -133 3.5 -227.5t108 -149t218.5 -54.5q112 0 202 32t150 89t96.5 129.5t51.5 159.5l165 942q11 63 -26 93t-133 30h-99l13 61h631l-13 -61h-98q-184 0 -205 -123l-166 -942q-40 -229 -199 -360t-405 -131z" />
    <glyph glyph-name="Yacute" unicode="&#xdd;" horiz-adv-x="1638" 
d="M1374 2048l-383 -356l-47 49l383 356zM1556 1393l-563 -779l-75 -430q-11 -63 26 -93t131 -30h123l-12 -61h-737l12 61h123q181 0 202 123l76 430l-321 822q-22 52 -71 76t-110 24h-69l12 61h655l-12 -61h-90q-117 0 -153 -30.5t-11 -92.5l281 -735l502 715q30 47 30 73
q0 70 -149 70h-62l13 61h573l-12 -61h-90q-74 0 -117.5 -29t-104.5 -114z" />
    <glyph glyph-name="Thorn" unicode="&#xde;" horiz-adv-x="1454" 
d="M748 1413l-9 -45h271q270 0 421.5 -90t151.5 -270q0 -221 -183.5 -358.5t-500.5 -137.5h-219l12 61h156q271 0 417 110t146 321q0 153 -116 228t-318 75h-248l-199 -1123q-11 -63 26.5 -93t131.5 -30h164l-12 -61h-779l13 61h123q181 0 202 123l217 1229q10 56 -28 89.5
t-131 33.5h-123l12 61h737l-12 -61h-123q-179 0 -200 -123z" />
    <glyph glyph-name="germandbls" unicode="&#xdf;" horiz-adv-x="1087" 
d="M307 205h-20q-186 -676 -549 -676q-46 0 -76.5 21t-30.5 61q0 39 27.5 68.5t71.5 29.5q23 0 62.5 -8t64.5 -8q75 0 135 46t102.5 130t71.5 179.5t51 217.5l156 848q23 126 79.5 225t133 158.5t163.5 90t179 30.5q123 0 191.5 -54t78.5 -130l-360 -426q114 -21 186 -113
t72 -240q0 -184 -72 -340t-192 -245.5t-259 -89.5q-115 0 -181.5 60.5t-84.5 164.5zM358 406q0 -141 73.5 -218t191.5 -77q170 0 270 121t100 317q0 136 -64.5 227.5t-170.5 91.5q-53 0 -94 -20l-23 26l414 496q-9 62 -72.5 106t-155.5 44q-231 0 -297 -283l-151 -664
q-21 -100 -21 -167z" />
    <glyph glyph-name="agrave" unicode="&#xe0;" horiz-adv-x="1206" 
d="M844 242h-21q-35 -46 -60 -75.5t-66 -69t-79 -62t-90.5 -39t-109.5 -16.5q-119 0 -195 75t-76 199q0 276 365 324l127 16q208 27 281 70.5t73 146.5q0 74 -64.5 125t-189.5 51q-106 0 -167.5 -48t-61.5 -136q0 -51 -26.5 -79t-69.5 -28q-40 0 -61 26.5t-21 63.5
q0 71 67 131t173.5 93.5t222.5 33.5q159 0 248.5 -58.5t89.5 -158.5q0 -48 -24.5 -111t-47.5 -103t-78 -130q-56 -92 -75 -145t-19 -100q0 -45 23.5 -74t64.5 -29q86 0 233 205l41 -21l-135 -184q-49 -65 -80.5 -96.5t-62.5 -46.5h-37q-57 0 -85 38t-28 105q0 37 21 107z
M543 526q-129 -19 -192.5 -68.5t-63.5 -154.5q0 -90 59 -139t154 -49q153 0 257.5 115.5t176.5 349.5zM647 1595l55 39l306 -424l-56 -39z" />
    <glyph glyph-name="aacute" unicode="&#xe1;" horiz-adv-x="1206" 
d="M844 242h-21q-35 -46 -60 -75.5t-66 -69t-79 -62t-90.5 -39t-109.5 -16.5q-119 0 -195 75t-76 199q0 276 365 324l127 16q208 27 281 70.5t73 146.5q0 74 -64.5 125t-189.5 51q-106 0 -167.5 -48t-61.5 -136q0 -51 -26.5 -79t-69.5 -28q-40 0 -61 26.5t-21 63.5
q0 71 67 131t173.5 93.5t222.5 33.5q159 0 248.5 -58.5t89.5 -158.5q0 -48 -24.5 -111t-47.5 -103t-78 -130q-56 -92 -75 -145t-19 -100q0 -45 23.5 -74t64.5 -29q86 0 233 205l41 -21l-135 -184q-49 -65 -80.5 -96.5t-62.5 -46.5h-37q-57 0 -85 38t-28 105q0 37 21 107z
M543 526q-129 -19 -192.5 -68.5t-63.5 -154.5q0 -90 59 -139t154 -49q153 0 257.5 115.5t176.5 349.5zM1063 1556l-383 -356l-47 49l383 357z" />
    <glyph glyph-name="acircumflex" unicode="&#xe2;" horiz-adv-x="1206" 
d="M844 242h-21q-35 -46 -60 -75.5t-66 -69t-79 -62t-90.5 -39t-109.5 -16.5q-119 0 -195 75t-76 199q0 276 365 324l127 16q208 27 281 70.5t73 146.5q0 74 -64.5 125t-189.5 51q-106 0 -167.5 -48t-61.5 -136q0 -51 -26.5 -79t-69.5 -28q-40 0 -61 26.5t-21 63.5
q0 71 67 131t173.5 93.5t222.5 33.5q159 0 248.5 -58.5t89.5 -158.5q0 -48 -24.5 -111t-47.5 -103t-78 -130q-56 -92 -75 -145t-19 -100q0 -45 23.5 -74t64.5 -29q86 0 233 205l41 -21l-135 -184q-49 -65 -80.5 -96.5t-62.5 -46.5h-37q-57 0 -85 38t-28 105q0 37 21 107z
M543 526q-129 -19 -192.5 -68.5t-63.5 -154.5q0 -90 59 -139t154 -49q153 0 257.5 115.5t176.5 349.5zM467 1260l432 364h8l217 -405l-59 -37l-180 342l-375 -318z" />
    <glyph glyph-name="atilde" unicode="&#xe3;" horiz-adv-x="1206" 
d="M844 242h-21q-35 -46 -60 -75.5t-66 -69t-79 -62t-90.5 -39t-109.5 -16.5q-119 0 -195 75t-76 199q0 276 365 324l127 16q208 27 281 70.5t73 146.5q0 74 -64.5 125t-189.5 51q-106 0 -167.5 -48t-61.5 -136q0 -51 -26.5 -79t-69.5 -28q-40 0 -61 26.5t-21 63.5
q0 71 67 131t173.5 93.5t222.5 33.5q159 0 248.5 -58.5t89.5 -158.5q0 -48 -24.5 -111t-47.5 -103t-78 -130q-56 -92 -75 -145t-19 -100q0 -45 23.5 -74t64.5 -29q86 0 233 205l41 -21l-135 -184q-49 -65 -80.5 -96.5t-62.5 -46.5h-37q-57 0 -85 38t-28 105q0 37 21 107z
M543 526q-129 -19 -192.5 -68.5t-63.5 -154.5q0 -90 59 -139t154 -49q153 0 257.5 115.5t176.5 349.5zM1024 1434q-36 0 -74.5 -20t-68.5 -43.5t-77.5 -43.5t-98.5 -20q-43 0 -79.5 16.5t-59 39.5t-39 51t-24 47.5t-9.5 33.5h61q4 -14 13.5 -32t27 -40t46.5 -36.5t63 -14.5
q44 0 87 20t72.5 43.5t72.5 43.5t87 20q53 0 95 -23.5t65.5 -58.5t34.5 -60.5t16 -45.5h-61q-4 14 -13.5 32t-27 40t-46.5 36.5t-63 14.5z" />
    <glyph glyph-name="adieresis" unicode="&#xe4;" horiz-adv-x="1206" 
d="M844 242h-21q-35 -46 -60 -75.5t-66 -69t-79 -62t-90.5 -39t-109.5 -16.5q-119 0 -195 75t-76 199q0 276 365 324l127 16q208 27 281 70.5t73 146.5q0 74 -64.5 125t-189.5 51q-106 0 -167.5 -48t-61.5 -136q0 -51 -26.5 -79t-69.5 -28q-40 0 -61 26.5t-21 63.5
q0 71 67 131t173.5 93.5t222.5 33.5q159 0 248.5 -58.5t89.5 -158.5q0 -48 -24.5 -111t-47.5 -103t-78 -130q-56 -92 -75 -145t-19 -100q0 -45 23.5 -74t64.5 -29q86 0 233 205l41 -21l-135 -184q-49 -65 -80.5 -96.5t-62.5 -46.5h-37q-57 0 -85 38t-28 105q0 37 21 107z
M543 526q-129 -19 -192.5 -68.5t-63.5 -154.5q0 -90 59 -139t154 -49q153 0 257.5 115.5t176.5 349.5zM598 1403q0 52 29.5 77t72.5 25q44 0 73.5 -25t29.5 -77t-29.5 -77.5t-73.5 -25.5t-73 25.5t-29 77.5zM926 1403q0 52 29.5 77t72.5 25q44 0 73 -25t29 -77t-29 -77.5
t-73 -25.5t-73 25.5t-29 77.5z" />
    <glyph glyph-name="aring" unicode="&#xe5;" horiz-adv-x="1206" 
d="M844 242h-21q-35 -46 -60 -75.5t-66 -69t-79 -62t-90.5 -39t-109.5 -16.5q-119 0 -195 75t-76 199q0 276 365 324l127 16q208 27 281 70.5t73 146.5q0 74 -64.5 125t-189.5 51q-106 0 -167.5 -48t-61.5 -136q0 -51 -26.5 -79t-69.5 -28q-40 0 -61 26.5t-21 63.5
q0 71 67 131t173.5 93.5t222.5 33.5q159 0 248.5 -58.5t89.5 -158.5q0 -48 -24.5 -111t-47.5 -103t-78 -130q-56 -92 -75 -145t-19 -100q0 -45 23.5 -74t64.5 -29q86 0 233 205l41 -21l-135 -184q-49 -65 -80.5 -96.5t-62.5 -46.5h-37q-57 0 -85 38t-28 105q0 37 21 107z
M543 526q-129 -19 -192.5 -68.5t-63.5 -154.5q0 -90 59 -139t154 -49q153 0 257.5 115.5t176.5 349.5zM1069 1403q0 -94 -57.5 -149.5t-147.5 -55.5q-88 0 -146.5 56t-58.5 149q0 92 58.5 148.5t146.5 56.5q89 0 147 -56.5t58 -148.5zM1004 1403q0 66 -38.5 106.5
t-101.5 40.5q-62 0 -100.5 -40.5t-38.5 -106.5q0 -68 38.5 -108t100.5 -40q64 0 102 40t38 108z" />
    <glyph glyph-name="ae" unicode="&#xe6;" horiz-adv-x="1679" 
d="M1663 319q-30 -46 -57.5 -83.5t-74.5 -88t-93.5 -84.5t-110.5 -58.5t-129 -24.5q-136 0 -221.5 78.5t-95.5 220.5h-33q-30 -46 -55.5 -81t-67.5 -78.5t-84.5 -71.5t-101 -48t-121.5 -20q-119 0 -195 75t-76 199q0 140 79.5 221t262.5 105l109 14q209 28 281.5 71
t72.5 146q0 73 -60.5 124.5t-172.5 51.5q-102 0 -155.5 -49.5t-53.5 -134.5q0 -51 -26.5 -79t-69.5 -28q-40 0 -61 26.5t-21 63.5q0 71 64 131.5t161 93.5t199 33q132 0 217 -50.5t114 -149.5q197 200 379 200q61 0 107.5 -18.5t73 -49t39 -69.5t10.5 -80.5t-17 -81.5
l-88 -233h-602q-8 -41 -8 -90q0 -149 79 -230t218 -81q113 0 202 66t142 163zM1579 616q33 129 -16 213t-172 84q-124 0 -225 -83t-150 -214h563zM891 479l45 121l-412 -70q-123 -21 -180 -73t-57 -154q0 -90 59 -139t154 -49q130 0 230.5 101t160.5 263z" />
    <glyph glyph-name="ccedilla" unicode="&#xe7;" horiz-adv-x="964" 
d="M172 -307l41 20q39 -127 160 -127q66 0 102.5 33t36.5 90q0 53 -31 84t-88 31q-29 0 -53 -8l-21 41l146 123q-139 5 -221 93t-82 246q0 100 29.5 204t85 196.5t127.5 165.5t164 116t188 43q108 0 174.5 -57.5t66.5 -150.5q0 -56 -25 -89.5t-67 -33.5q-40 0 -67 21.5
t-27 64.5q0 17 7 40.5t7 37.5q0 45 -127 45q-122 0 -222.5 -69.5t-156 -184t-55.5 -246.5q0 -149 79 -230t218 -81q112 0 201 65.5t145 163.5l41 -21q-31 -46 -52 -75.5t-63.5 -79t-81 -80.5t-94 -60t-112.5 -38l-150 -129q12 4 35 4q68 0 112 -43t44 -109q0 -82 -58.5 -131
t-146.5 -49q-82 0 -131.5 39.5t-77.5 124.5z" />
    <glyph glyph-name="egrave" unicode="&#xe8;" horiz-adv-x="983" 
d="M958 319q-28 -47 -58.5 -89t-76.5 -89.5t-94.5 -81.5t-112.5 -56.5t-131 -22.5q-148 0 -235.5 89t-87.5 250q0 130 48 261.5t126 233.5t185.5 166t219.5 64q63 0 112 -19t78 -50.5t44 -71t14.5 -80.5t-14.5 -78l-88 -233h-615q-8 -41 -8 -90q0 -149 80.5 -230t220.5 -81
q119 0 210 62.5t143 166.5zM874 614q44 129 -7.5 218.5t-188.5 89.5q-126 0 -228 -87t-151 -221h575zM596 1595l55 39l305 -424l-55 -39z" />
    <glyph glyph-name="eacute" unicode="&#xe9;" horiz-adv-x="983" 
d="M958 319q-28 -47 -58.5 -89t-76.5 -89.5t-94.5 -81.5t-112.5 -56.5t-131 -22.5q-148 0 -235.5 89t-87.5 250q0 130 48 261.5t126 233.5t185.5 166t219.5 64q63 0 112 -19t78 -50.5t44 -71t14.5 -80.5t-14.5 -78l-88 -233h-615q-8 -41 -8 -90q0 -149 80.5 -230t220.5 -81
q119 0 210 62.5t143 166.5zM874 614q44 129 -7.5 218.5t-188.5 89.5q-126 0 -228 -87t-151 -221h575zM1012 1556l-383 -356l-47 49l383 357z" />
    <glyph glyph-name="ecircumflex" unicode="&#xea;" horiz-adv-x="983" 
d="M958 319q-28 -47 -58.5 -89t-76.5 -89.5t-94.5 -81.5t-112.5 -56.5t-131 -22.5q-148 0 -235.5 89t-87.5 250q0 130 48 261.5t126 233.5t185.5 166t219.5 64q63 0 112 -19t78 -50.5t44 -71t14.5 -80.5t-14.5 -78l-88 -233h-615q-8 -41 -8 -90q0 -149 80.5 -230t220.5 -81
q119 0 210 62.5t143 166.5zM874 614q44 129 -7.5 218.5t-188.5 89.5q-126 0 -228 -87t-151 -221h575zM416 1260l432 364h8l217 -405l-59 -37l-180 342l-375 -318z" />
    <glyph glyph-name="edieresis" unicode="&#xeb;" horiz-adv-x="983" 
d="M958 319q-28 -47 -58.5 -89t-76.5 -89.5t-94.5 -81.5t-112.5 -56.5t-131 -22.5q-148 0 -235.5 89t-87.5 250q0 130 48 261.5t126 233.5t185.5 166t219.5 64q63 0 112 -19t78 -50.5t44 -71t14.5 -80.5t-14.5 -78l-88 -233h-615q-8 -41 -8 -90q0 -149 80.5 -230t220.5 -81
q119 0 210 62.5t143 166.5zM874 614q44 129 -7.5 218.5t-188.5 89.5q-126 0 -228 -87t-151 -221h575zM547 1403q0 52 29.5 77t72.5 25q44 0 73.5 -25t29.5 -77t-29.5 -77.5t-73.5 -25.5t-73 25.5t-29 77.5zM874 1403q0 52 30 77t73 25q44 0 73 -25t29 -77t-29 -77.5
t-73 -25.5t-73.5 25.5t-29.5 77.5z" />
    <glyph glyph-name="igrave" unicode="&#xec;" horiz-adv-x="677" 
d="M260 315l180 607h-225l21 102h368l8 -8q-99 -249 -241 -567q-60 -133 -60 -187q0 -47 30.5 -87t86.5 -40q87 0 234 205l40 -21l-135 -184q-49 -65 -80.5 -96.5t-62.5 -46.5h-41q-61 0 -105.5 50.5t-44.5 121.5q0 62 27 151zM371 1595l55 39l305 -424l-55 -39z" />
    <glyph glyph-name="iacute" unicode="&#xed;" horiz-adv-x="677" 
d="M260 315l180 607h-225l21 102h368l8 -8q-99 -249 -241 -567q-60 -133 -60 -187q0 -47 30.5 -87t86.5 -40q87 0 234 205l40 -21l-135 -184q-49 -65 -80.5 -96.5t-62.5 -46.5h-41q-61 0 -105.5 50.5t-44.5 121.5q0 62 27 151zM786 1556l-383 -356l-47 49l383 357z" />
    <glyph glyph-name="icircumflex" unicode="&#xee;" horiz-adv-x="677" 
d="M260 315l180 607h-225l21 102h368l8 -8q-99 -249 -241 -567q-60 -133 -60 -187q0 -47 30.5 -87t86.5 -40q87 0 234 205l40 -21l-135 -184q-49 -65 -80.5 -96.5t-62.5 -46.5h-41q-61 0 -105.5 50.5t-44.5 121.5q0 62 27 151zM190 1260l433 364h8l217 -405l-60 -37
l-180 342l-375 -318z" />
    <glyph glyph-name="idieresis" unicode="&#xef;" horiz-adv-x="677" 
d="M260 315l180 607h-225l21 102h368l8 -8q-99 -249 -241 -567q-60 -133 -60 -187q0 -47 30.5 -87t86.5 -40q87 0 234 205l40 -21l-135 -184q-49 -65 -80.5 -96.5t-62.5 -46.5h-41q-61 0 -105.5 50.5t-44.5 121.5q0 62 27 151zM322 1403q0 52 29.5 77t72.5 25q44 0 73 -25
t29 -77t-29 -77.5t-73 -25.5t-73 25.5t-29 77.5zM649 1403q0 52 30 77t73 25q44 0 73 -25t29 -77t-29 -77.5t-73 -25.5t-73.5 25.5t-29.5 77.5z" />
    <glyph glyph-name="eth" unicode="&#xf0;" horiz-adv-x="1048" 
d="M1128 1427l-278 -47q217 -273 217 -675q0 -135 -50.5 -268.5t-132 -233t-190.5 -161.5t-221 -62q-142 0 -226.5 88t-84.5 251q0 135 50.5 268.5t132 233t190.5 161.5t221 62q108 0 170 -49q-27 190 -166 371l-309 -51l-7 61l269 45q-99 108 -197 156l27 41
q143 -59 258 -182l319 53zM555 111q113 0 208 68t148.5 180.5t53.5 242.5q0 146 -74.5 228.5t-216.5 82.5q-118 0 -214 -72t-146 -183.5t-50 -235.5q0 -145 77 -228t214 -83z" />
    <glyph glyph-name="ntilde" unicode="&#xf1;" horiz-adv-x="1296" 
d="M870 160q0 53 31 138.5t67.5 162t67.5 168.5t31 157q0 63 -31.5 99.5t-91.5 36.5q-27 0 -53 -10t-53.5 -36t-47 -47t-50 -68t-45.5 -71.5t-50 -85.5t-49 -84l-309 -520h-94l235 922h-225l20 102h369l8 -8q-136 -372 -268 -688h57l203 315q118 186 166 245
q109 136 218 153q19 3 38 3q99 0 149.5 -57.5t50.5 -146.5q0 -47 -18.5 -99.5t-39 -89.5t-73.5 -125q-82 -136 -108.5 -192t-26.5 -96q0 -45 32 -74t79 -29q38 0 89.5 47t131.5 158l41 -21l-135 -184q-86 -115 -144 -143h-41q-58 0 -94.5 48t-36.5 120zM1055 1434
q-36 0 -75 -20t-69 -43.5t-77.5 -43.5t-98.5 -20q-43 0 -79.5 16.5t-59 39.5t-39 51t-24 47.5t-9.5 33.5h62q4 -14 13.5 -32t26.5 -40t46 -36.5t63 -14.5q44 0 87 20t73 43.5t73 43.5t87 20q53 0 95 -23.5t65.5 -58.5t34.5 -60.5t16 -45.5h-62q-4 14 -13.5 32t-26.5 40
t-46 36.5t-63 14.5z" />
    <glyph glyph-name="ograve" unicode="&#xf2;" horiz-adv-x="1048" 
d="M473 -20q-142 0 -226.5 87.5t-84.5 251.5q0 135 50.5 268.5t132 233t190.5 161.5t221 62q142 0 226.5 -87.5t84.5 -251.5q0 -135 -50.5 -268.5t-132 -233t-190.5 -161.5t-221 -62zM555 111q118 0 214 72t146 183.5t50 235.5q0 147 -74 229t-217 82q-118 0 -214 -72
t-146 -183.5t-50 -235.5q0 -145 77 -228t214 -83zM657 1595l56 39l305 -424l-55 -39z" />
    <glyph glyph-name="oacute" unicode="&#xf3;" horiz-adv-x="1048" 
d="M473 -20q-142 0 -226.5 87.5t-84.5 251.5q0 135 50.5 268.5t132 233t190.5 161.5t221 62q142 0 226.5 -87.5t84.5 -251.5q0 -135 -50.5 -268.5t-132 -233t-190.5 -161.5t-221 -62zM555 111q118 0 214 72t146 183.5t50 235.5q0 147 -74 229t-217 82q-118 0 -214 -72
t-146 -183.5t-50 -235.5q0 -145 77 -228t214 -83zM1073 1556l-383 -356l-47 49l383 357z" />
    <glyph glyph-name="ocircumflex" unicode="&#xf4;" horiz-adv-x="1048" 
d="M473 -20q-142 0 -226.5 87.5t-84.5 251.5q0 135 50.5 268.5t132 233t190.5 161.5t221 62q142 0 226.5 -87.5t84.5 -251.5q0 -135 -50.5 -268.5t-132 -233t-190.5 -161.5t-221 -62zM555 111q118 0 214 72t146 183.5t50 235.5q0 147 -74 229t-217 82q-118 0 -214 -72
t-146 -183.5t-50 -235.5q0 -145 77 -228t214 -83zM477 1260l432 364h9l217 -405l-60 -37l-180 342l-375 -318z" />
    <glyph glyph-name="otilde" unicode="&#xf5;" horiz-adv-x="1048" 
d="M473 -20q-142 0 -226.5 87.5t-84.5 251.5q0 135 50.5 268.5t132 233t190.5 161.5t221 62q142 0 226.5 -87.5t84.5 -251.5q0 -135 -50.5 -268.5t-132 -233t-190.5 -161.5t-221 -62zM555 111q118 0 214 72t146 183.5t50 235.5q0 147 -74 229t-217 82q-118 0 -214 -72
t-146 -183.5t-50 -235.5q0 -145 77 -228t214 -83zM1034 1434q-36 0 -74.5 -20t-68.5 -43.5t-77.5 -43.5t-98.5 -20q-43 0 -79.5 16.5t-59 39.5t-39 51t-24 47.5t-9.5 33.5h61q4 -14 13.5 -32t27 -40t46.5 -36.5t63 -14.5q44 0 87 20t72.5 43.5t72.5 43.5t87 20
q53 0 95 -23.5t65.5 -58.5t34.5 -60.5t16 -45.5h-61q-4 14 -13.5 32t-27 40t-46.5 36.5t-63 14.5z" />
    <glyph glyph-name="odieresis" unicode="&#xf6;" horiz-adv-x="1048" 
d="M473 -20q-142 0 -226.5 87.5t-84.5 251.5q0 135 50.5 268.5t132 233t190.5 161.5t221 62q142 0 226.5 -87.5t84.5 -251.5q0 -135 -50.5 -268.5t-132 -233t-190.5 -161.5t-221 -62zM555 111q118 0 214 72t146 183.5t50 235.5q0 147 -74 229t-217 82q-118 0 -214 -72
t-146 -183.5t-50 -235.5q0 -145 77 -228t214 -83zM608 1403q0 52 30 77t73 25q44 0 73 -25t29 -77t-29 -77.5t-73 -25.5t-73.5 25.5t-29.5 77.5zM936 1403q0 52 29.5 77t72.5 25q44 0 73.5 -25t29.5 -77t-29.5 -77.5t-73.5 -25.5t-73 25.5t-29 77.5z" />
    <glyph glyph-name="divide" unicode="&#xf7;" horiz-adv-x="1228" 
d="M662 952q0 58 37 90.5t85 32.5q50 0 86.5 -32.5t36.5 -90.5t-36.5 -90.5t-86.5 -32.5q-47 0 -84.5 33t-37.5 90zM225 584l13 61h983l-13 -61h-983zM541 276q0 58 37 90.5t86 32.5q50 0 86 -32.5t36 -90.5t-36 -90t-86 -32q-48 0 -85.5 32.5t-37.5 89.5z" />
    <glyph glyph-name="oslash" unicode="&#xf8;" horiz-adv-x="1048" 
d="M471 -20q-113 0 -184 51l-441 -568l-53 41l443 572q-76 92 -76 243q0 135 50.5 268.5t132 233t190.5 161.5t221 62t188 -55l436 563l54 -41l-441 -567q74 -90 74 -239q0 -135 -50.5 -268.5t-132 -233t-190.5 -161.5t-221 -62zM262 422q0 -139 70 -221l516 665
q-68 47 -176 47q-118 0 -214 -72t-146 -183.5t-50 -235.5zM553 111q118 0 214 72t146 183.5t50 235.5q0 138 -66 219l-514 -665q70 -45 170 -45z" />
    <glyph glyph-name="ugrave" unicode="&#xf9;" horiz-adv-x="1298" 
d="M1083 135q38 0 90.5 47t131.5 158l41 -21l-136 -184q-48 -65 -79.5 -96t-63.5 -47h-41q-65 0 -105 40t-40 107q0 68 30 156l144 401h-58l-190 -315q-40 -67 -66 -107t-63.5 -93t-68.5 -84t-69 -60.5t-78.5 -43t-84.5 -13.5q-71 0 -112.5 46.5t-41.5 129.5q0 23 4.5 53
t10 55t18 68.5t20 67t24.5 78t24 75.5l116 369h-225l21 102h368l8 -8q-44 -117 -127.5 -290.5t-124.5 -272.5q-22 -53 -31.5 -77.5t-18.5 -60.5t-9 -65q0 -57 37.5 -88t97.5 -31q26 0 50.5 6.5t45 16t43.5 29t39.5 35.5t39 46t36.5 50.5t37.5 59.5t36.5 62t39 68l297 520
h123q-63 -182 -99 -289.5t-83.5 -275.5t-47.5 -230q0 -41 26.5 -67.5t63.5 -26.5zM715 1595l55 39l305 -424l-55 -39z" />
    <glyph glyph-name="uacute" unicode="&#xfa;" horiz-adv-x="1298" 
d="M1083 135q38 0 90.5 47t131.5 158l41 -21l-136 -184q-48 -65 -79.5 -96t-63.5 -47h-41q-65 0 -105 40t-40 107q0 68 30 156l144 401h-58l-190 -315q-40 -67 -66 -107t-63.5 -93t-68.5 -84t-69 -60.5t-78.5 -43t-84.5 -13.5q-71 0 -112.5 46.5t-41.5 129.5q0 23 4.5 53
t10 55t18 68.5t20 67t24.5 78t24 75.5l116 369h-225l21 102h368l8 -8q-44 -117 -127.5 -290.5t-124.5 -272.5q-22 -53 -31.5 -77.5t-18.5 -60.5t-9 -65q0 -57 37.5 -88t97.5 -31q26 0 50.5 6.5t45 16t43.5 29t39.5 35.5t39 46t36.5 50.5t37.5 59.5t36.5 62t39 68l297 520
h123q-63 -182 -99 -289.5t-83.5 -275.5t-47.5 -230q0 -41 26.5 -67.5t63.5 -26.5zM1130 1556l-382 -356l-48 49l383 357z" />
    <glyph glyph-name="ucircumflex" unicode="&#xfb;" horiz-adv-x="1298" 
d="M1083 135q38 0 90.5 47t131.5 158l41 -21l-136 -184q-48 -65 -79.5 -96t-63.5 -47h-41q-65 0 -105 40t-40 107q0 68 30 156l144 401h-58l-190 -315q-40 -67 -66 -107t-63.5 -93t-68.5 -84t-69 -60.5t-78.5 -43t-84.5 -13.5q-71 0 -112.5 46.5t-41.5 129.5q0 23 4.5 53
t10 55t18 68.5t20 67t24.5 78t24 75.5l116 369h-225l21 102h368l8 -8q-44 -117 -127.5 -290.5t-124.5 -272.5q-22 -53 -31.5 -77.5t-18.5 -60.5t-9 -65q0 -57 37.5 -88t97.5 -31q26 0 50.5 6.5t45 16t43.5 29t39.5 35.5t39 46t36.5 50.5t37.5 59.5t36.5 62t39 68l297 520
h123q-63 -182 -99 -289.5t-83.5 -275.5t-47.5 -230q0 -41 26.5 -67.5t63.5 -26.5zM535 1260l432 364h8l217 -405l-59 -37l-181 342l-374 -318z" />
    <glyph glyph-name="udieresis" unicode="&#xfc;" horiz-adv-x="1298" 
d="M1083 135q38 0 90.5 47t131.5 158l41 -21l-136 -184q-48 -65 -79.5 -96t-63.5 -47h-41q-65 0 -105 40t-40 107q0 68 30 156l144 401h-58l-190 -315q-40 -67 -66 -107t-63.5 -93t-68.5 -84t-69 -60.5t-78.5 -43t-84.5 -13.5q-71 0 -112.5 46.5t-41.5 129.5q0 23 4.5 53
t10 55t18 68.5t20 67t24.5 78t24 75.5l116 369h-225l21 102h368l8 -8q-44 -117 -127.5 -290.5t-124.5 -272.5q-22 -53 -31.5 -77.5t-18.5 -60.5t-9 -65q0 -57 37.5 -88t97.5 -31q26 0 50.5 6.5t45 16t43.5 29t39.5 35.5t39 46t36.5 50.5t37.5 59.5t36.5 62t39 68l297 520
h123q-63 -182 -99 -289.5t-83.5 -275.5t-47.5 -230q0 -41 26.5 -67.5t63.5 -26.5zM666 1403q0 52 29.5 77t72.5 25q44 0 73 -25t29 -77t-29 -77.5t-73 -25.5t-73 25.5t-29 77.5zM993 1403q0 52 30 77t73 25q44 0 73 -25t29 -77t-29 -77.5t-73 -25.5t-73.5 25.5t-29.5 77.5z
" />
    <glyph glyph-name="yacute" unicode="&#xfd;" horiz-adv-x="1003" 
d="M274 889q-34 0 -62 -21t-75 -73l-41 20q134 166 199 217h41q73 0 124 -79.5t72 -211.5t16 -305t-38 -358h41q416 514 416 768q0 26 -27 26q-8 0 -29.5 -7t-42.5 -7q-44 0 -67 25.5t-23 64.5q0 45 33.5 70.5t89.5 25.5q80 0 128 -47t48 -129q0 -80 -43 -182.5t-129 -226.5
t-174 -235t-217 -261q-64 -74 -114 -128t-115.5 -115.5t-120.5 -100t-117.5 -64.5t-118.5 -26q-46 0 -76 20.5t-30 61.5q0 39 27 68.5t71 29.5q21 0 60.5 -4t62.5 -4q63 0 120.5 20.5t110 66.5t91 113.5t61.5 168.5t23 225q0 125 -9 228t-29 187.5t-55 131.5t-82 47z
M971 1556l-383 -356l-47 49l383 357z" />
    <glyph glyph-name="thorn" unicode="&#xfe;" horiz-adv-x="1161" 
d="M313 205l-92 -357q-24 -91 -24 -135q0 -56 23.5 -79t82.5 -23h115l-15 -62h-532l14 62h62q56 0 92.5 37.5t60.5 113.5q120 382 259 894t206 839h-225l20 102h340l9 -8q-116 -384 -275 -864h21q6 7 17 20q46 54 72 83.5t76.5 77t90 73t94 45.5t108.5 20q267 0 267 -339
q0 -136 -49 -268.5t-128 -232.5t-186.5 -162t-218.5 -62q-105 0 -175.5 62t-88.5 163h-21zM426 401q0 -144 68.5 -217t189.5 -73q69 0 132.5 29.5t111.5 79.5t84 114.5t54.5 138t18.5 145.5q0 139 -69 215t-189 76q-87 0 -163.5 -45t-127.5 -117t-80.5 -163t-29.5 -183z" />
    <glyph glyph-name="ydieresis" unicode="&#xff;" horiz-adv-x="1003" 
d="M274 889q-34 0 -62 -21t-75 -73l-41 20q134 166 199 217h41q73 0 124 -79.5t72 -211.5t16 -305t-38 -358h41q416 514 416 768q0 26 -27 26q-8 0 -29.5 -7t-42.5 -7q-44 0 -67 25.5t-23 64.5q0 45 33.5 70.5t89.5 25.5q80 0 128 -47t48 -129q0 -80 -43 -182.5t-129 -226.5
t-174 -235t-217 -261q-64 -74 -114 -128t-115.5 -115.5t-120.5 -100t-117.5 -64.5t-118.5 -26q-46 0 -76 20.5t-30 61.5q0 39 27 68.5t71 29.5q21 0 60.5 -4t62.5 -4q63 0 120.5 20.5t110 66.5t91 113.5t61.5 168.5t23 225q0 125 -9 228t-29 187.5t-55 131.5t-82 47z
M506 1403q0 52 29.5 77t72.5 25q44 0 73.5 -25t29.5 -77t-29.5 -77.5t-73.5 -25.5t-73 25.5t-29 77.5zM834 1403q0 52 29.5 77t72.5 25q44 0 73 -25t29 -77t-29 -77.5t-73 -25.5t-73 25.5t-29 77.5z" />
    <glyph glyph-name="Amacron" unicode="&#x100;" horiz-adv-x="1681" 
d="M1409 1927l-12 -65h-459l12 65h459zM594 0h-574l13 61h69q93 0 134 27t92 117l743 1351l88 62h8l269 -1454q10 -55 56 -79t110 -24h69l-12 -61h-655l12 61h82q117 0 158 28.5t30 94.5l-67 389h-613l-198 -368q-25 -45 -25 -74q0 -70 141 -70h82zM639 635h569l-139 799z
" />
    <glyph glyph-name="amacron" unicode="&#x101;" horiz-adv-x="1206" 
d="M844 242h-21q-35 -46 -60 -75.5t-66 -69t-79 -62t-90.5 -39t-109.5 -16.5q-119 0 -195 75t-76 199q0 276 365 324l127 16q208 27 281 70.5t73 146.5q0 74 -64.5 125t-189.5 51q-106 0 -167.5 -48t-61.5 -136q0 -51 -26.5 -79t-69.5 -28q-40 0 -61 26.5t-21 63.5
q0 71 67 131t173.5 93.5t222.5 33.5q159 0 248.5 -58.5t89.5 -158.5q0 -48 -24.5 -111t-47.5 -103t-78 -130q-56 -92 -75 -145t-19 -100q0 -45 23.5 -74t64.5 -29q86 0 233 205l41 -21l-135 -184q-49 -65 -80.5 -96.5t-62.5 -46.5h-37q-57 0 -85 38t-28 105q0 37 21 107z
M543 526q-129 -19 -192.5 -68.5t-63.5 -154.5q0 -90 59 -139t154 -49q153 0 257.5 115.5t176.5 349.5zM1100 1436l-13 -66h-458l12 66h459z" />
    <glyph glyph-name="Abreve" unicode="&#x102;" horiz-adv-x="1681" 
d="M991 2013q-13 -184 160 -184q106 0 169.5 58t80.5 126h61q-10 -42 -34 -83t-62 -78.5t-97 -61t-128 -23.5q-114 0 -167 64.5t-44 181.5h61zM594 0h-574l13 61h69q93 0 134 27t92 117l743 1351l88 62h8l269 -1454q10 -55 56 -79t110 -24h69l-12 -61h-655l12 61h82
q117 0 158 28.5t30 94.5l-67 389h-613l-198 -368q-25 -45 -25 -74q0 -70 141 -70h82zM639 635h569l-139 799z" />
    <glyph glyph-name="abreve" unicode="&#x103;" horiz-adv-x="1206" 
d="M844 242h-21q-35 -46 -60 -75.5t-66 -69t-79 -62t-90.5 -39t-109.5 -16.5q-119 0 -195 75t-76 199q0 276 365 324l127 16q208 27 281 70.5t73 146.5q0 74 -64.5 125t-189.5 51q-106 0 -167.5 -48t-61.5 -136q0 -51 -26.5 -79t-69.5 -28q-40 0 -61 26.5t-21 63.5
q0 71 67 131t173.5 93.5t222.5 33.5q159 0 248.5 -58.5t89.5 -158.5q0 -48 -24.5 -111t-47.5 -103t-78 -130q-56 -92 -75 -145t-19 -100q0 -45 23.5 -74t64.5 -29q86 0 233 205l41 -21l-135 -184q-49 -65 -80.5 -96.5t-62.5 -46.5h-37q-57 0 -85 38t-28 105q0 37 21 107z
M543 526q-129 -19 -192.5 -68.5t-63.5 -154.5q0 -90 59 -139t154 -49q153 0 257.5 115.5t176.5 349.5zM682 1524q-6 -88 33 -136.5t127 -48.5q56 0 102.5 18.5t75.5 47.5t47 59t25 60h61q-10 -42 -34 -83t-62.5 -78.5t-97.5 -61t-128 -23.5q-114 0 -166.5 64t-43.5 182h61z
" />
    <glyph glyph-name="Aogonek" unicode="&#x104;" horiz-adv-x="1681" 
d="M594 0h-574l13 61h69q93 0 134 27t92 117l743 1351l88 62h8l269 -1454q10 -55 56 -79t110 -24h69l-12 -61h-129q-84 -141 -84 -209q0 -78 92 -78h70l-11 -61h-98q-63 0 -93 33t-30 90q0 81 92 225h-464l12 61h82q117 0 158 28.5t30 94.5l-67 389h-613l-198 -368
q-25 -45 -25 -74q0 -70 141 -70h82zM639 635h569l-139 799z" />
    <glyph glyph-name="aogonek" unicode="&#x105;" horiz-adv-x="1206" 
d="M844 242h-21q-35 -46 -60 -75.5t-66 -69t-79 -62t-90.5 -39t-109.5 -16.5q-119 0 -195 75t-76 199q0 276 365 324l127 16q208 27 281 70.5t73 146.5q0 74 -64.5 125t-189.5 51q-106 0 -167.5 -48t-61.5 -136q0 -51 -26.5 -79t-69.5 -28q-40 0 -61 26.5t-21 63.5
q0 71 67 131t173.5 93.5t222.5 33.5q159 0 248.5 -58.5t89.5 -158.5q0 -48 -24.5 -111t-47.5 -103t-78 -130q-56 -92 -75 -145t-19 -100q0 -45 23.5 -74t64.5 -29q73 0 194 152l39 53l41 -21l-104 -143q-102 -142 -153.5 -231.5t-51.5 -153.5q0 -78 92 -78h70l-10 -61h-99
q-63 0 -93 33t-30 90q0 79 89 217h-25q-57 0 -85 38t-28 105q0 37 21 107zM543 526q-129 -19 -192.5 -68.5t-63.5 -154.5q0 -90 59 -139t154 -49q153 0 257.5 115.5t176.5 349.5z" />
    <glyph glyph-name="Cacute" unicode="&#x106;" horiz-adv-x="1476" 
d="M1399 2048l-383 -356l-47 49l383 356zM1079 1618q87 0 153 -14t107 -28.5t66 -14.5t59 18l66 39h8l47 -430l-41 -21q-55 179 -171 274t-326 95q-150 0 -280.5 -64.5t-219.5 -173.5t-140 -255t-51 -306q0 -132 35.5 -246.5t102.5 -201.5t172.5 -137t236.5 -50
q193 0 342 104t234 286l41 -21q-46 -99 -106.5 -181.5t-143.5 -155t-194.5 -113.5t-239.5 -41q-188 0 -327.5 82.5t-210.5 225.5t-71 326q0 157 43.5 308t123.5 275.5t184.5 219.5t234.5 148t266 53z" />
    <glyph glyph-name="cacute" unicode="&#x107;" horiz-adv-x="964" 
d="M481 -20q-146 0 -232.5 88.5t-86.5 250.5q0 100 29.5 204t85 196.5t127.5 165.5t164 116t188 43q108 0 174.5 -57.5t66.5 -150.5q0 -56 -25 -89.5t-67 -33.5q-40 0 -67 21.5t-27 64.5q0 17 7 40.5t7 37.5q0 45 -127 45q-122 0 -222.5 -69.5t-156 -184t-55.5 -246.5
q0 -149 79 -230t218 -81q112 0 201 65.5t145 163.5l41 -21q-24 -35 -39.5 -58t-46.5 -62.5t-57.5 -65.5t-65.5 -57.5t-76.5 -50.5t-85 -32t-96.5 -13zM1016 1556l-383 -356l-47 49l383 357z" />
    <glyph glyph-name="Ccircumflex" unicode="&#x108;" horiz-adv-x="1476" 
d="M836 1751l432 365h8l217 -406l-59 -37l-181 342l-374 -317zM1079 1618q87 0 153 -14t107 -28.5t66 -14.5t59 18l66 39h8l47 -430l-41 -21q-55 179 -171 274t-326 95q-150 0 -280.5 -64.5t-219.5 -173.5t-140 -255t-51 -306q0 -132 35.5 -246.5t102.5 -201.5t172.5 -137
t236.5 -50q193 0 342 104t234 286l41 -21q-46 -99 -106.5 -181.5t-143.5 -155t-194.5 -113.5t-239.5 -41q-188 0 -327.5 82.5t-210.5 225.5t-71 326q0 157 43.5 308t123.5 275.5t184.5 219.5t234.5 148t266 53z" />
    <glyph glyph-name="ccircumflex" unicode="&#x109;" horiz-adv-x="964" 
d="M481 -20q-146 0 -232.5 88.5t-86.5 250.5q0 100 29.5 204t85 196.5t127.5 165.5t164 116t188 43q108 0 174.5 -57.5t66.5 -150.5q0 -56 -25 -89.5t-67 -33.5q-40 0 -67 21.5t-27 64.5q0 17 7 40.5t7 37.5q0 45 -127 45q-122 0 -222.5 -69.5t-156 -184t-55.5 -246.5
q0 -149 79 -230t218 -81q112 0 201 65.5t145 163.5l41 -21q-24 -35 -39.5 -58t-46.5 -62.5t-57.5 -65.5t-65.5 -57.5t-76.5 -50.5t-85 -32t-96.5 -13zM420 1260l432 364h8l217 -405l-59 -37l-180 342l-375 -318z" />
    <glyph glyph-name="Cdotaccent" unicode="&#x10a;" horiz-adv-x="1476" 
d="M1092 1894q0 52 29.5 77.5t72.5 25.5q44 0 73 -25.5t29 -77.5t-29 -77t-73 -25t-73 25t-29 77zM1079 1618q87 0 153 -14t107 -28.5t66 -14.5t59 18l66 39h8l47 -430l-41 -21q-55 179 -171 274t-326 95q-150 0 -280.5 -64.5t-219.5 -173.5t-140 -255t-51 -306
q0 -132 35.5 -246.5t102.5 -201.5t172.5 -137t236.5 -50q193 0 342 104t234 286l41 -21q-46 -99 -106.5 -181.5t-143.5 -155t-194.5 -113.5t-239.5 -41q-188 0 -327.5 82.5t-210.5 225.5t-71 326q0 157 43.5 308t123.5 275.5t184.5 219.5t234.5 148t266 53z" />
    <glyph glyph-name="cdotaccent" unicode="&#x10b;" horiz-adv-x="964" 
d="M481 -20q-146 0 -232.5 88.5t-86.5 250.5q0 100 29.5 204t85 196.5t127.5 165.5t164 116t188 43q108 0 174.5 -57.5t66.5 -150.5q0 -56 -25 -89.5t-67 -33.5q-40 0 -67 21.5t-27 64.5q0 17 7 40.5t7 37.5q0 45 -127 45q-122 0 -222.5 -69.5t-156 -184t-55.5 -246.5
q0 -149 79 -230t218 -81q112 0 201 65.5t145 163.5l41 -21q-24 -35 -39.5 -58t-46.5 -62.5t-57.5 -65.5t-65.5 -57.5t-76.5 -50.5t-85 -32t-96.5 -13zM715 1403q0 52 29.5 77t72.5 25q44 0 73.5 -25t29.5 -77t-29.5 -77.5t-73.5 -25.5t-73 25.5t-29 77.5z" />
    <glyph glyph-name="Ccaron" unicode="&#x10c;" horiz-adv-x="1476" 
d="M1597 2038l-432 -365h-8l-217 406l59 37l181 -342l374 317zM1079 1618q87 0 153 -14t107 -28.5t66 -14.5t59 18l66 39h8l47 -430l-41 -21q-55 179 -171 274t-326 95q-150 0 -280.5 -64.5t-219.5 -173.5t-140 -255t-51 -306q0 -132 35.5 -246.5t102.5 -201.5t172.5 -137
t236.5 -50q193 0 342 104t234 286l41 -21q-46 -99 -106.5 -181.5t-143.5 -155t-194.5 -113.5t-239.5 -41q-188 0 -327.5 82.5t-210.5 225.5t-71 326q0 157 43.5 308t123.5 275.5t184.5 219.5t234.5 148t266 53z" />
    <glyph glyph-name="ccaron" unicode="&#x10d;" horiz-adv-x="964" 
d="M481 -20q-146 0 -232.5 88.5t-86.5 250.5q0 100 29.5 204t85 196.5t127.5 165.5t164 116t188 43q108 0 174.5 -57.5t66.5 -150.5q0 -56 -25 -89.5t-67 -33.5q-40 0 -67 21.5t-27 64.5q0 17 7 40.5t7 37.5q0 45 -127 45q-122 0 -222.5 -69.5t-156 -184t-55.5 -246.5
q0 -149 79 -230t218 -81q112 0 201 65.5t145 163.5l41 -21q-24 -35 -39.5 -58t-46.5 -62.5t-57.5 -65.5t-65.5 -57.5t-76.5 -50.5t-85 -32t-96.5 -13zM1180 1546l-432 -364h-9l-217 405l60 37l180 -342l375 317z" />
    <glyph glyph-name="Dcaron" unicode="&#x10e;" horiz-adv-x="1679" 
d="M1495 2038l-432 -365h-8l-217 406l59 37l180 -342l375 317zM795 0h-734l13 61h123q180 0 202 123l217 1229q11 61 -26.5 92t-132.5 31h-123l12 61h711q162 0 291 -50.5t212 -139.5t127 -208t44 -259q0 -115 -31 -230.5t-88 -219.5t-141.5 -194t-186 -155.5t-228 -103
t-261.5 -37.5zM748 1413l-218 -1229q-11 -61 27 -92t131 -31h96q178 0 324.5 68.5t245 190t152 290t53.5 367.5q0 121 -30.5 219.5t-94 176t-173 120.5t-257.5 43h-56q-179 0 -200 -123z" />
    <glyph glyph-name="dcaron" unicode="&#x10f;" horiz-adv-x="1224" 
d="M862 270h-20q-189 -290 -400 -290q-125 0 -202.5 91t-77.5 248q0 135 49 268.5t129 233t186.5 161.5t216.5 62q185 0 244 -204h29l125 655h-226l21 102h377l8 -8q-26 -85 -58 -182.5t-87 -260t-101 -302.5q-95 -288 -131.5 -418t-36.5 -180q0 -55 31 -83t78 -28
q86 0 233 205l41 -21l-135 -184q-49 -65 -80.5 -96.5t-62.5 -46.5h-37q-59 0 -98 42t-39 109q0 57 24 127zM903 623q0 145 -65 217.5t-185 72.5q-114 0 -207 -77t-141.5 -192t-48.5 -238q0 -140 65.5 -215.5t184.5 -75.5q70 0 133 29t110.5 79t82.5 114.5t53 138t18 147.5z
M1579 1597l-188 -413l-62 24l189 414z" />
    <glyph glyph-name="Dcroat" unicode="&#x110;" horiz-adv-x="1681" 
d="M795 0h-734l13 61h123q180 0 202 123l103 584h-232l13 61h231l102 584q11 61 -26.5 92t-132.5 31h-123l12 61h711q162 0 291 -50.5t212 -139.5t127 -208t44 -259q0 -115 -31 -230.5t-88 -219.5t-141.5 -194t-186 -155.5t-228 -103t-261.5 -37.5zM748 1413l-103 -584h232
l-13 -61h-231l-103 -584q-11 -61 27 -92t131 -31h96q178 0 324.5 68.5t245 190t152 290t53.5 367.5q0 121 -30.5 219.5t-94 176t-173 120.5t-257.5 43h-56q-179 0 -200 -123z" />
    <glyph glyph-name="dcroat" unicode="&#x111;" horiz-adv-x="1224" 
d="M862 270h-20q-189 -290 -400 -290q-125 0 -202.5 91t-77.5 248q0 135 49 268.5t129 233t186.5 161.5t216.5 62q185 0 244 -204h29l63 327h-266l12 66h267l49 262h-226l21 102h377l8 -8q-47 -148 -117 -356h215l-12 -66h-223q-18 -51 -56 -164t-53 -159
q-95 -288 -131.5 -418t-36.5 -180q0 -55 31 -83t78 -28q86 0 233 205l41 -21l-135 -184q-49 -65 -80.5 -96.5t-62.5 -46.5h-37q-59 0 -98 42t-39 109q0 57 24 127zM903 623q0 145 -65 217.5t-185 72.5q-114 0 -207 -77t-141.5 -192t-48.5 -238q0 -140 65.5 -215.5
t184.5 -75.5q70 0 133 29t110.5 79t82.5 114.5t53 138t18 147.5z" />
    <glyph glyph-name="Emacron" unicode="&#x112;" horiz-adv-x="1474" 
d="M1368 1927l-12 -65h-459l12 65h459zM956 778h-321l-105 -594q-11 -61 27 -92t131 -31h285q63 0 120.5 15t98.5 35t80.5 54.5t62 59t47.5 64.5t33 55t23 45l41 -20l-168 -369h-1250l13 61h123q181 0 202 123l217 1229q11 59 -26.5 91t-132.5 32h-123l12 61h1186l37 -368
l-41 -21q-3 24 -6.5 44.5t-15 56t-26.5 63.5t-43 60t-63 53.5t-87.5 36t-115.5 14.5h-223q-180 0 -200 -123l-101 -573h320q206 0 252 258l12 69h49l-127 -716h-49l12 69q25 134 -15 196t-145 62z" />
    <glyph glyph-name="emacron" unicode="&#x113;" horiz-adv-x="983" 
d="M958 319q-28 -47 -58.5 -89t-76.5 -89.5t-94.5 -81.5t-112.5 -56.5t-131 -22.5q-148 0 -235.5 89t-87.5 250q0 130 48 261.5t126 233.5t185.5 166t219.5 64q63 0 112 -19t78 -50.5t44 -71t14.5 -80.5t-14.5 -78l-88 -233h-615q-8 -41 -8 -90q0 -149 80.5 -230t220.5 -81
q119 0 210 62.5t143 166.5zM874 614q44 129 -7.5 218.5t-188.5 89.5q-126 0 -228 -87t-151 -221h575zM1049 1436l-13 -66h-458l12 66h459z" />
    <glyph glyph-name="Ebreve" unicode="&#x114;" horiz-adv-x="1474" 
d="M950 2013q-13 -184 160 -184q106 0 169.5 58t80.5 126h61q-10 -42 -34 -83t-62 -78.5t-97 -61t-128 -23.5q-114 0 -167 64.5t-44 181.5h61zM956 778h-321l-105 -594q-11 -61 27 -92t131 -31h285q63 0 120.5 15t98.5 35t80.5 54.5t62 59t47.5 64.5t33 55t23 45l41 -20
l-168 -369h-1250l13 61h123q181 0 202 123l217 1229q11 59 -26.5 91t-132.5 32h-123l12 61h1186l37 -368l-41 -21q-3 24 -6.5 44.5t-15 56t-26.5 63.5t-43 60t-63 53.5t-87.5 36t-115.5 14.5h-223q-180 0 -200 -123l-101 -573h320q206 0 252 258l12 69h49l-127 -716h-49
l12 69q25 134 -15 196t-145 62z" />
    <glyph glyph-name="ebreve" unicode="&#x115;" horiz-adv-x="983" 
d="M958 319q-28 -47 -58.5 -89t-76.5 -89.5t-94.5 -81.5t-112.5 -56.5t-131 -22.5q-148 0 -235.5 89t-87.5 250q0 130 48 261.5t126 233.5t185.5 166t219.5 64q63 0 112 -19t78 -50.5t44 -71t14.5 -80.5t-14.5 -78l-88 -233h-615q-8 -41 -8 -90q0 -149 80.5 -230t220.5 -81
q119 0 210 62.5t143 166.5zM874 614q44 129 -7.5 218.5t-188.5 89.5q-126 0 -228 -87t-151 -221h575zM631 1524q-6 -88 33 -136.5t127 -48.5q56 0 102.5 18.5t75.5 47.5t46.5 59t24.5 60h62q-10 -42 -34 -83t-62.5 -78.5t-97.5 -61t-128 -23.5q-114 0 -167 64.5t-44 181.5
h62z" />
    <glyph glyph-name="Edotaccent" unicode="&#x116;" horiz-adv-x="1474" 
d="M1030 1894q0 52 30 77.5t73 25.5q44 0 73 -25.5t29 -77.5t-29 -77t-73 -25t-73.5 25t-29.5 77zM956 778h-321l-105 -594q-11 -61 27 -92t131 -31h285q63 0 120.5 15t98.5 35t80.5 54.5t62 59t47.5 64.5t33 55t23 45l41 -20l-168 -369h-1250l13 61h123q181 0 202 123
l217 1229q11 59 -26.5 91t-132.5 32h-123l12 61h1186l37 -368l-41 -21q-3 24 -6.5 44.5t-15 56t-26.5 63.5t-43 60t-63 53.5t-87.5 36t-115.5 14.5h-223q-180 0 -200 -123l-101 -573h320q206 0 252 258l12 69h49l-127 -716h-49l12 69q25 134 -15 196t-145 62z" />
    <glyph glyph-name="edotaccent" unicode="&#x117;" horiz-adv-x="983" 
d="M958 319q-28 -47 -58.5 -89t-76.5 -89.5t-94.5 -81.5t-112.5 -56.5t-131 -22.5q-148 0 -235.5 89t-87.5 250q0 130 48 261.5t126 233.5t185.5 166t219.5 64q63 0 112 -19t78 -50.5t44 -71t14.5 -80.5t-14.5 -78l-88 -233h-615q-8 -41 -8 -90q0 -149 80.5 -230t220.5 -81
q119 0 210 62.5t143 166.5zM874 614q44 129 -7.5 218.5t-188.5 89.5q-126 0 -228 -87t-151 -221h575zM711 1403q0 52 29.5 77t72.5 25q44 0 73 -25t29 -77t-29 -77.5t-73 -25.5t-73 25.5t-29 77.5z" />
    <glyph glyph-name="Eogonek" unicode="&#x118;" horiz-adv-x="1474" 
d="M956 778h-321l-105 -594q-11 -61 27 -92t131 -31h285q63 0 120.5 15t98.5 35t80.5 54.5t62 59t47.5 64.5t33 55t23 45l41 -20l-168 -369h-27q-84 -141 -84 -209q0 -78 92 -78h70l-10 -61h-99q-63 0 -93 33t-30 90q0 80 93 225h-1162l13 61h123q181 0 202 123l217 1229
q11 59 -26.5 91t-132.5 32h-123l12 61h1186l37 -368l-41 -21q-3 24 -6.5 44.5t-15 56t-26.5 63.5t-43 60t-63 53.5t-87.5 36t-115.5 14.5h-223q-180 0 -200 -123l-101 -573h320q206 0 252 258l12 69h49l-127 -716h-49l12 69q25 134 -15 196t-145 62z" />
    <glyph glyph-name="eogonek" unicode="&#x119;" horiz-adv-x="983" 
d="M801 -348h-99q-122 0 -122 123q0 93 116 264q-97 -59 -211 -59q-148 0 -235.5 89t-87.5 250q0 130 48 261.5t126 233.5t185.5 166t219.5 64q63 0 112 -19t78 -50.5t44 -71t14.5 -80.5t-14.5 -78l-88 -233h-615q-8 -41 -8 -90q0 -149 80.5 -230t220.5 -81q145 0 252 96
q2 3 7 9t7 9l87 115l40 -21q-54 -91 -116 -161q-93 -128 -143 -216.5t-50 -150.5q0 -78 92 -78h70zM874 614q44 129 -7.5 218.5t-188.5 89.5q-126 0 -228 -87t-151 -221h575z" />
    <glyph glyph-name="Ecaron" unicode="&#x11a;" horiz-adv-x="1474" 
d="M1536 2038l-432 -365h-8l-217 406l59 37l180 -342l375 317zM956 778h-321l-105 -594q-11 -61 27 -92t131 -31h285q63 0 120.5 15t98.5 35t80.5 54.5t62 59t47.5 64.5t33 55t23 45l41 -20l-168 -369h-1250l13 61h123q181 0 202 123l217 1229q11 59 -26.5 91t-132.5 32
h-123l12 61h1186l37 -368l-41 -21q-3 24 -6.5 44.5t-15 56t-26.5 63.5t-43 60t-63 53.5t-87.5 36t-115.5 14.5h-223q-180 0 -200 -123l-101 -573h320q206 0 252 258l12 69h49l-127 -716h-49l12 69q25 134 -15 196t-145 62z" />
    <glyph glyph-name="ecaron" unicode="&#x11b;" horiz-adv-x="983" 
d="M958 319q-28 -47 -58.5 -89t-76.5 -89.5t-94.5 -81.5t-112.5 -56.5t-131 -22.5q-148 0 -235.5 89t-87.5 250q0 130 48 261.5t126 233.5t185.5 166t219.5 64q63 0 112 -19t78 -50.5t44 -71t14.5 -80.5t-14.5 -78l-88 -233h-615q-8 -41 -8 -90q0 -149 80.5 -230t220.5 -81
q119 0 210 62.5t143 166.5zM874 614q44 129 -7.5 218.5t-188.5 89.5q-126 0 -228 -87t-151 -221h575zM1176 1546l-433 -364h-8l-217 405l60 37l180 -342l375 317z" />
    <glyph glyph-name="Gcircumflex" unicode="&#x11c;" horiz-adv-x="1472" 
d="M815 1751l432 365h8l218 -406l-60 -37l-180 342l-375 -317zM760 -20q-114 0 -206.5 36.5t-152 96.5t-100 141t-57.5 165.5t-17 174.5q0 150 32.5 288.5t89.5 250t136.5 203.5t172.5 153.5t197.5 95t211.5 33.5q57 0 106 -9t76.5 -19.5t57 -19.5t51.5 -9q24 0 59 18l66 39
h8l47 -430l-41 -21q-30 97 -64.5 161t-88 113.5t-131.5 72t-187 22.5q-143 0 -268 -62t-213 -168.5t-138.5 -254t-50.5 -314.5q0 -127 28.5 -238t85 -201.5t152.5 -143t220 -52.5q98 0 174 32.5t126.5 93t83 133.5t52.5 167l45 209h-588l10 62h711l-164 -799h-41v274
q-191 -294 -491 -294z" />
    <glyph glyph-name="gcircumflex" unicode="&#x11d;" horiz-adv-x="1015" 
d="M270 635q0 169 113.5 289t275.5 120q63 0 125 -20h381l-20 -102h-238v-21q80 -91 80 -192q0 -176 -109.5 -283t-308.5 -107h-43t-41.5 -1t-41 -3.5t-35 -6.5t-32 -10t-23 -15t-16.5 -21.5t-5 -28.5q0 -46 94 -81l291 -107q209 -77 209 -238q0 -121 -107.5 -199.5
t-298.5 -78.5q-105 0 -200.5 19.5t-175 58t-126.5 103t-47 147.5q0 31 8 58t17.5 46t31.5 38t36 29.5t45.5 24.5t45.5 19t51.5 17.5t47.5 16.5v17q-47 31 -47 78q0 61 50.5 91.5t156.5 55.5v12q-28 20 -47.5 38.5t-44.5 51.5t-38.5 80t-13.5 105zM360 717
q0 -136 84.5 -221.5t231.5 -85.5q102 0 159.5 62t57.5 163q0 136 -84 221.5t-231 85.5q-102 0 -160 -62t-58 -163zM854 -238q0 102 -168 168l-348 140q-111 0 -177.5 -40.5t-66.5 -127.5q0 -84 84 -146.5t209 -91.5t268 -29q98 0 148.5 32.5t50.5 94.5zM432 1260l432 364h8
l218 -405l-60 -37l-180 342l-375 -318z" />
    <glyph glyph-name="Gbreve" unicode="&#x11e;" horiz-adv-x="1472" 
d="M991 2013q-13 -184 160 -184q106 0 169.5 58t80.5 126h61q-10 -42 -34 -83t-62 -78.5t-97 -61t-128 -23.5q-114 0 -167 64.5t-44 181.5h61zM760 -20q-114 0 -206.5 36.5t-152 96.5t-100 141t-57.5 165.5t-17 174.5q0 150 32.5 288.5t89.5 250t136.5 203.5t172.5 153.5
t197.5 95t211.5 33.5q57 0 106 -9t76.5 -19.5t57 -19.5t51.5 -9q24 0 59 18l66 39h8l47 -430l-41 -21q-30 97 -64.5 161t-88 113.5t-131.5 72t-187 22.5q-143 0 -268 -62t-213 -168.5t-138.5 -254t-50.5 -314.5q0 -127 28.5 -238t85 -201.5t152.5 -143t220 -52.5
q98 0 174 32.5t126.5 93t83 133.5t52.5 167l45 209h-588l10 62h711l-164 -799h-41v274q-191 -294 -491 -294z" />
    <glyph glyph-name="gbreve" unicode="&#x11f;" horiz-adv-x="1015" 
d="M270 635q0 169 113.5 289t275.5 120q63 0 125 -20h381l-20 -102h-238v-21q80 -91 80 -192q0 -176 -109.5 -283t-308.5 -107h-43t-41.5 -1t-41 -3.5t-35 -6.5t-32 -10t-23 -15t-16.5 -21.5t-5 -28.5q0 -46 94 -81l291 -107q209 -77 209 -238q0 -121 -107.5 -199.5
t-298.5 -78.5q-105 0 -200.5 19.5t-175 58t-126.5 103t-47 147.5q0 31 8 58t17.5 46t31.5 38t36 29.5t45.5 24.5t45.5 19t51.5 17.5t47.5 16.5v17q-47 31 -47 78q0 61 50.5 91.5t156.5 55.5v12q-28 20 -47.5 38.5t-44.5 51.5t-38.5 80t-13.5 105zM360 717
q0 -136 84.5 -221.5t231.5 -85.5q102 0 159.5 62t57.5 163q0 136 -84 221.5t-231 85.5q-102 0 -160 -62t-58 -163zM854 -238q0 102 -168 168l-348 140q-111 0 -177.5 -40.5t-66.5 -127.5q0 -84 84 -146.5t209 -91.5t268 -29q98 0 148.5 32.5t50.5 94.5zM647 1524
q-6 -88 33 -136.5t127 -48.5q56 0 102.5 18.5t75.5 47.5t47 59t25 60h61q-10 -42 -34 -83t-62 -78.5t-97 -61t-128 -23.5q-114 0 -167 64.5t-44 181.5h61z" />
    <glyph glyph-name="Gdotaccent" unicode="&#x120;" horiz-adv-x="1472" 
d="M1071 1894q0 52 30 77.5t73 25.5q44 0 73 -25.5t29 -77.5t-29 -77t-73 -25t-73.5 25t-29.5 77zM760 -20q-114 0 -206.5 36.5t-152 96.5t-100 141t-57.5 165.5t-17 174.5q0 150 32.5 288.5t89.5 250t136.5 203.5t172.5 153.5t197.5 95t211.5 33.5q57 0 106 -9t76.5 -19.5
t57 -19.5t51.5 -9q24 0 59 18l66 39h8l47 -430l-41 -21q-30 97 -64.5 161t-88 113.5t-131.5 72t-187 22.5q-143 0 -268 -62t-213 -168.5t-138.5 -254t-50.5 -314.5q0 -127 28.5 -238t85 -201.5t152.5 -143t220 -52.5q98 0 174 32.5t126.5 93t83 133.5t52.5 167l45 209h-588
l10 62h711l-164 -799h-41v274q-191 -294 -491 -294z" />
    <glyph glyph-name="gdotaccent" unicode="&#x121;" horiz-adv-x="1015" 
d="M270 635q0 169 113.5 289t275.5 120q63 0 125 -20h381l-20 -102h-238v-21q80 -91 80 -192q0 -176 -109.5 -283t-308.5 -107h-43t-41.5 -1t-41 -3.5t-35 -6.5t-32 -10t-23 -15t-16.5 -21.5t-5 -28.5q0 -46 94 -81l291 -107q209 -77 209 -238q0 -121 -107.5 -199.5
t-298.5 -78.5q-105 0 -200.5 19.5t-175 58t-126.5 103t-47 147.5q0 31 8 58t17.5 46t31.5 38t36 29.5t45.5 24.5t45.5 19t51.5 17.5t47.5 16.5v17q-47 31 -47 78q0 61 50.5 91.5t156.5 55.5v12q-28 20 -47.5 38.5t-44.5 51.5t-38.5 80t-13.5 105zM360 717
q0 -136 84.5 -221.5t231.5 -85.5q102 0 159.5 62t57.5 163q0 136 -84 221.5t-231 85.5q-102 0 -160 -62t-58 -163zM854 -238q0 102 -168 168l-348 140q-111 0 -177.5 -40.5t-66.5 -127.5q0 -84 84 -146.5t209 -91.5t268 -29q98 0 148.5 32.5t50.5 94.5zM727 1403
q0 52 29.5 77t72.5 25q44 0 73.5 -25t29.5 -77t-29.5 -77.5t-73.5 -25.5t-73 25.5t-29 77.5z" />
    <glyph glyph-name="Gcommaaccent" unicode="&#x122;" horiz-adv-x="1472" 
d="M760 -20q-114 0 -206.5 36.5t-152 96.5t-100 141t-57.5 165.5t-17 174.5q0 150 32.5 288.5t89.5 250t136.5 203.5t172.5 153.5t197.5 95t211.5 33.5q57 0 106 -9t76.5 -19.5t57 -19.5t51.5 -9q24 0 59 18l66 39h8l47 -430l-41 -21q-30 97 -64.5 161t-88 113.5t-131.5 72
t-187 22.5q-143 0 -268 -62t-213 -168.5t-138.5 -254t-50.5 -314.5q0 -127 28.5 -238t85 -201.5t152.5 -143t220 -52.5q98 0 174 32.5t126.5 93t83 133.5t52.5 167l45 209h-588l10 62h711l-164 -799h-41v274q-191 -294 -491 -294zM776 -143l-323 -328l-47 49l323 328z" />
    <glyph glyph-name="gcommaaccent" unicode="&#x123;" horiz-adv-x="1015" 
d="M270 635q0 169 113.5 289t275.5 120q63 0 125 -20h381l-20 -102h-238v-21q80 -91 80 -192q0 -176 -109.5 -283t-308.5 -107h-43t-41.5 -1t-41 -3.5t-35 -6.5t-32 -10t-23 -15t-16.5 -21.5t-5 -28.5q0 -46 94 -81l291 -107q209 -77 209 -238q0 -121 -107.5 -199.5
t-298.5 -78.5q-105 0 -200.5 19.5t-175 58t-126.5 103t-47 147.5q0 31 8 58t17.5 46t31.5 38t36 29.5t45.5 24.5t45.5 19t51.5 17.5t47.5 16.5v17q-47 31 -47 78q0 61 50.5 91.5t156.5 55.5v12q-28 20 -47.5 38.5t-44.5 51.5t-38.5 80t-13.5 105zM360 717
q0 -136 84.5 -221.5t231.5 -85.5q102 0 159.5 62t57.5 163q0 136 -84 221.5t-231 85.5q-102 0 -160 -62t-58 -163zM854 -238q0 102 -168 168l-348 140q-111 0 -177.5 -40.5t-66.5 -127.5q0 -84 84 -146.5t209 -91.5t268 -29q98 0 148.5 32.5t50.5 94.5zM1040 1569l-323 -328
l-47 49l323 328z" />
    <glyph glyph-name="Hcircumflex" unicode="&#x124;" horiz-adv-x="1804" 
d="M885 1751l432 365h8l217 -406l-59 -37l-180 342l-375 -317zM799 0h-738l13 61h123q181 0 202 123l217 1229q11 63 -26 93t-133 30h-123l12 61h737l-12 -61h-123q-179 0 -200 -123l-101 -573h811l101 573q11 63 -26.5 93t-133.5 30h-123l12 61h737l-12 -61h-123
q-179 0 -200 -123l-217 -1229q-11 -64 26 -93.5t131 -29.5h123l-12 -61h-737l12 61h123q181 0 202 123l105 594h-811l-105 -594q-11 -64 26.5 -93.5t131.5 -29.5h123z" />
    <glyph glyph-name="hcircumflex" unicode="&#x125;" horiz-adv-x="1243" 
d="M233 1751l433 365h8l217 -406l-60 -37l-180 342l-375 -317zM817 160q0 53 31 138.5t67.5 162t67.5 168.5t31 157q0 63 -33 99.5t-94 36.5q-27 0 -53 -10.5t-52.5 -35.5t-47 -48t-48.5 -67t-45 -72.5t-49 -84.5t-49 -84l-310 -520h-94l400 1495h-222l21 102h369l8 -8
q-72 -235 -436 -1261h57l203 313q10 15 38.5 60t39 61t37 55t39.5 54.5t38 46t41.5 44t41 33t45.5 28t46 15t51 6.5q100 0 152.5 -58t52.5 -146q0 -47 -18.5 -99.5t-39 -89.5t-73.5 -125q-82 -136 -108.5 -192t-26.5 -96q0 -45 32 -74t79 -29q38 0 89.5 47t131.5 158l41 -21
l-135 -184q-86 -115 -144 -143h-41q-58 0 -94.5 48t-36.5 120z" />
    <glyph glyph-name="Hbar" unicode="&#x126;" horiz-adv-x="1804" 
d="M799 0h-738l13 61h123q181 0 202 123l174 983h-233l12 62h232l32 184q11 63 -26 93t-133 30h-123l12 61h737l-12 -61h-123q-179 0 -200 -123l-33 -184h811l33 184q11 63 -26.5 93t-133.5 30h-123l12 61h737l-12 -61h-123q-179 0 -200 -123l-33 -184h233l-10 -62h-233
l-174 -983q-11 -64 26 -93.5t131 -29.5h123l-12 -61h-737l12 61h123q181 0 202 123l105 594h-811l-105 -594q-11 -64 26.5 -93.5t131.5 -29.5h123zM647 840h811l58 327h-811z" />
    <glyph glyph-name="hbar" unicode="&#x127;" horiz-adv-x="1243" 
d="M817 160q0 53 31 138.5t67.5 162t67.5 168.5t31 157q0 63 -33 99.5t-94 36.5q-27 0 -53 -10.5t-52.5 -35.5t-47 -48t-48.5 -67t-45 -72.5t-49 -84.5t-49 -84l-310 -520h-94l312 1167h-250l12 66h256l70 262h-222l21 102h369l8 -8q-50 -157 -117 -356h209l-12 -66h-220
q-32 -88 -127.5 -360.5t-168.5 -478.5h57l203 313q10 15 38.5 60t39 61t37 55t39.5 54.5t38 46t41.5 44t41 33t45.5 28t46 15t51 6.5q100 0 152.5 -58t52.5 -146q0 -47 -18.5 -99.5t-39 -89.5t-73.5 -125q-82 -136 -108.5 -192t-26.5 -96q0 -45 32 -74t79 -29q38 0 89.5 47
t131.5 158l41 -21l-135 -184q-86 -115 -144 -143h-41q-58 0 -94.5 48t-36.5 120z" />
    <glyph glyph-name="Itilde" unicode="&#x128;" horiz-adv-x="862" 
d="M936 1925q-36 0 -75 -20t-69 -43.5t-77.5 -43.5t-98.5 -20q-43 0 -79.5 16.5t-58.5 39.5t-39 51.5t-24 48t-9 33.5h61q4 -14 13.5 -32t26.5 -40t46 -36.5t63 -14.5q44 0 87 20t73 43.5t73 43.5t87 20q43 0 79.5 -16.5t58.5 -39.5t39 -52t24 -47.5t10 -33.5h-62
q-4 14 -13.5 32t-26.5 40t-46 36.5t-63 14.5zM799 0h-738l13 61h123q181 0 202 123l217 1229q10 56 -28 89.5t-131 33.5h-123l12 61h737l-12 -61h-123q-179 0 -200 -123l-218 -1229q-11 -60 27 -91.5t131 -31.5h123z" />
    <glyph glyph-name="itilde" unicode="&#x129;" horiz-adv-x="677" 
d="M260 315l180 607h-225l21 102h368l8 -8q-99 -249 -241 -567q-60 -133 -60 -187q0 -47 30.5 -87t86.5 -40q87 0 234 205l40 -21l-135 -184q-49 -65 -80.5 -96.5t-62.5 -46.5h-41q-61 0 -105.5 50.5t-44.5 121.5q0 62 27 151zM748 1434q-36 0 -75 -20t-69 -43.5
t-77.5 -43.5t-98.5 -20q-43 0 -79.5 16.5t-59 39.5t-39 51t-24 47.5t-9.5 33.5h62q4 -14 13.5 -32t26.5 -40t46 -36.5t63 -14.5q44 0 87 20t73 43.5t73 43.5t87 20q43 0 79.5 -16.5t58 -39t38.5 -51.5t24 -47.5t10 -33.5h-61q-4 14 -13.5 32t-26.5 40t-46 36.5t-63 14.5z
" />
    <glyph glyph-name="Imacron" unicode="&#x12a;" horiz-adv-x="862" 
d="M1012 1927l-13 -65h-458l12 65h459zM799 0h-738l13 61h123q181 0 202 123l217 1229q10 56 -28 89.5t-131 33.5h-123l12 61h737l-12 -61h-123q-179 0 -200 -123l-218 -1229q-11 -60 27 -91.5t131 -31.5h123z" />
    <glyph glyph-name="imacron" unicode="&#x12b;" horiz-adv-x="677" 
d="M260 315l180 607h-225l21 102h368l8 -8q-99 -249 -241 -567q-60 -133 -60 -187q0 -47 30.5 -87t86.5 -40q87 0 234 205l40 -21l-135 -184q-49 -65 -80.5 -96.5t-62.5 -46.5h-41q-61 0 -105.5 50.5t-44.5 121.5q0 62 27 151zM823 1436l-12 -66h-459l13 66h458z" />
    <glyph glyph-name="Ibreve" unicode="&#x12c;" horiz-adv-x="862" 
d="M594 2013q-13 -184 160 -184q106 0 169.5 58t80.5 126h61q-10 -42 -34 -83t-62.5 -78.5t-97.5 -61t-128 -23.5q-114 0 -167 64.5t-44 181.5h62zM799 0h-738l13 61h123q181 0 202 123l217 1229q10 56 -28 89.5t-131 33.5h-123l12 61h737l-12 -61h-123q-179 0 -200 -123
l-218 -1229q-11 -60 27 -91.5t131 -31.5h123z" />
    <glyph glyph-name="ibreve" unicode="&#x12d;" horiz-adv-x="677" 
d="M260 315l180 607h-225l21 102h368l8 -8q-99 -249 -241 -567q-60 -133 -60 -187q0 -47 30.5 -87t86.5 -40q87 0 234 205l40 -21l-135 -184q-49 -65 -80.5 -96.5t-62.5 -46.5h-41q-61 0 -105.5 50.5t-44.5 121.5q0 62 27 151zM406 1524q-13 -185 159 -185q56 0 102.5 18.5
t75.5 47.5t47 59t25 60h62q-10 -42 -34 -83t-62.5 -78.5t-97.5 -61t-128 -23.5q-114 0 -167 64.5t-44 181.5h62z" />
    <glyph glyph-name="Iogonek" unicode="&#x12e;" horiz-adv-x="862" 
d="M799 0h-127q-84 -141 -84 -209q0 -78 92 -78h70l-11 -61h-98q-63 0 -93 33t-30 90q0 81 92 225h-549l13 61h123q181 0 202 123l217 1229q10 56 -28 89.5t-131 33.5h-123l12 61h737l-12 -61h-123q-179 0 -200 -123l-218 -1229q-11 -60 27 -91.5t131 -31.5h123z" />
    <glyph glyph-name="iogonek" unicode="&#x12f;" horiz-adv-x="677" 
d="M457 1403q0 58 37 90.5t86 32.5q50 0 86 -32.5t36 -90.5t-36 -90.5t-86 -32.5t-86.5 32.5t-36.5 90.5zM260 315l180 607h-225l21 102h368l8 -8q-99 -249 -241 -567q-60 -133 -60 -187q0 -47 30.5 -87t86.5 -40q74 0 195 152l39 53l40 -21l-104 -143
q-102 -142 -153.5 -231.5t-51.5 -153.5q0 -78 92 -78h70l-10 -61h-99q-122 0 -122 123q0 81 88 217h-29q-61 0 -105.5 50.5t-44.5 121.5q0 62 27 151z" />
    <glyph glyph-name="Idotaccent" unicode="&#x130;" horiz-adv-x="862" 
d="M674 1894q0 52 29.5 77.5t72.5 25.5q44 0 73.5 -25.5t29.5 -77.5t-29.5 -77t-73.5 -25t-73 25t-29 77zM799 0h-738l13 61h123q181 0 202 123l217 1229q10 56 -28 89.5t-131 33.5h-123l12 61h737l-12 -61h-123q-179 0 -200 -123l-218 -1229q-11 -60 27 -91.5t131 -31.5
h123z" />
    <glyph glyph-name="dotlessi" unicode="&#x131;" horiz-adv-x="677" 
d="M260 315l180 607h-225l21 102h368l8 -8q-99 -249 -241 -567q-60 -133 -60 -187q0 -47 30.5 -87t86.5 -40q87 0 234 205l40 -21l-135 -184q-49 -65 -80.5 -96.5t-62.5 -46.5h-41q-61 0 -105.5 50.5t-44.5 121.5q0 62 27 151z" />
    <glyph glyph-name="IJ" unicode="&#x132;" horiz-adv-x="1845" 
d="M799 0h-738l13 61h123q181 0 202 123l217 1229q10 56 -28 89.5t-131 33.5h-123l12 61h737l-12 -61h-123q-179 0 -200 -123l-218 -1229q-11 -60 27 -91.5t131 -31.5h123zM1167 -20q-63 0 -112 19.5t-77.5 50t-46.5 71.5t-24 79t-6 79q0 70 10 110l43 21q-6 -30 -6 -88
q0 -42 9 -79.5t30 -76t65.5 -61.5t106.5 -23q247 0 316 389l165 942q11 61 -26.5 92t-132.5 31h-123l12 61h737l-12 -61h-123q-179 0 -200 -123l-164 -921q-44 -246 -148.5 -379t-292.5 -133z" />
    <glyph glyph-name="ij" unicode="&#x133;" horiz-adv-x="1249" 
d="M457 1403q0 58 37 90.5t86 32.5q50 0 86 -32.5t36 -90.5t-36 -90.5t-86 -32.5t-86.5 32.5t-36.5 90.5zM260 315l180 607h-225l21 102h368l8 -8q-99 -249 -241 -567q-60 -133 -60 -187q0 -47 30.5 -87t86.5 -40q87 0 234 205l40 -21l-135 -184q-49 -65 -80.5 -96.5
t-62.5 -46.5h-41q-61 0 -105.5 50.5t-44.5 121.5q0 62 27 151zM1114 1403q0 58 37 90.5t86 32.5q50 0 86.5 -32.5t36.5 -90.5t-36.5 -90.5t-86.5 -32.5t-86.5 32.5t-36.5 90.5zM938 266l158 656h-226l21 102h369l8 -8q-56 -182 -240 -750q-122 -374 -254.5 -555.5
t-314.5 -181.5q-46 0 -76.5 21t-30.5 61q0 39 27.5 68.5t71.5 29.5q23 0 62.5 -8t64.5 -8q43 0 81 17t67.5 44t57 72t47 89.5t40.5 108.5t35 116.5t32 125.5z" />
    <glyph glyph-name="Jcircumflex" unicode="&#x134;" horiz-adv-x="1064" 
d="M651 1751l432 365h9l217 -406l-60 -37l-180 342l-375 -317zM387 -20q-63 0 -112 19.5t-77.5 50t-46.5 71.5t-24 79t-6 79q0 70 10 110l43 21q-6 -30 -6 -88q0 -42 9 -79.5t30 -76t65.5 -61.5t106.5 -23q246 0 315 389l166 942q11 61 -27 92t-133 31h-122l12 61h737
l-12 -61h-123q-180 0 -201 -123l-164 -921q-21 -120 -55 -210.5t-86 -160t-127 -105.5t-172 -36z" />
    <glyph glyph-name="jcircumflex" unicode="&#x135;" horiz-adv-x="595" 
d="M285 266l157 656h-225l21 102h368l8 -8q-80 -258 -239 -750q-60 -184 -119 -315t-128 -229t-149 -145.5t-174 -47.5q-46 0 -76 20.5t-30 61.5q0 39 27 68.5t71 29.5q23 0 62.5 -8t64.5 -8q43 0 81 17t67.5 44.5t57 72t47.5 89.5t41 108.5t35 116.5t32 125zM190 1260
l433 364h8l217 -405l-60 -37l-180 342l-375 -318z" />
    <glyph glyph-name="Kcommaaccent" unicode="&#x136;" horiz-adv-x="1681" 
d="M799 0h-738l13 61h123q181 0 202 123l217 1229q11 63 -26 93t-133 30h-121l8 61h735l-8 -61h-123q-179 0 -200 -123l-119 -668l745 648q66 58 66 102q0 41 -82 41h-82l8 61h574l-9 -61h-69q-88 0 -151 -33t-152 -110l-471 -402l399 -827q26 -54 80 -78.5t117 -24.5h69
l-12 -61h-655l12 61h82q157 0 157 74q0 21 -12 49l-344 717l6 6l-291 -245l-84 -478q-11 -63 26.5 -93t131.5 -30h123zM961 -143l-324 -328l-47 49l323 328z" />
    <glyph glyph-name="kcommaaccent" unicode="&#x137;" horiz-adv-x="1161" 
d="M967 135q-86 -115 -144 -143h-41q-40 0 -76 27.5t-59 74.5l-162 330l-252 -424h-94l400 1495h-222l21 102h369l8 -8q-72 -235 -436 -1261h57l203 313q42 66 79.5 118t86 107.5t94 92.5t99.5 61t106 24q104 0 160.5 -58t56.5 -146q0 -86 -37.5 -156t-99 -116.5t-149 -80
t-179.5 -51t-199 -26.5l111 -160q45 -65 78 -90t85 -25q83 0 230 205l41 -21zM543 520l-25 -41h94q52 0 110 8t125 28.5t120 51.5t88 83t35 116q0 73 -40 114.5t-118 41.5q-96 0 -174 -85t-215 -317zM543 -143l-324 -328l-47 49l324 328z" />
    <glyph glyph-name="Lacute" unicode="&#x139;" horiz-adv-x="1392" 
d="M981 2048l-383 -356l-47 49l383 356zM1249 0h-1188l13 61h123q180 0 202 123l217 1229q11 63 -26 93t-133 30h-123l12 61h778l-12 -61h-164q-179 0 -200 -123l-218 -1229q-11 -64 26.5 -93.5t131.5 -29.5h223q63 0 120.5 15t98.5 35t80.5 54.5t62 59t47.5 64.5t33 55
t23 45l41 -20z" />
    <glyph glyph-name="lacute" unicode="&#x13a;" horiz-adv-x="616" 
d="M895 2048l-383 -356l-47 49l383 356zM453 844q-138 -370 -159 -445q-22 -78 -22 -137q0 -47 29.5 -87t85.5 -40q87 0 234 205l41 -21l-136 -184q-48 -64 -79 -96t-60 -47h-41q-66 0 -109.5 48.5t-43.5 119.5q0 59 26 155l320 1180h-222l21 102h369l8 -8
q-71 -233 -262 -745z" />
    <glyph glyph-name="Lcommaaccent" unicode="&#x13b;" horiz-adv-x="1392" 
d="M1249 0h-1188l13 61h123q180 0 202 123l217 1229q11 63 -26 93t-133 30h-123l12 61h778l-12 -61h-164q-179 0 -200 -123l-218 -1229q-11 -64 26.5 -93.5t131.5 -29.5h223q63 0 120.5 15t98.5 35t80.5 54.5t62 59t47.5 64.5t33 55t23 45l41 -20zM797 -143l-324 -328
l-47 49l324 328z" />
    <glyph glyph-name="lcommaaccent" unicode="&#x13c;" horiz-adv-x="616" 
d="M453 844q-138 -370 -159 -445q-22 -78 -22 -137q0 -47 29.5 -87t85.5 -40q87 0 234 205l41 -21l-136 -184q-48 -64 -79 -96t-60 -47h-41q-66 0 -109.5 48.5t-43.5 119.5q0 59 26 155l320 1180h-222l21 102h369l8 -8q-71 -233 -262 -745zM297 -143l-324 -328l-47 49
l324 328z" />
    <glyph glyph-name="Lcaron" unicode="&#x13d;" horiz-adv-x="1392" 
d="M1249 0h-1188l13 61h123q180 0 202 123l217 1229q11 63 -26 93t-133 30h-123l12 61h778l-12 -61h-164q-179 0 -200 -123l-218 -1229q-11 -64 26.5 -93.5t131.5 -29.5h223q63 0 120.5 15t98.5 35t80.5 54.5t62 59t47.5 64.5t33 55t23 45l41 -20zM1376 1597l-188 -413
l-62 24l189 414z" />
    <glyph glyph-name="lcaron" unicode="&#x13e;" horiz-adv-x="616" 
d="M453 844q-138 -370 -159 -445q-22 -78 -22 -137q0 -47 29.5 -87t85.5 -40q87 0 234 205l41 -21l-136 -184q-48 -64 -79 -96t-60 -47h-41q-66 0 -109.5 48.5t-43.5 119.5q0 59 26 155l320 1180h-222l21 102h369l8 -8q-71 -233 -262 -745zM973 1597l-189 -413l-61 24
l188 414z" />
    <glyph glyph-name="Ldot" unicode="&#x13f;" horiz-adv-x="1392" 
d="M1249 0h-1188l13 61h123q180 0 202 123l217 1229q11 63 -26 93t-133 30h-123l12 61h778l-12 -61h-164q-179 0 -200 -123l-218 -1229q-11 -64 26.5 -93.5t131.5 -29.5h223q63 0 120.5 15t98.5 35t80.5 54.5t62 59t47.5 64.5t33 55t23 45l41 -20zM971 799q0 52 29.5 77
t72.5 25q44 0 73.5 -25t29.5 -77t-29.5 -77.5t-73.5 -25.5t-73 25.5t-29 77.5z" />
    <glyph glyph-name="ldot" unicode="&#x140;" horiz-adv-x="616" 
d="M453 844q-138 -370 -159 -445q-22 -78 -22 -137q0 -47 29.5 -87t85.5 -40q87 0 234 205l41 -21l-136 -184q-48 -64 -79 -96t-60 -47h-41q-66 0 -109.5 48.5t-43.5 119.5q0 59 26 155l320 1180h-222l21 102h369l8 -8q-71 -233 -262 -745zM633 788q0 52 29.5 77.5
t72.5 25.5q44 0 73.5 -25.5t29.5 -77.5t-29.5 -77t-73.5 -25t-73 25t-29 77z" />
    <glyph glyph-name="Lslash" unicode="&#x141;" horiz-adv-x="1392" 
d="M924 825l-289 -47l-105 -594q-11 -64 26.5 -93.5t131.5 -29.5h223q63 0 120.5 15t98.5 35t80.5 54.5t62 59t47.5 64.5t33 55t23 45l41 -20l-168 -369h-1188l13 61h123q180 0 202 123l101 572l-254 -43l-8 61l274 45l104 594q11 63 -26 93t-133 30h-123l12 61h778l-12 -61
h-164q-179 0 -200 -123l-101 -571l266 45z" />
    <glyph glyph-name="lslash" unicode="&#x142;" horiz-adv-x="616" 
d="M453 844v-2l204 35l11 -62l-240 -41q-100 -268 -128 -356t-28 -156q0 -47 29.5 -87t85.5 -40q87 0 234 205l41 -21l-136 -184q-48 -64 -79 -96t-60 -47h-41q-66 0 -109.5 48.5t-43.5 119.5q0 59 26 155l121 445l-227 -37l-9 61l254 43l181 668h-222l21 102h369l8 -8
q-71 -233 -262 -745z" />
    <glyph glyph-name="Nacute" unicode="&#x143;" horiz-adv-x="1699" 
d="M1358 2048l-383 -356l-47 49l383 356zM1577 1413q11 61 -27 92t-133 31h-82l13 61h594l-13 -61h-82q-179 0 -200 -123l-258 -1413h-70l-664 1468l-227 -1284q-11 -61 27 -92t131 -31h82l-13 -61h-594l13 61h82q181 0 202 123l217 1229q11 61 -26.5 92t-132.5 31h-82
l12 61h393l621 -1366z" />
    <glyph glyph-name="nacute" unicode="&#x144;" horiz-adv-x="1296" 
d="M870 160q0 53 31 138.5t67.5 162t67.5 168.5t31 157q0 63 -31.5 99.5t-91.5 36.5q-27 0 -53 -10t-53.5 -36t-47 -47t-50 -68t-45.5 -71.5t-50 -85.5t-49 -84l-309 -520h-94l235 922h-225l20 102h369l8 -8q-136 -372 -268 -688h57l203 315q118 186 166 245
q109 136 218 153q19 3 38 3q99 0 149.5 -57.5t50.5 -146.5q0 -47 -18.5 -99.5t-39 -89.5t-73.5 -125q-82 -136 -108.5 -192t-26.5 -96q0 -45 32 -74t79 -29q38 0 89.5 47t131.5 158l41 -21l-135 -184q-86 -115 -144 -143h-41q-58 0 -94.5 48t-36.5 120zM1094 1556l-383 -356
l-47 49l383 357z" />
    <glyph glyph-name="Ncommaaccent" unicode="&#x145;" horiz-adv-x="1699" 
d="M1577 1413q11 61 -27 92t-133 31h-82l13 61h594l-13 -61h-82q-179 0 -200 -123l-258 -1413h-70l-664 1468l-227 -1284q-11 -61 27 -92t131 -31h82l-13 -61h-594l13 61h82q181 0 202 123l217 1229q11 61 -26.5 92t-132.5 31h-82l12 61h393l621 -1366zM920 -143l-324 -328
l-47 49l323 328z" />
    <glyph glyph-name="ncommaaccent" unicode="&#x146;" horiz-adv-x="1296" 
d="M870 160q0 53 31 138.5t67.5 162t67.5 168.5t31 157q0 63 -31.5 99.5t-91.5 36.5q-27 0 -53 -10t-53.5 -36t-47 -47t-50 -68t-45.5 -71.5t-50 -85.5t-49 -84l-309 -520h-94l235 922h-225l20 102h369l8 -8q-136 -372 -268 -688h57l203 315q118 186 166 245
q109 136 218 153q19 3 38 3q99 0 149.5 -57.5t50.5 -146.5q0 -47 -18.5 -99.5t-39 -89.5t-73.5 -125q-82 -136 -108.5 -192t-26.5 -96q0 -45 32 -74t79 -29q38 0 89.5 47t131.5 158l41 -21l-135 -184q-86 -115 -144 -143h-41q-58 0 -94.5 48t-36.5 120zM612 -143l-323 -328
l-47 49l323 328z" />
    <glyph glyph-name="Ncaron" unicode="&#x147;" horiz-adv-x="1699" 
d="M1556 2038l-432 -365h-8l-217 406l59 37l181 -342l374 317zM1577 1413q11 61 -27 92t-133 31h-82l13 61h594l-13 -61h-82q-179 0 -200 -123l-258 -1413h-70l-664 1468l-227 -1284q-11 -61 27 -92t131 -31h82l-13 -61h-594l13 61h82q181 0 202 123l217 1229
q11 61 -26.5 92t-132.5 31h-82l12 61h393l621 -1366z" />
    <glyph glyph-name="ncaron" unicode="&#x148;" horiz-adv-x="1296" 
d="M870 160q0 53 31 138.5t67.5 162t67.5 168.5t31 157q0 63 -31.5 99.5t-91.5 36.5q-27 0 -53 -10t-53.5 -36t-47 -47t-50 -68t-45.5 -71.5t-50 -85.5t-49 -84l-309 -520h-94l235 922h-225l20 102h369l8 -8q-136 -372 -268 -688h57l203 315q118 186 166 245
q109 136 218 153q19 3 38 3q99 0 149.5 -57.5t50.5 -146.5q0 -47 -18.5 -99.5t-39 -89.5t-73.5 -125q-82 -136 -108.5 -192t-26.5 -96q0 -45 32 -74t79 -29q38 0 89.5 47t131.5 158l41 -21l-135 -184q-86 -115 -144 -143h-41q-58 0 -94.5 48t-36.5 120zM1257 1546l-432 -364
h-8l-217 405l59 37l181 -342l374 317z" />
    <glyph glyph-name="Eng" unicode="&#x14a;" horiz-adv-x="1701" 
d="M1579 1413q11 61 -27 92t-133 31h-82l13 61h594l-13 -61h-82q-179 0 -200 -123l-232 -1311q-48 -277 -190.5 -425t-374.5 -148q-94 0 -94 78q0 29 14.5 52.5t34.5 33.5h217q72 0 124 23t85.5 70t54 102.5t37.5 136.5l-672 1431l-225 -1272q-11 -61 27 -92t131 -31h82
l-13 -61h-594l13 61h82q181 0 202 123l217 1229q11 61 -26.5 92t-132.5 31h-82l12 61h393l633 -1357z" />
    <glyph glyph-name="eng" unicode="&#x14b;" horiz-adv-x="1206" 
d="M971 238q-136 -286 -239 -440q-182 -269 -322 -269q-46 0 -76.5 21t-30.5 61q0 39 27 68.5t71 29.5q23 0 62.5 -8t64.5 -8q31 0 62 18t57 44.5t56.5 75t52.5 90t52.5 109.5t49.5 114t49 122q5 13 28 70.5t32 81.5t28.5 76.5t29 83.5t21 73t16.5 74.5t5 60.5
q0 63 -31.5 99.5t-91.5 36.5q-27 0 -53 -10t-53.5 -36t-47 -47t-50 -68t-45.5 -71.5t-50 -85.5t-49 -84l-309 -520h-94l235 922h-225l20 102h369l8 -8q-136 -372 -268 -688h57l203 315q118 186 166 245q109 136 218 153q19 3 38 3q99 0 149.5 -57.5t50.5 -146.5
q0 -43 -14.5 -93.5t-32 -91t-61.5 -131.5z" />
    <glyph glyph-name="Omacron" unicode="&#x14c;" horiz-adv-x="1642" 
d="M1409 1927l-12 -65h-459l12 65h459zM819 -20q-148 0 -264 52.5t-185.5 142t-105 201.5t-35.5 238q0 168 45.5 323.5t128 278t191 213.5t240.5 140t272 49q120 0 218.5 -34.5t166.5 -94.5t115 -141t68.5 -173t21.5 -192q0 -210 -71 -397.5t-190.5 -319.5t-280 -209
t-335.5 -77zM942 102q181 0 326 99.5t225 272.5t80 386q0 134 -35.5 247t-105 200.5t-185 137.5t-264.5 50q-190 0 -335 -100t-220.5 -271.5t-75.5 -386.5q0 -132 38 -246.5t110.5 -201.5t186 -137t255.5 -50z" />
    <glyph glyph-name="omacron" unicode="&#x14d;" horiz-adv-x="1048" 
d="M473 -20q-142 0 -226.5 87.5t-84.5 251.5q0 135 50.5 268.5t132 233t190.5 161.5t221 62q142 0 226.5 -87.5t84.5 -251.5q0 -135 -50.5 -268.5t-132 -233t-190.5 -161.5t-221 -62zM555 111q118 0 214 72t146 183.5t50 235.5q0 147 -74 229t-217 82q-118 0 -214 -72
t-146 -183.5t-50 -235.5q0 -145 77 -228t214 -83zM1110 1436l-12 -66h-459l12 66h459z" />
    <glyph glyph-name="Obreve" unicode="&#x14e;" horiz-adv-x="1642" 
d="M991 2013q-13 -184 160 -184q106 0 169.5 58t80.5 126h61q-10 -42 -34 -83t-62 -78.5t-97 -61t-128 -23.5q-114 0 -167 64.5t-44 181.5h61zM819 -20q-148 0 -264 52.5t-185.5 142t-105 201.5t-35.5 238q0 168 45.5 323.5t128 278t191 213.5t240.5 140t272 49
q120 0 218.5 -34.5t166.5 -94.5t115 -141t68.5 -173t21.5 -192q0 -210 -71 -397.5t-190.5 -319.5t-280 -209t-335.5 -77zM942 102q181 0 326 99.5t225 272.5t80 386q0 134 -35.5 247t-105 200.5t-185 137.5t-264.5 50q-190 0 -335 -100t-220.5 -271.5t-75.5 -386.5
q0 -132 38 -246.5t110.5 -201.5t186 -137t255.5 -50z" />
    <glyph glyph-name="obreve" unicode="&#x14f;" horiz-adv-x="1048" 
d="M473 -20q-142 0 -226.5 87.5t-84.5 251.5q0 135 50.5 268.5t132 233t190.5 161.5t221 62q142 0 226.5 -87.5t84.5 -251.5q0 -135 -50.5 -268.5t-132 -233t-190.5 -161.5t-221 -62zM555 111q118 0 214 72t146 183.5t50 235.5q0 147 -74 229t-217 82q-118 0 -214 -72
t-146 -183.5t-50 -235.5q0 -145 77 -228t214 -83zM692 1524q-6 -88 33 -136.5t127 -48.5q56 0 102.5 18.5t75.5 47.5t47 59t25 60h61q-10 -42 -34 -83t-62 -78.5t-97 -61t-128 -23.5q-114 0 -167 64.5t-44 181.5h61z" />
    <glyph glyph-name="Ohungarumlaut" unicode="&#x150;" horiz-adv-x="1642" 
d="M1321 2097l47 -49l-383 -356l-47 49zM1565 2097l47 -49l-383 -356l-47 49zM819 -20q-148 0 -264 52.5t-185.5 142t-105 201.5t-35.5 238q0 168 45.5 323.5t128 278t191 213.5t240.5 140t272 49q120 0 218.5 -34.5t166.5 -94.5t115 -141t68.5 -173t21.5 -192
q0 -210 -71 -397.5t-190.5 -319.5t-280 -209t-335.5 -77zM942 102q181 0 326 99.5t225 272.5t80 386q0 134 -35.5 247t-105 200.5t-185 137.5t-264.5 50q-190 0 -335 -100t-220.5 -271.5t-75.5 -386.5q0 -132 38 -246.5t110.5 -201.5t186 -137t255.5 -50z" />
    <glyph glyph-name="ohungarumlaut" unicode="&#x151;" horiz-adv-x="1048" 
d="M473 -20q-142 0 -226.5 87.5t-84.5 251.5q0 135 50.5 268.5t132 233t190.5 161.5t221 62q142 0 226.5 -87.5t84.5 -251.5q0 -135 -50.5 -268.5t-132 -233t-190.5 -161.5t-221 -62zM555 111q118 0 214 72t146 183.5t50 235.5q0 147 -74 229t-217 82q-118 0 -214 -72
t-146 -183.5t-50 -235.5q0 -145 77 -228t214 -83zM1008 1524l47 -49l-383 -357l-47 49zM1251 1524l47 -49l-383 -357l-47 49z" />
    <glyph glyph-name="OE" unicode="&#x152;" horiz-adv-x="2189" 
d="M819 -20q-148 0 -264 52.5t-185.5 142t-105 201.5t-35.5 238q0 168 45.5 323.5t128 278t191 213.5t240.5 140t272 49q92 0 172 -21h960l37 -368l-41 -21q-3 24 -6.5 44.5t-14.5 56t-26.5 63.5t-43 60t-62.5 53.5t-87.5 36t-115.5 14.5h-453q134 -82 202.5 -229t68.5 -324
q0 -80 -8 -143h157q206 0 252 258l12 69h50l-127 -716h-50l13 69q25 134 -15 196t-145 62h-158q-42 -244 -178.5 -433t-331.5 -284h521q63 0 120.5 15t98.5 35t80 54.5t61.5 59t48 65t33 54.5t22.5 45l41 -20l-168 -369h-1030q-81 -20 -176 -20zM942 102q169 0 307 87.5
t221.5 241.5t98.5 347h-686l12 62h678v20q0 134 -35.5 247t-105 200.5t-185 137.5t-264.5 50q-190 0 -335 -100t-220.5 -271.5t-75.5 -386.5q0 -132 38 -246.5t110.5 -201.5t186 -137t255.5 -50z" />
    <glyph glyph-name="oe" unicode="&#x153;" horiz-adv-x="1734" 
d="M473 -20q-142 0 -226.5 87.5t-84.5 251.5q0 135 50.5 268.5t132 233t190.5 161.5t221 62q132 0 210 -76.5t87 -240.5q215 317 460 317q61 0 107.5 -18.5t73 -49t39 -69.5t10.5 -80.5t-17 -81.5l-88 -233h-602q-8 -41 -8 -90q0 -149 79 -230t218 -81q113 0 202 66t142 163
l41 -21q-30 -46 -57.5 -83.5t-74.5 -88t-93.5 -84.5t-110.5 -58.5t-129 -24.5q-133 0 -216 76.5t-93 234.5q-213 -311 -463 -311zM1626 616q33 129 -16 213t-172 84q-126 0 -226 -83.5t-149 -213.5h563zM555 111q118 0 214 72t146 183.5t50 235.5q0 147 -74 229t-217 82
q-118 0 -214 -72t-146 -183.5t-50 -235.5q0 -145 77 -228t214 -83z" />
    <glyph glyph-name="Racute" unicode="&#x154;" horiz-adv-x="1536" 
d="M1255 2048l-383 -356l-47 49l383 356zM840 0h-779l11 61h123q181 0 202 123l217 1229q11 63 -26 93t-133 30h-123l12 61h709q273 0 425 -85.5t152 -262.5q0 -92 -36.5 -171.5t-109.5 -143t-191.5 -103.5t-272.5 -47l252 -559q40 -88 78 -126t106 -38h49l-10 -61h-274
l-342 782h-246l-105 -598q-11 -63 26.5 -93t131.5 -30h164zM899 844q286 0 422.5 105.5t136.5 293.5q0 150 -117 221.5t-321 71.5h-74q-180 0 -201 -123l-100 -569h254z" />
    <glyph glyph-name="racute" unicode="&#x155;" horiz-adv-x="905" 
d="M592 1024l8 -8q-136 -372 -268 -688h61l207 315q130 197 166 244q105 139 188 155q13 2 25 2q45 0 72.5 -25t27.5 -67q0 -40 -25.5 -71t-68.5 -31q-18 0 -41.5 6t-44.5 6q-36 0 -67.5 -17t-71.5 -69.5t-59.5 -83t-75.5 -124.5q-6 -10 -9.5 -16t-9 -15t-10.5 -17
l-309 -520h-94l235 922h-225l20 102h369zM979 1556l-383 -356l-47 49l383 357z" />
    <glyph glyph-name="Rcommaaccent" unicode="&#x156;" horiz-adv-x="1536" 
d="M840 0h-779l11 61h123q181 0 202 123l217 1229q11 63 -26 93t-133 30h-123l12 61h709q273 0 425 -85.5t152 -262.5q0 -92 -36.5 -171.5t-109.5 -143t-191.5 -103.5t-272.5 -47l252 -559q40 -88 78 -126t106 -38h49l-10 -61h-274l-342 782h-246l-105 -598
q-11 -63 26.5 -93t131.5 -30h164zM899 844q286 0 422.5 105.5t136.5 293.5q0 150 -117 221.5t-321 71.5h-74q-180 0 -201 -123l-100 -569h254zM899 -143l-324 -328l-47 49l324 328z" />
    <glyph glyph-name="rcommaaccent" unicode="&#x157;" horiz-adv-x="905" 
d="M592 1024l8 -8q-136 -372 -268 -688h61l207 315q130 197 166 244q105 139 188 155q13 2 25 2q45 0 72.5 -25t27.5 -67q0 -40 -25.5 -71t-68.5 -31q-18 0 -41.5 6t-44.5 6q-36 0 -67.5 -17t-71.5 -69.5t-59.5 -83t-75.5 -124.5q-6 -10 -9.5 -16t-9 -15t-10.5 -17
l-309 -520h-94l235 922h-225l20 102h369zM297 -143l-324 -328l-47 49l324 328z" />
    <glyph glyph-name="Rcaron" unicode="&#x158;" horiz-adv-x="1536" 
d="M1454 2038l-432 -365h-8l-217 406l59 37l180 -342l375 317zM840 0h-779l11 61h123q181 0 202 123l217 1229q11 63 -26 93t-133 30h-123l12 61h709q273 0 425 -85.5t152 -262.5q0 -92 -36.5 -171.5t-109.5 -143t-191.5 -103.5t-272.5 -47l252 -559q40 -88 78 -126t106 -38
h49l-10 -61h-274l-342 782h-246l-105 -598q-11 -63 26.5 -93t131.5 -30h164zM899 844q286 0 422.5 105.5t136.5 293.5q0 150 -117 221.5t-321 71.5h-74q-180 0 -201 -123l-100 -569h254z" />
    <glyph glyph-name="rcaron" unicode="&#x159;" horiz-adv-x="905" 
d="M592 1024l8 -8q-136 -372 -268 -688h61l207 315q130 197 166 244q105 139 188 155q13 2 25 2q45 0 72.5 -25t27.5 -67q0 -40 -25.5 -71t-68.5 -31q-18 0 -41.5 6t-44.5 6q-36 0 -67.5 -17t-71.5 -69.5t-59.5 -83t-75.5 -124.5q-6 -10 -9.5 -16t-9 -15t-10.5 -17
l-309 -520h-94l235 922h-225l20 102h369zM1143 1546l-432 -364h-9l-217 405l60 37l180 -342l375 317z" />
    <glyph glyph-name="Sacute" unicode="&#x15a;" horiz-adv-x="1269" 
d="M1255 2048l-383 -356l-47 49l383 356zM721 -20q-99 0 -176.5 16.5t-119.5 32.5t-54 16q-19 0 -45 -20l-56 -45h-8l-67 512l41 20q53 -240 169.5 -351.5t303.5 -111.5q179 0 286 89t107 239q0 71 -22.5 124.5t-83.5 101t-100.5 70.5t-137.5 72q-5 3 -8.5 4.5t-8 4
t-8.5 4.5q-51 26 -80 41.5t-69.5 40.5t-63 46t-48.5 51.5t-38.5 63t-21.5 76t-9 94.5q0 193 138.5 320t349.5 127q81 0 148 -13t106.5 -26.5t52.5 -13.5q16 0 43 14l66 39h8l47 -430l-41 -21q-58 190 -166.5 285.5t-292.5 95.5q-149 0 -238 -88.5t-89 -242.5
q0 -52 14.5 -94.5t36.5 -71.5t61 -58t73 -48.5t89 -47.5q11 -5 16 -8q185 -97 250 -145q111 -83 142 -195q16 -57 16 -131q0 -84 -33 -161.5t-95.5 -140t-162 -99.5t-221.5 -37z" />
    <glyph glyph-name="sacute" unicode="&#x15b;" horiz-adv-x="909" 
d="M512 -20q-78 0 -160 21.5t-88 21.5q-10 0 -33 -15l-32 -20h-9l-67 401l41 21q101 -369 364 -369q77 0 121.5 41t44.5 111q0 75 -39 131.5t-141 138.5q-57 45 -91 75.5t-69 71.5t-51 84t-16 92q0 121 86 189.5t229 68.5q58 0 132 -18t77 -18q18 0 47 18l14 10h9l67 -401
l-41 -21q-50 178 -127 271.5t-207 93.5q-81 0 -121 -39.5t-40 -99.5q0 -69 38.5 -117.5t145.5 -136.5q65 -53 101.5 -87.5t69 -76t45.5 -83.5t13 -93q0 -120 -89 -193t-224 -73zM958 1556l-383 -356l-47 49l383 357z" />
    <glyph glyph-name="Scircumflex" unicode="&#x15c;" horiz-adv-x="1269" 
d="M692 1751l432 365h9l217 -406l-60 -37l-180 342l-375 -317zM721 -20q-99 0 -176.5 16.5t-119.5 32.5t-54 16q-19 0 -45 -20l-56 -45h-8l-67 512l41 20q53 -240 169.5 -351.5t303.5 -111.5q179 0 286 89t107 239q0 71 -22.5 124.5t-83.5 101t-100.5 70.5t-137.5 72
q-5 3 -8.5 4.5t-8 4t-8.5 4.5q-51 26 -80 41.5t-69.5 40.5t-63 46t-48.5 51.5t-38.5 63t-21.5 76t-9 94.5q0 193 138.5 320t349.5 127q81 0 148 -13t106.5 -26.5t52.5 -13.5q16 0 43 14l66 39h8l47 -430l-41 -21q-58 190 -166.5 285.5t-292.5 95.5q-149 0 -238 -88.5
t-89 -242.5q0 -52 14.5 -94.5t36.5 -71.5t61 -58t73 -48.5t89 -47.5q11 -5 16 -8q185 -97 250 -145q111 -83 142 -195q16 -57 16 -131q0 -84 -33 -161.5t-95.5 -140t-162 -99.5t-221.5 -37z" />
    <glyph glyph-name="scircumflex" unicode="&#x15d;" horiz-adv-x="909" 
d="M512 -20q-78 0 -160 21.5t-88 21.5q-10 0 -33 -15l-32 -20h-9l-67 401l41 21q101 -369 364 -369q77 0 121.5 41t44.5 111q0 75 -39 131.5t-141 138.5q-57 45 -91 75.5t-69 71.5t-51 84t-16 92q0 121 86 189.5t229 68.5q58 0 132 -18t77 -18q18 0 47 18l14 10h9l67 -401
l-41 -21q-50 178 -127 271.5t-207 93.5q-81 0 -121 -39.5t-40 -99.5q0 -69 38.5 -117.5t145.5 -136.5q65 -53 101.5 -87.5t69 -76t45.5 -83.5t13 -93q0 -120 -89 -193t-224 -73zM362 1260l433 364h8l217 -405l-59 -37l-181 342l-374 -318z" />
    <glyph glyph-name="Scedilla" unicode="&#x15e;" horiz-adv-x="1269" 
d="M344 -307l41 20q39 -127 160 -127q66 0 102.5 33t36.5 90q0 53 -31 84t-88 31q-29 0 -53 -8l-20 41l147 127q-72 5 -131 20.5t-92 28t-45 12.5q-19 0 -45 -20l-56 -45h-8l-67 512l41 20q53 -240 169.5 -351.5t303.5 -111.5q179 0 286 89t107 239q0 71 -22.5 124.5
t-83.5 101t-100.5 70.5t-137.5 72q-5 3 -8.5 4.5t-8 4t-8.5 4.5q-51 26 -80 41.5t-69.5 40.5t-63 46t-48.5 51.5t-38.5 63t-21.5 76t-9 94.5q0 193 138.5 320t349.5 127q81 0 148 -13t106.5 -26.5t52.5 -13.5q16 0 43 14l66 39h8l47 -430l-41 -21q-58 190 -166.5 285.5
t-292.5 95.5q-149 0 -238 -88.5t-89 -242.5q0 -52 14.5 -94.5t36.5 -71.5t61 -58t73 -48.5t89 -47.5q11 -5 16 -8q185 -97 250 -145q111 -83 142 -195q16 -57 16 -131q0 -84 -33 -161.5t-95.5 -140t-162 -99.5t-221.5 -37h-10l-144 -123q12 4 35 4q68 0 112 -43t44 -109
q0 -82 -58.5 -131t-146.5 -49q-82 0 -131.5 39.5t-77.5 124.5z" />
    <glyph glyph-name="scedilla" unicode="&#x15f;" horiz-adv-x="909" 
d="M119 -307l41 20q39 -127 159 -127q66 0 103 33.5t37 89.5q0 53 -30.5 84t-88.5 31q-29 0 -53 -8l-21 41l158 129q-43 6 -95.5 21.5t-64.5 15.5q-10 0 -33 -15l-32 -20h-9l-67 401l41 21q101 -369 364 -369q77 0 121.5 41t44.5 111q0 75 -39 131.5t-141 138.5
q-57 45 -91 75.5t-69 71.5t-51 84t-16 92q0 121 86 189.5t229 68.5q58 0 132 -18t77 -18q18 0 47 18l14 10h9l67 -401l-41 -21q-50 178 -127 271.5t-207 93.5q-81 0 -121 -39.5t-40 -99.5q0 -69 38.5 -117.5t145.5 -136.5q65 -53 101.5 -87.5t69 -76t45.5 -83.5t13 -93
q0 -120 -89 -193t-224 -73h-18l-152 -121q14 2 35 2q67 0 111 -43t44 -109q0 -82 -58 -131t-146 -49q-82 0 -131.5 39.5t-77.5 124.5z" />
    <glyph glyph-name="Scaron" unicode="&#x160;" horiz-adv-x="1269" 
d="M1454 2038l-432 -365h-8l-217 406l59 37l180 -342l375 317zM721 -20q-99 0 -176.5 16.5t-119.5 32.5t-54 16q-19 0 -45 -20l-56 -45h-8l-67 512l41 20q53 -240 169.5 -351.5t303.5 -111.5q179 0 286 89t107 239q0 71 -22.5 124.5t-83.5 101t-100.5 70.5t-137.5 72
q-5 3 -8.5 4.5t-8 4t-8.5 4.5q-51 26 -80 41.5t-69.5 40.5t-63 46t-48.5 51.5t-38.5 63t-21.5 76t-9 94.5q0 193 138.5 320t349.5 127q81 0 148 -13t106.5 -26.5t52.5 -13.5q16 0 43 14l66 39h8l47 -430l-41 -21q-58 190 -166.5 285.5t-292.5 95.5q-149 0 -238 -88.5
t-89 -242.5q0 -52 14.5 -94.5t36.5 -71.5t61 -58t73 -48.5t89 -47.5q11 -5 16 -8q185 -97 250 -145q111 -83 142 -195q16 -57 16 -131q0 -84 -33 -161.5t-95.5 -140t-162 -99.5t-221.5 -37z" />
    <glyph glyph-name="scaron" unicode="&#x161;" horiz-adv-x="909" 
d="M512 -20q-78 0 -160 21.5t-88 21.5q-10 0 -33 -15l-32 -20h-9l-67 401l41 21q101 -369 364 -369q77 0 121.5 41t44.5 111q0 75 -39 131.5t-141 138.5q-57 45 -91 75.5t-69 71.5t-51 84t-16 92q0 121 86 189.5t229 68.5q58 0 132 -18t77 -18q18 0 47 18l14 10h9l67 -401
l-41 -21q-50 178 -127 271.5t-207 93.5q-81 0 -121 -39.5t-40 -99.5q0 -69 38.5 -117.5t145.5 -136.5q65 -53 101.5 -87.5t69 -76t45.5 -83.5t13 -93q0 -120 -89 -193t-224 -73zM1122 1546l-432 -364h-8l-217 405l59 37l181 -342l374 317z" />
    <glyph glyph-name="Tcaron" unicode="&#x164;" horiz-adv-x="1556" 
d="M1520 2038l-433 -365h-8l-217 406l60 37l180 -342l375 317zM1149 0h-737l12 61h123q181 0 203 123l217 1229q11 63 -26.5 93t-133.5 30h-41q-311 0 -467 -328l-41 21l168 368h1270l37 -368l-41 -21q-3 25 -6.5 44.5t-14.5 55.5t-25.5 64t-42 60.5t-62 53.5t-87 35.5
t-115.5 14.5h-41q-179 0 -200 -123l-217 -1229q-11 -63 26 -93t131 -30h123z" />
    <glyph glyph-name="tcaron" unicode="&#x165;" horiz-adv-x="772" 
d="M502 123q53 0 107 48t147 169l41 -21q-97 -133 -181.5 -218t-140.5 -109h-41q-90 0 -143 49t-53 139q0 80 43 185l215 557h-260l20 102h270l49 471h173l-166 -471h329l-20 -102h-346l-162 -529q-21 -72 -21 -127q0 -66 38.5 -104.5t101.5 -38.5zM999 1495l-188 -414
l-61 25l188 414z" />
    <glyph glyph-name="Tbar" unicode="&#x166;" horiz-adv-x="1556" 
d="M621 768l12 61h231l103 584q11 63 -26.5 93t-133.5 30h-41q-311 0 -467 -328l-41 21l168 368h1270l37 -368l-41 -21q-3 25 -6.5 44.5t-14.5 55.5t-25.5 64t-42 60.5t-62 53.5t-87 35.5t-115.5 14.5h-41q-179 0 -200 -123l-103 -584h232l-13 -61h-231l-102 -584
q-11 -63 26 -93t131 -30h123l-12 -61h-737l12 61h123q181 0 203 123l102 584h-231z" />
    <glyph glyph-name="tbar" unicode="&#x167;" horiz-adv-x="772" 
d="M502 123q53 0 107 48t147 169l41 -21q-97 -133 -181.5 -218t-140.5 -109h-41q-90 0 -143 49t-53 139q0 80 43 185l96 249h-211l12 66h223l95 242h-260l20 102h270l49 471h173l-166 -471h329l-20 -102h-346l-74 -242h207l-12 -66h-215l-68 -221q-21 -72 -21 -127
q0 -66 38.5 -104.5t101.5 -38.5z" />
    <glyph glyph-name="Utilde" unicode="&#x168;" horiz-adv-x="1679" 
d="M1382 1925q-36 0 -74.5 -20t-68.5 -43.5t-77.5 -43.5t-98.5 -20q-43 0 -79.5 16.5t-59 39.5t-39 51.5t-24 48t-9.5 33.5h61q4 -14 13.5 -32t27 -40t46.5 -36.5t63 -14.5q44 0 87 20t72.5 43.5t72.5 43.5t87 20q43 0 79.5 -16.5t58.5 -39.5t39 -52t24 -47.5t10 -33.5h-61
q-4 14 -13.5 32t-27 40t-46.5 36.5t-63 14.5zM856 -20q-253 0 -359 136t-67 376l164 921q11 63 -26.5 93t-133.5 30h-123l13 61h737l-12 -61h-123q-180 0 -201 -123l-164 -921q-22 -133 3.5 -227.5t108 -149t218.5 -54.5q112 0 202 32t150 89t96.5 129.5t51.5 159.5l165 942
q11 63 -26 93t-133 30h-99l13 61h631l-13 -61h-98q-184 0 -205 -123l-166 -942q-40 -229 -199 -360t-405 -131z" />
    <glyph glyph-name="utilde" unicode="&#x169;" horiz-adv-x="1298" 
d="M1083 135q38 0 90.5 47t131.5 158l41 -21l-136 -184q-48 -65 -79.5 -96t-63.5 -47h-41q-65 0 -105 40t-40 107q0 68 30 156l144 401h-58l-190 -315q-40 -67 -66 -107t-63.5 -93t-68.5 -84t-69 -60.5t-78.5 -43t-84.5 -13.5q-71 0 -112.5 46.5t-41.5 129.5q0 23 4.5 53
t10 55t18 68.5t20 67t24.5 78t24 75.5l116 369h-225l21 102h368l8 -8q-44 -117 -127.5 -290.5t-124.5 -272.5q-22 -53 -31.5 -77.5t-18.5 -60.5t-9 -65q0 -57 37.5 -88t97.5 -31q26 0 50.5 6.5t45 16t43.5 29t39.5 35.5t39 46t36.5 50.5t37.5 59.5t36.5 62t39 68l297 520
h123q-63 -182 -99 -289.5t-83.5 -275.5t-47.5 -230q0 -41 26.5 -67.5t63.5 -26.5zM1092 1434q-36 0 -75 -20t-69 -43.5t-77.5 -43.5t-98.5 -20q-43 0 -79.5 16.5t-59 39.5t-39 51t-24 47.5t-9.5 33.5h62q4 -14 13.5 -32t26.5 -40t46 -36.5t63 -14.5q44 0 87 20t73 43.5
t73 43.5t87 20q53 0 95 -23.5t65.5 -58.5t34.5 -60.5t16 -45.5h-62q-4 14 -13.5 32t-26.5 40t-46 36.5t-63 14.5z" />
    <glyph glyph-name="Umacron" unicode="&#x16a;" horiz-adv-x="1679" 
d="M1458 1927l-12 -65h-459l12 65h459zM856 -20q-253 0 -359 136t-67 376l164 921q11 63 -26.5 93t-133.5 30h-123l13 61h737l-12 -61h-123q-180 0 -201 -123l-164 -921q-22 -133 3.5 -227.5t108 -149t218.5 -54.5q112 0 202 32t150 89t96.5 129.5t51.5 159.5l165 942
q11 63 -26 93t-133 30h-99l13 61h631l-13 -61h-98q-184 0 -205 -123l-166 -942q-40 -229 -199 -360t-405 -131z" />
    <glyph glyph-name="umacron" unicode="&#x16b;" horiz-adv-x="1298" 
d="M1083 135q38 0 90.5 47t131.5 158l41 -21l-136 -184q-48 -65 -79.5 -96t-63.5 -47h-41q-65 0 -105 40t-40 107q0 68 30 156l144 401h-58l-190 -315q-40 -67 -66 -107t-63.5 -93t-68.5 -84t-69 -60.5t-78.5 -43t-84.5 -13.5q-71 0 -112.5 46.5t-41.5 129.5q0 23 4.5 53
t10 55t18 68.5t20 67t24.5 78t24 75.5l116 369h-225l21 102h368l8 -8q-44 -117 -127.5 -290.5t-124.5 -272.5q-22 -53 -31.5 -77.5t-18.5 -60.5t-9 -65q0 -57 37.5 -88t97.5 -31q26 0 50.5 6.5t45 16t43.5 29t39.5 35.5t39 46t36.5 50.5t37.5 59.5t36.5 62t39 68l297 520
h123q-63 -182 -99 -289.5t-83.5 -275.5t-47.5 -230q0 -41 26.5 -67.5t63.5 -26.5zM1167 1436l-12 -66h-459l13 66h458z" />
    <glyph glyph-name="Ubreve" unicode="&#x16c;" horiz-adv-x="1679" 
d="M1040 2013q-13 -184 160 -184q106 0 169.5 58t80.5 126h61q-10 -42 -34 -83t-62 -78.5t-97 -61t-128 -23.5q-114 0 -167 64.5t-44 181.5h61zM856 -20q-253 0 -359 136t-67 376l164 921q11 63 -26.5 93t-133.5 30h-123l13 61h737l-12 -61h-123q-180 0 -201 -123l-164 -921
q-22 -133 3.5 -227.5t108 -149t218.5 -54.5q112 0 202 32t150 89t96.5 129.5t51.5 159.5l165 942q11 63 -26 93t-133 30h-99l13 61h631l-13 -61h-98q-184 0 -205 -123l-166 -942q-40 -229 -199 -360t-405 -131z" />
    <glyph glyph-name="ubreve" unicode="&#x16d;" horiz-adv-x="1298" 
d="M1083 135q38 0 90.5 47t131.5 158l41 -21l-136 -184q-48 -65 -79.5 -96t-63.5 -47h-41q-65 0 -105 40t-40 107q0 68 30 156l144 401h-58l-190 -315q-40 -67 -66 -107t-63.5 -93t-68.5 -84t-69 -60.5t-78.5 -43t-84.5 -13.5q-71 0 -112.5 46.5t-41.5 129.5q0 23 4.5 53
t10 55t18 68.5t20 67t24.5 78t24 75.5l116 369h-225l21 102h368l8 -8q-44 -117 -127.5 -290.5t-124.5 -272.5q-22 -53 -31.5 -77.5t-18.5 -60.5t-9 -65q0 -57 37.5 -88t97.5 -31q26 0 50.5 6.5t45 16t43.5 29t39.5 35.5t39 46t36.5 50.5t37.5 59.5t36.5 62t39 68l297 520
h123q-63 -182 -99 -289.5t-83.5 -275.5t-47.5 -230q0 -41 26.5 -67.5t63.5 -26.5zM750 1524q-13 -185 159 -185q56 0 102.5 18.5t75.5 47.5t47 59t25 60h62q-10 -42 -34 -83t-62.5 -78.5t-97.5 -61t-128 -23.5q-114 0 -167 64.5t-44 181.5h62z" />
    <glyph glyph-name="Uring" unicode="&#x16e;" horiz-adv-x="1679" 
d="M1427 1896q0 -93 -57 -148.5t-147 -55.5q-89 0 -147 55.5t-58 148.5q0 92 58.5 148.5t146.5 56.5q89 0 146.5 -56.5t57.5 -148.5zM1362 1896q0 66 -38 107t-101 41q-62 0 -101 -41t-39 -107q0 -68 38.5 -107.5t101.5 -39.5q64 0 101.5 39.5t37.5 107.5zM856 -20
q-253 0 -359 136t-67 376l164 921q11 63 -26.5 93t-133.5 30h-123l13 61h737l-12 -61h-123q-180 0 -201 -123l-164 -921q-22 -133 3.5 -227.5t108 -149t218.5 -54.5q112 0 202 32t150 89t96.5 129.5t51.5 159.5l165 942q11 63 -26 93t-133 30h-99l13 61h631l-13 -61h-98
q-184 0 -205 -123l-166 -942q-40 -229 -199 -360t-405 -131z" />
    <glyph glyph-name="uring" unicode="&#x16f;" horiz-adv-x="1298" 
d="M1083 135q38 0 90.5 47t131.5 158l41 -21l-136 -184q-48 -65 -79.5 -96t-63.5 -47h-41q-65 0 -105 40t-40 107q0 68 30 156l144 401h-58l-190 -315q-40 -67 -66 -107t-63.5 -93t-68.5 -84t-69 -60.5t-78.5 -43t-84.5 -13.5q-71 0 -112.5 46.5t-41.5 129.5q0 23 4.5 53
t10 55t18 68.5t20 67t24.5 78t24 75.5l116 369h-225l21 102h368l8 -8q-44 -117 -127.5 -290.5t-124.5 -272.5q-22 -53 -31.5 -77.5t-18.5 -60.5t-9 -65q0 -57 37.5 -88t97.5 -31q26 0 50.5 6.5t45 16t43.5 29t39.5 35.5t39 46t36.5 50.5t37.5 59.5t36.5 62t39 68l297 520
h123q-63 -182 -99 -289.5t-83.5 -275.5t-47.5 -230q0 -41 26.5 -67.5t63.5 -26.5zM1137 1403q0 -94 -57.5 -149.5t-147.5 -55.5q-88 0 -146.5 56t-58.5 149q0 92 58.5 148.5t146.5 56.5q89 0 147 -56.5t58 -148.5zM1071 1403q0 66 -38 106.5t-101 40.5q-62 0 -100.5 -40.5
t-38.5 -106.5q0 -68 38.5 -108t100.5 -40q63 0 101 39.5t38 108.5z" />
    <glyph glyph-name="Uhungarumlaut" unicode="&#x170;" horiz-adv-x="1679" 
d="M1370 2097l47 -49l-383 -356l-47 49zM1614 2097l47 -49l-383 -356l-47 49zM856 -20q-253 0 -359 136t-67 376l164 921q11 63 -26.5 93t-133.5 30h-123l13 61h737l-12 -61h-123q-180 0 -201 -123l-164 -921q-22 -133 3.5 -227.5t108 -149t218.5 -54.5q112 0 202 32t150 89
t96.5 129.5t51.5 159.5l165 942q11 63 -26 93t-133 30h-99l13 61h631l-13 -61h-98q-184 0 -205 -123l-166 -942q-40 -229 -199 -360t-405 -131z" />
    <glyph glyph-name="uhungarumlaut" unicode="&#x171;" horiz-adv-x="1298" 
d="M1083 135q38 0 90.5 47t131.5 158l41 -21l-136 -184q-48 -65 -79.5 -96t-63.5 -47h-41q-65 0 -105 40t-40 107q0 68 30 156l144 401h-58l-190 -315q-40 -67 -66 -107t-63.5 -93t-68.5 -84t-69 -60.5t-78.5 -43t-84.5 -13.5q-71 0 -112.5 46.5t-41.5 129.5q0 23 4.5 53
t10 55t18 68.5t20 67t24.5 78t24 75.5l116 369h-225l21 102h368l8 -8q-44 -117 -127.5 -290.5t-124.5 -272.5q-22 -53 -31.5 -77.5t-18.5 -60.5t-9 -65q0 -57 37.5 -88t97.5 -31q26 0 50.5 6.5t45 16t43.5 29t39.5 35.5t39 46t36.5 50.5t37.5 59.5t36.5 62t39 68l297 520
h123q-63 -182 -99 -289.5t-83.5 -275.5t-47.5 -230q0 -41 26.5 -67.5t63.5 -26.5zM1065 1524l47 -49l-383 -357l-47 49zM1309 1524l47 -49l-383 -357l-47 49z" />
    <glyph glyph-name="Uogonek" unicode="&#x172;" horiz-adv-x="1679" 
d="M856 -20q-253 0 -359 136t-67 376l164 921q11 63 -26.5 93t-133.5 30h-123l13 61h737l-12 -61h-123q-180 0 -201 -123l-164 -921q-22 -133 3.5 -227.5t108 -149t218.5 -54.5q112 0 202 32t150 89t96.5 129.5t51.5 159.5l165 942q11 63 -26 93t-133 30h-99l13 61h631
l-13 -61h-98q-184 0 -205 -123l-166 -942q-41 -223 -190 -354q-79 -111 -121.5 -190t-42.5 -136q0 -78 92 -78h70l-11 -61h-98q-63 0 -93 33t-30 90q0 90 121 270q-130 -65 -301 -65z" />
    <glyph glyph-name="uogonek" unicode="&#x173;" horiz-adv-x="1298" 
d="M1083 135q49 0 129 86l2 4l86 115l3 -2l2 2l41 -21l-136 -184q-15 -22 -36 -47q-69 -101 -105.5 -172.5t-36.5 -124.5q0 -78 92 -78h70l-10 -61h-99q-122 0 -122 123q0 81 88 217h-25q-65 0 -105 40t-40 107q0 68 30 156l144 401h-58l-190 -315q-40 -67 -66 -107
t-63.5 -93t-68.5 -84t-69 -60.5t-78.5 -43t-84.5 -13.5q-71 0 -112.5 46.5t-41.5 129.5q0 23 4.5 53t10 55t18 68.5t20 67t24.5 78t24 75.5l116 369h-225l21 102h368l8 -8q-44 -117 -127.5 -290.5t-124.5 -272.5q-22 -53 -31.5 -77.5t-18.5 -60.5t-9 -65q0 -57 37.5 -88
t97.5 -31q26 0 50.5 6.5t45 16t43.5 29t39.5 35.5t39 46t36.5 50.5t37.5 59.5t36.5 62t39 68l297 520h123q-63 -182 -99 -289.5t-83.5 -275.5t-47.5 -230q0 -41 26.5 -67.5t63.5 -26.5z" />
    <glyph glyph-name="Wcircumflex" unicode="&#x174;" horiz-adv-x="2129" 
d="M1053 1751l432 365h8l217 -406l-59 -37l-181 342l-374 -317zM1823 1597h590l-13 -61h-69q-95 0 -138 -27.5t-84 -115.5l-663 -1413h-8l-168 1208l-561 -1208h-9l-202 1454q-13 102 -158 102h-70l13 61h655l-12 -61h-103q-102 0 -148 -30.5t-38 -92.5l145 -1139l469 1035
l-16 125q-13 102 -158 102h-8l12 61h594l-12 -61h-102q-102 0 -148.5 -30.5t-38.5 -92.5l146 -1139l508 1119q22 52 22 75q0 68 -137 68h-103z" />
    <glyph glyph-name="wcircumflex" unicode="&#x175;" horiz-adv-x="1476" 
d="M449 1024l96 -877h12q20 35 77 137t89 159.5t75 140.5t72 145q-22 139 -71 295h159l91 -885h12q381 521 381 707q0 26 -27 26q-8 0 -29.5 -7t-42.5 -7q-44 0 -67 25.5t-23 64.5q0 45 33.5 70.5t89.5 25.5q77 0 126.5 -41t49.5 -135q0 -48 -18.5 -107t-67.5 -140.5
t-84 -137t-118.5 -164.5t-117 -150.5t-131.5 -163.5q-13 -17 -20 -25l-41 20l-63 590q-184 -313 -395 -610l-41 20q-63 620 -138 922h-163l20 102h275zM621 1260l432 364h8l217 -405l-59 -37l-181 342l-374 -318z" />
    <glyph glyph-name="Ycircumflex" unicode="&#x176;" horiz-adv-x="1638" 
d="M811 1751l432 365h8l217 -406l-59 -37l-180 342l-375 -317zM1556 1393l-563 -779l-75 -430q-11 -63 26 -93t131 -30h123l-12 -61h-737l12 61h123q181 0 202 123l76 430l-321 822q-22 52 -71 76t-110 24h-69l12 61h655l-12 -61h-90q-117 0 -153 -30.5t-11 -92.5l281 -735
l502 715q30 47 30 73q0 70 -149 70h-62l13 61h573l-12 -61h-90q-74 0 -117.5 -29t-104.5 -114z" />
    <glyph glyph-name="ycircumflex" unicode="&#x177;" horiz-adv-x="1003" 
d="M274 889q-34 0 -62 -21t-75 -73l-41 20q134 166 199 217h41q73 0 124 -79.5t72 -211.5t16 -305t-38 -358h41q416 514 416 768q0 26 -27 26q-8 0 -29.5 -7t-42.5 -7q-44 0 -67 25.5t-23 64.5q0 45 33.5 70.5t89.5 25.5q80 0 128 -47t48 -129q0 -80 -43 -182.5t-129 -226.5
t-174 -235t-217 -261q-64 -74 -114 -128t-115.5 -115.5t-120.5 -100t-117.5 -64.5t-118.5 -26q-46 0 -76 20.5t-30 61.5q0 39 27 68.5t71 29.5q21 0 60.5 -4t62.5 -4q63 0 120.5 20.5t110 66.5t91 113.5t61.5 168.5t23 225q0 125 -9 228t-29 187.5t-55 131.5t-82 47z
M375 1260l432 364h8l217 -405l-59 -37l-180 342l-375 -318z" />
    <glyph glyph-name="Ydieresis" unicode="&#x178;" horiz-adv-x="1638" 
d="M903 1894q0 52 30 77.5t73 25.5q44 0 73 -25.5t29 -77.5t-29 -77t-73 -25t-73.5 25t-29.5 77zM1231 1894q0 52 29.5 77.5t72.5 25.5q44 0 73.5 -25.5t29.5 -77.5t-29.5 -77t-73.5 -25t-73 25t-29 77zM1556 1393l-563 -779l-75 -430q-11 -63 26 -93t131 -30h123l-12 -61
h-737l12 61h123q181 0 202 123l76 430l-321 822q-22 52 -71 76t-110 24h-69l12 61h655l-12 -61h-90q-117 0 -153 -30.5t-11 -92.5l281 -735l502 715q30 47 30 73q0 70 -149 70h-62l13 61h573l-12 -61h-90q-74 0 -117.5 -29t-104.5 -114z" />
    <glyph glyph-name="Zacute" unicode="&#x179;" horiz-adv-x="1269" 
d="M1255 2048l-383 -356l-47 49l383 356zM1126 0h-1079v8l1256 1528h-457q-63 0 -120.5 -14.5t-98.5 -35.5t-80 -54t-62 -59.5t-47 -64t-33 -55.5t-22 -45l-41 21l168 368h999v-8l-1253 -1528h537q54 0 103 9.5t88 28.5t71.5 39t60.5 50t47 52t38 54t27 47t21 40q3 5 4 8
l41 -20z" />
    <glyph glyph-name="zacute" unicode="&#x17a;" horiz-adv-x="972" 
d="M1085 1004l-856 -877h412q48 0 84.5 11.5t72.5 43.5t63 65.5t75 100.5l41 -20l-238 -328h-559q-10 0 -27.5 0.5t-27 0.5t-23 -1.5t-24 -6.5t-19.5 -13l-32 32l868 885h-252q-89 0 -146.5 -9.5t-106 -37t-82 -76t-62.5 -127.5l-41 21l131 356h749v-20zM995 1556l-383 -356
l-47 49l383 357z" />
    <glyph glyph-name="Zdotaccent" unicode="&#x17b;" horiz-adv-x="1269" 
d="M948 1894q0 52 30 77.5t73 25.5q44 0 73 -25.5t29 -77.5t-29 -77t-73 -25t-73.5 25t-29.5 77zM1126 0h-1079v8l1256 1528h-457q-63 0 -120.5 -14.5t-98.5 -35.5t-80 -54t-62 -59.5t-47 -64t-33 -55.5t-22 -45l-41 21l168 368h999v-8l-1253 -1528h537q54 0 103 9.5
t88 28.5t71.5 39t60.5 50t47 52t38 54t27 47t21 40q3 5 4 8l41 -20z" />
    <glyph glyph-name="zdotaccent" unicode="&#x17c;" horiz-adv-x="972" 
d="M1085 1004l-856 -877h412q48 0 84.5 11.5t72.5 43.5t63 65.5t75 100.5l41 -20l-238 -328h-559q-10 0 -27.5 0.5t-27 0.5t-23 -1.5t-24 -6.5t-19.5 -13l-32 32l868 885h-252q-89 0 -146.5 -9.5t-106 -37t-82 -76t-62.5 -127.5l-41 21l131 356h749v-20zM694 1403
q0 52 30 77t73 25q44 0 73 -25t29 -77t-29 -77.5t-73 -25.5t-73.5 25.5t-29.5 77.5z" />
    <glyph glyph-name="Zcaron" unicode="&#x17d;" horiz-adv-x="1269" 
d="M1454 2038l-432 -365h-8l-217 406l59 37l180 -342l375 317zM1126 0h-1079v8l1256 1528h-457q-63 0 -120.5 -14.5t-98.5 -35.5t-80 -54t-62 -59.5t-47 -64t-33 -55.5t-22 -45l-41 21l168 368h999v-8l-1253 -1528h537q54 0 103 9.5t88 28.5t71.5 39t60.5 50t47 52t38 54
t27 47t21 40q3 5 4 8l41 -20z" />
    <glyph glyph-name="zcaron" unicode="&#x17e;" horiz-adv-x="972" 
d="M1085 1004l-856 -877h412q48 0 84.5 11.5t72.5 43.5t63 65.5t75 100.5l41 -20l-238 -328h-559q-10 0 -27.5 0.5t-27 0.5t-23 -1.5t-24 -6.5t-19.5 -13l-32 32l868 885h-252q-89 0 -146.5 -9.5t-106 -37t-82 -76t-62.5 -127.5l-41 21l131 356h749v-20zM1159 1546
l-432 -364h-8l-217 405l59 37l180 -342l375 317z" />
    <glyph glyph-name="Schwa" unicode="&#x18f;" horiz-adv-x="1642" 
d="M336 963h-53q94 294 320 474.5t503 180.5q120 0 218.5 -34.5t166.5 -94.5t115 -141t68.5 -173t21.5 -192q0 -210 -71 -397.5t-190.5 -319.5t-280 -209t-335.5 -77q-148 0 -264 52.5t-185.5 142t-105 201.5t-35.5 238q0 96 15 185h1327q2 20 2 61q0 134 -35.5 247
t-105 200.5t-185 137.5t-264.5 50q-231 0 -396 -142t-251 -390zM352 737q0 -132 38 -246.5t110.5 -201.5t186 -137t255.5 -50q246 0 417.5 177.5t205.5 457.5h-1213z" />
    <glyph glyph-name="florin" unicode="&#x192;" horiz-adv-x="1269" 
d="M643 418l62 350h-343l11 61h344l55 318q35 198 194.5 334.5t342.5 136.5q67 0 106 -27.5t39 -74.5q0 -39 -28 -71t-70 -32q-35 0 -59.5 16t-36.5 35.5t-35.5 35.5t-57.5 16q-200 0 -258 -336l-61 -351h344l-10 -61h-346l-56 -317q-23 -131 -106 -240.5t-198 -170
t-234 -60.5q-66 0 -105 27.5t-39 74.5q0 39 28.5 70.5t70.5 31.5q35 0 59.5 -16t36 -35t35 -35t57.5 -16q200 0 258 336z" />
    <glyph glyph-name="Aringacute" unicode="&#x1fa;" horiz-adv-x="1681" 
d="M1378 1896q0 -93 -57 -148.5t-147 -55.5q-89 0 -147 55.5t-58 148.5q0 94 67 158l375 356l47 -49l-280 -260q88 -2 144 -58t56 -147zM1313 1896q0 66 -38 107t-101 41q-64 0 -102 -40t-38 -108t38.5 -107.5t101.5 -39.5q64 0 101.5 39.5t37.5 107.5zM594 0h-574l13 61h69
q93 0 134 27t92 117l743 1351l88 62h8l269 -1454q10 -55 56 -79t110 -24h69l-12 -61h-655l12 61h82q117 0 158 28.5t30 94.5l-67 389h-613l-198 -368q-25 -45 -25 -74q0 -70 141 -70h82zM639 635h569l-139 799z" />
    <glyph glyph-name="aringacute" unicode="&#x1fb;" horiz-adv-x="1206" 
d="M1069 1403q0 -94 -57.5 -149.5t-147.5 -55.5q-88 0 -146.5 56t-58.5 149t68 158l375 356l47 -49l-281 -260q88 -2 144.5 -58t56.5 -147zM1004 1403q0 66 -38.5 106.5t-101.5 40.5q-64 0 -101.5 -39.5t-37.5 -107.5t38.5 -108t100.5 -40q64 0 102 40t38 108zM844 242h-21
q-35 -46 -60 -75.5t-66 -69t-79 -62t-90.5 -39t-109.5 -16.5q-119 0 -195 75t-76 199q0 276 365 324l127 16q208 27 281 70.5t73 146.5q0 74 -64.5 125t-189.5 51q-106 0 -167.5 -48t-61.5 -136q0 -51 -26.5 -79t-69.5 -28q-40 0 -61 26.5t-21 63.5q0 71 67 131t173.5 93.5
t222.5 33.5q159 0 248.5 -58.5t89.5 -158.5q0 -48 -24.5 -111t-47.5 -103t-78 -130q-56 -92 -75 -145t-19 -100q0 -45 23.5 -74t64.5 -29q86 0 233 205l41 -21l-135 -184q-49 -65 -80.5 -96.5t-62.5 -46.5h-37q-57 0 -85 38t-28 105q0 37 21 107zM543 526
q-129 -19 -192.5 -68.5t-63.5 -154.5q0 -90 59 -139t154 -49q153 0 257.5 115.5t176.5 349.5z" />
    <glyph glyph-name="AEacute" unicode="&#x1fc;" horiz-adv-x="2062" 
d="M1870 2048l-383 -356l-47 49l383 356zM594 0h-574l13 61h69q65 0 101.5 12.5t62 40.5t60.5 91l749 1351l90 41h987l37 -368l-41 -21q-3 24 -6.5 44.5t-14.5 56t-26.5 63.5t-43 60t-62.5 53.5t-87.5 36t-115.5 14.5h-608l129 -696h303q203 0 252 258l12 69h49l-127 -716
h-49l12 69q25 134 -14.5 196t-144.5 62h-283l113 -614q10 -55 56 -79t110 -24q63 0 120.5 15t98.5 35t80 54.5t61.5 59t48 65t33 54.5t22.5 45l41 -20l-168 -369h-935l12 61h82q117 0 158 28.5t30 94.5l-104 594h-303l12 62h280l-100 573l-663 -1208q-25 -45 -25 -74
q0 -70 141 -70h82z" />
    <glyph glyph-name="aeacute" unicode="&#x1fd;" horiz-adv-x="1679" 
d="M1663 319q-30 -46 -57.5 -83.5t-74.5 -88t-93.5 -84.5t-110.5 -58.5t-129 -24.5q-136 0 -221.5 78.5t-95.5 220.5h-33q-30 -46 -55.5 -81t-67.5 -78.5t-84.5 -71.5t-101 -48t-121.5 -20q-119 0 -195 75t-76 199q0 140 79.5 221t262.5 105l109 14q209 28 281.5 71
t72.5 146q0 73 -60.5 124.5t-172.5 51.5q-102 0 -155.5 -49.5t-53.5 -134.5q0 -51 -26.5 -79t-69.5 -28q-40 0 -61 26.5t-21 63.5q0 71 64 131.5t161 93.5t199 33q132 0 217 -50.5t114 -149.5q197 200 379 200q61 0 107.5 -18.5t73 -49t39 -69.5t10.5 -80.5t-17 -81.5
l-88 -233h-602q-8 -41 -8 -90q0 -149 79 -230t218 -81q113 0 202 66t142 163zM1579 616q33 129 -16 213t-172 84q-124 0 -225 -83t-150 -214h563zM891 479l45 121l-412 -70q-123 -21 -180 -73t-57 -154q0 -90 59 -139t154 -49q130 0 230.5 101t160.5 263zM1470 1556
l-383 -356l-47 49l383 357z" />
    <glyph glyph-name="Oslashacute" unicode="&#x1fe;" horiz-adv-x="1642" 
d="M1460 2048l-383 -356l-47 49l383 356zM819 -20q-217 0 -362 110l-260 -336l-54 41l263 340q-88 88 -132.5 213t-44.5 266q0 168 45.5 323.5t128 278t191 213.5t240.5 140t272 49q216 0 362 -111l261 336l53 -41l-262 -340q88 -88 132 -212.5t44 -266.5q0 -210 -71 -397.5
t-190.5 -319.5t-280 -209t-335.5 -77zM352 737q0 -284 162 -463l852 1100q-150 121 -383 121q-190 0 -335 -100t-220.5 -271.5t-75.5 -386.5zM942 102q181 0 326 99.5t225 272.5t80 386q0 293 -158 467l-852 -1100q151 -125 379 -125z" />
    <glyph glyph-name="oslashacute" unicode="&#x1ff;" horiz-adv-x="1048" 
d="M471 -20q-113 0 -184 51l-441 -568l-53 41l443 572q-76 92 -76 243q0 135 50.5 268.5t132 233t190.5 161.5t221 62t188 -55l436 563l54 -41l-441 -567q74 -90 74 -239q0 -135 -50.5 -268.5t-132 -233t-190.5 -161.5t-221 -62zM262 422q0 -139 70 -221l516 665
q-68 47 -176 47q-118 0 -214 -72t-146 -183.5t-50 -235.5zM553 111q118 0 214 72t146 183.5t50 235.5q0 138 -66 219l-514 -665q70 -45 170 -45zM1122 1556l-383 -356l-47 49l383 357z" />
    <glyph glyph-name="Scommaaccent" unicode="&#x218;" horiz-adv-x="1269" 
d="M721 -20q-99 0 -176.5 16.5t-119.5 32.5t-54 16q-19 0 -45 -20l-56 -45h-8l-67 512l41 20q53 -240 169.5 -351.5t303.5 -111.5q179 0 286 89t107 239q0 71 -22.5 124.5t-83.5 101t-100.5 70.5t-137.5 72q-5 3 -8.5 4.5t-8 4t-8.5 4.5q-51 26 -80 41.5t-69.5 40.5t-63 46
t-48.5 51.5t-38.5 63t-21.5 76t-9 94.5q0 193 138.5 320t349.5 127q81 0 148 -13t106.5 -26.5t52.5 -13.5q16 0 43 14l66 39h8l47 -430l-41 -21q-58 190 -166.5 285.5t-292.5 95.5q-149 0 -238 -88.5t-89 -242.5q0 -52 14.5 -94.5t36.5 -71.5t61 -58t73 -48.5t89 -47.5
q11 -5 16 -8q185 -97 250 -145q111 -83 142 -195q16 -57 16 -131q0 -84 -33 -161.5t-95.5 -140t-162 -99.5t-221.5 -37zM715 -143l-324 -328l-47 49l324 328z" />
    <glyph glyph-name="scommaaccent" unicode="&#x219;" horiz-adv-x="909" 
d="M512 -20q-78 0 -160 21.5t-88 21.5q-10 0 -33 -15l-32 -20h-9l-67 401l41 21q101 -369 364 -369q77 0 121.5 41t44.5 111q0 75 -39 131.5t-141 138.5q-57 45 -91 75.5t-69 71.5t-51 84t-16 92q0 121 86 189.5t229 68.5q58 0 132 -18t77 -18q18 0 47 18l14 10h9l67 -401
l-41 -21q-50 178 -127 271.5t-207 93.5q-81 0 -121 -39.5t-40 -99.5q0 -69 38.5 -117.5t145.5 -136.5q65 -53 101.5 -87.5t69 -76t45.5 -83.5t13 -93q0 -120 -89 -193t-224 -73zM502 -143l-324 -328l-47 49l324 328z" />
    <glyph glyph-name="Tcommaaccent" unicode="&#x21a;" horiz-adv-x="1556" 
d="M1149 0h-737l12 61h123q181 0 203 123l217 1229q11 63 -26.5 93t-133.5 30h-41q-311 0 -467 -328l-41 21l168 368h1270l37 -368l-41 -21q-3 25 -6.5 44.5t-14.5 55.5t-25.5 64t-42 60.5t-62 53.5t-87 35.5t-115.5 14.5h-41q-179 0 -200 -123l-217 -1229q-11 -63 26 -93
t131 -30h123zM842 -143l-324 -328l-47 49l324 328z" />
    <glyph glyph-name="tcommaaccent" unicode="&#x21b;" horiz-adv-x="772" 
d="M502 123q53 0 107 48t147 169l41 -21q-97 -133 -181.5 -218t-140.5 -109h-41q-90 0 -143 49t-53 139q0 80 43 185l215 557h-260l20 102h270l49 471h173l-166 -471h329l-20 -102h-346l-162 -529q-21 -72 -21 -127q0 -66 38.5 -104.5t101.5 -38.5zM416 -143l-324 -328
l-47 49l324 328z" />
    <glyph glyph-name="dotlessj" unicode="&#x237;" horiz-adv-x="595" 
d="M285 266l157 656h-225l21 102h368l8 -8q-80 -258 -239 -750q-60 -184 -119 -315t-128 -229t-149 -145.5t-174 -47.5q-46 0 -76 20.5t-30 61.5q0 39 27 68.5t71 29.5q23 0 62.5 -8t64.5 -8q43 0 81 17t67.5 44.5t57 72t47.5 89.5t41 108.5t35 116.5t32 125z" />
    <glyph glyph-name="schwa" unicode="&#x259;" horiz-adv-x="987" 
d="M995 705q0 -130 -48 -261.5t-126 -233.5t-185.5 -166t-219.5 -64q-63 0 -112 19t-78 50.5t-44 71t-14.5 80.5t14.5 78l88 233h615q8 41 8 90q0 149 -80.5 230t-220.5 81q-119 0 -209.5 -62.5t-142.5 -166.5l-41 21q28 47 58.5 89t76.5 89.5t94.5 81.5t112.5 56.5
t131 22.5q148 0 235.5 -89t87.5 -250zM283 410q-44 -129 7.5 -218.5t188.5 -89.5q126 0 228 87t151 221h-575z" />
    <glyph glyph-name="circumflex" unicode="&#x2c6;" 
d="M362 1260l433 364h8l217 -405l-59 -37l-181 342l-374 -318z" />
    <glyph glyph-name="caron" unicode="&#x2c7;" 
d="M1122 1546l-432 -364h-8l-217 405l59 37l181 -342l374 317z" />
    <glyph glyph-name="breve" unicode="&#x2d8;" 
d="M578 1524q-13 -185 159 -185q56 0 102.5 18.5t75.5 47.5t47 59t25 60h62q-10 -42 -34 -83t-62.5 -78.5t-97.5 -61t-128 -23.5q-114 0 -167 64.5t-44 181.5h62z" />
    <glyph glyph-name="dotaccent" unicode="&#x2d9;" 
d="M657 1403q0 52 30 77t73 25q44 0 73 -25t29 -77t-29 -77.5t-73 -25.5t-73.5 25.5t-29.5 77.5z" />
    <glyph glyph-name="ring" unicode="&#x2da;" 
d="M965 1403q0 -94 -57.5 -149.5t-147.5 -55.5q-88 0 -146.5 56t-58.5 149q0 92 58.5 148.5t146.5 56.5q89 0 147 -56.5t58 -148.5zM899 1403q0 66 -38 106.5t-101 40.5q-62 0 -100.5 -40.5t-38.5 -106.5q0 -68 38.5 -108t100.5 -40q63 0 101 39.5t38 108.5z" />
    <glyph glyph-name="ogonek" unicode="&#x2db;" 
d="M635 -348h-98q-63 0 -93 33t-30 90q0 40 20 91t62 117.5t76.5 114.5t93.5 127l86 115l41 -21l-105 -143q-102 -142 -153.5 -231.5t-51.5 -153.5q0 -78 92 -78h70z" />
    <glyph glyph-name="tilde" unicode="&#x2dc;" 
d="M920 1434q-36 0 -75 -20t-69 -43.5t-77.5 -43.5t-98.5 -20q-43 0 -79.5 16.5t-59 39.5t-39 51t-24 47.5t-9.5 33.5h62q4 -14 13.5 -32t26.5 -40t46 -36.5t63 -14.5q44 0 87 20t73 43.5t73 43.5t87 20q43 0 79.5 -16.5t58 -39t38.5 -51.5t24 -47.5t10 -33.5h-61
q-4 14 -13.5 32t-26.5 40t-46 36.5t-63 14.5z" />
    <glyph glyph-name="hungarumlaut" unicode="&#x2dd;" 
d="M907 1606l47 -50l-383 -356l-47 49zM1151 1606l47 -50l-383 -356l-47 49z" />
    <glyph glyph-name="Omega.math" unicode="&#x3a9;" horiz-adv-x="1228" 
d="M1202 61l-10 -61h-520l10 61q28 19 63.5 46t93 81t110.5 115t110 148.5t98.5 180t68.5 211t27 240.5q0 214 -102.5 343.5t-286.5 129.5q-163 0 -295.5 -117t-204 -302t-71.5 -394q0 -431 274 -682l-10 -61h-520l10 61h445q-44 42 -80 85t-73.5 105.5t-62.5 131t-41 160.5
t-16 196q0 128 27 254t83 238.5t133 199t185 137t232 50.5q114 0 202 -44t140.5 -119t79 -167t26.5 -196q0 -168 -48.5 -327.5t-131.5 -289t-179.5 -231.5t-207.5 -183h442z" />
    <glyph glyph-name="pi" unicode="&#x3c0;" horiz-adv-x="1228" 
d="M449 0h-66l170 963h-281l11 61h1024l-11 -61h-276l-137 -779q-11 -62 6.5 -92.5t68.5 -30.5h179l-11 -61h-178q-95 0 -120.5 46t-10.5 138l137 779h-336z" />
    <glyph glyph-name="Wgrave" unicode="&#x1e80;" horiz-adv-x="2129" 
d="M1210 2087l56 39l305 -424l-55 -39zM1823 1597h590l-13 -61h-69q-95 0 -138 -27.5t-84 -115.5l-663 -1413h-8l-168 1208l-561 -1208h-9l-202 1454q-13 102 -158 102h-70l13 61h655l-12 -61h-103q-102 0 -148 -30.5t-38 -92.5l145 -1139l469 1035l-16 125
q-13 102 -158 102h-8l12 61h594l-12 -61h-102q-102 0 -148.5 -30.5t-38.5 -92.5l146 -1139l508 1119q22 52 22 75q0 68 -137 68h-103z" />
    <glyph glyph-name="wgrave" unicode="&#x1e81;" horiz-adv-x="1476" 
d="M449 1024l96 -877h12q20 35 77 137t89 159.5t75 140.5t72 145q-22 139 -71 295h159l91 -885h12q381 521 381 707q0 26 -27 26q-8 0 -29.5 -7t-42.5 -7q-44 0 -67 25.5t-23 64.5q0 45 33.5 70.5t89.5 25.5q77 0 126.5 -41t49.5 -135q0 -48 -18.5 -107t-67.5 -140.5
t-84 -137t-118.5 -164.5t-117 -150.5t-131.5 -163.5q-13 -17 -20 -25l-41 20l-63 590q-184 -313 -395 -610l-41 20q-63 620 -138 922h-163l20 102h275zM801 1595l55 39l305 -424l-55 -39z" />
    <glyph glyph-name="Wacute" unicode="&#x1e82;" horiz-adv-x="2129" 
d="M1616 2048l-383 -356l-47 49l383 356zM1823 1597h590l-13 -61h-69q-95 0 -138 -27.5t-84 -115.5l-663 -1413h-8l-168 1208l-561 -1208h-9l-202 1454q-13 102 -158 102h-70l13 61h655l-12 -61h-103q-102 0 -148 -30.5t-38 -92.5l145 -1139l469 1035l-16 125
q-13 102 -158 102h-8l12 61h594l-12 -61h-102q-102 0 -148.5 -30.5t-38.5 -92.5l146 -1139l508 1119q22 52 22 75q0 68 -137 68h-103z" />
    <glyph glyph-name="wacute" unicode="&#x1e83;" horiz-adv-x="1476" 
d="M449 1024l96 -877h12q20 35 77 137t89 159.5t75 140.5t72 145q-22 139 -71 295h159l91 -885h12q381 521 381 707q0 26 -27 26q-8 0 -29.5 -7t-42.5 -7q-44 0 -67 25.5t-23 64.5q0 45 33.5 70.5t89.5 25.5q77 0 126.5 -41t49.5 -135q0 -48 -18.5 -107t-67.5 -140.5
t-84 -137t-118.5 -164.5t-117 -150.5t-131.5 -163.5q-13 -17 -20 -25l-41 20l-63 590q-184 -313 -395 -610l-41 20q-63 620 -138 922h-163l20 102h275zM1217 1556l-383 -356l-48 49l383 357z" />
    <glyph glyph-name="Wdieresis" unicode="&#x1e84;" horiz-adv-x="2129" 
d="M1145 1894q0 52 29.5 77.5t72.5 25.5q44 0 73.5 -25.5t29.5 -77.5t-29.5 -77t-73.5 -25t-73 25t-29 77zM1473 1894q0 52 29.5 77.5t72.5 25.5q44 0 73 -25.5t29 -77.5t-29 -77t-73 -25t-73 25t-29 77zM1823 1597h590l-13 -61h-69q-95 0 -138 -27.5t-84 -115.5l-663 -1413
h-8l-168 1208l-561 -1208h-9l-202 1454q-13 102 -158 102h-70l13 61h655l-12 -61h-103q-102 0 -148 -30.5t-38 -92.5l145 -1139l469 1035l-16 125q-13 102 -158 102h-8l12 61h594l-12 -61h-102q-102 0 -148.5 -30.5t-38.5 -92.5l146 -1139l508 1119q22 52 22 75
q0 68 -137 68h-103z" />
    <glyph glyph-name="wdieresis" unicode="&#x1e85;" horiz-adv-x="1476" 
d="M449 1024l96 -877h12q20 35 77 137t89 159.5t75 140.5t72 145q-22 139 -71 295h159l91 -885h12q381 521 381 707q0 26 -27 26q-8 0 -29.5 -7t-42.5 -7q-44 0 -67 25.5t-23 64.5q0 45 33.5 70.5t89.5 25.5q77 0 126.5 -41t49.5 -135q0 -48 -18.5 -107t-67.5 -140.5
t-84 -137t-118.5 -164.5t-117 -150.5t-131.5 -163.5q-13 -17 -20 -25l-41 20l-63 590q-184 -313 -395 -610l-41 20q-63 620 -138 922h-163l20 102h275zM752 1403q0 52 29.5 77t72.5 25q44 0 73 -25t29 -77t-29 -77.5t-73 -25.5t-73 25.5t-29 77.5zM1079 1403q0 52 30 77
t73 25q44 0 73 -25t29 -77t-29 -77.5t-73 -25.5t-73.5 25.5t-29.5 77.5z" />
    <glyph glyph-name="germandbls.cap" unicode="&#x1e9e;" horiz-adv-x="1775" 
d="M717 0h-656l11 61h123q181 0 202 123l217 1229q10 57 -27 90t-130 33h-123l10 61h1546l-10 -61l-580 -520l113 -78q50 -35 78 -55.5t68.5 -54t63 -58t49.5 -61t40.5 -71t23 -78.5t9.5 -93q0 -212 -140.5 -349.5t-367.5 -137.5q-66 0 -126.5 13t-99.5 26.5t-53 13.5
q-28 0 -51 -21l-39 -32h-8l-69 389l40 20q34 -149 139 -244.5t283 -95.5q112 0 194.5 50t121.5 128.5t39 171.5q0 43 -8.5 81.5t-21 68.5t-37 62t-44 53t-55.5 50.5t-59 46t-66 46.5l-182 131l10 61l592 537h-791q-180 0 -201 -123l-217 -1229q-10 -57 28.5 -90t129.5 -33
h41z" />
    <glyph glyph-name="Ygrave" unicode="&#x1ef2;" horiz-adv-x="1638" 
d="M969 2087l55 39l305 -424l-55 -39zM1556 1393l-563 -779l-75 -430q-11 -63 26 -93t131 -30h123l-12 -61h-737l12 61h123q181 0 202 123l76 430l-321 822q-22 52 -71 76t-110 24h-69l12 61h655l-12 -61h-90q-117 0 -153 -30.5t-11 -92.5l281 -735l502 715q30 47 30 73
q0 70 -149 70h-62l13 61h573l-12 -61h-90q-74 0 -117.5 -29t-104.5 -114z" />
    <glyph glyph-name="ygrave" unicode="&#x1ef3;" horiz-adv-x="1003" 
d="M274 889q-34 0 -62 -21t-75 -73l-41 20q134 166 199 217h41q73 0 124 -79.5t72 -211.5t16 -305t-38 -358h41q416 514 416 768q0 26 -27 26q-8 0 -29.5 -7t-42.5 -7q-44 0 -67 25.5t-23 64.5q0 45 33.5 70.5t89.5 25.5q80 0 128 -47t48 -129q0 -80 -43 -182.5t-129 -226.5
t-174 -235t-217 -261q-64 -74 -114 -128t-115.5 -115.5t-120.5 -100t-117.5 -64.5t-118.5 -26q-46 0 -76 20.5t-30 61.5q0 39 27 68.5t71 29.5q21 0 60.5 -4t62.5 -4q63 0 120.5 20.5t110 66.5t91 113.5t61.5 168.5t23 225q0 125 -9 228t-29 187.5t-55 131.5t-82 47z
M555 1595l55 39l305 -424l-55 -39z" />
    <glyph glyph-name="thinspace" unicode="&#x2009;" horiz-adv-x="204" 
 />
    <glyph glyph-name="endash" unicode="&#x2013;" horiz-adv-x="1310" 
d="M178 543l10 61h1147l-10 -61h-1147z" />
    <glyph glyph-name="emdash" unicode="&#x2014;" horiz-adv-x="1720" 
d="M1735 543h-1557l10 61h1557z" />
    <glyph glyph-name="quoteleft" unicode="&#x2018;" horiz-adv-x="495" 
d="M582 1200q0 -58 -37 -90.5t-86 -32.5q-50 0 -86.5 32.5t-36.5 90.5q0 48 37 98l268 361l51 -37l-246 -324l9 -2q10 7 32 7q41 0 68 -27.5t27 -75.5z" />
    <glyph glyph-name="quoteright" unicode="&#x2019;" horiz-adv-x="495" 
d="M389 1495q0 58 37 90.5t86 32.5q50 0 86.5 -32.5t36.5 -90.5q0 -48 -37 -98l-268 -361l-51 37l245 324l-8 2q-9 -6 -33 -6q-41 0 -67.5 27t-26.5 75z" />
    <glyph glyph-name="quotesinglbase" unicode="&#x201a;" horiz-adv-x="495" 
d="M143 102q0 58 37 90.5t86 32.5q50 0 86.5 -32.5t36.5 -90.5q0 -48 -37 -98l-268 -360l-51 37l246 323l-9 2q-9 -6 -32 -6q-41 0 -68 27t-27 75z" />
    <glyph glyph-name="quotedblleft" unicode="&#x201c;" horiz-adv-x="905" 
d="M582 1200q0 -58 -37 -90.5t-86 -32.5q-50 0 -86.5 32.5t-36.5 90.5q0 48 37 98l268 361l51 -37l-246 -324l9 -2q10 7 32 7q41 0 68 -27.5t27 -75.5zM991 1200q0 -58 -37 -90.5t-86 -32.5q-50 0 -86.5 32.5t-36.5 90.5q0 48 37 98l269 361l51 -37l-246 -324l8 -2
q10 7 33 7q41 0 67.5 -27.5t26.5 -75.5z" />
    <glyph glyph-name="quotedblright" unicode="&#x201d;" horiz-adv-x="905" 
d="M799 1495q0 58 37 90.5t86 32.5q50 0 86 -32.5t36 -90.5q0 -50 -36 -98l-269 -361l-51 37l246 324l-8 2q-9 -6 -33 -6q-41 0 -67.5 27t-26.5 75zM389 1495q0 58 37 90.5t86 32.5q50 0 86.5 -32.5t36.5 -90.5q0 -48 -37 -98l-268 -361l-51 37l245 324l-8 2q-9 -6 -33 -6
q-41 0 -67.5 27t-26.5 75z" />
    <glyph glyph-name="quotedblbase" unicode="&#x201e;" horiz-adv-x="905" 
d="M553 102q0 58 37 90.5t86 32.5q50 0 86.5 -32.5t36.5 -90.5q0 -48 -37 -98l-268 -360l-52 37l246 323l-8 2q-9 -6 -33 -6q-41 0 -67.5 27t-26.5 75zM143 102q0 58 37 90.5t86 32.5q50 0 86.5 -32.5t36.5 -90.5q0 -48 -37 -98l-268 -360l-51 37l246 323l-9 2q-9 -6 -32 -6
q-41 0 -68 27t-27 75z" />
    <glyph glyph-name="dagger" unicode="&#x2020;" horiz-adv-x="823" 
d="M356 963h-145l12 61h144l204 -8l39 215l37 162l58 204h40l-32 -204l-39 -162l-60 -215l205 8h144l-15 -61h-143l-203 10l-37 -215l-180 -778l-59 -205h-41l34 205l181 778l61 215z" />
    <glyph glyph-name="daggerdbl" unicode="&#x2021;" horiz-adv-x="856" 
d="M502 614l30 144l62 215l-205 -10h-145l12 61h143l205 -8l37 215l37 162l59 204h43l-32 -204l-39 -162l-62 -215l205 8h143l-14 -61h-143l-203 10l-37 -215l-33 -144l-61 -215l207 11h143l-14 -62h-144l-202 10l-37 -215l-39 -163l-58 -205h-43l35 205l39 163l62 215
l-207 -10h-144l13 62h145l201 -11z" />
    <glyph glyph-name="bullet" unicode="&#x2022;" horiz-adv-x="819" 
d="M231 614q0 123 82.5 205t204.5 82q123 0 205 -82t82 -205q0 -122 -82 -204t-205 -82q-122 0 -204.5 82.5t-82.5 203.5z" />
    <glyph glyph-name="ellipsis" unicode="&#x2026;" horiz-adv-x="1433" 
d="M1004 102q0 58 37 90.5t85 32.5q50 0 86.5 -32.5t36.5 -90.5t-36.5 -90t-86.5 -32q-49 0 -85.5 32t-36.5 90zM143 102q0 58 37 90.5t86 32.5q50 0 86.5 -32.5t36.5 -90.5t-36.5 -90t-86.5 -32q-49 0 -86 32t-37 90zM573 102q0 58 37 90.5t86 32.5q50 0 86.5 -32.5
t36.5 -90.5t-36.5 -90t-86.5 -32q-49 0 -86 32t-37 90z" />
    <glyph glyph-name="perthousand" unicode="&#x2030;" horiz-adv-x="2293" 
d="M539 717q-113 0 -171.5 82t-58.5 223q0 138 47 273.5t137.5 229t200.5 93.5h881l-12 -66l-1213 -1572l-53 40l1184 1532h-631q72 -81 72 -241q0 -103 -28 -208t-77 -191t-122 -140.5t-156 -54.5zM557 774q59 0 108.5 52.5t79 131.5t46 164t16.5 158q0 281 -133 281
q-58 0 -107.5 -52.5t-79.5 -131.5t-46.5 -164t-16.5 -158q0 -281 133 -281zM1188 -20q-113 0 -171.5 82t-58.5 223q0 138 47 273.5t137.5 229t200.5 93.5q111 0 169.5 -83t58.5 -225q0 -103 -28 -207.5t-77 -190.5t-122 -140.5t-156 -54.5zM1878 -20q-112 0 -170.5 82
t-58.5 223q0 138 47 273.5t137.5 229t200.5 93.5q111 0 169 -83t58 -225q0 -103 -28 -207.5t-77 -190.5t-122 -140.5t-156 -54.5zM1206 37q59 0 108.5 52.5t79 131.5t46 164t16.5 158q0 280 -133 280q-58 0 -107.5 -52.5t-79.5 -131.5t-46.5 -164t-16.5 -158
q0 -280 133 -280zM1896 37q59 0 108.5 52.5t79 131.5t46 164t16.5 158q0 280 -133 280q-58 0 -107.5 -52.5t-79.5 -131.5t-46.5 -164t-16.5 -158q0 -280 133 -280z" />
    <glyph glyph-name="guilsinglleft" unicode="&#x2039;" horiz-adv-x="645" 
d="M588 166l-51 -43l-375 450l530 451l43 -51l-479 -406z" />
    <glyph glyph-name="guilsinglright" unicode="&#x203a;" horiz-adv-x="647" 
d="M686 573l-530 -450l-43 51l479 406l-332 401l51 43z" />
    <glyph glyph-name="fraction" unicode="&#x2044;" horiz-adv-x="1228" 
d="M1343 1618l54 -41l-1231 -1597l-53 40z" />
    <glyph glyph-name="zerosuperior" unicode="&#x2070;" horiz-adv-x="819" 
d="M539 717q-113 0 -171.5 82t-58.5 223q0 138 47 273.5t137.5 229t200.5 93.5q111 0 169.5 -82.5t58.5 -224.5q0 -103 -28 -208t-77 -191t-122 -140.5t-156 -54.5zM557 774q59 0 108.5 52.5t79 131.5t46 164t16.5 158q0 281 -133 281q-58 0 -107.5 -52.5t-79.5 -131.5
t-46.5 -164t-16.5 -158q0 -281 133 -281z" />
    <glyph glyph-name="i.superior" unicode="&#x2071;" horiz-adv-x="548" 
d="M506 1919q0 49 31 76.5t73 27.5t73.5 -27.5t31.5 -76.5t-31.5 -76.5t-73.5 -27.5q-43 0 -73.5 27t-30.5 77zM338 995l154 516h-193l18 86h314l6 -6q-107 -266 -205 -483q-51 -110 -51 -158q0 -40 26 -74t74 -34q73 0 197 174l35 -17l-115 -157q-41 -55 -68 -82t-53 -39
h-35q-53 0 -90 42.5t-37 102.5q0 45 23 129z" />
    <glyph glyph-name="foursuperior" unicode="&#x2074;" horiz-adv-x="819" 
d="M702 1409q-4 0 -16 -12l-350 -377h299l72 377q2 12 -5 12zM250 946l12 74l572 618h12l-117 -618h182l-12 -74h-182l-19 -94q-6 -36 11.5 -52t68.5 -16h68l-10 -57h-408l10 57h80q39 0 58.5 16.5t25.5 51.5l19 94h-371z" />
    <glyph glyph-name="fivesuperior" unicode="&#x2075;" horiz-adv-x="819" 
d="M588 1227q-131 0 -185 -74h-34l118 453h408l20 -203l-36 -23q-8 54 -26 84t-57 46t-108 16h-88q-42 0 -61 -16.5t-31 -63.5l-57 -211q87 55 180 55q115 0 182.5 -67t67.5 -185q0 -130 -86 -225.5t-232 -95.5q-65 0 -114 20t-77.5 56t-43.5 81t-17 99l37 22
q9 -200 195 -200q101 0 158 70t57 179q0 81 -43.5 132t-126.5 51z" />
    <glyph glyph-name="sixsuperior" unicode="&#x2076;" horiz-adv-x="819" 
d="M731 1561q-94 0 -168.5 -108t-101.5 -275q82 125 217 125q103 0 163 -62.5t60 -169.5q0 -137 -97 -245.5t-233 -108.5q-112 0 -174.5 77.5t-62.5 223.5q0 103 29 208t79.5 193t129 143.5t169.5 55.5t148 -50t57 -120q0 -41 -18 -62.5t-51 -21.5q-27 0 -45.5 16t-18.5 45
q0 15 7 36.5t7 33.5q0 66 -96 66zM651 1243q-60 0 -106.5 -45.5t-69 -112t-22.5 -139.5q0 -82 31.5 -128t93.5 -46q89 0 144.5 92t55.5 207q0 80 -32 126t-95 46z" />
    <glyph glyph-name="sevensuperior" unicode="&#x2077;" horiz-adv-x="819" 
d="M1008 1602q-185 -198 -301 -393.5t-156 -422.5q-16 -69 -76 -69q-35 0 -52 18.5t-11 55.5q11 64 56 153t119.5 197t131 183.5t137.5 178.5q5 7 2 15t-16 8h-189q-101 0 -156.5 -37.5t-90.5 -108.5l-29 23l92 203h541z" />
    <glyph glyph-name="eightsuperior" unicode="&#x2078;" horiz-adv-x="819" 
d="M866 956q0 -100 -82.5 -169.5t-214.5 -69.5q-122 0 -194 55t-72 150q0 49 19.5 89.5t58 72t78 54.5t96.5 48q-111 100 -111 209q0 95 76 159t195 64q99 0 157 -50t58 -126q0 -87 -57.5 -141t-161.5 -101q74 -60 114.5 -114.5t40.5 -129.5zM547 1423q0 -55 32 -99t91 -91
q164 70 164 197q0 58 -38.5 94.5t-103.5 36.5q-66 0 -105.5 -39.5t-39.5 -98.5zM408 940q0 -80 50.5 -124t129.5 -44q76 0 125 41.5t49 110.5q0 19 -4.5 37t-10 32t-18.5 31.5t-20.5 27.5t-27.5 28t-28 25t-32.5 27t-30.5 25q-37 -18 -57.5 -29t-48 -31t-41.5 -40t-24.5 -50
t-10.5 -67z" />
    <glyph glyph-name="ninesuperior" unicode="&#x2079;" horiz-adv-x="819" 
d="M514 795q116 0 191 100.5t96 263.5q-82 -127 -215 -127q-103 0 -162 61.5t-59 168.5q0 138 95 247t232 109q111 0 173.5 -78.5t62.5 -224.5q0 -118 -27.5 -225.5t-78.5 -190.5t-129 -132.5t-173 -49.5q-108 0 -162 62.5t-57 162.5l37 23q6 -81 50 -125.5t126 -44.5z
M612 1087q88 0 142.5 92t54.5 207q0 82 -31.5 128.5t-91.5 46.5q-88 0 -142.5 -92t-54.5 -207q0 -81 31 -128t92 -47z" />
    <glyph glyph-name="n.superior" unicode="&#x207f;" horiz-adv-x="1075" 
d="M856 862q0 56 42 156t84 204.5t42 172.5q0 54 -26.5 85t-77.5 31q-21 0 -41.5 -8.5t-38 -20t-38.5 -35.5t-35 -42.5t-36.5 -53.5t-34.5 -56t-36.5 -63.5t-36.5 -62.5l-263 -442h-79l211 784h-193l18 86h314l6 -6q-78 -214 -240 -585h49l172 268q105 163 144 212
q96 118 195 129q11 1 22 1q83 0 126.5 -50t43.5 -124q0 -30 -6 -57t-26.5 -68t-31.5 -60t-49 -83q-70 -116 -92 -163t-22 -81q0 -39 27.5 -63.5t66.5 -24.5q33 0 77 39.5t111 134.5l35 -17l-115 -157q-73 -98 -123 -121h-34q-49 0 -80 40t-31 101z" />
    <glyph glyph-name="Euro" unicode="&#x20ac;" horiz-adv-x="1269" 
d="M162 573l12 62h111q9 171 59 328h-113l11 61h123q61 171 154 303t219 211.5t263 79.5q43 0 81.5 -9t60 -19.5t44 -19.5t38.5 -9q17 0 51 18l65 39h9l47 -430l-43 -21q-3 9 -13 40.5t-15.5 48t-18.5 49.5t-23 53t-27.5 49.5t-34 47.5t-40.5 39.5t-49 33.5t-57.5 20
t-67.5 8q-159 0 -284.5 -148t-197.5 -384h514l-10 -61h-522q-43 -156 -55 -328h520l-12 -62h-510q-2 -23 -2 -65q0 -426 323 -426q58 0 111 13t94.5 34t79 51t65.5 62t53 68t41 68t30 64.5t21.5 54t12.5 39.5l6 17l37 -21q-110 -344 -329 -479q-119 -73 -261 -73
q-227 0 -339.5 149t-112.5 410v34h-119z" />
    <glyph glyph-name="numero" unicode="&#x2116;" horiz-adv-x="1855" 
d="M1534 711q-121 0 -192.5 73.5t-71.5 214.5q0 154 71 297t188.5 231.5t244.5 88.5q122 0 193 -75t71 -216q0 -115 -42.5 -227.5t-111.5 -197t-162 -137t-188 -52.5zM1462 8v-8h-153l-676 1456l-225 -1272q-11 -61 26.5 -92t130.5 -31h82l-12 -61h-594l12 61h82
q182 0 203 123l217 1229q11 61 -27 92t-133 31h-82l13 61h393zM1604 821q101 0 182 61t123.5 156t42.5 201q0 125 -63.5 194.5t-184.5 69.5q-101 0 -182 -61t-123.5 -156t-42.5 -201q0 -123 65.5 -193.5t182.5 -70.5z" />
    <glyph glyph-name="uni2117" unicode="&#x2117;" horiz-adv-x="1847" 
d="M233 657q0 153 47.5 298t136.5 264.5t207.5 209t269.5 139.5t314 50q148 0 277 -52t218.5 -142t141 -215t51.5 -267q0 -152 -46 -296t-133.5 -264t-205.5 -210.5t-270.5 -141t-320.5 -50.5q-148 0 -276 51.5t-218 141.5t-141.5 215.5t-51.5 268.5zM1198 1556
q-182 0 -347 -69.5t-285.5 -187.5t-191.5 -283.5t-71 -349.5q0 -131 46.5 -246.5t128 -199t199.5 -131.5t255 -48q181 0 346.5 70.5t286 190.5t191.5 285.5t71 348.5q0 175 -78.5 316t-223 222.5t-327.5 81.5zM1087 281h-505l8 41h80q116 0 131 79l139 799q7 45 -15.5 62.5
t-86.5 17.5h-80l8 39h414q89 0 158 -11.5t124 -37.5t84 -72.5t29 -112.5q0 -122 -116.5 -209.5t-325.5 -87.5h-179l-67 -387q-8 -43 15.5 -61t86.5 -18h107zM1098 829q178 0 271 70t93 182q0 110 -73.5 154.5t-210.5 44.5h-21q-116 0 -131 -80l-65 -371h137z" />
    <glyph glyph-name="trademark" unicode="&#x2122;" horiz-adv-x="2048" 
d="M889 717h-488l9 41h82q120 0 133 80l112 637q8 43 -16.5 62t-87.5 19h-41q-58 0 -108 -18.5t-80.5 -41t-59 -58.5t-38.5 -54t-23 -45l-23 15l111 243h989l192 -735l453 735h297l-8 -41h-80q-118 0 -133 -81l-113 -637q-7 -46 16.5 -63t88.5 -17h79l-8 -41h-485l8 41h80
q121 0 133 80l117 657l-496 -793h-6l-207 795l-117 -659q-8 -41 17 -60.5t88 -19.5h53l-8 -41h-391l8 41h53q121 0 133 80l97 548q-6 30 -19 56.5t-37.5 54t-67.5 43.5t-100 16h-41q-118 0 -133 -81l-112 -637q-7 -46 16 -63t88 -17h82z" />
    <glyph glyph-name="estimated" unicode="&#x212e;" horiz-adv-x="1636" 
d="M1606 662h-1186l-60 -334q53 -135 170 -211t295 -76q206 0 384 110t282 273l41 -21q-130 -199 -314.5 -311t-404.5 -112q-176 0 -305 76t-192.5 204t-63.5 293q0 117 36.5 237.5t108 229t168 193t226 134.5t272.5 50q268 0 417.5 -149t149.5 -396q0 -124 -24 -190z
M1051 1327q-173 0 -319 -82t-249 -219l-53 -303h1028l60 338q-55 127 -174 196.5t-293 69.5z" />
    <glyph glyph-name="arrowleft" unicode="&#x2190;" horiz-adv-x="1644" 
d="M686 209l-45 -45l-451 450l451 451l45 -45l-379 -375h1358v-61h-1358z" />
    <glyph glyph-name="arrowup" unicode="&#x2191;" horiz-adv-x="1064" 
d="M287 856l-45 45l450 451l451 -451l-45 -45l-373 377v-1356h-66v1356z" />
    <glyph glyph-name="arrowright" unicode="&#x2192;" horiz-adv-x="1644" 
d="M1176 209l378 375h-1357v61h1357l-378 375l45 45l450 -451l-450 -450z" />
    <glyph glyph-name="arrowdown" unicode="&#x2193;" horiz-adv-x="1064" 
d="M184 373l373 -377v1356h66v-1356l372 377l45 -45l-450 -451l-451 451z" />
    <glyph glyph-name="arrowupleft" unicode="&#x2196;" horiz-adv-x="1370" 
d="M350 510h-65v637h639v-62h-529l957 -956l-45 -45l-957 956v-530z" />
    <glyph glyph-name="arrowupright" unicode="&#x2197;" horiz-adv-x="1122" 
d="M1065 510v530l-956 -956l-46 45l957 956h-528v62h638v-637h-65z" />
    <glyph glyph-name="arrowdownright" unicode="&#x2198;" horiz-adv-x="1411" 
d="M1278 721h65v-637h-638v61h528l-957 957l46 45l956 -957v531z" />
    <glyph glyph-name="arrowdownleft" unicode="&#x2199;" horiz-adv-x="1163" 
d="M274 721v-531l957 957l45 -45l-957 -957h529v-61h-639v637h65z" />
    <glyph glyph-name="partialdiff" unicode="&#x2202;" 
d="M1090 836q0 -239 -75 -434.5t-210.5 -308.5t-304.5 -113q-164 0 -263.5 106t-99.5 287q0 128 45 251t120 215t178 148.5t212 56.5q265 0 328 -241v24q0 143 -33 271.5t-89 224t-125 165t-146 109.5l43 21q63 -33 121 -80.5t113.5 -118t96 -154.5t65 -195t24.5 -234z
M215 391q0 -158 77.5 -254t215.5 -96q102 0 189.5 52t148 139.5t101 193t59.5 221.5v25q0 62 -19 116.5t-57 98.5t-102 70t-146 26q-98 0 -187.5 -56.5t-149.5 -143.5t-95 -191t-35 -201z" />
    <glyph glyph-name="Delta.math" unicode="&#x2206;" horiz-adv-x="1228" 
d="M1087 61l-198 1477l-723 -1477h921zM92 61l754 1536h102l209 -1536l-10 -61h-1065z" />
    <glyph glyph-name="product" unicode="&#x220f;" horiz-adv-x="1228" 
d="M385 1597h1022l-10 -61h-256l-271 -1536h-65l270 1536h-381l-270 -1536h-66l271 1536h-254z" />
    <glyph glyph-name="summation" unicode="&#x2211;" horiz-adv-x="1228" 
d="M14 -389l736 983l-396 942l13 61h1040l-10 -61h-965l397 -950l-729 -975h953l-11 -62h-1040z" />
    <glyph glyph-name="minus" unicode="&#x2212;" horiz-adv-x="1228" 
d="M225 584l13 61h983l-13 -61h-983z" />
    <glyph glyph-name="radical" unicode="&#x221a;" horiz-adv-x="962" 
d="M250 1024l166 -973l751 1546h78l-782 -1597h-103l-180 1024h70z" />
    <glyph glyph-name="infinity" unicode="&#x221e;" horiz-adv-x="1232" 
d="M1284 694q0 -181 -93.5 -296t-229.5 -115q-51 0 -89.5 18t-67 55t-48.5 79.5t-41 105.5q-61 -84 -110 -136t-110 -87t-124 -35q-95 0 -151 70t-56 182q0 181 94.5 297t230.5 116q97 0 152 -65.5t100 -198.5q91 133 169 198.5t169 65.5q95 0 150 -70.5t55 -183.5zM233 543
q0 -90 42.5 -142.5t107.5 -52.5q124 0 309 264q-18 57 -30.5 90.5t-31.5 73t-39 59.5t-49 34t-65 14q-44 0 -86.5 -21t-78.5 -61.5t-57.5 -107.5t-21.5 -150zM1067 883q-38 0 -81 -26t-86 -73.5t-71.5 -84.5t-64.5 -89q21 -65 37 -105.5t40.5 -80t56 -58t73.5 -18.5
q45 0 87 21t77.5 61t57 106.5t21.5 149.5q0 90 -41.5 143.5t-105.5 53.5z" />
    <glyph glyph-name="integral" unicode="&#x222b;" horiz-adv-x="614" 
d="M539 1597h315l-10 -61h-250l-350 -1987h-283l10 62h217z" />
    <glyph glyph-name="approxequal" unicode="&#x2248;" horiz-adv-x="1228" 
d="M246 856q72 -49 127 -67q56 -19 114 -19q67 0 141.5 25.5t131 56.5t134.5 56.5t150 25.5q83 0 140 -26.5t86 -55.5v-66q-75 52 -136 70q-53 16 -106 16q-66 0 -140.5 -25.5t-131 -56t-134.5 -56t-151 -25.5q-58 0 -109 16.5t-75 32.5t-41 33v65zM174 444q75 -52 136 -70
q53 -16 106 -16q67 0 141.5 25.5t131 56.5t134 56.5t150.5 25.5q58 0 109 -16.5t75 -32.5t41 -33v-65q-75 52 -136 70q-52 16 -106 16q-55 0 -112.5 -17t-108.5 -41t-102.5 -48t-112.5 -41t-121 -17q-58 0 -109 16.5t-75 32.5t-41 33v65z" />
    <glyph glyph-name="notequal" unicode="&#x2260;" horiz-adv-x="1228" 
d="M170 379l10 61h365l270 348h-571l10 62h608l365 473l53 -41l-334 -432h330l-10 -62h-367l-268 -348h571l-10 -61h-608l-365 -471l-53 41l332 430h-328z" />
    <glyph glyph-name="lessequal" unicode="&#x2264;" horiz-adv-x="1228" 
d="M1102 233l-12 -69l-863 450l1022 451l-14 -78l-866 -377zM76 0l12 61h983l-12 -61h-983z" />
    <glyph glyph-name="greaterequal" unicode="&#x2265;" horiz-adv-x="1228" 
d="M1219 614l-1022 -450l14 78l866 376l-733 377l12 70zM168 0l12 61h983l-12 -61h-983z" />
    <glyph glyph-name="lozenge" unicode="&#x25ca;" horiz-adv-x="1228" 
d="M666 0h-103l-340 799l623 798h102l340 -798zM301 791l320 -742l589 758l-319 741z" />
    <glyph glyph-name="uni260E" unicode="&#x260e;" horiz-adv-x="1865" 
d="M1188 -20q-97 0 -175 28t-126 74.5t-73.5 104t-25.5 120.5t23 127l291 813l231 -84l-61 -174l-174 62l-168 -465l172 -62l-62 -174l-180 68q-20 -50 -20 -99q0 -127 95.5 -202.5t244.5 -75.5q139 0 259 60t203 162t130 241t47 295q0 157 -50.5 294.5t-144 240.5
t-237 162.5t-318.5 59.5q-168 0 -308.5 -60t-234.5 -162.5t-146 -240.5t-52 -294q0 -193 73 -342l-55 -27q-43 71 -65.5 171t-22.5 198q0 168 57.5 317.5t161 260.5t257 176t335.5 65q188 0 344 -64t259 -175.5t159.5 -260.5t56.5 -319q0 -169 -51.5 -319t-142 -260.5
t-222 -175t-284.5 -64.5z" />
    <glyph glyph-name="uni2610" unicode="&#x2610;" horiz-adv-x="1622" 
d="M1489 262h-1073v1073h1073v-1073zM1423 324v950h-942v-950h942z" />
    <glyph glyph-name="uni2611" unicode="&#x2611;" horiz-adv-x="1622" 
d="M1489 262h-1073v1073h1073v-1073zM1423 324v950h-942v-950h942zM1223 1147h77l-430 -717h-41l-225 369h78l168 -285z" />
    <glyph glyph-name="uni2612" unicode="&#x2612;" horiz-adv-x="1622" 
d="M1489 262h-1073v1073h1073v-1073zM1423 324v950h-942v-950h942zM690 1147l262 -299l262 299h86l-305 -348l305 -348h-86l-262 299l-262 -299h-86l305 348l-305 348h86z" />
    <glyph glyph-name="sunrayswhite" unicode="&#x263c;" horiz-adv-x="1650" 
d="M936 1366v219h61v-219h-61zM1343 1219l156 155l45 -45l-155 -155zM389 1329l45 45l156 -155l-45 -45zM969 295q-215 0 -359.5 144.5t-144.5 359.5t144 357t360 142t360 -142t144 -357t-144.5 -359.5t-359.5 -144.5zM969 360q189 0 311.5 124t122.5 315t-122.5 314.5
t-311.5 123.5t-311.5 -123.5t-122.5 -314.5t122.5 -315t311.5 -124zM1534 831h219v-65h-219v65zM182 831h221v-65h-221v65zM432 221l-45 45l156 156l45 -45zM1501 221l-155 156l45 45l155 -156zM936 14v222h61v-222h-61z" />
    <glyph glyph-name="heart" unicode="&#x2665;" horiz-adv-x="1243" 
d="M522 1331q238 0 287 -346q49 346 287 346q117 0 181 -71t64 -195q0 -75 -26.5 -153.5t-64.5 -141.5t-99.5 -138.5t-111 -126.5t-121.5 -124.5t-109 -114.5q-38 41 -109.5 114.5t-121 124.5t-111.5 126.5t-100 138.5t-64.5 141.5t-26.5 153.5q0 124 64.5 195t181.5 71z
" />
    <glyph glyph-name="uni2713" unicode="&#x2713;" horiz-adv-x="1556" 
d="M657 1147l263 -299l262 299h86l-305 -348l305 -348h-86l-262 299l-263 -299h-86l306 348l-306 348h86z" />
    <glyph glyph-name="circleddigitone" unicode="&#x2780;" horiz-adv-x="1843" 
d="M244 801q0 166 65 317.5t174.5 261t261 174t318.5 64.5t318.5 -64.5t261 -174t174.5 -261t65 -317.5q0 -168 -65 -320t-174.5 -261.5t-261 -174.5t-318.5 -65t-318.5 65t-261 174.5t-174.5 261.5t-65 320zM313 801q0 -154 59 -294.5t159 -242.5t239 -162.5t293 -60.5
t293 60.5t239 162.5t158.5 242.5t58.5 294.5q0 206 -99.5 379.5t-272 274.5t-377.5 101q-154 0 -293 -59.5t-239 -160.5t-159 -241t-59 -294zM1016 475l100 565h-184l10 58h119q59 0 88.5 25t38.5 79l8 43h57l-135 -770q-6 -33 13 -48t71 -15h127l-10 -58h-520l10 58h125
q70 0 82 63z" />
    <glyph glyph-name="circleddigittwo" unicode="&#x2781;" horiz-adv-x="1843" 
d="M244 801q0 166 65 317.5t174.5 261t261 174t318.5 64.5t318.5 -64.5t261 -174t174.5 -261t65 -317.5q0 -168 -65 -320t-174.5 -261.5t-261 -174.5t-318.5 -65t-318.5 65t-261 174.5t-174.5 261.5t-65 320zM313 801q0 -154 59 -294.5t159 -242.5t239 -162.5t293 -60.5
t293 60.5t239 162.5t158.5 242.5t58.5 294.5q0 206 -99.5 379.5t-272 274.5t-377.5 101q-154 0 -293 -59.5t-239 -160.5t-159 -241t-59 -294zM1206 354h-518l6 33q48 60 113 122.5t121 107.5t113.5 97.5t98 98t66 102t25.5 115.5q0 75 -38.5 116.5t-107.5 41.5
q-68 0 -100.5 -30.5t-38.5 -88.5q-5 -40 -22.5 -61t-59.5 -21q-55 0 -55 51q0 83 91.5 145t207.5 62q114 0 179 -58t65 -151q0 -72 -32 -134.5t-89.5 -114.5t-118.5 -96t-140 -102.5t-132 -109.5q-21 -25 -21 -33q0 -12 25 -12h180q100 0 157 38t89 108l28 -23z" />
    <glyph glyph-name="circleddigitthree" unicode="&#x2782;" horiz-adv-x="1843" 
d="M244 801q0 166 65 317.5t174.5 261t261 174t318.5 64.5t318.5 -64.5t261 -174t174.5 -261t65 -317.5q0 -168 -65 -320t-174.5 -261.5t-261 -174.5t-318.5 -65t-318.5 65t-261 174.5t-174.5 261.5t-65 320zM313 801q0 -154 59 -294.5t159 -242.5t239 -162.5t293 -60.5
t293 60.5t239 162.5t158.5 242.5t58.5 294.5q0 206 -99.5 379.5t-272 274.5t-377.5 101q-154 0 -293 -59.5t-239 -160.5t-159 -241t-59 -294zM954 348q-124 0 -183 69t-62 187l36 23q0 -101 51 -151t138 -50q108 0 166.5 56.5t58.5 144.5q0 174 -160 174h-79l10 57h65
q101 0 165.5 52t64.5 143q0 62 -31 100.5t-90 38.5q-117 0 -133 -119q-10 -82 -90 -82q-25 0 -38.5 15.5t-13.5 40.5q0 74 84 138t195 64q115 0 175 -50t60 -130q0 -41 -13.5 -76t-34.5 -59.5t-53 -45.5t-61.5 -34t-66.5 -25v-4q75 -15 123.5 -64t48.5 -134
q0 -115 -91.5 -197t-240.5 -82z" />
    <glyph glyph-name="circleddigitfour" unicode="&#x2783;" horiz-adv-x="1843" 
d="M244 801q0 166 65 317.5t174.5 261t261 174t318.5 64.5t318.5 -64.5t261 -174t174.5 -261t65 -317.5q0 -168 -65 -320t-174.5 -261.5t-261 -174.5t-318.5 -65t-318.5 65t-261 174.5t-174.5 261.5t-65 320zM313 801q0 -154 59 -294.5t159 -242.5t239 -162.5t293 -60.5
t293 60.5t239 162.5t158.5 242.5t58.5 294.5q0 206 -99.5 379.5t-272 274.5t-377.5 101q-154 0 -293 -59.5t-239 -160.5t-159 -241t-59 -294zM1159 1057q-3 0 -16 -13l-350 -376h299l71 376q2 13 -4 13zM707 594l12 74l571 618h13l-117 -618h182l-12 -74h-182l-19 -94
q-6 -36 11.5 -52t68.5 -16h68l-11 -57h-407l10 57h80q39 0 58.5 16.5t25.5 51.5l18 94h-370z" />
    <glyph glyph-name="circleddigitfive" unicode="&#x2784;" horiz-adv-x="1843" 
d="M244 801q0 166 65 317.5t174.5 261t261 174t318.5 64.5t318.5 -64.5t261 -174t174.5 -261t65 -317.5q0 -168 -65 -320t-174.5 -261.5t-261 -174.5t-318.5 -65t-318.5 65t-261 174.5t-174.5 261.5t-65 320zM313 801q0 -154 59 -294.5t159 -242.5t239 -162.5t293 -60.5
t293 60.5t239 162.5t158.5 242.5t58.5 294.5q0 206 -99.5 379.5t-272 274.5t-377.5 101q-154 0 -293 -59.5t-239 -160.5t-159 -241t-59 -294zM1016 864q-132 0 -185 -73h-34l118 452h408l20 -203l-36 -22q-8 54 -26 83.5t-57 45.5t-108 16h-88q-42 0 -61 -16.5t-31 -63.5
l-57 -211q89 56 180 56q115 0 182.5 -67t67.5 -185q0 -130 -86 -226t-232 -96q-65 0 -114 20t-77.5 56t-43.5 81t-17 99l37 23q9 -201 195 -201q101 0 158 70t57 180q0 80 -43.5 131t-126.5 51z" />
    <glyph glyph-name="circleddigitsix" unicode="&#x2785;" horiz-adv-x="1843" 
d="M244 801q0 166 65 317.5t174.5 261t261 174t318.5 64.5t318.5 -64.5t261 -174t174.5 -261t65 -317.5q0 -168 -65 -320t-174.5 -261.5t-261 -174.5t-318.5 -65t-318.5 65t-261 174.5t-174.5 261.5t-65 320zM313 801q0 -154 59 -294.5t159 -242.5t239 -162.5t293 -60.5
t293 60.5t239 162.5t158.5 242.5t58.5 294.5q0 206 -99.5 379.5t-272 274.5t-377.5 101q-154 0 -293 -59.5t-239 -160.5t-159 -241t-59 -294zM1155 1190q-94 0 -168.5 -108t-101.5 -275q82 125 217 125q103 0 163 -62.5t60 -169.5q0 -137 -97 -245.5t-233 -108.5
q-112 0 -174.5 77.5t-62.5 223.5q0 103 29 208t79.5 193t129 143.5t169.5 55.5t148 -50t57 -120q0 -41 -18.5 -62.5t-51.5 -21.5q-26 0 -44.5 16.5t-18.5 45.5q0 15 7 36t7 33q0 66 -96 66zM1075 872q-60 0 -106.5 -45.5t-69 -112t-22.5 -139.5q0 -82 31.5 -128t92.5 -46
q89 0 145 92t56 207q0 80 -32 126t-95 46z" />
    <glyph glyph-name="circleddigitseven" unicode="&#x2786;" horiz-adv-x="1843" 
d="M244 801q0 166 65 317.5t174.5 261t261 174t318.5 64.5t318.5 -64.5t261 -174t174.5 -261t65 -317.5q0 -168 -65 -320t-174.5 -261.5t-261 -174.5t-318.5 -65t-318.5 65t-261 174.5t-174.5 261.5t-65 320zM313 801q0 -154 59 -294.5t159 -242.5t239 -162.5t293 -60.5
t293 60.5t239 162.5t158.5 242.5t58.5 294.5q0 206 -99.5 379.5t-272 274.5t-377.5 101q-154 0 -293 -59.5t-239 -160.5t-159 -241t-59 -294zM1434 1239q-186 -198 -301.5 -393t-155.5 -422q-16 -70 -76 -70q-35 0 -52 18.5t-11 55.5q11 64 56 153.5t119 197t131.5 184
t137.5 178.5q5 7 2 14.5t-16 7.5h-189q-101 0 -157.5 -37.5t-90.5 -107.5l-28 22l92 203h541z" />
    <glyph glyph-name="circleddigiteight" unicode="&#x2787;" horiz-adv-x="1843" 
d="M244 801q0 166 65 317.5t174.5 261t261 174t318.5 64.5t318.5 -64.5t261 -174t174.5 -261t65 -317.5q0 -168 -65 -320t-174.5 -261.5t-261 -174.5t-318.5 -65t-318.5 65t-261 174.5t-174.5 261.5t-65 320zM313 801q0 -154 59 -294.5t159 -242.5t239 -162.5t293 -60.5
t293 60.5t239 162.5t158.5 242.5t58.5 294.5q0 206 -99.5 379.5t-272 274.5t-377.5 101q-154 0 -293 -59.5t-239 -160.5t-159 -241t-59 -294zM1298 588q0 -100 -82.5 -170t-214.5 -70q-122 0 -194 55t-72 150q0 49 19.5 89.5t58 72t78 54.5t96.5 48q-110 99 -110 209
q0 95 76 159t194 64q99 0 157 -50t58 -126q0 -87 -57.5 -141t-161.5 -101q36 -29 58.5 -50t47.5 -52t37 -66t12 -75zM979 1055q0 -55 32.5 -99.5t90.5 -91.5q164 70 164 197q0 58 -38.5 94.5t-103.5 36.5q-66 0 -105.5 -39t-39.5 -98zM840 571q0 -80 50.5 -124t129.5 -44
q76 0 125 41.5t49 110.5q0 19 -4.5 37t-10 32t-18.5 31.5t-20.5 27.5t-27.5 28t-28 25t-32.5 27t-30.5 25q-37 -18 -57.5 -29t-48 -31t-41.5 -40t-24.5 -50t-10.5 -67z" />
    <glyph glyph-name="circleddigitnine" unicode="&#x2788;" horiz-adv-x="1843" 
d="M244 801q0 166 65 317.5t174.5 261t261 174t318.5 64.5t318.5 -64.5t261 -174t174.5 -261t65 -317.5q0 -168 -65 -320t-174.5 -261.5t-261 -174.5t-318.5 -65t-318.5 65t-261 174.5t-174.5 261.5t-65 320zM313 801q0 -154 59 -294.5t159 -242.5t239 -162.5t293 -60.5
t293 60.5t239 162.5t158.5 242.5t58.5 294.5q0 206 -99.5 379.5t-272 274.5t-377.5 101q-154 0 -293 -59.5t-239 -160.5t-159 -241t-59 -294zM950 426q116 0 191 101t96 264q-82 -127 -215 -127q-103 0 -162 61t-59 168q0 138 95 247t232 109q111 0 173.5 -78.5t62.5 -224.5
q0 -118 -27.5 -225.5t-78.5 -190.5t-129 -132.5t-173 -49.5q-108 0 -162 62.5t-57 162.5l37 23q6 -81 50 -125.5t126 -44.5zM1049 719q88 0 142 92t54 207q0 81 -31.5 127.5t-91.5 46.5q-88 0 -142 -92t-54 -207q0 -81 31 -127.5t92 -46.5z" />
    <glyph glyph-name="uni27F7" unicode="&#x27f7;" horiz-adv-x="1802" 
d="M1829 614l-451 -450l-45 45l379 375h-1405l379 -375l-45 -45l-451 450l451 451l45 -45l-379 -375h1405l-379 375l45 45z" />
    <glyph glyph-name="uni2B70" unicode="&#x2b70;" horiz-adv-x="1314" 
d="M311 164v901h66v-901h-66zM991 209l-45 -45l-450 450l450 451l45 -45l-379 -375h723v-61h-723z" />
    <glyph glyph-name="uni2B71" unicode="&#x2b71;" horiz-adv-x="1339" 
d="M344 1024h901v-61h-901v61zM389 344l-45 45l451 451l450 -451l-45 -45l-373 377v-721h-65v721z" />
    <glyph glyph-name="uni2B72" unicode="&#x2b72;" horiz-adv-x="1314" 
d="M1221 1065v-901h-62v901h62zM541 1020l45 45l450 -451l-450 -450l-45 45l379 375h-723v61h723z" />
    <glyph glyph-name="uni2B73" unicode="&#x2b73;" horiz-adv-x="1341" 
d="M1133 680l45 -45l-451 -451l-451 451l46 45l372 -377v721h66v-721zM1178 0h-902v61h902v-61z" />
    <glyph glyph-name="uni300C" unicode="&#x300c;" horiz-adv-x="831" 
d="M461 0v1679h512v-61h-447v-1618h-65z" />
    <glyph glyph-name="uni300D" unicode="&#x300d;" horiz-adv-x="829" 
d="M651 1597v-1679h-512v62h447v1617h65z" />
    <glyph glyph-name="uni3020" unicode="&#x3020;" horiz-adv-x="1921" 
d="M479 1294v62h1233v-62h-1233zM1063 602v397h-584v62h1233v-62h-584v-397h-65zM651 629q-51 0 -87 34t-36 91q0 12 2 18l-57 23l27 59l53 -25q1 1 3 3.5t3 3.5l-33 49l54 35l30 -52q4 2 11 2v60h61v-60q6 0 10 -2l31 52l53 -35l-33 -47l9 -9l51 25l26 -59l-55 -23
q2 -4 2 -18q0 -57 -36 -91t-89 -34zM1540 629q-53 0 -89 34t-36 91q0 14 2 18l-55 23l27 59l51 -25l3 4q3 4 5 5l-33 47l53 35l31 -52q4 2 10 2v60h62v-60l10 -2l31 52l53 -35l-33 -49q1 -1 3 -3.5t3 -3.5l54 25l26 -59l-57 -23q2 -6 2 -18q0 -57 -36 -91t-87 -34zM1096 242
q-121 0 -220 14t-191.5 48t-163.5 96.5t-115 152.5q-70 0 -117 64t-47 159q0 63 34 102.5t89 39.5q50 0 81 -35l-40 -41q-18 18 -46 18q-26 0 -39.5 -23.5t-13.5 -60.5q0 -69 37.5 -118.5t101.5 -49.5q31 -71 81 -124.5t109.5 -87.5t136 -55t154 -29.5t169.5 -8.5
q116 0 210.5 14t182 47t152.5 94.5t104 149.5q64 0 101.5 49.5t37.5 118.5q0 37 -13.5 60.5t-39.5 23.5q-27 0 -45 -18l-41 41q31 35 82 35q55 0 89 -39.5t34 -102.5q0 -95 -47 -159t-117 -64q-44 -90 -115 -152.5t-163.5 -96.5t-191.5 -48t-220 -14zM651 686q29 0 45.5 19
t16.5 49q0 27 -17 45t-45 18q-27 0 -44 -18t-17 -45q0 -30 17 -49t44 -19zM1540 686q27 0 44.5 19t17.5 49q0 27 -17.5 45t-44.5 18q-28 0 -44.5 -18t-16.5 -45q0 -30 16 -49t45 -19zM1096 344q-164 0 -262.5 60.5t-143.5 183.5h66q42 -104 119.5 -145.5t220.5 -41.5
t220.5 41.5t119.5 145.5h65q-45 -123 -143 -183.5t-262 -60.5z" />
    <glyph glyph-name="uni3036" unicode="&#x3036;" horiz-adv-x="1867" 
d="M256 801q0 166 65 317.5t175 261t261.5 174t317.5 64.5t317.5 -64.5t261.5 -174t175 -261t65 -317.5q0 -168 -65 -320t-175 -261.5t-261.5 -174.5t-317.5 -65t-317.5 65t-261.5 174.5t-175 261.5t-65 320zM322 801q0 -156 59.5 -296.5t160 -242t240 -161.5t293.5 -60
t293.5 60t240.5 161.5t160.5 242.5t59.5 296t-59.5 295.5t-160.5 241t-240.5 159.5t-293.5 59t-293.5 -59t-240 -159.5t-160 -241t-59.5 -295.5zM1507 1196h-864v61h864v-61zM1108 217h-66v684h-399v62h864v-62h-399v-684z" />
    <glyph glyph-name="commaaccent" unicode="&#xf6c3;" 
d="M571 -143l-323 -328l-47 49l323 328z" />
    <glyph glyph-name="f_f" unicode="&#xfb00;" horiz-adv-x="1173" 
d="M217 922l21 102h233l29 143q38 198 150 324.5t249 126.5q74 0 112 -33t38 -82q0 -37 -21 -63.5t-61 -26.5q-33 0 -57.5 14t-37.5 31t-34.5 31t-49.5 14q-142 0 -180 -323l-18 -156h414l28 143q38 198 150.5 324.5t249.5 126.5q74 0 111.5 -33t37.5 -82q0 -37 -21 -63.5
t-61 -26.5q-33 0 -57.5 14t-37 31t-34 31t-49.5 14q-142 0 -180 -323l-19 -156h283l-21 -102h-278l-158 -656q-86 -357 -232.5 -547t-336.5 -190q-46 0 -76.5 21t-30.5 61q0 39 27.5 68.5t71.5 29.5q23 0 62.5 -8t64.5 -8q60 0 111.5 32t88.5 83.5t68.5 128t52.5 155
t39 174.5l127 656h-412l-157 -656q-86 -357 -233 -547t-337 -190q-46 0 -76 20.5t-30 61.5q0 39 27 68.5t71 29.5q23 0 62.5 -8t64.5 -8q60 0 111.5 32t88.5 83.5t68.5 128t53 155t39.5 174.5l127 656h-236z" />
    <glyph glyph-name="fi" unicode="&#xfb01;" horiz-adv-x="1230" 
d="M813 315l180 607h-420l-157 -656q-86 -357 -233 -547t-337 -190q-46 0 -76 20.5t-30 61.5q0 39 27 68.5t71 29.5q23 0 62.5 -8t64.5 -8q60 0 111.5 32t88.5 83.5t68.5 128t53 155t39.5 174.5l127 656h-236l21 102h233l29 143q38 198 150 324.5t249 126.5q74 0 112 -33
t38 -82q0 -37 -21 -63.5t-61 -26.5q-33 0 -57.5 14t-37.5 31t-34.5 31t-49.5 14q-142 0 -180 -323l-18 -156h567l8 -8q-99 -249 -241 -567q-60 -133 -60 -187q0 -47 30.5 -87t86.5 -40q86 0 233 205l41 -21l-135 -184q-49 -65 -80.5 -96.5t-62.5 -46.5h-41
q-61 0 -105.5 50.5t-44.5 121.5q0 62 27 151z" />
    <glyph glyph-name="fl" unicode="&#xfb02;" horiz-adv-x="1212" 
d="M217 922l21 102h233l29 143q29 149 112.5 253t194.5 151t244 47q101 0 215 -43l37 22l8 -8q-71 -233 -262 -745q-138 -370 -159 -445q-22 -78 -22 -137q0 -47 29.5 -87t85.5 -40q87 0 234 205l40 -21l-135 -184q-48 -64 -79 -96t-60 -47h-41q-66 0 -110 48.5t-44 119.5
q0 55 27 155l297 1098q-26 49 -75.5 76t-112.5 27q-141 0 -219.5 -80t-96.5 -256l-16 -156h280l-20 -102h-279l-157 -656q-86 -359 -232.5 -548t-337.5 -189q-46 0 -76 20.5t-30 61.5q0 39 27 68.5t71 29.5q23 0 62.5 -8t64.5 -8q75 0 135 46t102.5 130.5t71.5 179.5t52 217
l127 656h-236z" />
    <glyph glyph-name="f_f_i" unicode="&#xfb03;" horiz-adv-x="1763" 
d="M217 922l21 102h233l29 143q38 198 150 324.5t249 126.5q74 0 112 -33t38 -82q0 -37 -21 -63.5t-61 -26.5q-33 0 -57.5 14t-37.5 31t-34.5 31t-49.5 14q-142 0 -180 -323l-18 -156h414l28 143q38 198 150.5 324.5t249.5 126.5q74 0 111.5 -33t37.5 -82q0 -37 -21 -63.5
t-61 -26.5q-33 0 -57.5 14t-37 31t-34 31t-49.5 14q-142 0 -180 -323l-19 -156h568l8 -8q-91 -229 -242 -567q-59 -131 -59 -187q0 -47 30 -87t86 -40q87 0 234 205l41 -21l-135 -184q-86 -115 -144 -143h-41q-61 0 -105 50.5t-44 121.5q0 62 27 151l180 607h-420l-158 -656
q-86 -357 -232.5 -547t-336.5 -190q-46 0 -76.5 21t-30.5 61q0 39 27.5 68.5t71.5 29.5q23 0 62.5 -8t64.5 -8q60 0 111.5 32t88.5 83.5t68.5 128t52.5 155t39 174.5l127 656h-412l-157 -656q-86 -357 -233 -547t-337 -190q-46 0 -76 20.5t-30 61.5q0 39 27 68.5t71 29.5
q23 0 62.5 -8t64.5 -8q60 0 111.5 32t88.5 83.5t68.5 128t53 155t39.5 174.5l127 656h-236z" />
    <glyph glyph-name="f_f_l" unicode="&#xfb04;" horiz-adv-x="1744" 
d="M217 922l21 102h233l29 143q38 198 150 324.5t249 126.5q74 0 112 -33t38 -82q0 -37 -21 -63.5t-61 -26.5q-33 0 -57.5 14t-37.5 31t-34.5 31t-49.5 14q-142 0 -180 -323l-18 -156h414l28 143q29 149 112.5 253t194.5 151t244 47q101 0 215 -43l37 22l8 -8
q-71 -233 -262 -745q-119 -321 -149.5 -416t-30.5 -166q0 -47 29.5 -87t85.5 -40q86 0 233 205l41 -21l-135 -184q-48 -64 -79 -96t-60 -47h-41q-66 0 -110 48.5t-44 119.5q0 55 27 155l297 1098q-26 49 -76 76t-113 27q-141 0 -219 -80t-96 -256l-17 -156h281l-21 -102
h-278l-158 -656q-86 -359 -232 -548t-337 -189q-46 0 -76.5 21t-30.5 61q0 39 27.5 68.5t71.5 29.5q23 0 62.5 -8t64.5 -8q60 0 111.5 31.5t88.5 83t68.5 128t52.5 155t39 175.5l127 656h-412l-157 -656q-86 -357 -233 -547t-337 -190q-46 0 -76 20.5t-30 61.5q0 39 27 68.5
t71 29.5q23 0 62.5 -8t64.5 -8q60 0 111.5 32t88.5 83.5t68.5 128t53 155t39.5 174.5l127 656h-236z" />
    </font>
</defs>
</svg>
