<svg width="324" height="4" viewBox="0 0 324 4" fill="none" xmlns="http://www.w3.org/2000/svg">
<path d="M0.0819615 1.82954C-0.0970474 1.91192 0.00824678 2.08582 0.471564 2.0492L0.808594 1.74714L0.0819615 1.82954Z" fill="#8ECF84"/>
<path d="M3.24131 2.42432C3.78887 2.27787 4.43125 2.02154 4.07323 1.74695C3.52566 2.03069 3.38881 1.9117 2.79913 2.25951C2.3358 2.25951 1.9777 2.15885 2.06194 2.04901C1.89346 2.13139 1.3249 1.98496 1.07218 2.17717C1.78523 2.39057 2.55987 2.39057 3.27293 2.17717C3.44141 2.29616 3.2729 2.3694 3.24131 2.42432Z" fill="#8ECF84"/>
<path d="M77.6152 3.06483C77.4047 3.06483 77.31 3.06484 77.2994 3.12891C77.4995 3.1106 77.6679 3.09229 77.6152 3.06483Z" fill="#8ECF84"/>
<path d="M82.4697 3.40354L82.1855 3.40354C82.2788 3.42408 82.3764 3.42408 82.4697 3.40354Z" fill="#8ECF84"/>
<path d="M49.1633 2.90014L49.9215 2.9917C49.9741 2.89102 49.5318 2.91844 49.1633 2.90014Z" fill="#8ECF84"/>
<path d="M9.56934 1.69201C9.42945 1.70662 9.29176 1.73426 9.15865 1.77441C9.28501 1.77441 9.41137 1.77441 9.54826 1.77441C9.54437 1.74568 9.55182 1.71662 9.56934 1.69201Z" fill="#8ECF84"/>
<path d="M36.6221 3.14761L36.3903 3.14761C36.319 3.17649 36.2547 3.21687 36.2008 3.2666L36.6221 3.14761Z" fill="#8ECF84"/>
<path d="M26.9967 3.19336C27.2073 3.19336 27.281 2.94622 27.3652 2.83638C27.2345 2.9393 27.0675 3.00061 26.8914 3.01029C26.9018 3.07988 26.9389 3.1444 26.9967 3.19336Z" fill="#8ECF84"/>
<path d="M43.5079 3.20244C43.5273 3.23838 43.5564 3.26975 43.5928 3.29395C43.5928 3.29395 43.5609 3.2299 43.5079 3.20244Z" fill="#8ECF84"/>
<path d="M312.751 1.27053C312.751 1.27053 312.751 1.27052 312.751 1.31629C312.751 1.36205 312.825 1.27053 312.751 1.27053Z" fill="#8ECF84"/>
<path d="M323.914 2.54303L323.755 2.54303C323.751 2.59178 323.751 2.6407 323.755 2.68945L323.914 2.54303Z" fill="#8ECF84"/>
<path d="M91.3672 3.73285C91.0912 3.75116 91.2186 3.75116 91.3672 3.73285V3.73285Z" fill="#8ECF84"/>
<path d="M172.986 3.54102C172.06 3.31219 174.492 3.24814 173.102 2.99186C173.228 3.09254 171.828 3.38542 172.986 3.54102Z" fill="#8ECF84"/>
<path d="M111.849 3.57715C111.788 3.52619 111.716 3.48586 111.638 3.45821C111.638 3.45821 111.701 3.52223 111.849 3.57715Z" fill="#8ECF84"/>
<path d="M119.778 3.21143C119.959 3.24031 120.144 3.24031 120.325 3.21143L120.241 3.21143C120.09 3.25114 119.929 3.25114 119.778 3.21143Z" fill="#8ECF84"/>
<path d="M128.022 3.21094L127.865 3.15602L127.612 3.15602L128.022 3.21094Z" fill="#8ECF84"/>
<path d="M287.69 1.38983C287.831 1.44593 287.959 1.52342 288.069 1.61865C287.942 1.43559 289.153 1.37152 287.69 1.38983Z" fill="#8ECF84"/>
<path d="M9.56952 1.82959C9.60045 1.79692 9.63898 1.77024 9.68252 1.75132C9.72606 1.7324 9.77363 1.72166 9.82227 1.71976L9.54843 1.71976C9.54843 1.71976 9.51686 1.82959 9.56952 1.82959Z" fill="#8ECF84"/>
<path d="M120.114 1.17936L121.42 1.17936C121.051 1.19767 120.578 1.17936 120.114 1.17936Z" fill="#8ECF84"/>
<path d="M228.522 1.42676L228.816 1.42676C228.719 1.40655 228.618 1.40655 228.522 1.42676Z" fill="#8ECF84"/>
<path d="M125.306 1.17923C125.542 1.26778 125.789 1.32933 126.043 1.3623C126.1 1.34544 126.153 1.3207 126.201 1.28907L125.306 1.17923Z" fill="#8ECF84"/>
<path d="M296.704 1.01475C295.451 1.01475 296.114 1.34426 295.851 1.53647C294.366 1.63715 295.167 1.28932 294.661 1.11542C293.724 1.20695 293.008 1.51819 292.323 1.49988C292.323 1.44496 292.134 1.42662 292.323 1.3534C291.334 1.62799 289.396 1.35341 288.259 1.71038C288.2 1.69239 288.147 1.6644 288.101 1.62803C288.176 1.68285 288.232 1.75445 288.264 1.83513C288.295 1.9158 288.301 2.00246 288.28 2.08568C287.722 2.08568 287.227 2.30535 287.027 2.08568C287.221 2.09158 287.412 2.0363 287.564 1.93004L286.974 2.0216C286.448 1.7104 287.775 1.91177 287.775 1.68295C286.67 1.85918 285.549 1.95105 284.426 1.95753C284.247 1.64633 286.532 1.8568 285.3 1.57306L286.658 1.69205C285.605 1.20695 287.49 1.69208 286.532 1.20698C284.752 1.11545 284.542 1.36258 282.762 1.27106C282.352 1.44496 282.889 1.52731 282.488 1.70122C279.961 2.01242 280.498 0.92325 278.634 1.33513C278.368 1.54199 278.046 1.68661 277.698 1.75546C277.35 1.82431 276.987 1.81511 276.644 1.7287L277.097 1.37172C275.37 1.37172 276.107 1.87512 274.296 1.6463C274.622 1.49985 275.654 1.52732 275.402 1.48155C274.222 1.20697 274.57 1.68295 273.664 1.68295L273.475 1.37172C271.642 1.37172 269.61 1.6463 267.578 1.70122C267.694 1.60969 268.041 1.50901 267.578 1.41748C264.918 1.51468 262.254 1.44126 259.607 1.19781L258.659 1.46323C258.438 1.46323 258.259 1.34424 258.49 1.28932C257.532 1.18864 258.49 1.46327 257.974 1.56395C257.458 1.66464 257.248 1.40835 257.606 1.33513C255.407 1.65467 253.17 1.72234 250.951 1.53647L251.298 1.45412C249.898 1.34429 249.719 2.00326 248.424 1.75613L248.676 1.75613C245.644 1.63714 242.285 1.88427 239.968 1.47239C239.526 1.86597 236.967 1.30767 236.809 1.84769C235.606 1.56672 234.376 1.38285 233.134 1.29848C232.481 1.29848 232.165 1.63713 231.354 1.69205L231.354 1.40831L230.301 1.71037L229.712 1.37172L228.954 1.44496C229.259 1.44496 229.596 1.57307 229.554 1.6463C228.568 1.75281 227.566 1.63617 226.647 1.30764L223.857 1.54563C223.91 1.43579 224.383 1.39919 224.752 1.32597C223.257 1.60971 224.478 1.02392 223.109 1.32596C223.299 1.39004 223.015 1.49072 222.983 1.55479C221.867 1.38972 220.73 1.35587 219.603 1.45412L219.824 1.25273C217.718 1.25273 215.454 1.35339 213.137 1.34423C213.969 1.43576 213.78 1.77442 213.137 1.80188L212.864 1.50903C212.421 1.69209 213.58 1.61886 212.674 1.84769C211.8 1.84769 212.084 1.50899 212.59 1.40831L211.537 1.51814C211.474 1.42661 211.726 1.38087 211.789 1.26189C211.358 1.44495 209.968 0.968992 209.346 1.26189L209.283 1.17038C206.956 1.17038 205.903 1.27101 204.018 1.28932C204.018 1.5456 203.239 1.48153 202.681 1.69205C201.291 1.60967 199.743 1.40833 198.069 1.43579C196.889 1.55478 197.721 1.64628 197.195 1.80188C197.111 1.5639 195.436 1.59138 196.3 1.41747C194.289 1.41747 193.73 1.4724 191.182 1.65545C191.466 1.75614 191.772 1.79274 191.614 1.87512C191.15 1.87512 190.561 1.77445 190.624 1.66462L190.75 1.66462C187.897 2.02158 184.159 0.987278 181.884 1.47238L182.01 1.47238L179.652 1.72869C178.599 1.72869 180.304 1.55475 179.494 1.40831C176.956 1.80188 175.482 1.35342 173.386 1.6097C171.754 0.923228 167.626 1.66463 165.436 1.22529L165.562 1.38088C164.994 1.54563 164.878 1.28933 164.457 1.25272C164.52 1.38086 165.078 1.39918 164.72 1.49071C159.929 1.68292 154.832 1.25274 149.915 1.1063C148.114 1.06053 148.862 1.94836 146.629 1.55478L147.272 1.25272C143.649 1.61884 139.901 1.25273 136.299 1.55478C136.52 1.48156 136.52 1.39003 136.868 1.39003C135.938 1.21611 134.97 1.27644 134.077 1.56394C133.53 1.56394 133.951 1.39916 133.614 1.30763C132.856 1.17949 131.729 1.58223 131.329 1.37171C131.255 1.37171 131.54 1.29851 131.677 1.2802C131.182 1.39004 129.392 1.2802 129.855 1.50903C128.528 1.38089 127.307 1.61886 126.243 1.50903C125.559 1.79277 123.969 1.37171 123.748 1.77444C123.842 1.35341 121.41 1.43581 120.588 1.62802C120.873 1.50903 119.851 1.49986 120.188 1.32596C119.22 1.32596 118.346 1.40834 118.514 1.61886C116.735 1.1246 114.944 2.02159 113.954 1.39003C111.09 1.6097 108.447 1.75616 105.878 1.85684C105.973 1.44496 108.721 1.85682 108.616 1.38087C106.525 1.65747 104.413 1.80122 102.298 1.81103C101.676 1.74696 102.656 1.628 102.866 1.55478C100.434 1.72868 98.1594 1.55474 95.9902 1.74695C95.9902 1.74695 96.2324 1.66458 96.4535 1.63712C96.0218 1.63712 95.4005 1.57306 95.5058 1.75611L95.9165 1.75611C96.6009 2.0307 94.2212 2.32362 94.1475 2.47007C94.8741 1.93005 92.0414 2.33276 93.1576 1.65545C92.8733 1.65545 92.5259 1.77445 92.5891 1.90259C92.1678 1.90259 92.0414 1.79273 92.4626 1.64628C90.9357 1.75612 91.4727 1.94835 90.0933 1.94835C90.0933 1.85682 90.3776 1.8202 90.5145 1.71036C89.6263 1.92236 88.6955 1.96297 87.7873 1.82935C87.8505 1.77444 87.7136 1.7012 88.0716 1.7012C86.0498 1.7012 84.6388 2.17717 82.4275 2.00326C83.0804 1.60968 81.6798 1.8751 81.564 1.52729L80.3741 1.63712L80.848 1.80187C79.9039 1.89175 78.9545 1.93455 78.0048 1.93002L78.7735 1.79276L76.8254 1.85684L77.9312 1.98494C76.8781 2.15884 78.0365 2.41512 76.657 2.32359C76.1255 2.28549 75.5978 2.21516 75.0775 2.11309C74.4916 2.26872 73.8744 2.31552 73.2663 2.25041C73.0662 2.14057 73.4242 1.87509 73.2663 1.80187C72.7608 2.08561 70.8339 1.88428 70.1916 2.18633C70.4022 2.11311 70.4126 1.9392 70.3494 1.90259L69.9178 2.13141C69.4334 2.05819 69.3701 2.02155 69.4438 1.87511C68.0012 1.87511 69.9072 2.31446 68.1908 2.12225C68.3172 2.12225 68.254 2.06731 68.5383 2.03985C66.8113 1.93917 65.2003 2.1863 63.6208 2.03985C63.1469 1.70119 65.0002 1.9575 64.4631 1.66461C62.1781 1.72868 59.7246 2.07647 57.5133 1.9941L57.924 2.03985C57.6186 2.52496 56.2813 1.79272 55.1651 2.03985C55.4389 2.03985 55.5232 1.77443 55.4495 1.82935C53.6439 1.82072 51.8396 1.91243 50.0475 2.10393L50.3319 1.97577C49.4368 1.86594 47.9836 1.91175 47.0149 1.85684C46.7306 1.97582 46.183 1.95752 46.5095 2.14057C43.54 1.42664 40.8337 2.52496 38.2012 1.93002C38.5171 1.93002 38.9488 1.82019 38.6961 1.82019L36.4532 1.93918C36.6322 2.1497 36.748 2.05817 37.2219 2.22292C36.7487 2.38228 36.2444 2.46 35.7371 2.45174C36.7901 2.31445 35.7372 2.11308 35.2949 1.99409C35.3686 2.05817 35.2212 2.13142 35.2949 2.19549C34.1261 1.82022 35.1053 2.61653 33.4942 2.3694L33.5785 2.25951C32.9853 2.36198 32.3826 2.41717 31.7779 2.42431C31.5146 2.18634 32.4201 2.31445 32.4622 2.11309C31.5567 2.11309 30.6721 2.57988 29.8403 2.33275C30.2299 2.25953 30.788 2.25956 31.1776 2.19549C30.6471 2.00681 30.0761 1.91938 29.5034 1.93918L29.577 1.93918L28.0291 1.81102L28.4293 1.89343C27.292 2.52498 26.1126 2.00328 24.5752 2.42431C26.0705 2.03073 24.8175 2.19544 24.9333 1.92085C24.5437 1.83848 23.954 1.75614 24.1225 1.67376C23.3959 1.90259 22.9116 1.49984 21.8901 1.82935C21.8375 1.73782 21.1108 1.82934 21.2793 1.59136C20.3316 1.66459 21.5005 1.74695 21.4162 1.86594C19.9736 2.16799 18.0045 1.49071 15.9195 1.91175C14.1189 2.08565 13.8135 2.38769 12.1182 2.53414C11.5496 2.38769 12.5815 2.20459 12.5815 2.20459C11.7689 2.09009 10.9405 2.09009 10.128 2.20459C10.2965 2.12222 10.128 2.05818 9.85422 1.9575C9.16974 1.9575 9.40137 2.28697 8.49579 2.14968C8.69568 1.99385 8.92801 1.87273 9.18027 1.79275C8.36945 1.87513 7.56921 2.03987 6.72681 2.12225C6.50568 1.96665 7.23227 1.88427 7.5271 1.78359C6.59894 1.77972 5.67664 1.9128 4.79971 2.17716L5.39999 2.25951C5.05252 2.25951 5.22095 2.04902 5.47366 2.00325C6.28449 1.81104 6.64252 2.08563 6.68463 2.17716L6.09503 2.23208C6.70578 2.76295 8.49579 2.1497 9.69623 2.23208L9.1908 2.60732L10.4229 2.29616C10.6861 2.39684 10.8651 2.60732 10.2754 2.66224C11.1389 2.85445 11.0441 2.52496 11.7812 2.73548C11.8654 2.73548 11.7812 2.7904 11.7812 2.79956L12.6236 2.68973C12.4551 2.7721 12.7605 2.95514 12.2445 2.90023C13.7609 3.1199 14.6875 2.61648 15.2561 2.90023L15.1298 2.90023C17.2358 2.77208 15.3298 2.62566 16.9093 2.29616L17.9623 2.98263L18.173 2.70805C18.3836 2.70805 18.8154 2.70802 18.7416 2.84531C19.5419 2.6531 18.6047 2.72636 19.068 2.5433C20.121 2.79959 21.9427 2.4243 22.2271 2.8728C22.6061 2.66228 21.2372 2.70802 22.3429 2.56157C22.6588 3.03752 23.6275 2.47922 24.5858 2.69889C24.2909 2.94602 23.3853 2.81787 24.3436 3.03754C24.9122 2.61651 26.1969 3.12907 26.9972 3.03754C26.9972 2.70804 28.7451 2.90023 30.093 2.7904C30.0087 2.90023 32.6308 2.97347 33.8839 3.09246L33.8839 3.14737C34.1261 2.80872 35.4213 2.87278 36.369 2.79956C36.369 3.00092 36.1583 3.08328 35.6529 3.1748L36.5374 3.1748C36.8655 3.03728 37.2261 2.96835 37.5904 2.97347L37.3693 3.22061C38.6578 3.08085 39.9579 3.03796 41.2549 3.09246C41.3497 2.85448 40.0544 2.4426 41.655 2.287C41.7182 2.40598 41.7709 2.62565 41.3602 2.68057C41.6066 2.6205 41.8639 2.60186 42.1184 2.62565L41.4866 2.84531C42.1711 2.93684 41.8446 2.66226 42.3922 2.68057C42.3922 2.86363 42.8028 2.8087 42.7291 2.95514C42.6554 3.10159 42.2448 2.88192 42.0342 2.95514C42.5894 2.96089 43.1387 3.05396 43.6557 3.22978C43.6557 3.12909 43.6558 2.98261 44.1086 2.96431C45.2879 2.96431 44.5192 3.17485 45.1616 3.27553C45.4459 3.14739 46.2146 3.27549 46.2146 3.01006C46.3162 3.00756 46.4173 3.02335 46.5115 3.05643C46.6057 3.0895 46.6911 3.13917 46.7622 3.20229C47.3729 3.0833 49.6053 3.20231 48.8682 2.88196L48.7102 2.88196L48.8049 2.88196C50.8057 2.61653 53.017 3.03756 54.944 2.88196L54.944 2.97347C56.1071 2.94617 57.2672 2.86057 58.4189 2.71716C58.7769 2.71716 59.2508 2.88196 59.1034 2.99179C59.8661 2.87363 60.6467 2.87363 61.4094 2.99179C60.5038 3.14739 61.7253 3.12908 60.4827 3.10162C61.3749 3.26619 62.2969 3.26619 63.1891 3.10162C62.7573 3.33045 64.0736 3.38536 64.6317 3.32129L63.7997 3.15654C64.3784 3.12905 64.9585 3.12905 65.5372 3.15654L65.2423 3.46771C67.6432 3.83383 69.5807 2.83616 71.413 3.46771C72.0448 3.24804 70.1073 3.31211 70.6759 3.06498C71.5543 3.17225 72.4232 3.33129 73.2768 3.54095C74.7931 3.71485 74.6983 3.10162 76.2778 3.21146C76.0778 3.10162 75.8882 2.81784 77.0676 2.71716C78.1838 2.71716 78.4365 3.16568 77.731 3.25721C77.4678 3.25721 77.3414 3.2572 77.3519 3.19313C76.9939 3.19313 76.5201 3.28469 76.9623 3.39453L77.1098 3.2938C77.6573 3.40364 79.2158 3.38538 78.8156 3.56843C79.658 3.46775 79.1737 3.38537 78.5629 3.33045C79.9845 3.48605 80.7742 3.33044 82.2379 3.44028C82.0063 3.38536 81.7957 3.25721 82.0274 3.25721C84.1334 3.3945 82.9646 3.04672 84.4177 3.00096C85.2496 3.16571 84.1228 3.3945 85.5865 3.25721C86.4816 3.36705 85.776 3.55008 85.4286 3.63246C86.514 3.54722 87.6081 3.60898 88.6718 3.81553L87.9769 3.89793C88.326 3.85916 88.6781 3.84387 89.0299 3.85217L88.6297 3.63246C89.0509 3.63246 89.3984 3.63247 89.3879 3.76061C89.8091 3.62332 89.0614 3.40366 89.9038 3.2023C90.4514 3.31213 91.5781 3.08331 91.7677 3.3762C90.0407 3.27552 91.9571 3.66909 90.4935 3.71486C90.8431 3.67723 91.1968 3.67723 91.5465 3.71486C91.6096 3.71486 91.4834 3.77895 91.3781 3.79726C93.0313 4.05354 92.1362 3.46772 93.8526 3.47687C93.6315 3.63247 94.2422 3.77891 94.5266 3.75145C93.8316 3.75145 94.2 3.47686 94.8318 3.34872C95.4226 3.39304 96.0177 3.36845 96.601 3.27553L95.9375 3.21146C96.1692 3.0467 96.7167 3.07414 97.4854 3.01923C97.5486 3.14737 96.7905 3.11079 97.0538 3.1657C97.9067 2.88196 98.9808 3.45859 100.213 3.26637C100.76 3.37621 100.213 3.5684 100.75 3.64162C102.077 3.4311 102.182 3.87044 103.582 3.69654C103.182 3.47686 103.109 3.53181 104.088 3.32129L101.792 3.46771L103.266 3.15654C102.571 3.15654 101.803 3.29382 101.392 3.25721C102.098 3.07415 102.024 3.12905 101.687 2.94599C102.635 3.27549 103.572 2.75378 104.667 2.94599L104.667 3.48604C106.31 3.72401 107.594 3.20232 109.732 3.33961L109.047 3.24805C109.332 3.02838 110.364 3.24805 111.059 3.12906C110.996 3.31212 111.427 3.3762 111.722 3.48604C111.722 3.35789 113.291 3.48603 113.491 3.13822L114.439 3.37621C116.176 3.47689 116.419 2.86365 118.072 2.92772C117.577 3.11993 118.335 3.24807 117.219 3.38537C117.777 3.38537 118.272 3.38534 118.272 3.30297C118.598 3.4128 119.809 3.05588 120.315 3.22978C120.581 3.04804 120.914 2.95689 121.252 2.97347C121.315 2.97347 121.252 3.06498 121.252 3.06498C121.252 3.06498 122.221 2.94602 121.684 2.74465C123.389 3.30298 126.454 2.69887 127.938 3.18397C129.149 3.1199 130.613 3.06503 131.708 3.05588C131.645 3.11079 131.708 3.14736 131.498 3.1199C133.014 3.2938 132.435 2.60735 134.162 2.79041C135.036 3.0833 133.246 2.95515 133.793 3.06498C134.035 3.65992 135.899 2.98264 137.036 3.33045L136.752 3.33045C137.637 3.53182 138.921 3.10162 140.364 3.14738C140.364 3.14738 140.301 3.14741 140.364 3.22979C141.745 2.94014 143.156 2.77752 144.576 2.74465C144.144 2.98263 143.944 2.87281 144.207 3.10163C144.839 3.10163 144.028 2.72632 145.26 2.66225C145.661 2.79039 146.566 2.90026 146.682 3.14738L145.503 3.14738C146.103 3.46774 147.03 3.14738 147.609 3.14738L147.524 3.2847C149.336 3.2847 149.357 2.88194 151.294 2.9094L151.094 2.79957C152.147 2.4426 151.979 3.00093 153.042 2.73549L153.358 3.09247C154.064 3.01009 155.812 2.74465 157.065 2.68058C156.054 2.93557 155.023 3.12223 153.979 3.23889C154.891 3.28068 155.805 3.21294 156.696 3.03755C156.402 3.10838 156.094 3.13012 155.79 3.10163C156.868 2.78756 158.003 2.64795 159.139 2.68974C158.897 3.38536 162.74 2.86362 163.741 3.4128C166.184 3.14737 168.585 3.52264 171.428 3.47688C170.375 2.93686 172.26 3.47688 172.091 2.90024C172.411 2.84959 172.74 2.84959 173.06 2.90024L175.071 3.23889C175.545 3.40365 174.439 3.3579 174.502 3.48604C175.956 3.53181 175.113 3.724 176.071 3.87045C175.871 3.66909 176.577 3.58673 177.409 3.65995L176.24 3.40364C178.272 3.11075 177.988 3.87044 180.041 3.57755L179.388 3.75146C180.441 3.65078 183.263 3.75148 184.285 3.31213C184.474 3.37621 184.717 3.52268 184.285 3.56844C186.791 3.63251 189.866 3.09246 191.814 3.36705L191.624 3.50437C192.088 3.50437 192.435 3.24808 193.025 3.38537C193.025 3.44029 192.835 3.52264 193.025 3.5318C193.632 3.39151 194.261 3.33591 194.889 3.36705L194.362 3.52264C196.805 3.69654 198.111 3.14741 200.164 3.05588C200.164 3.45861 202.081 3.58672 203.049 3.65079L203.049 3.70571C205.55 3.65595 208.045 3.49406 210.526 3.22063C212.169 3.65082 216.075 3.40365 218.708 3.64163C218.308 3.56841 218.771 3.33043 219.245 3.29381C219.719 3.2572 220.951 3.01011 220.845 3.38538L220.624 3.38538C221.098 3.74234 222.362 3.6508 223.351 3.65995L223.52 3.17482C226.11 3.8796 230.312 2.91857 231.723 3.55012C232.344 3.42198 233.123 3.43112 233.745 3.30298L233.745 3.56845C235.472 3.63252 236.335 3.66913 238.483 3.56845L238.041 3.75146C239.252 3.75146 239.568 3.00096 240.684 2.99181L241.021 3.37622C243.127 3.37622 245.233 3.70572 247.339 3.37622C247.339 3.43114 247.244 3.54098 246.907 3.55929C247.897 3.55929 250.74 3.82469 250.382 3.29382C250.382 3.64163 252.562 3.29381 253.699 3.17482L253.52 3.43113C254.244 3.10859 255.044 2.93629 255.858 2.92773C256.174 2.92773 256.132 3.12906 255.71 3.06499C256.763 3.19314 256.532 2.81787 257.816 2.95516L257.343 3.11991C257.894 3.18169 258.453 3.09211 258.943 2.86366C259.704 2.75957 260.484 2.86185 261.176 3.15656C261.585 2.92219 262.08 2.82763 262.565 2.89109C262.65 2.98262 262.418 3.03754 262.292 3.06499C264.113 3.2389 265.008 2.76296 266.262 3.01924C266.276 3.05905 266.304 3.09423 266.341 3.1203C266.379 3.14638 266.424 3.16221 266.472 3.16572C265.019 3.16572 263.861 3.16572 263.966 3.16572C263.966 3.4037 265.135 3.44028 264.208 3.76979C265.404 3.4616 266.646 3.30742 267.894 3.31214C267.947 3.33417 267.996 3.36187 268.041 3.39454L267.925 3.39454C268.162 3.42756 268.404 3.42756 268.641 3.39454C269.01 3.39454 269.242 3.45857 269.589 3.46773C269.726 3.65994 270.926 3.5684 271.516 3.57756C271.516 3.32128 272.232 3.36707 271.516 3.1474C271.6 3.1474 271.4 3.1474 271.011 3.1474C270.93 3.14113 270.849 3.14113 270.768 3.1474L269.315 3.1474C269.822 2.97483 270.377 2.94288 270.905 3.05589C271.2 2.89114 271.527 2.71721 271.716 2.63483C272.516 2.9918 274.054 3.19314 274.264 3.41281C276.044 3.26636 278.476 3.31213 279.582 2.83617C280.088 2.7721 280.161 2.9735 280.351 3.04673C280.08 3.06038 279.812 3.09717 279.55 3.15656C280.603 3.03757 282.551 3.11081 282.794 2.77215C284.068 2.92775 282.078 3.08332 283.847 3.0284L283.605 3.12907C287.058 3.6691 289.217 2.2687 293.082 2.96433C292.818 2.91856 292.682 2.90025 292.629 2.84534C296.988 3.14738 301.611 2.55246 305.918 3.03757C306.636 3.11161 307.365 3.01349 308.024 2.75383L308.298 3.03757L309.572 2.71718C311.383 2.47921 312.731 3.39451 314.995 2.95517L314.7 2.76299C315.521 2.76299 317.301 2.65315 317.164 2.87282C317.245 2.8148 317.341 2.77521 317.444 2.75763C317.547 2.74005 317.653 2.74506 317.754 2.77215L317.754 2.91858L319.775 2.67143C321.344 2.77211 319.523 3.2481 321.818 3.27556C322.661 3.22064 324.23 2.85451 323.924 2.75383C323.619 2.65315 323.05 2.66229 323.019 2.51585L323.798 2.44261C323.945 2.02157 324.535 1.58222 322.629 1.28933L321.302 1.54564L320.87 1.33514L321.997 1.33514C321.503 1.20521 320.971 1.23777 320.502 1.42664C320.351 1.29864 320.154 1.22086 319.944 1.20698L318.638 1.60971C318.48 1.44496 319.228 1.28019 318.354 1.18866C317.743 1.37172 318.933 1.56396 317.922 1.68295C317.29 1.49074 317.48 1.33513 316.732 1.49988C316.627 1.39005 316.732 1.31682 317.08 1.27106C316.416 1.3992 315.321 1.32597 314.974 1.5548C314.31 1.31682 312.731 1.61887 312.794 1.21614C312.222 1.3987 311.622 1.50963 311.014 1.54563C312.131 1.06053 308.729 1.54566 309.024 0.99648C308.203 1.43582 306.044 1.18867 304.58 1.4358C304.693 1.37362 304.826 1.34471 304.96 1.3534C304.422 1.3127 303.89 1.23003 303.369 1.10631C303.254 1.46328 301.98 1.54562 301.263 1.7653C300.21 1.41748 301.874 1.34425 301.558 1.01475C301.558 1.29849 299.81 1.2985 300.147 1.54563C299.379 1.32596 299.484 1.4358 299.094 1.1429C298.957 1.5914 298.368 1.21613 297.736 1.49072C296.62 1.27105 297.441 1.06968 296.22 1.20698C295.609 1.17037 296.704 1.01475 296.704 1.01475ZM267.546 1.79278L268.146 1.79278L267.546 1.79278ZM265.093 1.79278L266.146 1.79278C266.23 1.88431 266.146 1.97584 265.893 1.96669C266.03 1.92092 265.461 1.82937 265.093 1.82937L265.093 1.79278ZM270.274 3.57756C269.884 3.57756 269.758 3.57761 269.705 3.51354L270.379 3.51354C270.347 3.53848 270.311 3.55994 270.274 3.57756Z" fill="#8ECF84"/>
<path d="M271.01 3.23851L271.179 3.23851L270.947 3.1836L270.81 3.25684L271.01 3.23851Z" fill="#8ECF84"/>
<path d="M231.249 1.29872L231.249 1.36279L231.47 1.30788L231.249 1.29872Z" fill="#8ECF84"/>
<path d="M35.3164 1.97559C35.3164 1.97559 35.2426 1.97564 35.1373 1.91156L35.3164 1.97559Z" fill="#8ECF84"/>
<path d="M29.4824 1.9209L28.661 1.82023C29.0191 1.82938 29.2823 1.90259 29.4824 1.9209Z" fill="#8ECF84"/>
<path d="M25.0068 1.82913C24.9645 1.85789 24.9316 1.89576 24.9115 1.93896L25.0068 1.82913Z" fill="#8ECF84"/>
<path d="M96.2854 1.49072L96.4539 1.49072C96.8646 1.42665 96.5803 1.44496 96.2854 1.49072Z" fill="#8ECF84"/>
<path d="M75.0666 2.08545C75.2983 2.08545 75.5193 1.99392 75.751 1.96646C75.3719 1.94815 75.0772 1.939 75.0666 2.08545Z" fill="#8ECF84"/>
<path d="M76.7412 1.9662C76.413 1.9249 76.0795 1.9249 75.7513 1.9662C76.0802 1.99824 76.4123 1.99824 76.7412 1.9662Z" fill="#8ECF84"/>
<path d="M5.33691 1.70128L5.09472 1.70128C5.17421 1.71871 5.25742 1.71871 5.33691 1.70128Z" fill="#8ECF84"/>
<path d="M4.60005 1.82959L5.10547 1.75635C4.93245 1.73995 4.7576 1.7653 4.60005 1.82959Z" fill="#8ECF84"/>
<path d="M11.5069 1.82959L11.5703 1.73808C11.5528 1.7485 11.538 1.76206 11.5271 1.77786C11.5161 1.79365 11.5093 1.81128 11.5069 1.82959Z" fill="#8ECF84"/>
<path d="M13.3086 1.76534C12.7571 1.67175 12.1963 1.62579 11.6344 1.62808L11.5711 1.70126C11.8554 1.55481 12.9085 1.92094 13.3086 1.76534Z" fill="#8ECF84"/>
<path d="M20.8369 2.91859L19.331 2.84535C19.5943 2.94603 19.9418 3.0742 19.2468 3.10166C21.1528 3.39455 18.8572 2.87283 20.8369 2.91859Z" fill="#8ECF84"/>
<path d="M25.5225 3.06521C24.7117 3.06521 25.5225 3.20253 25.5225 3.2666C26.0069 3.17507 26.1333 3.14758 25.5225 3.06521Z" fill="#8ECF84"/>
<path d="M59.3566 3.06463L59.2724 3.29346C59.9359 3.266 59.3566 3.20193 59.3566 3.06463Z" fill="#8ECF84"/>
<path d="M65.8535 1.84767L65.2428 1.70123L64.9585 1.9209L65.8535 1.84767Z" fill="#8ECF84"/>
<path d="M69.6864 3.51319L69.4021 3.5498L70.4551 3.46743L69.6864 3.51319Z" fill="#8ECF84"/>
<path d="M126.559 3.44015L126.369 3.14725C125.937 3.20217 125.853 3.52253 126.559 3.44015Z" fill="#8ECF84"/>
<path d="M151.104 3.14755C151.541 3.31954 152.033 3.35194 152.494 3.23906C152.033 3.18515 151.569 3.15461 151.104 3.14755Z" fill="#8ECF84"/>
<path d="M224.741 3.61404L224.246 3.70557L225.173 3.62319L224.741 3.61404Z" fill="#8ECF84"/>
</svg>
